solid OpenSCAD_Model
  facet normal -0 0 1
    outer loop
      vertex -0.00939693 0.0034202 2.39
      vertex 50.4059 -6.35899 2.39
      vertex -0.00882948 0.00469472 2.39
    endloop
  endfacet
  facet normal -0.125 -0.992157 0
    outer loop
      vertex -0.00104528 -0.00994522 2.39
      vertex 50.4005 -6.35995 0
      vertex 50.4005 -6.35995 2.39
    endloop
  endfacet
  facet normal -0 0 1
    outer loop
      vertex -0.005 0.00866025 2.39
      vertex 50.4059 -6.35899 2.39
      vertex -0.00374607 0.00927184 2.39
    endloop
  endfacet
  facet normal -0 0 -1
    outer loop
      vertex 57.2099 -0.00139173 0
      vertex 50.4059 -6.35899 0
      vertex 57.21 0 0
    endloop
  endfacet
  facet normal -0 1 0
    outer loop
      vertex 0.000348995 0.00999391 2.39
      vertex 57.2003 0.00999391 2.39
      vertex 0.000348995 0.00999391 0
    endloop
  endfacet
  facet normal -0.0285598 -0.999592 -0
    outer loop
      vertex 50.4019 -6.35999 2.39
      vertex 50.4005 -6.35995 0
      vertex 50.4019 -6.35999 0
    endloop
  endfacet
  facet normal -0.913546 0.406735 0
    outer loop
      vertex -0.00939693 0.0034202 0
      vertex -0.00939693 0.0034202 2.39
      vertex -0.00882948 0.00469472 0
    endloop
  endfacet
  facet normal 0.81585 0.578263 0
    outer loop
      vertex 57.2085 0.00529919 2.39
      vertex 57.2077 0.00642788 0
      vertex 57.2077 0.00642788 2.39
    endloop
  endfacet
  facet normal -0.990269 0.13917 0
    outer loop
      vertex -0.00997564 0.000697565 2.39
      vertex -0.00978148 0.00207912 2.39
      vertex -0.00997564 0.000697565 0
    endloop
  endfacet
  facet normal -0 0 1
    outer loop
      vertex -0.00374607 0.00927184 2.39
      vertex 50.4059 -6.35899 2.39
      vertex -0.00241922 0.00970296 2.39
    endloop
  endfacet
  facet normal -0.913546 0.406735 0
    outer loop
      vertex -0.00882948 0.00469472 0
      vertex -0.00939693 0.0034202 2.39
      vertex -0.00882948 0.00469472 2.39
    endloop
  endfacet
  facet normal 0.976678 0.214711 -0
    outer loop
      vertex 57.2099 0.00139173 0
      vertex 57.2096 0.00275637 0
      vertex 57.2099 0.00139173 2.39
    endloop
  endfacet
  facet normal 0.997429 0.0716682 0
    outer loop
      vertex 57.2099 0.00139173 0
      vertex 57.21 0 2.39
      vertex 57.21 0 0
    endloop
  endfacet
  facet normal -0.961261 0.275638 0
    outer loop
      vertex -0.00939693 0.0034202 0
      vertex -0.00978148 0.00207912 2.39
      vertex -0.00939693 0.0034202 2.39
    endloop
  endfacet
  facet normal -0.559191 0.829039 0
    outer loop
      vertex -0.00615661 0.00788011 0
      vertex -0.00615661 0.00788011 2.39
      vertex -0.005 0.00866025 0
    endloop
  endfacet
  facet normal -0.309017 0.951056 0
    outer loop
      vertex -0.00241922 0.00970296 2.39
      vertex -0.00241922 0.00970296 0
      vertex -0.00374607 0.00927184 2.39
    endloop
  endfacet
  facet normal 0.103604 0.994619 0
    outer loop
      vertex 57.2003 0.00999391 2.39
      vertex 57.2017 0.00984808 2.39
      vertex 57.2003 0.00999391 0
    endloop
  endfacet
  facet normal -0 0 -1
    outer loop
      vertex 50.4083 -6.35743 0
      vertex 50.4059 -6.35899 0
      vertex 57.2067 -0.00743145 0
    endloop
  endfacet
  facet normal -0.309017 -0.951056 0
    outer loop
      vertex -0.00374607 -0.00927184 2.39
      vertex -0.00241922 -0.00970296 0
      vertex -0.00241922 -0.00970296 2.39
    endloop
  endfacet
  facet normal -1 0 0
    outer loop
      vertex -0.00997564 -0.000697565 0
      vertex -0.00997564 0.000697565 2.39
      vertex -0.00997564 0.000697565 0
    endloop
  endfacet
  facet normal -0 -0 1
    outer loop
      vertex -0.005 -0.00866025 2.39
      vertex 50.4059 -6.35899 2.39
      vertex -0.00615661 -0.00788011 2.39
    endloop
  endfacet
  facet normal 0.708366 -0.705846 0
    outer loop
      vertex 57.2077 -0.00642788 0
      vertex 57.2077 -0.00642788 2.39
      vertex 57.2067 -0.00743145 0
    endloop
  endfacet
  facet normal 0 0 1
    outer loop
      vertex 57.2085 -0.00529919 2.39
      vertex 50.4059 -6.35899 2.39
      vertex 57.2077 -0.00642788 2.39
    endloop
  endfacet
  facet normal -0 0 1
    outer loop
      vertex -0.00104528 0.00994522 2.39
      vertex 50.4059 -6.35899 2.39
      vertex 0.000348995 0.00999391 2.39
    endloop
  endfacet
  facet normal -0.438375 -0.898792 -0
    outer loop
      vertex -0.00374607 -0.00927184 2.39
      vertex -0.005 -0.00866025 2.39
      vertex -0.00374607 -0.00927184 0
    endloop
  endfacet
  facet normal -0.0349001 0.999391 0
    outer loop
      vertex 0.000348995 0.00999391 0
      vertex -0.00104528 0.00994522 2.39
      vertex 0.000348995 0.00999391 2.39
    endloop
  endfacet
  facet normal 0 -0 1
    outer loop
      vertex 50.4005 -6.35995 2.39
      vertex 50.4059 -6.35899 2.39
      vertex -0.00104528 -0.00994522 2.39
    endloop
  endfacet
  facet normal 0 1 0
    outer loop
      vertex 0.000348995 0.00999391 0
      vertex 57.2003 0.00999391 2.39
      vertex 57.2003 0.00999391 0
    endloop
  endfacet
  facet normal 0.934352 0.356351 0
    outer loop
      vertex 57.2096 0.00275637 2.39
      vertex 57.2096 0.00275637 0
      vertex 57.2091 0.00406737 2.39
    endloop
  endfacet
  facet normal -0.173646 0.984808 0
    outer loop
      vertex -0.00104528 0.00994522 2.39
      vertex -0.00241922 0.00970296 0
      vertex -0.00241922 0.00970296 2.39
    endloop
  endfacet
  facet normal -0 -0 1
    outer loop
      vertex -0.00241922 -0.00970296 2.39
      vertex 50.4059 -6.35899 2.39
      vertex -0.00374607 -0.00927184 2.39
    endloop
  endfacet
  facet normal -0.669131 0.743145 0
    outer loop
      vertex -0.00615661 0.00788011 2.39
      vertex -0.0071934 0.00694658 0
      vertex -0.0071934 0.00694658 2.39
    endloop
  endfacet
  facet normal 0.934352 -0.356351 0
    outer loop
      vertex 57.2091 -0.00406737 0
      vertex 57.2096 -0.00275637 2.39
      vertex 57.2091 -0.00406737 2.39
    endloop
  endfacet
  facet normal 0.682595 -0.730796 0
    outer loop
      vertex 57.2067 -0.00743145 2.39
      vertex 50.4083 -6.35743 0
      vertex 57.2067 -0.00743145 0
    endloop
  endfacet
  facet normal 0.682595 -0.730796 0
    outer loop
      vertex 50.4083 -6.35743 2.39
      vertex 50.4083 -6.35743 0
      vertex 57.2067 -0.00743145 2.39
    endloop
  endfacet
  facet normal 0.235997 -0.971754 0
    outer loop
      vertex 50.4047 -6.35951 2.39
      vertex 50.4033 -6.35985 0
      vertex 50.4047 -6.35951 0
    endloop
  endfacet
  facet normal -0.766045 0.642787 0
    outer loop
      vertex -0.0071934 0.00694658 0
      vertex -0.00809017 0.00587785 2.39
      vertex -0.0071934 0.00694658 2.39
    endloop
  endfacet
  facet normal 0.934352 0.356351 0
    outer loop
      vertex 57.2091 0.00406737 2.39
      vertex 57.2096 0.00275637 0
      vertex 57.2091 0.00406737 0
    endloop
  endfacet
  facet normal -1 0 0
    outer loop
      vertex -0.00997564 -0.000697565 2.39
      vertex -0.00997564 0.000697565 2.39
      vertex -0.00997564 -0.000697565 0
    endloop
  endfacet
  facet normal 0 0 1
    outer loop
      vertex 57.2099 -0.00139173 2.39
      vertex 50.4059 -6.35899 2.39
      vertex 57.2096 -0.00275637 2.39
    endloop
  endfacet
  facet normal 0 -0 -1
    outer loop
      vertex -0.00882948 0.00469472 0
      vertex 50.4059 -6.35899 0
      vertex -0.00939693 0.0034202 0
    endloop
  endfacet
  facet normal -0 0 -1
    outer loop
      vertex 57.2067 -0.00743145 0
      vertex 50.4059 -6.35899 0
      vertex 57.2077 -0.00642788 0
    endloop
  endfacet
  facet normal 0 -0 -1
    outer loop
      vertex -0.00104528 0.00994522 0
      vertex 50.4059 -6.35899 0
      vertex -0.00241922 0.00970296 0
    endloop
  endfacet
  facet normal -0.990269 0.13917 0
    outer loop
      vertex -0.00997564 0.000697565 0
      vertex -0.00978148 0.00207912 2.39
      vertex -0.00978148 0.00207912 0
    endloop
  endfacet
  facet normal 0.976678 -0.214711 0
    outer loop
      vertex 57.2099 -0.00139173 2.39
      vertex 57.2096 -0.00275637 2.39
      vertex 57.2099 -0.00139173 0
    endloop
  endfacet
  facet normal 0.997429 0.0716682 0
    outer loop
      vertex 57.2099 0.00139173 2.39
      vertex 57.21 0 2.39
      vertex 57.2099 0.00139173 0
    endloop
  endfacet
  facet normal -0.125 -0.992157 0
    outer loop
      vertex -0.00104528 -0.00994522 0
      vertex 50.4005 -6.35995 0
      vertex -0.00104528 -0.00994522 2.39
    endloop
  endfacet
  facet normal -0.0285598 -0.999592 -0
    outer loop
      vertex 50.4005 -6.35995 2.39
      vertex 50.4005 -6.35995 0
      vertex 50.4019 -6.35999 2.39
    endloop
  endfacet
  facet normal 0 0 -1
    outer loop
      vertex -0.00104528 -0.00994522 0
      vertex 50.4059 -6.35899 0
      vertex 50.4005 -6.35995 0
    endloop
  endfacet
  facet normal -0.0349001 0.999391 0
    outer loop
      vertex -0.00104528 0.00994522 0
      vertex -0.00104528 0.00994522 2.39
      vertex 0.000348995 0.00999391 0
    endloop
  endfacet
  facet normal -0.438375 0.898792 0
    outer loop
      vertex -0.005 0.00866025 2.39
      vertex -0.00374607 0.00927184 0
      vertex -0.005 0.00866025 0
    endloop
  endfacet
  facet normal -0.438375 0.898792 0
    outer loop
      vertex -0.00374607 0.00927184 2.39
      vertex -0.00374607 0.00927184 0
      vertex -0.005 0.00866025 2.39
    endloop
  endfacet
  facet normal 0 -0 1
    outer loop
      vertex 50.4047 -6.35951 2.39
      vertex 50.4059 -6.35899 2.39
      vertex 50.4033 -6.35985 2.39
    endloop
  endfacet
  facet normal 0.397607 -0.917556 0
    outer loop
      vertex 50.4059 -6.35899 0
      vertex 50.4059 -6.35899 2.39
      vertex 50.4047 -6.35951 0
    endloop
  endfacet
  facet normal 0.0995037 -0.995037 0
    outer loop
      vertex 50.4019 -6.35999 2.39
      vertex 50.4033 -6.35985 0
      vertex 50.4033 -6.35985 2.39
    endloop
  endfacet
  facet normal 0 0 1
    outer loop
      vertex 57.2067 -0.00743145 2.39
      vertex 50.4059 -6.35899 2.39
      vertex 50.4083 -6.35743 2.39
    endloop
  endfacet
  facet normal -0 0 -1
    outer loop
      vertex 57.2077 -0.00642788 0
      vertex 50.4059 -6.35899 0
      vertex 57.2085 -0.00529919 0
    endloop
  endfacet
  facet normal 0.4741 -0.880471 0
    outer loop
      vertex 50.4072 -6.35829 2.39
      vertex 50.4059 -6.35899 2.39
      vertex 50.4072 -6.35829 0
    endloop
  endfacet
  facet normal 0.81585 -0.578263 0
    outer loop
      vertex 57.2085 -0.00529919 0
      vertex 57.2077 -0.00642788 2.39
      vertex 57.2077 -0.00642788 0
    endloop
  endfacet
  facet normal 0.235997 -0.971754 0
    outer loop
      vertex 50.4033 -6.35985 2.39
      vertex 50.4033 -6.35985 0
      vertex 50.4047 -6.35951 2.39
    endloop
  endfacet
  facet normal 0.934352 -0.356351 0
    outer loop
      vertex 57.2096 -0.00275637 0
      vertex 57.2096 -0.00275637 2.39
      vertex 57.2091 -0.00406737 0
    endloop
  endfacet
  facet normal -0 -0 1
    outer loop
      vertex -0.00978148 -0.00207912 2.39
      vertex 50.4059 -6.35899 2.39
      vertex -0.00997564 -0.000697565 2.39
    endloop
  endfacet
  facet normal -0 0 -1
    outer loop
      vertex 57.2003 0.00999391 0
      vertex 50.4059 -6.35899 0
      vertex 0.000348995 0.00999391 0
    endloop
  endfacet
  facet normal 0.899024 0.4379 0
    outer loop
      vertex 57.2091 0.00406737 2.39
      vertex 57.2091 0.00406737 0
      vertex 57.2085 0.00529919 2.39
    endloop
  endfacet
  facet normal 0.234364 0.972149 -0
    outer loop
      vertex 57.2017 0.00984808 0
      vertex 57.2017 0.00984808 2.39
      vertex 57.2031 0.00951057 0
    endloop
  endfacet
  facet normal -0 -0 1
    outer loop
      vertex -0.0071934 -0.00694658 2.39
      vertex 50.4059 -6.35899 2.39
      vertex -0.00809017 -0.00587785 2.39
    endloop
  endfacet
  facet normal -0.990269 -0.13917 0
    outer loop
      vertex -0.00997564 -0.000697565 0
      vertex -0.00978148 -0.00207912 0
      vertex -0.00997564 -0.000697565 2.39
    endloop
  endfacet
  facet normal -0.309017 -0.951056 0
    outer loop
      vertex -0.00374607 -0.00927184 0
      vertex -0.00241922 -0.00970296 0
      vertex -0.00374607 -0.00927184 2.39
    endloop
  endfacet
  facet normal -0.961261 0.275638 0
    outer loop
      vertex -0.00978148 0.00207912 0
      vertex -0.00978148 0.00207912 2.39
      vertex -0.00939693 0.0034202 0
    endloop
  endfacet
  facet normal -0.559191 -0.829039 0
    outer loop
      vertex -0.00615661 -0.00788011 0
      vertex -0.005 -0.00866025 2.39
      vertex -0.00615661 -0.00788011 2.39
    endloop
  endfacet
  facet normal -0 0 1
    outer loop
      vertex 0.000348995 0.00999391 2.39
      vertex 50.4059 -6.35899 2.39
      vertex 57.2003 0.00999391 2.39
    endloop
  endfacet
  facet normal 0.976678 -0.214711 0
    outer loop
      vertex 57.2099 -0.00139173 0
      vertex 57.2096 -0.00275637 2.39
      vertex 57.2096 -0.00275637 0
    endloop
  endfacet
  facet normal 0 0 -1
    outer loop
      vertex -0.00615661 -0.00788011 0
      vertex 50.4059 -6.35899 0
      vertex -0.005 -0.00866025 0
    endloop
  endfacet
  facet normal -0 0 -1
    outer loop
      vertex 57.2096 -0.00275637 0
      vertex 50.4059 -6.35899 0
      vertex 57.2099 -0.00139173 0
    endloop
  endfacet
  facet normal 0 0 1
    outer loop
      vertex 57.2044 0.00898794 2.39
      vertex 50.4059 -6.35899 2.39
      vertex 57.2056 0.00829038 2.39
    endloop
  endfacet
  facet normal -0.669131 -0.743145 0
    outer loop
      vertex -0.00615661 -0.00788011 0
      vertex -0.00615661 -0.00788011 2.39
      vertex -0.0071934 -0.00694658 0
    endloop
  endfacet
  facet normal 0 0 1
    outer loop
      vertex 57.21 0 2.39
      vertex 50.4059 -6.35899 2.39
      vertex 57.2099 -0.00139173 2.39
    endloop
  endfacet
  facet normal 0.502559 0.864543 0
    outer loop
      vertex 57.2056 0.00829038 2.39
      vertex 57.2056 0.00829038 0
      vertex 57.2044 0.00898794 2.39
    endloop
  endfacet
  facet normal 0.615922 -0.787807 0
    outer loop
      vertex 50.4072 -6.35829 2.39
      vertex 50.4072 -6.35829 0
      vertex 50.4083 -6.35743 2.39
    endloop
  endfacet
  facet normal 0 0 -1
    outer loop
      vertex -0.00809017 -0.00587785 0
      vertex 50.4059 -6.35899 0
      vertex -0.0071934 -0.00694658 0
    endloop
  endfacet
  facet normal 0 0 -1
    outer loop
      vertex 50.4005 -6.35995 0
      vertex 50.4059 -6.35899 0
      vertex 50.4019 -6.35999 0
    endloop
  endfacet
  facet normal 0 0 -1
    outer loop
      vertex -0.00997564 -0.000697565 0
      vertex 50.4059 -6.35899 0
      vertex -0.00978148 -0.00207912 0
    endloop
  endfacet
  facet normal 0.373008 0.927828 -0
    outer loop
      vertex 57.2031 0.00951057 0
      vertex 57.2031 0.00951057 2.39
      vertex 57.2044 0.00898794 0
    endloop
  endfacet
  facet normal 0 -0 1
    outer loop
      vertex 50.4019 -6.35999 2.39
      vertex 50.4059 -6.35899 2.39
      vertex 50.4005 -6.35995 2.39
    endloop
  endfacet
  facet normal -0.848045 -0.529924 0
    outer loop
      vertex -0.00882948 -0.00469472 2.39
      vertex -0.00809017 -0.00587785 0
      vertex -0.00809017 -0.00587785 2.39
    endloop
  endfacet
  facet normal -0.848045 -0.529924 0
    outer loop
      vertex -0.00882948 -0.00469472 0
      vertex -0.00809017 -0.00587785 0
      vertex -0.00882948 -0.00469472 2.39
    endloop
  endfacet
  facet normal -0 0 1
    outer loop
      vertex -0.0071934 0.00694658 2.39
      vertex 50.4059 -6.35899 2.39
      vertex -0.00615661 0.00788011 2.39
    endloop
  endfacet
  facet normal -0.559191 -0.829039 0
    outer loop
      vertex -0.005 -0.00866025 0
      vertex -0.005 -0.00866025 2.39
      vertex -0.00615661 -0.00788011 0
    endloop
  endfacet
  facet normal 0 0 -1
    outer loop
      vertex -0.00241922 -0.00970296 0
      vertex 50.4059 -6.35899 0
      vertex -0.00104528 -0.00994522 0
    endloop
  endfacet
  facet normal -0 0 -1
    outer loop
      vertex 57.2085 0.00529919 0
      vertex 50.4059 -6.35899 0
      vertex 57.2077 0.00642788 0
    endloop
  endfacet
  facet normal -0 0 1
    outer loop
      vertex -0.00997564 0.000697565 2.39
      vertex 50.4059 -6.35899 2.39
      vertex -0.00978148 0.00207912 2.39
    endloop
  endfacet
  facet normal 0 0 1
    outer loop
      vertex 57.2067 0.00743145 2.39
      vertex 50.4059 -6.35899 2.39
      vertex 57.2077 0.00642788 2.39
    endloop
  endfacet
  facet normal 0 0 -1
    outer loop
      vertex 50.4019 -6.35999 0
      vertex 50.4059 -6.35899 0
      vertex 50.4033 -6.35985 0
    endloop
  endfacet
  facet normal 0.103604 0.994619 0
    outer loop
      vertex 57.2003 0.00999391 0
      vertex 57.2017 0.00984808 2.39
      vertex 57.2017 0.00984808 0
    endloop
  endfacet
  facet normal -0.173646 0.984808 0
    outer loop
      vertex -0.00104528 0.00994522 0
      vertex -0.00241922 0.00970296 0
      vertex -0.00104528 0.00994522 2.39
    endloop
  endfacet
  facet normal 0.899024 0.4379 0
    outer loop
      vertex 57.2085 0.00529919 2.39
      vertex 57.2091 0.00406737 0
      vertex 57.2085 0.00529919 0
    endloop
  endfacet
  facet normal -0.309017 0.951056 0
    outer loop
      vertex -0.00374607 0.00927184 2.39
      vertex -0.00241922 0.00970296 0
      vertex -0.00374607 0.00927184 0
    endloop
  endfacet
  facet normal -0 0 -1
    outer loop
      vertex 57.2031 0.00951057 0
      vertex 50.4059 -6.35899 0
      vertex 57.2017 0.00984808 0
    endloop
  endfacet
  facet normal -0.766045 0.642787 0
    outer loop
      vertex -0.00809017 0.00587785 0
      vertex -0.00809017 0.00587785 2.39
      vertex -0.0071934 0.00694658 0
    endloop
  endfacet
  facet normal -0.559191 0.829039 0
    outer loop
      vertex -0.005 0.00866025 0
      vertex -0.00615661 0.00788011 2.39
      vertex -0.005 0.00866025 2.39
    endloop
  endfacet
  facet normal -0.669131 0.743145 0
    outer loop
      vertex -0.00615661 0.00788011 0
      vertex -0.0071934 0.00694658 0
      vertex -0.00615661 0.00788011 2.39
    endloop
  endfacet
  facet normal -0.990269 -0.13917 0
    outer loop
      vertex -0.00997564 -0.000697565 2.39
      vertex -0.00978148 -0.00207912 0
      vertex -0.00978148 -0.00207912 2.39
    endloop
  endfacet
  facet normal -0.848045 0.529924 0
    outer loop
      vertex -0.00882948 0.00469472 0
      vertex -0.00809017 0.00587785 2.39
      vertex -0.00809017 0.00587785 0
    endloop
  endfacet
  facet normal -0.848045 0.529924 0
    outer loop
      vertex -0.00882948 0.00469472 2.39
      vertex -0.00809017 0.00587785 2.39
      vertex -0.00882948 0.00469472 0
    endloop
  endfacet
  facet normal 0.502559 0.864543 0
    outer loop
      vertex 57.2044 0.00898794 2.39
      vertex 57.2056 0.00829038 0
      vertex 57.2044 0.00898794 0
    endloop
  endfacet
  facet normal 0.234364 0.972149 -0
    outer loop
      vertex 57.2031 0.00951057 0
      vertex 57.2017 0.00984808 2.39
      vertex 57.2031 0.00951057 2.39
    endloop
  endfacet
  facet normal 0.708366 -0.705846 0
    outer loop
      vertex 57.2067 -0.00743145 0
      vertex 57.2077 -0.00642788 2.39
      vertex 57.2067 -0.00743145 2.39
    endloop
  endfacet
  facet normal 0 0 1
    outer loop
      vertex 57.2085 0.00529919 2.39
      vertex 50.4059 -6.35899 2.39
      vertex 57.2091 0.00406737 2.39
    endloop
  endfacet
  facet normal -0.913546 -0.406735 -0
    outer loop
      vertex -0.00882948 -0.00469472 2.39
      vertex -0.00939693 -0.0034202 0
      vertex -0.00882948 -0.00469472 0
    endloop
  endfacet
  facet normal 0.615446 0.788179 0
    outer loop
      vertex 57.2067 0.00743145 2.39
      vertex 57.2056 0.00829038 0
      vertex 57.2056 0.00829038 2.39
    endloop
  endfacet
  facet normal -0 0 1
    outer loop
      vertex -0.00615661 0.00788011 2.39
      vertex 50.4059 -6.35899 2.39
      vertex -0.005 0.00866025 2.39
    endloop
  endfacet
  facet normal 0 0 -1
    outer loop
      vertex -0.00997564 0.000697565 0
      vertex 50.4059 -6.35899 0
      vertex -0.00997564 -0.000697565 0
    endloop
  endfacet
  facet normal 0.615922 -0.787807 0
    outer loop
      vertex 50.4083 -6.35743 2.39
      vertex 50.4072 -6.35829 0
      vertex 50.4083 -6.35743 0
    endloop
  endfacet
  facet normal 0 -0 -1
    outer loop
      vertex 0.000348995 0.00999391 0
      vertex 50.4059 -6.35899 0
      vertex -0.00104528 0.00994522 0
    endloop
  endfacet
  facet normal -0 0 -1
    outer loop
      vertex 57.2085 -0.00529919 0
      vertex 50.4059 -6.35899 0
      vertex 57.2091 -0.00406737 0
    endloop
  endfacet
  facet normal 0 0 1
    outer loop
      vertex 57.2056 0.00829038 2.39
      vertex 50.4059 -6.35899 2.39
      vertex 57.2067 0.00743145 2.39
    endloop
  endfacet
  facet normal 0.899024 -0.4379 0
    outer loop
      vertex 57.2091 -0.00406737 0
      vertex 57.2085 -0.00529919 2.39
      vertex 57.2085 -0.00529919 0
    endloop
  endfacet
  facet normal 0.899024 -0.4379 0
    outer loop
      vertex 57.2091 -0.00406737 2.39
      vertex 57.2085 -0.00529919 2.39
      vertex 57.2091 -0.00406737 0
    endloop
  endfacet
  facet normal 0 -0 -1
    outer loop
      vertex -0.0071934 0.00694658 0
      vertex 50.4059 -6.35899 0
      vertex -0.00809017 0.00587785 0
    endloop
  endfacet
  facet normal 0.615446 0.788179 -0
    outer loop
      vertex 57.2067 0.00743145 0
      vertex 57.2056 0.00829038 0
      vertex 57.2067 0.00743145 2.39
    endloop
  endfacet
  facet normal -0.913546 -0.406735 -0
    outer loop
      vertex -0.00939693 -0.0034202 2.39
      vertex -0.00939693 -0.0034202 0
      vertex -0.00882948 -0.00469472 2.39
    endloop
  endfacet
  facet normal 0 -0 -1
    outer loop
      vertex -0.00809017 0.00587785 0
      vertex 50.4059 -6.35899 0
      vertex -0.00882948 0.00469472 0
    endloop
  endfacet
  facet normal 0 0 1
    outer loop
      vertex 57.2099 0.00139173 2.39
      vertex 50.4059 -6.35899 2.39
      vertex 57.21 0 2.39
    endloop
  endfacet
  facet normal 0.997429 -0.0716682 0
    outer loop
      vertex 57.2099 -0.00139173 0
      vertex 57.21 0 2.39
      vertex 57.2099 -0.00139173 2.39
    endloop
  endfacet
  facet normal -0.173646 -0.984808 -0
    outer loop
      vertex -0.00104528 -0.00994522 2.39
      vertex -0.00241922 -0.00970296 0
      vertex -0.00104528 -0.00994522 0
    endloop
  endfacet
  facet normal -0.173646 -0.984808 -0
    outer loop
      vertex -0.00241922 -0.00970296 2.39
      vertex -0.00241922 -0.00970296 0
      vertex -0.00104528 -0.00994522 2.39
    endloop
  endfacet
  facet normal 0 0 1
    outer loop
      vertex 57.2091 0.00406737 2.39
      vertex 50.4059 -6.35899 2.39
      vertex 57.2096 0.00275637 2.39
    endloop
  endfacet
  facet normal 0.0995037 -0.995037 0
    outer loop
      vertex 50.4019 -6.35999 0
      vertex 50.4033 -6.35985 0
      vertex 50.4019 -6.35999 2.39
    endloop
  endfacet
  facet normal -0.766045 -0.642787 -0
    outer loop
      vertex -0.0071934 -0.00694658 2.39
      vertex -0.00809017 -0.00587785 0
      vertex -0.0071934 -0.00694658 0
    endloop
  endfacet
  facet normal -0.766045 -0.642787 -0
    outer loop
      vertex -0.00809017 -0.00587785 2.39
      vertex -0.00809017 -0.00587785 0
      vertex -0.0071934 -0.00694658 2.39
    endloop
  endfacet
  facet normal -0 0 -1
    outer loop
      vertex 57.2017 0.00984808 0
      vertex 50.4059 -6.35899 0
      vertex 57.2003 0.00999391 0
    endloop
  endfacet
  facet normal 0 0 1
    outer loop
      vertex 50.4083 -6.35743 2.39
      vertex 50.4059 -6.35899 2.39
      vertex 50.4072 -6.35829 2.39
    endloop
  endfacet
  facet normal 0 0 -1
    outer loop
      vertex -0.00374607 -0.00927184 0
      vertex 50.4059 -6.35899 0
      vertex -0.00241922 -0.00970296 0
    endloop
  endfacet
  facet normal 0.708366 0.705846 0
    outer loop
      vertex 57.2067 0.00743145 2.39
      vertex 57.2077 0.00642788 0
      vertex 57.2067 0.00743145 0
    endloop
  endfacet
  facet normal -0 0 -1
    outer loop
      vertex 50.4072 -6.35829 0
      vertex 50.4059 -6.35899 0
      vertex 50.4083 -6.35743 0
    endloop
  endfacet
  facet normal 0.4741 -0.880471 0
    outer loop
      vertex 50.4072 -6.35829 0
      vertex 50.4059 -6.35899 2.39
      vertex 50.4059 -6.35899 0
    endloop
  endfacet
  facet normal 0.81585 0.578263 -0
    outer loop
      vertex 57.2085 0.00529919 0
      vertex 57.2077 0.00642788 0
      vertex 57.2085 0.00529919 2.39
    endloop
  endfacet
  facet normal 0.708366 0.705846 0
    outer loop
      vertex 57.2077 0.00642788 2.39
      vertex 57.2077 0.00642788 0
      vertex 57.2067 0.00743145 2.39
    endloop
  endfacet
  facet normal 0 0 -1
    outer loop
      vertex -0.00978148 -0.00207912 0
      vertex 50.4059 -6.35899 0
      vertex -0.00939693 -0.0034202 0
    endloop
  endfacet
  facet normal -0 -0 1
    outer loop
      vertex -0.00104528 -0.00994522 2.39
      vertex 50.4059 -6.35899 2.39
      vertex -0.00241922 -0.00970296 2.39
    endloop
  endfacet
  facet normal 0 0 -1
    outer loop
      vertex -0.0071934 -0.00694658 0
      vertex 50.4059 -6.35899 0
      vertex -0.00615661 -0.00788011 0
    endloop
  endfacet
  facet normal -0 0 -1
    outer loop
      vertex 57.21 0 0
      vertex 50.4059 -6.35899 0
      vertex 57.2099 0.00139173 0
    endloop
  endfacet
  facet normal -0 0 1
    outer loop
      vertex -0.00241922 0.00970296 2.39
      vertex 50.4059 -6.35899 2.39
      vertex -0.00104528 0.00994522 2.39
    endloop
  endfacet
  facet normal -0.438375 -0.898792 0
    outer loop
      vertex -0.00374607 -0.00927184 0
      vertex -0.005 -0.00866025 2.39
      vertex -0.005 -0.00866025 0
    endloop
  endfacet
  facet normal -0 0 -1
    outer loop
      vertex 57.2099 0.00139173 0
      vertex 50.4059 -6.35899 0
      vertex 57.2096 0.00275637 0
    endloop
  endfacet
  facet normal -0 0 -1
    outer loop
      vertex 57.2091 -0.00406737 0
      vertex 50.4059 -6.35899 0
      vertex 57.2096 -0.00275637 0
    endloop
  endfacet
  facet normal 0 0 -1
    outer loop
      vertex 50.4033 -6.35985 0
      vertex 50.4059 -6.35899 0
      vertex 50.4047 -6.35951 0
    endloop
  endfacet
  facet normal 0 0 -1
    outer loop
      vertex -0.005 -0.00866025 0
      vertex 50.4059 -6.35899 0
      vertex -0.00374607 -0.00927184 0
    endloop
  endfacet
  facet normal 0.397607 -0.917556 0
    outer loop
      vertex 50.4047 -6.35951 0
      vertex 50.4059 -6.35899 2.39
      vertex 50.4047 -6.35951 2.39
    endloop
  endfacet
  facet normal -0.669131 -0.743145 0
    outer loop
      vertex -0.0071934 -0.00694658 0
      vertex -0.00615661 -0.00788011 2.39
      vertex -0.0071934 -0.00694658 2.39
    endloop
  endfacet
  facet normal 0.81585 -0.578263 0
    outer loop
      vertex 57.2085 -0.00529919 2.39
      vertex 57.2077 -0.00642788 2.39
      vertex 57.2085 -0.00529919 0
    endloop
  endfacet
  facet normal 0.997429 -0.0716682 0
    outer loop
      vertex 57.21 0 0
      vertex 57.21 0 2.39
      vertex 57.2099 -0.00139173 0
    endloop
  endfacet
  facet normal -0.961261 -0.275638 0
    outer loop
      vertex -0.00978148 -0.00207912 2.39
      vertex -0.00939693 -0.0034202 0
      vertex -0.00939693 -0.0034202 2.39
    endloop
  endfacet
  facet normal -0.961261 -0.275638 0
    outer loop
      vertex -0.00978148 -0.00207912 0
      vertex -0.00939693 -0.0034202 0
      vertex -0.00978148 -0.00207912 2.39
    endloop
  endfacet
  facet normal -0 -0 1
    outer loop
      vertex -0.00615661 -0.00788011 2.39
      vertex 50.4059 -6.35899 2.39
      vertex -0.0071934 -0.00694658 2.39
    endloop
  endfacet
  facet normal 0 0 1
    outer loop
      vertex 57.2096 -0.00275637 2.39
      vertex 50.4059 -6.35899 2.39
      vertex 57.2091 -0.00406737 2.39
    endloop
  endfacet
  facet normal -0 -0 1
    outer loop
      vertex -0.00939693 -0.0034202 2.39
      vertex 50.4059 -6.35899 2.39
      vertex -0.00978148 -0.00207912 2.39
    endloop
  endfacet
  facet normal 0 0 1
    outer loop
      vertex 57.2096 0.00275637 2.39
      vertex 50.4059 -6.35899 2.39
      vertex 57.2099 0.00139173 2.39
    endloop
  endfacet
  facet normal -0 -0 1
    outer loop
      vertex -0.00809017 -0.00587785 2.39
      vertex 50.4059 -6.35899 2.39
      vertex -0.00882948 -0.00469472 2.39
    endloop
  endfacet
  facet normal 0 0 1
    outer loop
      vertex 57.2031 0.00951057 2.39
      vertex 50.4059 -6.35899 2.39
      vertex 57.2044 0.00898794 2.39
    endloop
  endfacet
  facet normal 0.976678 0.214711 0
    outer loop
      vertex 57.2099 0.00139173 2.39
      vertex 57.2096 0.00275637 0
      vertex 57.2096 0.00275637 2.39
    endloop
  endfacet
  facet normal -0 0 -1
    outer loop
      vertex 57.2044 0.00898794 0
      vertex 50.4059 -6.35899 0
      vertex 57.2031 0.00951057 0
    endloop
  endfacet
  facet normal -0 -0 1
    outer loop
      vertex -0.00374607 -0.00927184 2.39
      vertex 50.4059 -6.35899 2.39
      vertex -0.005 -0.00866025 2.39
    endloop
  endfacet
  facet normal 0.373008 0.927828 -0
    outer loop
      vertex 57.2044 0.00898794 0
      vertex 57.2031 0.00951057 2.39
      vertex 57.2044 0.00898794 2.39
    endloop
  endfacet
  facet normal -0 0 -1
    outer loop
      vertex 57.2077 0.00642788 0
      vertex 50.4059 -6.35899 0
      vertex 57.2067 0.00743145 0
    endloop
  endfacet
  facet normal -0 0 1
    outer loop
      vertex -0.00978148 0.00207912 2.39
      vertex 50.4059 -6.35899 2.39
      vertex -0.00939693 0.0034202 2.39
    endloop
  endfacet
  facet normal 0 -0 -1
    outer loop
      vertex -0.00374607 0.00927184 0
      vertex 50.4059 -6.35899 0
      vertex -0.005 0.00866025 0
    endloop
  endfacet
  facet normal 0 -0 -1
    outer loop
      vertex -0.00241922 0.00970296 0
      vertex 50.4059 -6.35899 0
      vertex -0.00374607 0.00927184 0
    endloop
  endfacet
  facet normal 0 0 1
    outer loop
      vertex 57.2091 -0.00406737 2.39
      vertex 50.4059 -6.35899 2.39
      vertex 57.2085 -0.00529919 2.39
    endloop
  endfacet
  facet normal 0 0 1
    outer loop
      vertex 57.2077 0.00642788 2.39
      vertex 50.4059 -6.35899 2.39
      vertex 57.2085 0.00529919 2.39
    endloop
  endfacet
  facet normal 0 -0 1
    outer loop
      vertex 50.4033 -6.35985 2.39
      vertex 50.4059 -6.35899 2.39
      vertex 50.4019 -6.35999 2.39
    endloop
  endfacet
  facet normal 0 0 1
    outer loop
      vertex 57.2077 -0.00642788 2.39
      vertex 50.4059 -6.35899 2.39
      vertex 57.2067 -0.00743145 2.39
    endloop
  endfacet
  facet normal 0 -0 -1
    outer loop
      vertex -0.00978148 0.00207912 0
      vertex 50.4059 -6.35899 0
      vertex -0.00997564 0.000697565 0
    endloop
  endfacet
  facet normal 0 -0 -1
    outer loop
      vertex -0.00939693 0.0034202 0
      vertex 50.4059 -6.35899 0
      vertex -0.00978148 0.00207912 0
    endloop
  endfacet
  facet normal -0 0 -1
    outer loop
      vertex 57.2067 0.00743145 0
      vertex 50.4059 -6.35899 0
      vertex 57.2056 0.00829038 0
    endloop
  endfacet
  facet normal -0 0 -1
    outer loop
      vertex 57.2096 0.00275637 0
      vertex 50.4059 -6.35899 0
      vertex 57.2091 0.00406737 0
    endloop
  endfacet
  facet normal -0 0 -1
    outer loop
      vertex 57.2056 0.00829038 0
      vertex 50.4059 -6.35899 0
      vertex 57.2044 0.00898794 0
    endloop
  endfacet
  facet normal -0 0 -1
    outer loop
      vertex 57.2091 0.00406737 0
      vertex 50.4059 -6.35899 0
      vertex 57.2085 0.00529919 0
    endloop
  endfacet
  facet normal -0 0 1
    outer loop
      vertex -0.00997564 -0.000697565 2.39
      vertex 50.4059 -6.35899 2.39
      vertex -0.00997564 0.000697565 2.39
    endloop
  endfacet
  facet normal -0 -0 1
    outer loop
      vertex -0.00882948 -0.00469472 2.39
      vertex 50.4059 -6.35899 2.39
      vertex -0.00939693 -0.0034202 2.39
    endloop
  endfacet
  facet normal 0 0 -1
    outer loop
      vertex -0.00882948 -0.00469472 0
      vertex 50.4059 -6.35899 0
      vertex -0.00809017 -0.00587785 0
    endloop
  endfacet
  facet normal 0 0 -1
    outer loop
      vertex -0.00939693 -0.0034202 0
      vertex 50.4059 -6.35899 0
      vertex -0.00882948 -0.00469472 0
    endloop
  endfacet
  facet normal 0 0 1
    outer loop
      vertex 57.2003 0.00999391 2.39
      vertex 50.4059 -6.35899 2.39
      vertex 57.2017 0.00984808 2.39
    endloop
  endfacet
  facet normal 0 0 1
    outer loop
      vertex 57.2017 0.00984808 2.39
      vertex 50.4059 -6.35899 2.39
      vertex 57.2031 0.00951057 2.39
    endloop
  endfacet
  facet normal 0 -0 -1
    outer loop
      vertex -0.00615661 0.00788011 0
      vertex 50.4059 -6.35899 0
      vertex -0.0071934 0.00694658 0
    endloop
  endfacet
  facet normal 0 -0 -1
    outer loop
      vertex -0.005 0.00866025 0
      vertex 50.4059 -6.35899 0
      vertex -0.00615661 0.00788011 0
    endloop
  endfacet
  facet normal -0 0 1
    outer loop
      vertex -0.00809017 0.00587785 2.39
      vertex 50.4059 -6.35899 2.39
      vertex -0.0071934 0.00694658 2.39
    endloop
  endfacet
  facet normal -0 0 1
    outer loop
      vertex -0.00882948 0.00469472 2.39
      vertex 50.4059 -6.35899 2.39
      vertex -0.00809017 0.00587785 2.39
    endloop
  endfacet
endsolid OpenSCAD_Model
