solid OpenSCAD_Model
  facet normal 0.719328 0.694671 0
    outer loop
      vertex 13.4058 11.2488 6.35
      vertex 11.7098 13.005 0
      vertex 11.7098 13.005 6.35
    endloop
  endfacet
  facet normal 0.719328 0.694671 0
    outer loop
      vertex 11.7098 13.005 0
      vertex 13.4058 11.2488 6.35
      vertex 13.4058 11.2488 0
    endloop
  endfacet
  facet normal 0.978148 0.207908 0
    outer loop
      vertex 17.3297 2.43553 6.35
      vertex 16.8221 4.82365 0
      vertex 16.8221 4.82365 6.35
    endloop
  endfacet
  facet normal 0.978148 0.207908 0
    outer loop
      vertex 16.8221 4.82365 0
      vertex 17.3297 2.43553 6.35
      vertex 17.3297 2.43553 0
    endloop
  endfacet
  facet normal 0.997564 0.0697529 0
    outer loop
      vertex 17.5 0 6.35
      vertex 17.3297 2.43553 0
      vertex 17.3297 2.43553 6.35
    endloop
  endfacet
  facet normal 0.997564 0.0697529 0
    outer loop
      vertex 17.3297 2.43553 0
      vertex 17.5 0 6.35
      vertex 17.5 0 0
    endloop
  endfacet
  facet normal 0.939684 0.342044 0
    outer loop
      vertex 16.8221 4.82365 6.35
      vertex 15.987 7.11789 0
      vertex 15.987 7.11789 6.35
    endloop
  endfacet
  facet normal 0.939684 0.342044 0
    outer loop
      vertex 15.987 7.11789 0
      vertex 16.8221 4.82365 6.35
      vertex 16.8221 4.82365 0
    endloop
  endfacet
  facet normal 0.37461 0.927182 -0
    outer loop
      vertex 7.67149 15.7289 0
      vertex 5.4078 16.6435 6.35
      vertex 7.67149 15.7289 6.35
    endloop
  endfacet
  facet normal 0.37461 0.927182 0
    outer loop
      vertex 5.4078 16.6435 6.35
      vertex 7.67149 15.7289 0
      vertex 5.4078 16.6435 0
    endloop
  endfacet
  facet normal 0.615679 0.787997 -0
    outer loop
      vertex 11.7098 13.005 0
      vertex 9.78588 14.5082 6.35
      vertex 11.7098 13.005 6.35
    endloop
  endfacet
  facet normal 0.615679 0.787997 0
    outer loop
      vertex 9.78588 14.5082 6.35
      vertex 11.7098 13.005 0
      vertex 9.78588 14.5082 0
    endloop
  endfacet
  facet normal 0.241903 -0.9703 0
    outer loop
      vertex 3.03884 -17.2341 0
      vertex 5.4078 -16.6435 6.35
      vertex 3.03884 -17.2341 6.35
    endloop
  endfacet
  facet normal 0.241903 -0.9703 0
    outer loop
      vertex 5.4078 -16.6435 6.35
      vertex 3.03884 -17.2341 0
      vertex 5.4078 -16.6435 0
    endloop
  endfacet
  facet normal 0.809031 -0.587765 0
    outer loop
      vertex 13.4058 -11.2488 6.35
      vertex 14.8408 -9.27359 0
      vertex 14.8408 -9.27359 6.35
    endloop
  endfacet
  facet normal 0.809031 -0.587765 0
    outer loop
      vertex 14.8408 -9.27359 0
      vertex 13.4058 -11.2488 6.35
      vertex 13.4058 -11.2488 0
    endloop
  endfacet
  facet normal -0.0348969 0.999391 0
    outer loop
      vertex 0.610741 17.4893 0
      vertex -1.82925 17.4041 6.35
      vertex 0.610741 17.4893 6.35
    endloop
  endfacet
  facet normal -0.0348969 0.999391 0
    outer loop
      vertex -1.82925 17.4041 6.35
      vertex 0.610741 17.4893 0
      vertex -1.82925 17.4041 0
    endloop
  endfacet
  facet normal 0.978148 -0.207908 0
    outer loop
      vertex 16.8221 -4.82365 6.35
      vertex 17.3297 -2.43553 0
      vertex 17.3297 -2.43553 6.35
    endloop
  endfacet
  facet normal 0.978148 -0.207908 0
    outer loop
      vertex 17.3297 -2.43553 0
      vertex 16.8221 -4.82365 6.35
      vertex 16.8221 -4.82365 0
    endloop
  endfacet
  facet normal 0.997564 -0.0697529 0
    outer loop
      vertex 17.3297 -2.43553 6.35
      vertex 17.5 0 0
      vertex 17.5 0 6.35
    endloop
  endfacet
  facet normal 0.997564 -0.0697529 0
    outer loop
      vertex 17.5 0 0
      vertex 17.3297 -2.43553 6.35
      vertex 17.3297 -2.43553 0
    endloop
  endfacet
  facet normal 0.882949 0.46947 0
    outer loop
      vertex 15.987 7.11789 6.35
      vertex 14.8408 9.27359 0
      vertex 14.8408 9.27359 6.35
    endloop
  endfacet
  facet normal 0.882949 0.46947 0
    outer loop
      vertex 14.8408 9.27359 0
      vertex 15.987 7.11789 6.35
      vertex 15.987 7.11789 0
    endloop
  endfacet
  facet normal -0.766038 -0.642795 0
    outer loop
      vertex -12.5884 -12.1565 0
      vertex -14.1578 -10.2862 6.35
      vertex -14.1578 -10.2862 0
    endloop
  endfacet
  facet normal -0.766038 -0.642795 0
    outer loop
      vertex -14.1578 -10.2862 6.35
      vertex -12.5884 -12.1565 0
      vertex -12.5884 -12.1565 6.35
    endloop
  endfacet
  facet normal 0.499987 0.866033 -0
    outer loop
      vertex 9.78588 14.5082 0
      vertex 7.67149 15.7289 6.35
      vertex 9.78588 14.5082 6.35
    endloop
  endfacet
  facet normal 0.499987 0.866033 0
    outer loop
      vertex 7.67149 15.7289 6.35
      vertex 9.78588 14.5082 0
      vertex 7.67149 15.7289 0
    endloop
  endfacet
  facet normal 0.241903 0.9703 -0
    outer loop
      vertex 5.4078 16.6435 0
      vertex 3.03884 17.2341 6.35
      vertex 5.4078 16.6435 6.35
    endloop
  endfacet
  facet normal 0.241903 0.9703 0
    outer loop
      vertex 3.03884 17.2341 6.35
      vertex 5.4078 16.6435 0
      vertex 3.03884 17.2341 0
    endloop
  endfacet
  facet normal -0.559172 -0.829051 0
    outer loop
      vertex -10.7741 -13.7902 0
      vertex -8.75 -15.1554 6.35
      vertex -10.7741 -13.7902 6.35
    endloop
  endfacet
  facet normal -0.559172 -0.829051 -0
    outer loop
      vertex -8.75 -15.1554 6.35
      vertex -10.7741 -13.7902 0
      vertex -8.75 -15.1554 0
    endloop
  endfacet
  facet normal -0.990267 0.139178 0
    outer loop
      vertex -17.4574 1.22074 0
      vertex -17.1176 3.63845 6.35
      vertex -17.1176 3.63845 0
    endloop
  endfacet
  facet normal -0.990267 0.139178 0
    outer loop
      vertex -17.1176 3.63845 6.35
      vertex -17.4574 1.22074 0
      vertex -17.4574 1.22074 6.35
    endloop
  endfacet
  facet normal -0.669153 0.743125 0
    outer loop
      vertex -10.7741 13.7902 0
      vertex -12.5884 12.1565 6.35
      vertex -10.7741 13.7902 6.35
    endloop
  endfacet
  facet normal -0.669153 0.743125 0
    outer loop
      vertex -12.5884 12.1565 6.35
      vertex -10.7741 13.7902 0
      vertex -12.5884 12.1565 0
    endloop
  endfacet
  facet normal 0.37461 -0.927182 0
    outer loop
      vertex 5.4078 -16.6435 0
      vertex 7.67149 -15.7289 6.35
      vertex 5.4078 -16.6435 6.35
    endloop
  endfacet
  facet normal 0.37461 -0.927182 0
    outer loop
      vertex 7.67149 -15.7289 6.35
      vertex 5.4078 -16.6435 0
      vertex 7.67149 -15.7289 0
    endloop
  endfacet
  facet normal 0.499987 -0.866033 0
    outer loop
      vertex 7.67149 -15.7289 0
      vertex 9.78588 -14.5082 6.35
      vertex 7.67149 -15.7289 6.35
    endloop
  endfacet
  facet normal 0.499987 -0.866033 0
    outer loop
      vertex 9.78588 -14.5082 6.35
      vertex 7.67149 -15.7289 0
      vertex 9.78588 -14.5082 0
    endloop
  endfacet
  facet normal 0.809031 0.587765 0
    outer loop
      vertex 14.8408 9.27359 6.35
      vertex 13.4058 11.2488 0
      vertex 13.4058 11.2488 6.35
    endloop
  endfacet
  facet normal 0.809031 0.587765 0
    outer loop
      vertex 13.4058 11.2488 0
      vertex 14.8408 9.27359 6.35
      vertex 14.8408 9.27359 0
    endloop
  endfacet
  facet normal -0.913551 0.406724 0
    outer loop
      vertex -16.4446 5.98535 0
      vertex -15.4516 8.21575 6.35
      vertex -15.4516 8.21575 0
    endloop
  endfacet
  facet normal -0.913551 0.406724 0
    outer loop
      vertex -15.4516 8.21575 6.35
      vertex -16.4446 5.98535 0
      vertex -16.4446 5.98535 6.35
    endloop
  endfacet
  facet normal 0.939684 -0.342044 0
    outer loop
      vertex 15.987 -7.11789 6.35
      vertex 16.8221 -4.82365 0
      vertex 16.8221 -4.82365 6.35
    endloop
  endfacet
  facet normal 0.939684 -0.342044 0
    outer loop
      vertex 16.8221 -4.82365 0
      vertex 15.987 -7.11789 6.35
      vertex 15.987 -7.11789 0
    endloop
  endfacet
  facet normal -0.559172 0.829051 0
    outer loop
      vertex -8.75 15.1554 0
      vertex -10.7741 13.7902 6.35
      vertex -8.75 15.1554 6.35
    endloop
  endfacet
  facet normal -0.559172 0.829051 0
    outer loop
      vertex -10.7741 13.7902 6.35
      vertex -8.75 15.1554 0
      vertex -10.7741 13.7902 0
    endloop
  endfacet
  facet normal -0.848041 0.529931 0
    outer loop
      vertex -15.4516 8.21575 0
      vertex -14.1578 10.2862 6.35
      vertex -14.1578 10.2862 0
    endloop
  endfacet
  facet normal -0.848041 0.529931 0
    outer loop
      vertex -14.1578 10.2862 6.35
      vertex -15.4516 8.21575 0
      vertex -15.4516 8.21575 6.35
    endloop
  endfacet
  facet normal 0.882949 -0.46947 0
    outer loop
      vertex 14.8408 -9.27359 6.35
      vertex 15.987 -7.11789 0
      vertex 15.987 -7.11789 6.35
    endloop
  endfacet
  facet normal 0.882949 -0.46947 0
    outer loop
      vertex 15.987 -7.11789 0
      vertex 14.8408 -9.27359 6.35
      vertex 14.8408 -9.27359 0
    endloop
  endfacet
  facet normal 0 0 -1
    outer loop
      vertex 15 0 0
      vertex 17.5 0 0
      vertex 17.3297 -2.43553 0
    endloop
  endfacet
  facet normal 0 0 -1
    outer loop
      vertex 14.854 -2.0876 0
      vertex 17.3297 -2.43553 0
      vertex 16.8221 -4.82365 0
    endloop
  endfacet
  facet normal 0 0 -1
    outer loop
      vertex 17.5 0 0
      vertex 15 0 0
      vertex 17.3297 2.43553 0
    endloop
  endfacet
  facet normal 0 0 -1
    outer loop
      vertex 14.4189 -4.13456 0
      vertex 16.8221 -4.82365 0
      vertex 15.987 -7.11789 0
    endloop
  endfacet
  facet normal 0 0 -1
    outer loop
      vertex 14.854 2.0876 0
      vertex 17.3297 2.43553 0
      vertex 15 0 0
    endloop
  endfacet
  facet normal -0 0 -1
    outer loop
      vertex 17.3297 2.43553 0
      vertex 14.854 2.0876 0
      vertex 16.8221 4.82365 0
    endloop
  endfacet
  facet normal 0 0 -1
    outer loop
      vertex 17.3297 -2.43553 0
      vertex 14.854 -2.0876 0
      vertex 15 0 0
    endloop
  endfacet
  facet normal 0 0 -1
    outer loop
      vertex 13.7032 -6.10105 0
      vertex 15.987 -7.11789 0
      vertex 14.8408 -9.27359 0
    endloop
  endfacet
  facet normal 0 0 -1
    outer loop
      vertex 16.8221 -4.82365 0
      vertex 14.4189 -4.13456 0
      vertex 14.854 -2.0876 0
    endloop
  endfacet
  facet normal 0 0 -1
    outer loop
      vertex 15.987 -7.11789 0
      vertex 13.7032 -6.10105 0
      vertex 14.4189 -4.13456 0
    endloop
  endfacet
  facet normal 0 0 -1
    outer loop
      vertex 12.7207 -7.94879 0
      vertex 14.8408 -9.27359 0
      vertex 13.4058 -11.2488 0
    endloop
  endfacet
  facet normal 0 0 -1
    outer loop
      vertex 14.8408 -9.27359 0
      vertex 12.7207 -7.94879 0
      vertex 13.7032 -6.10105 0
    endloop
  endfacet
  facet normal 0 0 -1
    outer loop
      vertex 11.4907 -9.64181 0
      vertex 13.4058 -11.2488 0
      vertex 11.7098 -13.005 0
    endloop
  endfacet
  facet normal 0 0 -1
    outer loop
      vertex 13.4058 -11.2488 0
      vertex 11.4907 -9.64181 0
      vertex 12.7207 -7.94879 0
    endloop
  endfacet
  facet normal 0 0 -1
    outer loop
      vertex 11.7098 -13.005 0
      vertex 10.037 -11.1472 0
      vertex 11.4907 -9.64181 0
    endloop
  endfacet
  facet normal 0 0 -1
    outer loop
      vertex 9.78588 -14.5082 0
      vertex 10.037 -11.1472 0
      vertex 11.7098 -13.005 0
    endloop
  endfacet
  facet normal 0 0 -1
    outer loop
      vertex 9.78588 -14.5082 0
      vertex 8.38789 -12.4356 0
      vertex 10.037 -11.1472 0
    endloop
  endfacet
  facet normal 0 0 -1
    outer loop
      vertex 7.67149 -15.7289 0
      vertex 8.38789 -12.4356 0
      vertex 9.78588 -14.5082 0
    endloop
  endfacet
  facet normal 0 0 -1
    outer loop
      vertex 7.67149 -15.7289 0
      vertex 6.57557 -13.4819 0
      vertex 8.38789 -12.4356 0
    endloop
  endfacet
  facet normal 0 0 -1
    outer loop
      vertex 5.4078 -16.6435 0
      vertex 6.57557 -13.4819 0
      vertex 7.67149 -15.7289 0
    endloop
  endfacet
  facet normal 0 0 -1
    outer loop
      vertex 5.4078 -16.6435 0
      vertex 4.63525 -14.2658 0
      vertex 6.57557 -13.4819 0
    endloop
  endfacet
  facet normal 0 0 -1
    outer loop
      vertex 3.03884 -17.2341 0
      vertex 4.63525 -14.2658 0
      vertex 5.4078 -16.6435 0
    endloop
  endfacet
  facet normal 0 0 -1
    outer loop
      vertex 3.03884 -17.2341 0
      vertex 2.60472 -14.7721 0
      vertex 4.63525 -14.2658 0
    endloop
  endfacet
  facet normal 0 0 -1
    outer loop
      vertex 0.610741 -17.4893 0
      vertex 2.60472 -14.7721 0
      vertex 3.03884 -17.2341 0
    endloop
  endfacet
  facet normal 0 0 -1
    outer loop
      vertex 0.610741 -17.4893 0
      vertex 0.523492 -14.9909 0
      vertex 2.60472 -14.7721 0
    endloop
  endfacet
  facet normal 0 0 -1
    outer loop
      vertex 0.610741 -17.4893 0
      vertex -1.56793 -14.9178 0
      vertex 0.523492 -14.9909 0
    endloop
  endfacet
  facet normal 0 0 -1
    outer loop
      vertex -1.82925 -17.4041 0
      vertex -1.56793 -14.9178 0
      vertex 0.610741 -17.4893 0
    endloop
  endfacet
  facet normal 0 0 -1
    outer loop
      vertex -1.82925 -17.4041 0
      vertex -3.62883 -14.5544 0
      vertex -1.56793 -14.9178 0
    endloop
  endfacet
  facet normal 0 0 -1
    outer loop
      vertex -4.23363 -16.9802 0
      vertex -3.62883 -14.5544 0
      vertex -1.82925 -17.4041 0
    endloop
  endfacet
  facet normal 0 0 -1
    outer loop
      vertex -4.23363 -16.9802 0
      vertex -5.6191 -13.9078 0
      vertex -3.62883 -14.5544 0
    endloop
  endfacet
  facet normal 0 0 -1
    outer loop
      vertex -6.55561 -16.2257 0
      vertex -5.6191 -13.9078 0
      vertex -4.23363 -16.9802 0
    endloop
  endfacet
  facet normal 0 0 -1
    outer loop
      vertex -6.55561 -16.2257 0
      vertex -7.5 -12.9904 0
      vertex -5.6191 -13.9078 0
    endloop
  endfacet
  facet normal 0 0 -1
    outer loop
      vertex -8.75 -15.1554 0
      vertex -7.5 -12.9904 0
      vertex -6.55561 -16.2257 0
    endloop
  endfacet
  facet normal 0 0 -1
    outer loop
      vertex -8.75 -15.1554 0
      vertex -9.23492 -11.8202 0
      vertex -7.5 -12.9904 0
    endloop
  endfacet
  facet normal 0 0 -1
    outer loop
      vertex -10.7741 -13.7902 0
      vertex -9.23492 -11.8202 0
      vertex -8.75 -15.1554 0
    endloop
  endfacet
  facet normal 0 0 -1
    outer loop
      vertex -10.7741 -13.7902 0
      vertex -10.7901 -10.4199 0
      vertex -9.23492 -11.8202 0
    endloop
  endfacet
  facet normal 0 0 -1
    outer loop
      vertex -12.5884 -12.1565 0
      vertex -10.7901 -10.4199 0
      vertex -10.7741 -13.7902 0
    endloop
  endfacet
  facet normal -0 0 -1
    outer loop
      vertex -10.7901 -10.4199 0
      vertex -12.5884 -12.1565 0
      vertex -12.1353 -8.81678 0
    endloop
  endfacet
  facet normal 0 0 -1
    outer loop
      vertex -14.1578 -10.2862 0
      vertex -12.1353 -8.81678 0
      vertex -12.5884 -12.1565 0
    endloop
  endfacet
  facet normal -0 0 -1
    outer loop
      vertex -12.1353 -8.81678 0
      vertex -14.1578 -10.2862 0
      vertex -13.2442 -7.04207 0
    endloop
  endfacet
  facet normal 0 0 -1
    outer loop
      vertex -15.4516 -8.21575 0
      vertex -13.2442 -7.04207 0
      vertex -14.1578 -10.2862 0
    endloop
  endfacet
  facet normal -0 0 -1
    outer loop
      vertex -13.2442 -7.04207 0
      vertex -15.4516 -8.21575 0
      vertex -14.0954 -5.1303 0
    endloop
  endfacet
  facet normal 0 0 -1
    outer loop
      vertex -16.4446 -5.98535 0
      vertex -14.0954 -5.1303 0
      vertex -15.4516 -8.21575 0
    endloop
  endfacet
  facet normal 0 0 -1
    outer loop
      vertex -17.1176 -3.63845 0
      vertex -14.6722 -3.11868 0
      vertex -16.4446 -5.98535 0
    endloop
  endfacet
  facet normal -0 0 -1
    outer loop
      vertex -14.0954 -5.1303 0
      vertex -16.4446 -5.98535 0
      vertex -14.6722 -3.11868 0
    endloop
  endfacet
  facet normal 0 0 -1
    outer loop
      vertex 14.4189 4.13456 0
      vertex 16.8221 4.82365 0
      vertex 14.854 2.0876 0
    endloop
  endfacet
  facet normal -0 0 -1
    outer loop
      vertex 16.8221 4.82365 0
      vertex 14.4189 4.13456 0
      vertex 15.987 7.11789 0
    endloop
  endfacet
  facet normal 0 0 -1
    outer loop
      vertex 13.7032 6.10105 0
      vertex 15.987 7.11789 0
      vertex 14.4189 4.13456 0
    endloop
  endfacet
  facet normal -0 0 -1
    outer loop
      vertex 15.987 7.11789 0
      vertex 13.7032 6.10105 0
      vertex 14.8408 9.27359 0
    endloop
  endfacet
  facet normal 0 0 -1
    outer loop
      vertex 12.7207 7.94879 0
      vertex 14.8408 9.27359 0
      vertex 13.7032 6.10105 0
    endloop
  endfacet
  facet normal -0 0 -1
    outer loop
      vertex 14.8408 9.27359 0
      vertex 12.7207 7.94879 0
      vertex 13.4058 11.2488 0
    endloop
  endfacet
  facet normal 0 0 -1
    outer loop
      vertex 11.4907 9.64181 0
      vertex 13.4058 11.2488 0
      vertex 12.7207 7.94879 0
    endloop
  endfacet
  facet normal -0 0 -1
    outer loop
      vertex 13.4058 11.2488 0
      vertex 11.4907 9.64181 0
      vertex 11.7098 13.005 0
    endloop
  endfacet
  facet normal 0 0 -1
    outer loop
      vertex 10.037 11.1472 0
      vertex 11.7098 13.005 0
      vertex 11.4907 9.64181 0
    endloop
  endfacet
  facet normal 0 0 -1
    outer loop
      vertex 10.037 11.1472 0
      vertex 9.78588 14.5082 0
      vertex 11.7098 13.005 0
    endloop
  endfacet
  facet normal 0 0 -1
    outer loop
      vertex 8.38789 12.4356 0
      vertex 9.78588 14.5082 0
      vertex 10.037 11.1472 0
    endloop
  endfacet
  facet normal 0 0 -1
    outer loop
      vertex 8.38789 12.4356 0
      vertex 7.67149 15.7289 0
      vertex 9.78588 14.5082 0
    endloop
  endfacet
  facet normal 0 0 -1
    outer loop
      vertex 6.57557 13.4819 0
      vertex 7.67149 15.7289 0
      vertex 8.38789 12.4356 0
    endloop
  endfacet
  facet normal 0 0 -1
    outer loop
      vertex 6.57557 13.4819 0
      vertex 5.4078 16.6435 0
      vertex 7.67149 15.7289 0
    endloop
  endfacet
  facet normal 0 0 -1
    outer loop
      vertex 4.63525 14.2658 0
      vertex 5.4078 16.6435 0
      vertex 6.57557 13.4819 0
    endloop
  endfacet
  facet normal 0 0 -1
    outer loop
      vertex 4.63525 14.2658 0
      vertex 3.03884 17.2341 0
      vertex 5.4078 16.6435 0
    endloop
  endfacet
  facet normal 0 0 -1
    outer loop
      vertex 2.60472 14.7721 0
      vertex 3.03884 17.2341 0
      vertex 4.63525 14.2658 0
    endloop
  endfacet
  facet normal 0 0 -1
    outer loop
      vertex 2.60472 14.7721 0
      vertex 0.610741 17.4893 0
      vertex 3.03884 17.2341 0
    endloop
  endfacet
  facet normal 0 0 -1
    outer loop
      vertex 0.523492 14.9909 0
      vertex 0.610741 17.4893 0
      vertex 2.60472 14.7721 0
    endloop
  endfacet
  facet normal 0 0 -1
    outer loop
      vertex -1.56793 14.9178 0
      vertex 0.610741 17.4893 0
      vertex 0.523492 14.9909 0
    endloop
  endfacet
  facet normal 0 0 -1
    outer loop
      vertex -1.56793 14.9178 0
      vertex -1.82925 17.4041 0
      vertex 0.610741 17.4893 0
    endloop
  endfacet
  facet normal 0 0 -1
    outer loop
      vertex -3.62883 14.5544 0
      vertex -1.82925 17.4041 0
      vertex -1.56793 14.9178 0
    endloop
  endfacet
  facet normal 0 0 -1
    outer loop
      vertex -3.62883 14.5544 0
      vertex -4.23363 16.9802 0
      vertex -1.82925 17.4041 0
    endloop
  endfacet
  facet normal 0 0 -1
    outer loop
      vertex -5.6191 13.9078 0
      vertex -4.23363 16.9802 0
      vertex -3.62883 14.5544 0
    endloop
  endfacet
  facet normal 0 0 -1
    outer loop
      vertex -5.6191 13.9078 0
      vertex -6.55561 16.2257 0
      vertex -4.23363 16.9802 0
    endloop
  endfacet
  facet normal 0 0 -1
    outer loop
      vertex -7.5 12.9904 0
      vertex -6.55561 16.2257 0
      vertex -5.6191 13.9078 0
    endloop
  endfacet
  facet normal 0 0 -1
    outer loop
      vertex -7.5 12.9904 0
      vertex -8.75 15.1554 0
      vertex -6.55561 16.2257 0
    endloop
  endfacet
  facet normal 0 0 -1
    outer loop
      vertex -9.23492 11.8202 0
      vertex -8.75 15.1554 0
      vertex -7.5 12.9904 0
    endloop
  endfacet
  facet normal 0 0 -1
    outer loop
      vertex -9.23492 11.8202 0
      vertex -10.7741 13.7902 0
      vertex -8.75 15.1554 0
    endloop
  endfacet
  facet normal 0 0 -1
    outer loop
      vertex -10.7901 10.4199 0
      vertex -10.7741 13.7902 0
      vertex -9.23492 11.8202 0
    endloop
  endfacet
  facet normal 0 0 -1
    outer loop
      vertex -12.5884 12.1565 0
      vertex -10.7901 10.4199 0
      vertex -12.1353 8.81678 0
    endloop
  endfacet
  facet normal 0 0 -1
    outer loop
      vertex -10.7901 10.4199 0
      vertex -12.5884 12.1565 0
      vertex -10.7741 13.7902 0
    endloop
  endfacet
  facet normal 0 0 -1
    outer loop
      vertex -14.1578 10.2862 0
      vertex -12.1353 8.81678 0
      vertex -13.2442 7.04207 0
    endloop
  endfacet
  facet normal 0 0 -1
    outer loop
      vertex -15.4516 8.21575 0
      vertex -13.2442 7.04207 0
      vertex -14.0954 5.1303 0
    endloop
  endfacet
  facet normal 0 0 -1
    outer loop
      vertex -12.1353 8.81678 0
      vertex -14.1578 10.2862 0
      vertex -12.5884 12.1565 0
    endloop
  endfacet
  facet normal 0 0 -1
    outer loop
      vertex -16.4446 5.98535 0
      vertex -14.0954 5.1303 0
      vertex -14.6722 3.11868 0
    endloop
  endfacet
  facet normal 0 0 -1
    outer loop
      vertex -17.1176 3.63845 0
      vertex -14.6722 3.11868 0
      vertex -14.9635 1.04635 0
    endloop
  endfacet
  facet normal 0 0 -1
    outer loop
      vertex -13.2442 7.04207 0
      vertex -15.4516 8.21575 0
      vertex -14.1578 10.2862 0
    endloop
  endfacet
  facet normal -0 0 -1
    outer loop
      vertex -14.6722 -3.11868 0
      vertex -17.1176 -3.63845 0
      vertex -14.9635 -1.04635 0
    endloop
  endfacet
  facet normal 0 0 -1
    outer loop
      vertex -17.4574 -1.22074 0
      vertex -14.9635 -1.04635 0
      vertex -17.1176 -3.63845 0
    endloop
  endfacet
  facet normal 0 0 -1
    outer loop
      vertex -14.0954 5.1303 0
      vertex -16.4446 5.98535 0
      vertex -15.4516 8.21575 0
    endloop
  endfacet
  facet normal -0 0 -1
    outer loop
      vertex -14.9635 -1.04635 0
      vertex -17.4574 -1.22074 0
      vertex -14.9635 1.04635 0
    endloop
  endfacet
  facet normal 0 0 -1
    outer loop
      vertex -14.6722 3.11868 0
      vertex -17.1176 3.63845 0
      vertex -16.4446 5.98535 0
    endloop
  endfacet
  facet normal 0 0 -1
    outer loop
      vertex -17.4574 1.22074 0
      vertex -14.9635 1.04635 0
      vertex -17.4574 -1.22074 0
    endloop
  endfacet
  facet normal 0 0 -1
    outer loop
      vertex -14.9635 1.04635 0
      vertex -17.4574 1.22074 0
      vertex -17.1176 3.63845 0
    endloop
  endfacet
  facet normal 0 0 1
    outer loop
      vertex 15 0 6.35
      vertex 17.5 0 6.35
      vertex 17.3297 2.43553 6.35
    endloop
  endfacet
  facet normal 0 0 1
    outer loop
      vertex 14.854 2.0876 6.35
      vertex 17.3297 2.43553 6.35
      vertex 16.8221 4.82365 6.35
    endloop
  endfacet
  facet normal 0 0 1
    outer loop
      vertex 17.5 0 6.35
      vertex 15 0 6.35
      vertex 17.3297 -2.43553 6.35
    endloop
  endfacet
  facet normal 0 0 1
    outer loop
      vertex 14.4189 4.13456 6.35
      vertex 16.8221 4.82365 6.35
      vertex 15.987 7.11789 6.35
    endloop
  endfacet
  facet normal -0 0 1
    outer loop
      vertex 14.854 -2.0876 6.35
      vertex 17.3297 -2.43553 6.35
      vertex 15 0 6.35
    endloop
  endfacet
  facet normal 0 0 1
    outer loop
      vertex 17.3297 -2.43553 6.35
      vertex 14.854 -2.0876 6.35
      vertex 16.8221 -4.82365 6.35
    endloop
  endfacet
  facet normal 0 0 1
    outer loop
      vertex 17.3297 2.43553 6.35
      vertex 14.854 2.0876 6.35
      vertex 15 0 6.35
    endloop
  endfacet
  facet normal 0 0 1
    outer loop
      vertex 13.7032 6.10105 6.35
      vertex 15.987 7.11789 6.35
      vertex 14.8408 9.27359 6.35
    endloop
  endfacet
  facet normal 0 0 1
    outer loop
      vertex 16.8221 4.82365 6.35
      vertex 14.4189 4.13456 6.35
      vertex 14.854 2.0876 6.35
    endloop
  endfacet
  facet normal 0 0 1
    outer loop
      vertex 15.987 7.11789 6.35
      vertex 13.7032 6.10105 6.35
      vertex 14.4189 4.13456 6.35
    endloop
  endfacet
  facet normal 0 0 1
    outer loop
      vertex 12.7207 7.94879 6.35
      vertex 14.8408 9.27359 6.35
      vertex 13.4058 11.2488 6.35
    endloop
  endfacet
  facet normal 0 0 1
    outer loop
      vertex 14.8408 9.27359 6.35
      vertex 12.7207 7.94879 6.35
      vertex 13.7032 6.10105 6.35
    endloop
  endfacet
  facet normal 0 0 1
    outer loop
      vertex 11.4907 9.64181 6.35
      vertex 13.4058 11.2488 6.35
      vertex 11.7098 13.005 6.35
    endloop
  endfacet
  facet normal 0 0 1
    outer loop
      vertex 13.4058 11.2488 6.35
      vertex 11.4907 9.64181 6.35
      vertex 12.7207 7.94879 6.35
    endloop
  endfacet
  facet normal 0 0 1
    outer loop
      vertex 11.7098 13.005 6.35
      vertex 10.037 11.1472 6.35
      vertex 11.4907 9.64181 6.35
    endloop
  endfacet
  facet normal 0 0 1
    outer loop
      vertex 9.78588 14.5082 6.35
      vertex 10.037 11.1472 6.35
      vertex 11.7098 13.005 6.35
    endloop
  endfacet
  facet normal 0 0 1
    outer loop
      vertex 9.78588 14.5082 6.35
      vertex 8.38789 12.4356 6.35
      vertex 10.037 11.1472 6.35
    endloop
  endfacet
  facet normal 0 0 1
    outer loop
      vertex 7.67149 15.7289 6.35
      vertex 8.38789 12.4356 6.35
      vertex 9.78588 14.5082 6.35
    endloop
  endfacet
  facet normal 0 0 1
    outer loop
      vertex 7.67149 15.7289 6.35
      vertex 6.57557 13.4819 6.35
      vertex 8.38789 12.4356 6.35
    endloop
  endfacet
  facet normal 0 0 1
    outer loop
      vertex 5.4078 16.6435 6.35
      vertex 6.57557 13.4819 6.35
      vertex 7.67149 15.7289 6.35
    endloop
  endfacet
  facet normal 0 0 1
    outer loop
      vertex 5.4078 16.6435 6.35
      vertex 4.63525 14.2658 6.35
      vertex 6.57557 13.4819 6.35
    endloop
  endfacet
  facet normal 0 0 1
    outer loop
      vertex 3.03884 17.2341 6.35
      vertex 4.63525 14.2658 6.35
      vertex 5.4078 16.6435 6.35
    endloop
  endfacet
  facet normal 0 0 1
    outer loop
      vertex 3.03884 17.2341 6.35
      vertex 2.60472 14.7721 6.35
      vertex 4.63525 14.2658 6.35
    endloop
  endfacet
  facet normal 0 0 1
    outer loop
      vertex 0.610741 17.4893 6.35
      vertex 2.60472 14.7721 6.35
      vertex 3.03884 17.2341 6.35
    endloop
  endfacet
  facet normal 0 0 1
    outer loop
      vertex 0.610741 17.4893 6.35
      vertex 0.523492 14.9909 6.35
      vertex 2.60472 14.7721 6.35
    endloop
  endfacet
  facet normal 0 0 1
    outer loop
      vertex 0.610741 17.4893 6.35
      vertex -1.56793 14.9178 6.35
      vertex 0.523492 14.9909 6.35
    endloop
  endfacet
  facet normal -0 0 1
    outer loop
      vertex -1.82925 17.4041 6.35
      vertex -1.56793 14.9178 6.35
      vertex 0.610741 17.4893 6.35
    endloop
  endfacet
  facet normal 0 0 1
    outer loop
      vertex -1.82925 17.4041 6.35
      vertex -3.62883 14.5544 6.35
      vertex -1.56793 14.9178 6.35
    endloop
  endfacet
  facet normal -0 0 1
    outer loop
      vertex -4.23363 16.9802 6.35
      vertex -3.62883 14.5544 6.35
      vertex -1.82925 17.4041 6.35
    endloop
  endfacet
  facet normal 0 0 1
    outer loop
      vertex -4.23363 16.9802 6.35
      vertex -5.6191 13.9078 6.35
      vertex -3.62883 14.5544 6.35
    endloop
  endfacet
  facet normal -0 0 1
    outer loop
      vertex -6.55561 16.2257 6.35
      vertex -5.6191 13.9078 6.35
      vertex -4.23363 16.9802 6.35
    endloop
  endfacet
  facet normal 0 0 1
    outer loop
      vertex -6.55561 16.2257 6.35
      vertex -7.5 12.9904 6.35
      vertex -5.6191 13.9078 6.35
    endloop
  endfacet
  facet normal -0 0 1
    outer loop
      vertex -8.75 15.1554 6.35
      vertex -7.5 12.9904 6.35
      vertex -6.55561 16.2257 6.35
    endloop
  endfacet
  facet normal 0 0 1
    outer loop
      vertex -8.75 15.1554 6.35
      vertex -9.23492 11.8202 6.35
      vertex -7.5 12.9904 6.35
    endloop
  endfacet
  facet normal -0 0 1
    outer loop
      vertex -10.7741 13.7902 6.35
      vertex -9.23492 11.8202 6.35
      vertex -8.75 15.1554 6.35
    endloop
  endfacet
  facet normal 0 0 1
    outer loop
      vertex -10.7741 13.7902 6.35
      vertex -10.7901 10.4199 6.35
      vertex -9.23492 11.8202 6.35
    endloop
  endfacet
  facet normal -0 0 1
    outer loop
      vertex -12.5884 12.1565 6.35
      vertex -10.7901 10.4199 6.35
      vertex -10.7741 13.7902 6.35
    endloop
  endfacet
  facet normal 0 0 1
    outer loop
      vertex -10.7901 10.4199 6.35
      vertex -12.5884 12.1565 6.35
      vertex -12.1353 8.81678 6.35
    endloop
  endfacet
  facet normal -0 0 1
    outer loop
      vertex -14.1578 10.2862 6.35
      vertex -12.1353 8.81678 6.35
      vertex -12.5884 12.1565 6.35
    endloop
  endfacet
  facet normal 0 0 1
    outer loop
      vertex -12.1353 8.81678 6.35
      vertex -14.1578 10.2862 6.35
      vertex -13.2442 7.04207 6.35
    endloop
  endfacet
  facet normal -0 0 1
    outer loop
      vertex -15.4516 8.21575 6.35
      vertex -13.2442 7.04207 6.35
      vertex -14.1578 10.2862 6.35
    endloop
  endfacet
  facet normal 0 0 1
    outer loop
      vertex -13.2442 7.04207 6.35
      vertex -15.4516 8.21575 6.35
      vertex -14.0954 5.1303 6.35
    endloop
  endfacet
  facet normal -0 0 1
    outer loop
      vertex -16.4446 5.98535 6.35
      vertex -14.0954 5.1303 6.35
      vertex -15.4516 8.21575 6.35
    endloop
  endfacet
  facet normal -0 0 1
    outer loop
      vertex -17.1176 3.63845 6.35
      vertex -14.6722 3.11868 6.35
      vertex -16.4446 5.98535 6.35
    endloop
  endfacet
  facet normal 0 0 1
    outer loop
      vertex -14.0954 5.1303 6.35
      vertex -16.4446 5.98535 6.35
      vertex -14.6722 3.11868 6.35
    endloop
  endfacet
  facet normal -0 0 1
    outer loop
      vertex 14.4189 -4.13456 6.35
      vertex 16.8221 -4.82365 6.35
      vertex 14.854 -2.0876 6.35
    endloop
  endfacet
  facet normal 0 0 1
    outer loop
      vertex 16.8221 -4.82365 6.35
      vertex 14.4189 -4.13456 6.35
      vertex 15.987 -7.11789 6.35
    endloop
  endfacet
  facet normal -0 0 1
    outer loop
      vertex 13.7032 -6.10105 6.35
      vertex 15.987 -7.11789 6.35
      vertex 14.4189 -4.13456 6.35
    endloop
  endfacet
  facet normal 0 0 1
    outer loop
      vertex 15.987 -7.11789 6.35
      vertex 13.7032 -6.10105 6.35
      vertex 14.8408 -9.27359 6.35
    endloop
  endfacet
  facet normal -0 0 1
    outer loop
      vertex 12.7207 -7.94879 6.35
      vertex 14.8408 -9.27359 6.35
      vertex 13.7032 -6.10105 6.35
    endloop
  endfacet
  facet normal 0 0 1
    outer loop
      vertex 14.8408 -9.27359 6.35
      vertex 12.7207 -7.94879 6.35
      vertex 13.4058 -11.2488 6.35
    endloop
  endfacet
  facet normal -0 0 1
    outer loop
      vertex 11.4907 -9.64181 6.35
      vertex 13.4058 -11.2488 6.35
      vertex 12.7207 -7.94879 6.35
    endloop
  endfacet
  facet normal 0 0 1
    outer loop
      vertex 13.4058 -11.2488 6.35
      vertex 11.4907 -9.64181 6.35
      vertex 11.7098 -13.005 6.35
    endloop
  endfacet
  facet normal -0 0 1
    outer loop
      vertex 10.037 -11.1472 6.35
      vertex 11.7098 -13.005 6.35
      vertex 11.4907 -9.64181 6.35
    endloop
  endfacet
  facet normal 0 0 1
    outer loop
      vertex 10.037 -11.1472 6.35
      vertex 9.78588 -14.5082 6.35
      vertex 11.7098 -13.005 6.35
    endloop
  endfacet
  facet normal -0 0 1
    outer loop
      vertex 8.38789 -12.4356 6.35
      vertex 9.78588 -14.5082 6.35
      vertex 10.037 -11.1472 6.35
    endloop
  endfacet
  facet normal 0 0 1
    outer loop
      vertex 8.38789 -12.4356 6.35
      vertex 7.67149 -15.7289 6.35
      vertex 9.78588 -14.5082 6.35
    endloop
  endfacet
  facet normal -0 0 1
    outer loop
      vertex 6.57557 -13.4819 6.35
      vertex 7.67149 -15.7289 6.35
      vertex 8.38789 -12.4356 6.35
    endloop
  endfacet
  facet normal 0 0 1
    outer loop
      vertex 6.57557 -13.4819 6.35
      vertex 5.4078 -16.6435 6.35
      vertex 7.67149 -15.7289 6.35
    endloop
  endfacet
  facet normal -0 0 1
    outer loop
      vertex 4.63525 -14.2658 6.35
      vertex 5.4078 -16.6435 6.35
      vertex 6.57557 -13.4819 6.35
    endloop
  endfacet
  facet normal 0 0 1
    outer loop
      vertex 4.63525 -14.2658 6.35
      vertex 3.03884 -17.2341 6.35
      vertex 5.4078 -16.6435 6.35
    endloop
  endfacet
  facet normal -0 0 1
    outer loop
      vertex 2.60472 -14.7721 6.35
      vertex 3.03884 -17.2341 6.35
      vertex 4.63525 -14.2658 6.35
    endloop
  endfacet
  facet normal 0 0 1
    outer loop
      vertex 2.60472 -14.7721 6.35
      vertex 0.610741 -17.4893 6.35
      vertex 3.03884 -17.2341 6.35
    endloop
  endfacet
  facet normal -0 0 1
    outer loop
      vertex 0.523492 -14.9909 6.35
      vertex 0.610741 -17.4893 6.35
      vertex 2.60472 -14.7721 6.35
    endloop
  endfacet
  facet normal 0 0 1
    outer loop
      vertex -1.56793 -14.9178 6.35
      vertex 0.610741 -17.4893 6.35
      vertex 0.523492 -14.9909 6.35
    endloop
  endfacet
  facet normal 0 0 1
    outer loop
      vertex -1.56793 -14.9178 6.35
      vertex -1.82925 -17.4041 6.35
      vertex 0.610741 -17.4893 6.35
    endloop
  endfacet
  facet normal 0 0 1
    outer loop
      vertex -3.62883 -14.5544 6.35
      vertex -1.82925 -17.4041 6.35
      vertex -1.56793 -14.9178 6.35
    endloop
  endfacet
  facet normal 0 0 1
    outer loop
      vertex -3.62883 -14.5544 6.35
      vertex -4.23363 -16.9802 6.35
      vertex -1.82925 -17.4041 6.35
    endloop
  endfacet
  facet normal 0 0 1
    outer loop
      vertex -5.6191 -13.9078 6.35
      vertex -4.23363 -16.9802 6.35
      vertex -3.62883 -14.5544 6.35
    endloop
  endfacet
  facet normal 0 0 1
    outer loop
      vertex -5.6191 -13.9078 6.35
      vertex -6.55561 -16.2257 6.35
      vertex -4.23363 -16.9802 6.35
    endloop
  endfacet
  facet normal 0 0 1
    outer loop
      vertex -7.5 -12.9904 6.35
      vertex -6.55561 -16.2257 6.35
      vertex -5.6191 -13.9078 6.35
    endloop
  endfacet
  facet normal 0 0 1
    outer loop
      vertex -7.5 -12.9904 6.35
      vertex -8.75 -15.1554 6.35
      vertex -6.55561 -16.2257 6.35
    endloop
  endfacet
  facet normal 0 0 1
    outer loop
      vertex -9.23492 -11.8202 6.35
      vertex -8.75 -15.1554 6.35
      vertex -7.5 -12.9904 6.35
    endloop
  endfacet
  facet normal 0 0 1
    outer loop
      vertex -9.23492 -11.8202 6.35
      vertex -10.7741 -13.7902 6.35
      vertex -8.75 -15.1554 6.35
    endloop
  endfacet
  facet normal 0 0 1
    outer loop
      vertex -10.7901 -10.4199 6.35
      vertex -10.7741 -13.7902 6.35
      vertex -9.23492 -11.8202 6.35
    endloop
  endfacet
  facet normal 0 0 1
    outer loop
      vertex -12.5884 -12.1565 6.35
      vertex -10.7901 -10.4199 6.35
      vertex -12.1353 -8.81678 6.35
    endloop
  endfacet
  facet normal 0 0 1
    outer loop
      vertex -10.7901 -10.4199 6.35
      vertex -12.5884 -12.1565 6.35
      vertex -10.7741 -13.7902 6.35
    endloop
  endfacet
  facet normal 0 0 1
    outer loop
      vertex -14.1578 -10.2862 6.35
      vertex -12.1353 -8.81678 6.35
      vertex -13.2442 -7.04207 6.35
    endloop
  endfacet
  facet normal 0 0 1
    outer loop
      vertex -15.4516 -8.21575 6.35
      vertex -13.2442 -7.04207 6.35
      vertex -14.0954 -5.1303 6.35
    endloop
  endfacet
  facet normal 0 0 1
    outer loop
      vertex -12.1353 -8.81678 6.35
      vertex -14.1578 -10.2862 6.35
      vertex -12.5884 -12.1565 6.35
    endloop
  endfacet
  facet normal 0 0 1
    outer loop
      vertex -16.4446 -5.98535 6.35
      vertex -14.0954 -5.1303 6.35
      vertex -14.6722 -3.11868 6.35
    endloop
  endfacet
  facet normal 0 0 1
    outer loop
      vertex -17.1176 -3.63845 6.35
      vertex -14.6722 -3.11868 6.35
      vertex -14.9635 -1.04635 6.35
    endloop
  endfacet
  facet normal 0 0 1
    outer loop
      vertex -13.2442 -7.04207 6.35
      vertex -15.4516 -8.21575 6.35
      vertex -14.1578 -10.2862 6.35
    endloop
  endfacet
  facet normal 0 0 1
    outer loop
      vertex -14.6722 3.11868 6.35
      vertex -17.1176 3.63845 6.35
      vertex -14.9635 1.04635 6.35
    endloop
  endfacet
  facet normal -0 0 1
    outer loop
      vertex -17.4574 1.22074 6.35
      vertex -14.9635 1.04635 6.35
      vertex -17.1176 3.63845 6.35
    endloop
  endfacet
  facet normal 0 0 1
    outer loop
      vertex -14.0954 -5.1303 6.35
      vertex -16.4446 -5.98535 6.35
      vertex -15.4516 -8.21575 6.35
    endloop
  endfacet
  facet normal 0 0 1
    outer loop
      vertex -14.9635 1.04635 6.35
      vertex -17.4574 1.22074 6.35
      vertex -14.9635 -1.04635 6.35
    endloop
  endfacet
  facet normal 0 0 1
    outer loop
      vertex -14.6722 -3.11868 6.35
      vertex -17.1176 -3.63845 6.35
      vertex -16.4446 -5.98535 6.35
    endloop
  endfacet
  facet normal 0 0 1
    outer loop
      vertex -17.4574 -1.22074 6.35
      vertex -14.9635 -1.04635 6.35
      vertex -17.4574 1.22074 6.35
    endloop
  endfacet
  facet normal 0 0 1
    outer loop
      vertex -14.9635 -1.04635 6.35
      vertex -17.4574 -1.22074 6.35
      vertex -17.1176 -3.63845 6.35
    endloop
  endfacet
  facet normal -0.913551 -0.406724 0
    outer loop
      vertex -15.4516 -8.21575 0
      vertex -16.4446 -5.98535 6.35
      vertex -16.4446 -5.98535 0
    endloop
  endfacet
  facet normal -0.913551 -0.406724 0
    outer loop
      vertex -16.4446 -5.98535 6.35
      vertex -15.4516 -8.21575 0
      vertex -15.4516 -8.21575 6.35
    endloop
  endfacet
  facet normal -0.173626 0.984812 0
    outer loop
      vertex -1.82925 17.4041 0
      vertex -4.23363 16.9802 6.35
      vertex -1.82925 17.4041 6.35
    endloop
  endfacet
  facet normal -0.173626 0.984812 0
    outer loop
      vertex -4.23363 16.9802 6.35
      vertex -1.82925 17.4041 0
      vertex -4.23363 16.9802 0
    endloop
  endfacet
  facet normal -0.309033 0.951051 0
    outer loop
      vertex -4.23363 16.9802 0
      vertex -6.55561 16.2257 6.35
      vertex -4.23363 16.9802 6.35
    endloop
  endfacet
  facet normal -0.309033 0.951051 0
    outer loop
      vertex -6.55561 16.2257 6.35
      vertex -4.23363 16.9802 0
      vertex -6.55561 16.2257 0
    endloop
  endfacet
  facet normal -0.669153 -0.743125 0
    outer loop
      vertex -12.5884 -12.1565 0
      vertex -10.7741 -13.7902 6.35
      vertex -12.5884 -12.1565 6.35
    endloop
  endfacet
  facet normal -0.669153 -0.743125 -0
    outer loop
      vertex -10.7741 -13.7902 6.35
      vertex -12.5884 -12.1565 0
      vertex -10.7741 -13.7902 0
    endloop
  endfacet
  facet normal -0.309033 -0.951051 0
    outer loop
      vertex -6.55561 -16.2257 0
      vertex -4.23363 -16.9802 6.35
      vertex -6.55561 -16.2257 6.35
    endloop
  endfacet
  facet normal -0.309033 -0.951051 -0
    outer loop
      vertex -4.23363 -16.9802 6.35
      vertex -6.55561 -16.2257 0
      vertex -4.23363 -16.9802 0
    endloop
  endfacet
  facet normal -0.0348969 -0.999391 0
    outer loop
      vertex -1.82925 -17.4041 0
      vertex 0.610741 -17.4893 6.35
      vertex -1.82925 -17.4041 6.35
    endloop
  endfacet
  facet normal -0.0348969 -0.999391 -0
    outer loop
      vertex 0.610741 -17.4893 6.35
      vertex -1.82925 -17.4041 0
      vertex 0.610741 -17.4893 0
    endloop
  endfacet
  facet normal 0.719328 -0.694671 0
    outer loop
      vertex 11.7098 -13.005 6.35
      vertex 13.4058 -11.2488 0
      vertex 13.4058 -11.2488 6.35
    endloop
  endfacet
  facet normal 0.719328 -0.694671 0
    outer loop
      vertex 13.4058 -11.2488 0
      vertex 11.7098 -13.005 6.35
      vertex 11.7098 -13.005 0
    endloop
  endfacet
  facet normal -0.848041 -0.529931 0
    outer loop
      vertex -14.1578 -10.2862 0
      vertex -15.4516 -8.21575 6.35
      vertex -15.4516 -8.21575 0
    endloop
  endfacet
  facet normal -0.848041 -0.529931 0
    outer loop
      vertex -15.4516 -8.21575 6.35
      vertex -14.1578 -10.2862 0
      vertex -14.1578 -10.2862 6.35
    endloop
  endfacet
  facet normal -0.438379 0.89879 0
    outer loop
      vertex -6.55561 16.2257 0
      vertex -8.75 15.1554 6.35
      vertex -6.55561 16.2257 6.35
    endloop
  endfacet
  facet normal -0.438379 0.89879 0
    outer loop
      vertex -8.75 15.1554 6.35
      vertex -6.55561 16.2257 0
      vertex -8.75 15.1554 0
    endloop
  endfacet
  facet normal -0.173626 -0.984812 0
    outer loop
      vertex -4.23363 -16.9802 0
      vertex -1.82925 -17.4041 6.35
      vertex -4.23363 -16.9802 6.35
    endloop
  endfacet
  facet normal -0.173626 -0.984812 -0
    outer loop
      vertex -1.82925 -17.4041 6.35
      vertex -4.23363 -16.9802 0
      vertex -1.82925 -17.4041 0
    endloop
  endfacet
  facet normal -0.990267 -0.139178 0
    outer loop
      vertex -17.1176 -3.63845 0
      vertex -17.4574 -1.22074 6.35
      vertex -17.4574 -1.22074 0
    endloop
  endfacet
  facet normal -0.990267 -0.139178 0
    outer loop
      vertex -17.4574 -1.22074 6.35
      vertex -17.1176 -3.63845 0
      vertex -17.1176 -3.63845 6.35
    endloop
  endfacet
  facet normal 0.615679 -0.787997 0
    outer loop
      vertex 9.78588 -14.5082 0
      vertex 11.7098 -13.005 6.35
      vertex 9.78588 -14.5082 6.35
    endloop
  endfacet
  facet normal 0.615679 -0.787997 0
    outer loop
      vertex 11.7098 -13.005 6.35
      vertex 9.78588 -14.5082 0
      vertex 11.7098 -13.005 0
    endloop
  endfacet
  facet normal -0.766038 0.642795 0
    outer loop
      vertex -14.1578 10.2862 0
      vertex -12.5884 12.1565 6.35
      vertex -12.5884 12.1565 0
    endloop
  endfacet
  facet normal -0.766038 0.642795 0
    outer loop
      vertex -12.5884 12.1565 6.35
      vertex -14.1578 10.2862 0
      vertex -14.1578 10.2862 6.35
    endloop
  endfacet
  facet normal -0.438379 -0.89879 0
    outer loop
      vertex -8.75 -15.1554 0
      vertex -6.55561 -16.2257 6.35
      vertex -8.75 -15.1554 6.35
    endloop
  endfacet
  facet normal -0.438379 -0.89879 -0
    outer loop
      vertex -6.55561 -16.2257 6.35
      vertex -8.75 -15.1554 0
      vertex -6.55561 -16.2257 0
    endloop
  endfacet
  facet normal -0.961258 -0.275651 0
    outer loop
      vertex -16.4446 -5.98535 0
      vertex -17.1176 -3.63845 6.35
      vertex -17.1176 -3.63845 0
    endloop
  endfacet
  facet normal -0.961258 -0.275651 0
    outer loop
      vertex -17.1176 -3.63845 6.35
      vertex -16.4446 -5.98535 0
      vertex -16.4446 -5.98535 6.35
    endloop
  endfacet
  facet normal -1 0 0
    outer loop
      vertex -17.4574 -1.22074 0
      vertex -17.4574 1.22074 6.35
      vertex -17.4574 1.22074 0
    endloop
  endfacet
  facet normal -1 -0 0
    outer loop
      vertex -17.4574 1.22074 6.35
      vertex -17.4574 -1.22074 0
      vertex -17.4574 -1.22074 6.35
    endloop
  endfacet
  facet normal 0.104527 -0.994522 0
    outer loop
      vertex 0.610741 -17.4893 0
      vertex 3.03884 -17.2341 6.35
      vertex 0.610741 -17.4893 6.35
    endloop
  endfacet
  facet normal 0.104527 -0.994522 0
    outer loop
      vertex 3.03884 -17.2341 6.35
      vertex 0.610741 -17.4893 0
      vertex 3.03884 -17.2341 0
    endloop
  endfacet
  facet normal 0.104527 0.994522 -0
    outer loop
      vertex 3.03884 17.2341 0
      vertex 0.610741 17.4893 6.35
      vertex 3.03884 17.2341 6.35
    endloop
  endfacet
  facet normal 0.104527 0.994522 0
    outer loop
      vertex 0.610741 17.4893 6.35
      vertex 3.03884 17.2341 0
      vertex 0.610741 17.4893 0
    endloop
  endfacet
  facet normal -0.961258 0.275651 0
    outer loop
      vertex -17.1176 3.63845 0
      vertex -16.4446 5.98535 6.35
      vertex -16.4446 5.98535 0
    endloop
  endfacet
  facet normal -0.961258 0.275651 0
    outer loop
      vertex -16.4446 5.98535 6.35
      vertex -17.1176 3.63845 0
      vertex -17.1176 3.63845 6.35
    endloop
  endfacet
  facet normal 0.308983 -0.951067 0
    outer loop
      vertex -5.6191 13.9078 0
      vertex -3.62883 14.5544 6.35
      vertex -5.6191 13.9078 6.35
    endloop
  endfacet
  facet normal 0.308983 -0.951067 0
    outer loop
      vertex -3.62883 14.5544 6.35
      vertex -5.6191 13.9078 0
      vertex -3.62883 14.5544 0
    endloop
  endfacet
  facet normal -0.978147 -0.207914 0
    outer loop
      vertex 14.854 2.0876 0
      vertex 14.4189 4.13456 6.35
      vertex 14.4189 4.13456 0
    endloop
  endfacet
  facet normal -0.978147 -0.207914 0
    outer loop
      vertex 14.4189 4.13456 6.35
      vertex 14.854 2.0876 0
      vertex 14.854 2.0876 6.35
    endloop
  endfacet
  facet normal -0.997563 -0.0697664 0
    outer loop
      vertex 15 0 0
      vertex 14.854 2.0876 6.35
      vertex 14.854 2.0876 0
    endloop
  endfacet
  facet normal -0.997563 -0.0697664 0
    outer loop
      vertex 14.854 2.0876 6.35
      vertex 15 0 0
      vertex 15 0 6.35
    endloop
  endfacet
  facet normal 0.961265 -0.275627 0
    outer loop
      vertex -14.6722 3.11868 6.35
      vertex -14.0954 5.1303 0
      vertex -14.0954 5.1303 6.35
    endloop
  endfacet
  facet normal 0.961265 -0.275627 0
    outer loop
      vertex -14.0954 5.1303 0
      vertex -14.6722 3.11868 6.35
      vertex -14.6722 3.11868 0
    endloop
  endfacet
  facet normal -0.37459 -0.927191 0
    outer loop
      vertex 4.63525 14.2658 0
      vertex 6.57557 13.4819 6.35
      vertex 4.63525 14.2658 6.35
    endloop
  endfacet
  facet normal -0.37459 -0.927191 -0
    outer loop
      vertex 6.57557 13.4819 6.35
      vertex 4.63525 14.2658 0
      vertex 6.57557 13.4819 0
    endloop
  endfacet
  facet normal 0.559187 0.829042 -0
    outer loop
      vertex -7.5 -12.9904 0
      vertex -9.23492 -11.8202 6.35
      vertex -7.5 -12.9904 6.35
    endloop
  endfacet
  facet normal 0.559187 0.829042 0
    outer loop
      vertex -9.23492 -11.8202 6.35
      vertex -7.5 -12.9904 0
      vertex -9.23492 -11.8202 0
    endloop
  endfacet
  facet normal 0.43838 0.89879 -0
    outer loop
      vertex -5.6191 -13.9078 0
      vertex -7.5 -12.9904 6.35
      vertex -5.6191 -13.9078 6.35
    endloop
  endfacet
  facet normal 0.43838 0.89879 0
    outer loop
      vertex -7.5 -12.9904 6.35
      vertex -5.6191 -13.9078 0
      vertex -7.5 -12.9904 0
    endloop
  endfacet
  facet normal 0.173652 -0.984807 0
    outer loop
      vertex -3.62883 14.5544 0
      vertex -1.56793 14.9178 6.35
      vertex -3.62883 14.5544 6.35
    endloop
  endfacet
  facet normal 0.173652 -0.984807 0
    outer loop
      vertex -1.56793 14.9178 6.35
      vertex -3.62883 14.5544 0
      vertex -1.56793 14.9178 0
    endloop
  endfacet
  facet normal -0.499984 0.866034 0
    outer loop
      vertex 8.38789 -12.4356 0
      vertex 6.57557 -13.4819 6.35
      vertex 8.38789 -12.4356 6.35
    endloop
  endfacet
  facet normal -0.499984 0.866034 0
    outer loop
      vertex 6.57557 -13.4819 6.35
      vertex 8.38789 -12.4356 0
      vertex 6.57557 -13.4819 0
    endloop
  endfacet
  facet normal 1 -0 0
    outer loop
      vertex -14.9635 -1.04635 6.35
      vertex -14.9635 1.04635 0
      vertex -14.9635 1.04635 6.35
    endloop
  endfacet
  facet normal 1 0 0
    outer loop
      vertex -14.9635 1.04635 0
      vertex -14.9635 -1.04635 6.35
      vertex -14.9635 -1.04635 0
    endloop
  endfacet
  facet normal -0.37459 0.927191 0
    outer loop
      vertex 6.57557 -13.4819 0
      vertex 4.63525 -14.2658 6.35
      vertex 6.57557 -13.4819 6.35
    endloop
  endfacet
  facet normal -0.37459 0.927191 0
    outer loop
      vertex 4.63525 -14.2658 6.35
      vertex 6.57557 -13.4819 0
      vertex 4.63525 -14.2658 0
    endloop
  endfacet
  facet normal -0.88294 0.469486 0
    outer loop
      vertex 12.7207 -7.94879 0
      vertex 13.7032 -6.10105 6.35
      vertex 13.7032 -6.10105 0
    endloop
  endfacet
  facet normal -0.88294 0.469486 0
    outer loop
      vertex 13.7032 -6.10105 6.35
      vertex 12.7207 -7.94879 0
      vertex 12.7207 -7.94879 6.35
    endloop
  endfacet
  facet normal 0.43838 -0.89879 0
    outer loop
      vertex -7.5 12.9904 0
      vertex -5.6191 13.9078 6.35
      vertex -7.5 12.9904 6.35
    endloop
  endfacet
  facet normal 0.43838 -0.89879 0
    outer loop
      vertex -5.6191 13.9078 6.35
      vertex -7.5 12.9904 0
      vertex -5.6191 13.9078 0
    endloop
  endfacet
  facet normal 0.559187 -0.829042 0
    outer loop
      vertex -9.23492 11.8202 0
      vertex -7.5 12.9904 6.35
      vertex -9.23492 11.8202 6.35
    endloop
  endfacet
  facet normal 0.559187 -0.829042 0
    outer loop
      vertex -7.5 12.9904 6.35
      vertex -9.23492 11.8202 0
      vertex -7.5 12.9904 0
    endloop
  endfacet
  facet normal 0.034931 -0.99939 0
    outer loop
      vertex -1.56793 14.9178 0
      vertex 0.523492 14.9909 6.35
      vertex -1.56793 14.9178 6.35
    endloop
  endfacet
  facet normal 0.034931 -0.99939 0
    outer loop
      vertex 0.523492 14.9909 6.35
      vertex -1.56793 14.9178 0
      vertex 0.523492 14.9909 0
    endloop
  endfacet
  facet normal -0.241936 -0.970292 0
    outer loop
      vertex 2.60472 14.7721 0
      vertex 4.63525 14.2658 6.35
      vertex 2.60472 14.7721 6.35
    endloop
  endfacet
  facet normal -0.241936 -0.970292 -0
    outer loop
      vertex 4.63525 14.2658 6.35
      vertex 2.60472 14.7721 0
      vertex 4.63525 14.2658 0
    endloop
  endfacet
  facet normal -0.241936 0.970292 0
    outer loop
      vertex 4.63525 -14.2658 0
      vertex 2.60472 -14.7721 6.35
      vertex 4.63525 -14.2658 6.35
    endloop
  endfacet
  facet normal -0.241936 0.970292 0
    outer loop
      vertex 2.60472 -14.7721 6.35
      vertex 4.63525 -14.2658 0
      vertex 2.60472 -14.7721 0
    endloop
  endfacet
  facet normal 0.034931 0.99939 -0
    outer loop
      vertex 0.523492 -14.9909 0
      vertex -1.56793 -14.9178 6.35
      vertex 0.523492 -14.9909 6.35
    endloop
  endfacet
  facet normal 0.034931 0.99939 0
    outer loop
      vertex -1.56793 -14.9178 6.35
      vertex 0.523492 -14.9909 0
      vertex -1.56793 -14.9178 0
    endloop
  endfacet
  facet normal 0.848061 -0.529898 0
    outer loop
      vertex -13.2442 7.04207 6.35
      vertex -12.1353 8.81678 0
      vertex -12.1353 8.81678 6.35
    endloop
  endfacet
  facet normal 0.848061 -0.529898 0
    outer loop
      vertex -12.1353 8.81678 0
      vertex -13.2442 7.04207 6.35
      vertex -13.2442 7.04207 0
    endloop
  endfacet
  facet normal -0.809029 0.587769 0
    outer loop
      vertex 11.4907 -9.64181 0
      vertex 12.7207 -7.94879 6.35
      vertex 12.7207 -7.94879 0
    endloop
  endfacet
  facet normal -0.809029 0.587769 0
    outer loop
      vertex 12.7207 -7.94879 6.35
      vertex 11.4907 -9.64181 0
      vertex 11.4907 -9.64181 6.35
    endloop
  endfacet
  facet normal -0.809029 -0.587769 0
    outer loop
      vertex 12.7207 7.94879 0
      vertex 11.4907 9.64181 6.35
      vertex 11.4907 9.64181 0
    endloop
  endfacet
  facet normal -0.809029 -0.587769 0
    outer loop
      vertex 11.4907 9.64181 6.35
      vertex 12.7207 7.94879 0
      vertex 12.7207 7.94879 6.35
    endloop
  endfacet
  facet normal -0.939699 0.342002 0
    outer loop
      vertex 13.7032 -6.10105 0
      vertex 14.4189 -4.13456 6.35
      vertex 14.4189 -4.13456 0
    endloop
  endfacet
  facet normal -0.939699 0.342002 0
    outer loop
      vertex 14.4189 -4.13456 6.35
      vertex 13.7032 -6.10105 0
      vertex 13.7032 -6.10105 6.35
    endloop
  endfacet
  facet normal 0.669133 0.743143 -0
    outer loop
      vertex -9.23492 -11.8202 0
      vertex -10.7901 -10.4199 6.35
      vertex -9.23492 -11.8202 6.35
    endloop
  endfacet
  facet normal 0.669133 0.743143 0
    outer loop
      vertex -10.7901 -10.4199 6.35
      vertex -9.23492 -11.8202 0
      vertex -10.7901 -10.4199 0
    endloop
  endfacet
  facet normal -0.997563 0.0697664 0
    outer loop
      vertex 14.854 -2.0876 0
      vertex 15 0 6.35
      vertex 15 0 0
    endloop
  endfacet
  facet normal -0.997563 0.0697664 0
    outer loop
      vertex 15 0 6.35
      vertex 14.854 -2.0876 0
      vertex 14.854 -2.0876 6.35
    endloop
  endfacet
  facet normal -0.719349 -0.694649 0
    outer loop
      vertex 11.4907 9.64181 0
      vertex 10.037 11.1472 6.35
      vertex 10.037 11.1472 0
    endloop
  endfacet
  facet normal -0.719349 -0.694649 0
    outer loop
      vertex 10.037 11.1472 6.35
      vertex 11.4907 9.64181 0
      vertex 11.4907 9.64181 6.35
    endloop
  endfacet
  facet normal -0.615654 -0.788017 0
    outer loop
      vertex 8.38789 12.4356 0
      vertex 10.037 11.1472 6.35
      vertex 8.38789 12.4356 6.35
    endloop
  endfacet
  facet normal -0.615654 -0.788017 -0
    outer loop
      vertex 10.037 11.1472 6.35
      vertex 8.38789 12.4356 0
      vertex 10.037 11.1472 0
    endloop
  endfacet
  facet normal 0.173652 0.984807 -0
    outer loop
      vertex -1.56793 -14.9178 0
      vertex -3.62883 -14.5544 6.35
      vertex -1.56793 -14.9178 6.35
    endloop
  endfacet
  facet normal 0.173652 0.984807 0
    outer loop
      vertex -3.62883 -14.5544 6.35
      vertex -1.56793 -14.9178 0
      vertex -3.62883 -14.5544 0
    endloop
  endfacet
  facet normal -0.615654 0.788017 0
    outer loop
      vertex 10.037 -11.1472 0
      vertex 8.38789 -12.4356 6.35
      vertex 10.037 -11.1472 6.35
    endloop
  endfacet
  facet normal -0.615654 0.788017 0
    outer loop
      vertex 8.38789 -12.4356 6.35
      vertex 10.037 -11.1472 0
      vertex 8.38789 -12.4356 0
    endloop
  endfacet
  facet normal -0.104554 0.994519 0
    outer loop
      vertex 2.60472 -14.7721 0
      vertex 0.523492 -14.9909 6.35
      vertex 2.60472 -14.7721 6.35
    endloop
  endfacet
  facet normal -0.104554 0.994519 0
    outer loop
      vertex 0.523492 -14.9909 6.35
      vertex 2.60472 -14.7721 0
      vertex 0.523492 -14.9909 0
    endloop
  endfacet
  facet normal -0.88294 -0.469486 0
    outer loop
      vertex 13.7032 6.10105 0
      vertex 12.7207 7.94879 6.35
      vertex 12.7207 7.94879 0
    endloop
  endfacet
  facet normal -0.88294 -0.469486 0
    outer loop
      vertex 12.7207 7.94879 6.35
      vertex 13.7032 6.10105 0
      vertex 13.7032 6.10105 6.35
    endloop
  endfacet
  facet normal 0.848061 0.529898 0
    outer loop
      vertex -12.1353 -8.81678 6.35
      vertex -13.2442 -7.04207 0
      vertex -13.2442 -7.04207 6.35
    endloop
  endfacet
  facet normal 0.848061 0.529898 0
    outer loop
      vertex -13.2442 -7.04207 0
      vertex -12.1353 -8.81678 6.35
      vertex -12.1353 -8.81678 0
    endloop
  endfacet
  facet normal 0.766039 -0.642794 0
    outer loop
      vertex -12.1353 8.81678 6.35
      vertex -10.7901 10.4199 0
      vertex -10.7901 10.4199 6.35
    endloop
  endfacet
  facet normal 0.766039 -0.642794 0
    outer loop
      vertex -10.7901 10.4199 0
      vertex -12.1353 8.81678 6.35
      vertex -12.1353 8.81678 0
    endloop
  endfacet
  facet normal 0.669133 -0.743143 0
    outer loop
      vertex -10.7901 10.4199 0
      vertex -9.23492 11.8202 6.35
      vertex -10.7901 10.4199 6.35
    endloop
  endfacet
  facet normal 0.669133 -0.743143 0
    outer loop
      vertex -9.23492 11.8202 6.35
      vertex -10.7901 10.4199 0
      vertex -9.23492 11.8202 0
    endloop
  endfacet
  facet normal 0.766039 0.642794 0
    outer loop
      vertex -10.7901 -10.4199 6.35
      vertex -12.1353 -8.81678 0
      vertex -12.1353 -8.81678 6.35
    endloop
  endfacet
  facet normal 0.766039 0.642794 0
    outer loop
      vertex -12.1353 -8.81678 0
      vertex -10.7901 -10.4199 6.35
      vertex -10.7901 -10.4199 0
    endloop
  endfacet
  facet normal 0.961265 0.275627 0
    outer loop
      vertex -14.0954 -5.1303 6.35
      vertex -14.6722 -3.11868 0
      vertex -14.6722 -3.11868 6.35
    endloop
  endfacet
  facet normal 0.961265 0.275627 0
    outer loop
      vertex -14.6722 -3.11868 0
      vertex -14.0954 -5.1303 6.35
      vertex -14.0954 -5.1303 0
    endloop
  endfacet
  facet normal 0.913541 0.406747 0
    outer loop
      vertex -13.2442 -7.04207 6.35
      vertex -14.0954 -5.1303 0
      vertex -14.0954 -5.1303 6.35
    endloop
  endfacet
  facet normal 0.913541 0.406747 0
    outer loop
      vertex -14.0954 -5.1303 0
      vertex -13.2442 -7.04207 6.35
      vertex -13.2442 -7.04207 0
    endloop
  endfacet
  facet normal -0.719349 0.694649 0
    outer loop
      vertex 10.037 -11.1472 0
      vertex 11.4907 -9.64181 6.35
      vertex 11.4907 -9.64181 0
    endloop
  endfacet
  facet normal -0.719349 0.694649 0
    outer loop
      vertex 11.4907 -9.64181 6.35
      vertex 10.037 -11.1472 0
      vertex 10.037 -11.1472 6.35
    endloop
  endfacet
  facet normal 0.990265 0.139198 0
    outer loop
      vertex -14.6722 -3.11868 6.35
      vertex -14.9635 -1.04635 0
      vertex -14.9635 -1.04635 6.35
    endloop
  endfacet
  facet normal 0.990265 0.139198 0
    outer loop
      vertex -14.9635 -1.04635 0
      vertex -14.6722 -3.11868 6.35
      vertex -14.6722 -3.11868 0
    endloop
  endfacet
  facet normal -0.978147 0.207914 0
    outer loop
      vertex 14.4189 -4.13456 0
      vertex 14.854 -2.0876 6.35
      vertex 14.854 -2.0876 0
    endloop
  endfacet
  facet normal -0.978147 0.207914 0
    outer loop
      vertex 14.854 -2.0876 6.35
      vertex 14.4189 -4.13456 0
      vertex 14.4189 -4.13456 6.35
    endloop
  endfacet
  facet normal 0.308983 0.951067 -0
    outer loop
      vertex -3.62883 -14.5544 0
      vertex -5.6191 -13.9078 6.35
      vertex -3.62883 -14.5544 6.35
    endloop
  endfacet
  facet normal 0.308983 0.951067 0
    outer loop
      vertex -5.6191 -13.9078 6.35
      vertex -3.62883 -14.5544 0
      vertex -5.6191 -13.9078 0
    endloop
  endfacet
  facet normal 0.990265 -0.139198 0
    outer loop
      vertex -14.9635 1.04635 6.35
      vertex -14.6722 3.11868 0
      vertex -14.6722 3.11868 6.35
    endloop
  endfacet
  facet normal 0.990265 -0.139198 0
    outer loop
      vertex -14.6722 3.11868 0
      vertex -14.9635 1.04635 6.35
      vertex -14.9635 1.04635 0
    endloop
  endfacet
  facet normal -0.499984 -0.866034 0
    outer loop
      vertex 6.57557 13.4819 0
      vertex 8.38789 12.4356 6.35
      vertex 6.57557 13.4819 6.35
    endloop
  endfacet
  facet normal -0.499984 -0.866034 -0
    outer loop
      vertex 8.38789 12.4356 6.35
      vertex 6.57557 13.4819 0
      vertex 8.38789 12.4356 0
    endloop
  endfacet
  facet normal -0.939699 -0.342002 0
    outer loop
      vertex 14.4189 4.13456 0
      vertex 13.7032 6.10105 6.35
      vertex 13.7032 6.10105 0
    endloop
  endfacet
  facet normal -0.939699 -0.342002 0
    outer loop
      vertex 13.7032 6.10105 6.35
      vertex 14.4189 4.13456 0
      vertex 14.4189 4.13456 6.35
    endloop
  endfacet
  facet normal -0.104554 -0.994519 0
    outer loop
      vertex 0.523492 14.9909 0
      vertex 2.60472 14.7721 6.35
      vertex 0.523492 14.9909 6.35
    endloop
  endfacet
  facet normal -0.104554 -0.994519 -0
    outer loop
      vertex 2.60472 14.7721 6.35
      vertex 0.523492 14.9909 0
      vertex 2.60472 14.7721 0
    endloop
  endfacet
  facet normal 0.913541 -0.406747 0
    outer loop
      vertex -14.0954 5.1303 6.35
      vertex -13.2442 7.04207 0
      vertex -13.2442 7.04207 6.35
    endloop
  endfacet
  facet normal 0.913541 -0.406747 0
    outer loop
      vertex -13.2442 7.04207 0
      vertex -14.0954 5.1303 6.35
      vertex -14.0954 5.1303 0
    endloop
  endfacet
endsolid OpenSCAD_Model
