solid OpenSCAD_Model
  facet normal -0.308983 0.951067 0
    outer loop
      vertex -3.62883 14.5544 0
      vertex -5.6191 13.9078 156
      vertex -3.62883 14.5544 156
    endloop
  endfacet
  facet normal -0.308983 0.951067 0
    outer loop
      vertex -5.6191 13.9078 156
      vertex -3.62883 14.5544 0
      vertex -5.6191 13.9078 0
    endloop
  endfacet
  facet normal 0.978147 0.207914 0
    outer loop
      vertex 14.854 2.0876 156
      vertex 14.4189 4.13456 0
      vertex 14.4189 4.13456 156
    endloop
  endfacet
  facet normal 0.978147 0.207914 0
    outer loop
      vertex 14.4189 4.13456 0
      vertex 14.854 2.0876 156
      vertex 14.854 2.0876 0
    endloop
  endfacet
  facet normal 0.997563 0.0697664 0
    outer loop
      vertex 15 0 156
      vertex 14.854 2.0876 0
      vertex 14.854 2.0876 156
    endloop
  endfacet
  facet normal 0.997563 0.0697664 0
    outer loop
      vertex 14.854 2.0876 0
      vertex 15 0 156
      vertex 15 0 0
    endloop
  endfacet
  facet normal -0.961265 0.275627 0
    outer loop
      vertex -14.6722 3.11868 0
      vertex -14.0954 5.1303 156
      vertex -14.0954 5.1303 0
    endloop
  endfacet
  facet normal -0.961265 0.275627 0
    outer loop
      vertex -14.0954 5.1303 156
      vertex -14.6722 3.11868 0
      vertex -14.6722 3.11868 156
    endloop
  endfacet
  facet normal 0.37459 0.927191 -0
    outer loop
      vertex 6.57557 13.4819 0
      vertex 4.63525 14.2658 156
      vertex 6.57557 13.4819 156
    endloop
  endfacet
  facet normal 0.37459 0.927191 0
    outer loop
      vertex 4.63525 14.2658 156
      vertex 6.57557 13.4819 0
      vertex 4.63525 14.2658 0
    endloop
  endfacet
  facet normal -0.559187 -0.829042 0
    outer loop
      vertex -9.23492 -11.8202 0
      vertex -7.5 -12.9904 156
      vertex -9.23492 -11.8202 156
    endloop
  endfacet
  facet normal -0.559187 -0.829042 -0
    outer loop
      vertex -7.5 -12.9904 156
      vertex -9.23492 -11.8202 0
      vertex -7.5 -12.9904 0
    endloop
  endfacet
  facet normal -0.43838 -0.89879 0
    outer loop
      vertex -7.5 -12.9904 0
      vertex -5.6191 -13.9078 156
      vertex -7.5 -12.9904 156
    endloop
  endfacet
  facet normal -0.43838 -0.89879 -0
    outer loop
      vertex -5.6191 -13.9078 156
      vertex -7.5 -12.9904 0
      vertex -5.6191 -13.9078 0
    endloop
  endfacet
  facet normal -0.173652 0.984807 0
    outer loop
      vertex -1.56793 14.9178 0
      vertex -3.62883 14.5544 156
      vertex -1.56793 14.9178 156
    endloop
  endfacet
  facet normal -0.173652 0.984807 0
    outer loop
      vertex -3.62883 14.5544 156
      vertex -1.56793 14.9178 0
      vertex -3.62883 14.5544 0
    endloop
  endfacet
  facet normal 0.499984 -0.866034 0
    outer loop
      vertex 6.57557 -13.4819 0
      vertex 8.38789 -12.4356 156
      vertex 6.57557 -13.4819 156
    endloop
  endfacet
  facet normal 0.499984 -0.866034 0
    outer loop
      vertex 8.38789 -12.4356 156
      vertex 6.57557 -13.4819 0
      vertex 8.38789 -12.4356 0
    endloop
  endfacet
  facet normal 0.37459 -0.927191 0
    outer loop
      vertex 4.63525 -14.2658 0
      vertex 6.57557 -13.4819 156
      vertex 4.63525 -14.2658 156
    endloop
  endfacet
  facet normal 0.37459 -0.927191 0
    outer loop
      vertex 6.57557 -13.4819 156
      vertex 4.63525 -14.2658 0
      vertex 6.57557 -13.4819 0
    endloop
  endfacet
  facet normal 0.88294 -0.469486 0
    outer loop
      vertex 12.7207 -7.94879 156
      vertex 13.7032 -6.10105 0
      vertex 13.7032 -6.10105 156
    endloop
  endfacet
  facet normal 0.88294 -0.469486 0
    outer loop
      vertex 13.7032 -6.10105 0
      vertex 12.7207 -7.94879 156
      vertex 12.7207 -7.94879 0
    endloop
  endfacet
  facet normal -0.43838 0.89879 0
    outer loop
      vertex -5.6191 13.9078 0
      vertex -7.5 12.9904 156
      vertex -5.6191 13.9078 156
    endloop
  endfacet
  facet normal -0.43838 0.89879 0
    outer loop
      vertex -7.5 12.9904 156
      vertex -5.6191 13.9078 0
      vertex -7.5 12.9904 0
    endloop
  endfacet
  facet normal -0.559187 0.829042 0
    outer loop
      vertex -7.5 12.9904 0
      vertex -9.23492 11.8202 156
      vertex -7.5 12.9904 156
    endloop
  endfacet
  facet normal -0.559187 0.829042 0
    outer loop
      vertex -9.23492 11.8202 156
      vertex -7.5 12.9904 0
      vertex -9.23492 11.8202 0
    endloop
  endfacet
  facet normal -0.034931 0.99939 0
    outer loop
      vertex 0.523492 14.9909 0
      vertex -1.56793 14.9178 156
      vertex 0.523492 14.9909 156
    endloop
  endfacet
  facet normal -0.034931 0.99939 0
    outer loop
      vertex -1.56793 14.9178 156
      vertex 0.523492 14.9909 0
      vertex -1.56793 14.9178 0
    endloop
  endfacet
  facet normal 0.241936 -0.970292 0
    outer loop
      vertex 2.60472 -14.7721 0
      vertex 4.63525 -14.2658 156
      vertex 2.60472 -14.7721 156
    endloop
  endfacet
  facet normal 0.241936 -0.970292 0
    outer loop
      vertex 4.63525 -14.2658 156
      vertex 2.60472 -14.7721 0
      vertex 4.63525 -14.2658 0
    endloop
  endfacet
  facet normal -0.034931 -0.99939 0
    outer loop
      vertex -1.56793 -14.9178 0
      vertex 0.523492 -14.9909 156
      vertex -1.56793 -14.9178 156
    endloop
  endfacet
  facet normal -0.034931 -0.99939 -0
    outer loop
      vertex 0.523492 -14.9909 156
      vertex -1.56793 -14.9178 0
      vertex 0.523492 -14.9909 0
    endloop
  endfacet
  facet normal -0.848061 0.529898 0
    outer loop
      vertex -13.2442 7.04207 0
      vertex -12.1353 8.81678 156
      vertex -12.1353 8.81678 0
    endloop
  endfacet
  facet normal -0.848061 0.529898 0
    outer loop
      vertex -12.1353 8.81678 156
      vertex -13.2442 7.04207 0
      vertex -13.2442 7.04207 156
    endloop
  endfacet
  facet normal 0.809029 -0.587769 0
    outer loop
      vertex 11.4907 -9.64181 156
      vertex 12.7207 -7.94879 0
      vertex 12.7207 -7.94879 156
    endloop
  endfacet
  facet normal 0.809029 -0.587769 0
    outer loop
      vertex 12.7207 -7.94879 0
      vertex 11.4907 -9.64181 156
      vertex 11.4907 -9.64181 0
    endloop
  endfacet
  facet normal 0.809029 0.587769 0
    outer loop
      vertex 12.7207 7.94879 156
      vertex 11.4907 9.64181 0
      vertex 11.4907 9.64181 156
    endloop
  endfacet
  facet normal 0.809029 0.587769 0
    outer loop
      vertex 11.4907 9.64181 0
      vertex 12.7207 7.94879 156
      vertex 12.7207 7.94879 0
    endloop
  endfacet
  facet normal 0.939699 -0.342002 0
    outer loop
      vertex 13.7032 -6.10105 156
      vertex 14.4189 -4.13456 0
      vertex 14.4189 -4.13456 156
    endloop
  endfacet
  facet normal 0.939699 -0.342002 0
    outer loop
      vertex 14.4189 -4.13456 0
      vertex 13.7032 -6.10105 156
      vertex 13.7032 -6.10105 0
    endloop
  endfacet
  facet normal -0.669133 -0.743143 0
    outer loop
      vertex -10.7901 -10.4199 0
      vertex -9.23492 -11.8202 156
      vertex -10.7901 -10.4199 156
    endloop
  endfacet
  facet normal -0.669133 -0.743143 -0
    outer loop
      vertex -9.23492 -11.8202 156
      vertex -10.7901 -10.4199 0
      vertex -9.23492 -11.8202 0
    endloop
  endfacet
  facet normal 0.997563 -0.0697664 0
    outer loop
      vertex 14.854 -2.0876 156
      vertex 15 0 0
      vertex 15 0 156
    endloop
  endfacet
  facet normal 0.997563 -0.0697664 0
    outer loop
      vertex 15 0 0
      vertex 14.854 -2.0876 156
      vertex 14.854 -2.0876 0
    endloop
  endfacet
  facet normal 0.719349 0.694649 0
    outer loop
      vertex 11.4907 9.64181 156
      vertex 10.037 11.1472 0
      vertex 10.037 11.1472 156
    endloop
  endfacet
  facet normal 0.719349 0.694649 0
    outer loop
      vertex 10.037 11.1472 0
      vertex 11.4907 9.64181 156
      vertex 11.4907 9.64181 0
    endloop
  endfacet
  facet normal 0.615654 0.788017 -0
    outer loop
      vertex 10.037 11.1472 0
      vertex 8.38789 12.4356 156
      vertex 10.037 11.1472 156
    endloop
  endfacet
  facet normal 0.615654 0.788017 0
    outer loop
      vertex 8.38789 12.4356 156
      vertex 10.037 11.1472 0
      vertex 8.38789 12.4356 0
    endloop
  endfacet
  facet normal 0 0 -1
    outer loop
      vertex 14.6 0 0
      vertex 15 0 0
      vertex 14.854 -2.0876 0
    endloop
  endfacet
  facet normal 0 0 -1
    outer loop
      vertex 15 0 0
      vertex 14.6 0 0
      vertex 14.854 2.0876 0
    endloop
  endfacet
  facet normal 0 0 -1
    outer loop
      vertex 14.854 -2.0876 0
      vertex 14.4579 -2.03193 0
      vertex 14.6 0 0
    endloop
  endfacet
  facet normal 0 0 -1
    outer loop
      vertex 14.4189 -4.13456 0
      vertex 14.4579 -2.03193 0
      vertex 14.854 -2.0876 0
    endloop
  endfacet
  facet normal 0 0 -1
    outer loop
      vertex 14.4189 -4.13456 0
      vertex 14.0344 -4.02431 0
      vertex 14.4579 -2.03193 0
    endloop
  endfacet
  facet normal 0 0 -1
    outer loop
      vertex 13.7032 -6.10105 0
      vertex 14.0344 -4.02431 0
      vertex 14.4189 -4.13456 0
    endloop
  endfacet
  facet normal 0 0 -1
    outer loop
      vertex 13.7032 -6.10105 0
      vertex 13.3378 -5.93835 0
      vertex 14.0344 -4.02431 0
    endloop
  endfacet
  facet normal 0 0 -1
    outer loop
      vertex 12.7207 -7.94879 0
      vertex 13.3378 -5.93835 0
      vertex 13.7032 -6.10105 0
    endloop
  endfacet
  facet normal 0 0 -1
    outer loop
      vertex 12.7207 -7.94879 0
      vertex 12.3815 -7.73682 0
      vertex 13.3378 -5.93835 0
    endloop
  endfacet
  facet normal 0 0 -1
    outer loop
      vertex 11.4907 -9.64181 0
      vertex 12.3815 -7.73682 0
      vertex 12.7207 -7.94879 0
    endloop
  endfacet
  facet normal 0 0 -1
    outer loop
      vertex 11.4907 -9.64181 0
      vertex 11.1842 -9.3847 0
      vertex 12.3815 -7.73682 0
    endloop
  endfacet
  facet normal 0 0 -1
    outer loop
      vertex 10.037 -11.1472 0
      vertex 11.1842 -9.3847 0
      vertex 11.4907 -9.64181 0
    endloop
  endfacet
  facet normal 0 0 -1
    outer loop
      vertex 10.037 -11.1472 0
      vertex 9.76931 -10.8499 0
      vertex 11.1842 -9.3847 0
    endloop
  endfacet
  facet normal 0 0 -1
    outer loop
      vertex 8.38789 -12.4356 0
      vertex 9.76931 -10.8499 0
      vertex 10.037 -11.1472 0
    endloop
  endfacet
  facet normal 0 0 -1
    outer loop
      vertex 8.38789 -12.4356 0
      vertex 8.16422 -12.1039 0
      vertex 9.76931 -10.8499 0
    endloop
  endfacet
  facet normal 0 0 -1
    outer loop
      vertex 6.57557 -13.4819 0
      vertex 8.16422 -12.1039 0
      vertex 8.38789 -12.4356 0
    endloop
  endfacet
  facet normal 0 0 -1
    outer loop
      vertex 6.57557 -13.4819 0
      vertex 6.40022 -13.1224 0
      vertex 8.16422 -12.1039 0
    endloop
  endfacet
  facet normal 0 0 -1
    outer loop
      vertex 4.63525 -14.2658 0
      vertex 6.40022 -13.1224 0
      vertex 6.57557 -13.4819 0
    endloop
  endfacet
  facet normal 0 0 -1
    outer loop
      vertex 4.63525 -14.2658 0
      vertex 4.51165 -13.8854 0
      vertex 6.40022 -13.1224 0
    endloop
  endfacet
  facet normal 0 0 -1
    outer loop
      vertex 2.60472 -14.7721 0
      vertex 4.51165 -13.8854 0
      vertex 4.63525 -14.2658 0
    endloop
  endfacet
  facet normal 0 0 -1
    outer loop
      vertex 2.60472 -14.7721 0
      vertex 2.53526 -14.3782 0
      vertex 4.51165 -13.8854 0
    endloop
  endfacet
  facet normal 0 0 -1
    outer loop
      vertex 0.523492 -14.9909 0
      vertex 2.53526 -14.3782 0
      vertex 2.60472 -14.7721 0
    endloop
  endfacet
  facet normal 0 0 -1
    outer loop
      vertex 0.523492 -14.9909 0
      vertex 0.509532 -14.5911 0
      vertex 2.53526 -14.3782 0
    endloop
  endfacet
  facet normal 0 0 -1
    outer loop
      vertex 0.523492 -14.9909 0
      vertex -1.52612 -14.52 0
      vertex 0.509532 -14.5911 0
    endloop
  endfacet
  facet normal 0 0 -1
    outer loop
      vertex -1.56793 -14.9178 0
      vertex -1.52612 -14.52 0
      vertex 0.523492 -14.9909 0
    endloop
  endfacet
  facet normal 0 0 -1
    outer loop
      vertex -1.56793 -14.9178 0
      vertex -3.53206 -14.1663 0
      vertex -1.52612 -14.52 0
    endloop
  endfacet
  facet normal 0 0 -1
    outer loop
      vertex -3.62883 -14.5544 0
      vertex -3.53206 -14.1663 0
      vertex -1.56793 -14.9178 0
    endloop
  endfacet
  facet normal 0 0 -1
    outer loop
      vertex -3.62883 -14.5544 0
      vertex -5.46926 -13.5369 0
      vertex -3.53206 -14.1663 0
    endloop
  endfacet
  facet normal 0 0 -1
    outer loop
      vertex -5.6191 -13.9078 0
      vertex -5.46926 -13.5369 0
      vertex -3.62883 -14.5544 0
    endloop
  endfacet
  facet normal 0 0 -1
    outer loop
      vertex -5.6191 -13.9078 0
      vertex -7.3 -12.644 0
      vertex -5.46926 -13.5369 0
    endloop
  endfacet
  facet normal 0 0 -1
    outer loop
      vertex -7.5 -12.9904 0
      vertex -7.3 -12.644 0
      vertex -5.6191 -13.9078 0
    endloop
  endfacet
  facet normal 0 0 -1
    outer loop
      vertex -7.5 -12.9904 0
      vertex -8.98866 -11.505 0
      vertex -7.3 -12.644 0
    endloop
  endfacet
  facet normal 0 0 -1
    outer loop
      vertex -9.23492 -11.8202 0
      vertex -8.98866 -11.505 0
      vertex -7.5 -12.9904 0
    endloop
  endfacet
  facet normal 0 0 -1
    outer loop
      vertex -9.23492 -11.8202 0
      vertex -10.5024 -10.142 0
      vertex -8.98866 -11.505 0
    endloop
  endfacet
  facet normal 0 0 -1
    outer loop
      vertex -10.7901 -10.4199 0
      vertex -10.5024 -10.142 0
      vertex -9.23492 -11.8202 0
    endloop
  endfacet
  facet normal 0 0 -1
    outer loop
      vertex -10.7901 -10.4199 0
      vertex -11.8116 -8.58166 0
      vertex -10.5024 -10.142 0
    endloop
  endfacet
  facet normal 0 0 -1
    outer loop
      vertex -12.1353 -8.81678 0
      vertex -11.8116 -8.58166 0
      vertex -10.7901 -10.4199 0
    endloop
  endfacet
  facet normal 0 0 -1
    outer loop
      vertex -12.1353 -8.81678 0
      vertex -12.891 -6.85428 0
      vertex -11.8116 -8.58166 0
    endloop
  endfacet
  facet normal 0 0 -1
    outer loop
      vertex -13.2442 -7.04207 0
      vertex -12.891 -6.85428 0
      vertex -12.1353 -8.81678 0
    endloop
  endfacet
  facet normal 0 0 -1
    outer loop
      vertex -13.2442 -7.04207 0
      vertex -13.7195 -4.99349 0
      vertex -12.891 -6.85428 0
    endloop
  endfacet
  facet normal 0 0 -1
    outer loop
      vertex -14.0954 -5.1303 0
      vertex -13.7195 -4.99349 0
      vertex -13.2442 -7.04207 0
    endloop
  endfacet
  facet normal 0 0 -1
    outer loop
      vertex -14.0954 -5.1303 0
      vertex -14.281 -3.03551 0
      vertex -13.7195 -4.99349 0
    endloop
  endfacet
  facet normal 0 0 -1
    outer loop
      vertex -14.6722 -3.11868 0
      vertex -14.281 -3.03551 0
      vertex -14.0954 -5.1303 0
    endloop
  endfacet
  facet normal 0 0 -1
    outer loop
      vertex -14.9635 -1.04635 0
      vertex -14.5644 -1.01844 0
      vertex -14.6722 -3.11868 0
    endloop
  endfacet
  facet normal -0 0 -1
    outer loop
      vertex -14.281 -3.03551 0
      vertex -14.6722 -3.11868 0
      vertex -14.5644 -1.01844 0
    endloop
  endfacet
  facet normal 0 0 -1
    outer loop
      vertex 14.4579 2.03193 0
      vertex 14.854 2.0876 0
      vertex 14.6 0 0
    endloop
  endfacet
  facet normal 0 0 -1
    outer loop
      vertex 14.4579 2.03193 0
      vertex 14.4189 4.13456 0
      vertex 14.854 2.0876 0
    endloop
  endfacet
  facet normal 0 0 -1
    outer loop
      vertex 14.0344 4.02431 0
      vertex 14.4189 4.13456 0
      vertex 14.4579 2.03193 0
    endloop
  endfacet
  facet normal 0 0 -1
    outer loop
      vertex 14.0344 4.02431 0
      vertex 13.7032 6.10105 0
      vertex 14.4189 4.13456 0
    endloop
  endfacet
  facet normal 0 0 -1
    outer loop
      vertex 13.3378 5.93835 0
      vertex 13.7032 6.10105 0
      vertex 14.0344 4.02431 0
    endloop
  endfacet
  facet normal 0 0 -1
    outer loop
      vertex 13.3378 5.93835 0
      vertex 12.7207 7.94879 0
      vertex 13.7032 6.10105 0
    endloop
  endfacet
  facet normal 0 0 -1
    outer loop
      vertex 12.3815 7.73682 0
      vertex 12.7207 7.94879 0
      vertex 13.3378 5.93835 0
    endloop
  endfacet
  facet normal 0 0 -1
    outer loop
      vertex 12.3815 7.73682 0
      vertex 11.4907 9.64181 0
      vertex 12.7207 7.94879 0
    endloop
  endfacet
  facet normal 0 0 -1
    outer loop
      vertex 11.1842 9.3847 0
      vertex 11.4907 9.64181 0
      vertex 12.3815 7.73682 0
    endloop
  endfacet
  facet normal 0 0 -1
    outer loop
      vertex 11.1842 9.3847 0
      vertex 10.037 11.1472 0
      vertex 11.4907 9.64181 0
    endloop
  endfacet
  facet normal 0 0 -1
    outer loop
      vertex 9.76931 10.8499 0
      vertex 10.037 11.1472 0
      vertex 11.1842 9.3847 0
    endloop
  endfacet
  facet normal 0 0 -1
    outer loop
      vertex 9.76931 10.8499 0
      vertex 8.38789 12.4356 0
      vertex 10.037 11.1472 0
    endloop
  endfacet
  facet normal 0 0 -1
    outer loop
      vertex 8.16422 12.1039 0
      vertex 8.38789 12.4356 0
      vertex 9.76931 10.8499 0
    endloop
  endfacet
  facet normal 0 0 -1
    outer loop
      vertex 8.16422 12.1039 0
      vertex 6.57557 13.4819 0
      vertex 8.38789 12.4356 0
    endloop
  endfacet
  facet normal 0 0 -1
    outer loop
      vertex 6.40022 13.1224 0
      vertex 6.57557 13.4819 0
      vertex 8.16422 12.1039 0
    endloop
  endfacet
  facet normal 0 0 -1
    outer loop
      vertex 6.40022 13.1224 0
      vertex 4.63525 14.2658 0
      vertex 6.57557 13.4819 0
    endloop
  endfacet
  facet normal 0 0 -1
    outer loop
      vertex 4.51165 13.8854 0
      vertex 4.63525 14.2658 0
      vertex 6.40022 13.1224 0
    endloop
  endfacet
  facet normal 0 0 -1
    outer loop
      vertex 4.51165 13.8854 0
      vertex 2.60472 14.7721 0
      vertex 4.63525 14.2658 0
    endloop
  endfacet
  facet normal 0 0 -1
    outer loop
      vertex 2.53526 14.3782 0
      vertex 2.60472 14.7721 0
      vertex 4.51165 13.8854 0
    endloop
  endfacet
  facet normal 0 0 -1
    outer loop
      vertex 2.53526 14.3782 0
      vertex 0.523492 14.9909 0
      vertex 2.60472 14.7721 0
    endloop
  endfacet
  facet normal 0 0 -1
    outer loop
      vertex 0.509532 14.5911 0
      vertex 0.523492 14.9909 0
      vertex 2.53526 14.3782 0
    endloop
  endfacet
  facet normal 0 0 -1
    outer loop
      vertex -1.52612 14.52 0
      vertex 0.523492 14.9909 0
      vertex 0.509532 14.5911 0
    endloop
  endfacet
  facet normal 0 0 -1
    outer loop
      vertex -1.52612 14.52 0
      vertex -1.56793 14.9178 0
      vertex 0.523492 14.9909 0
    endloop
  endfacet
  facet normal 0 0 -1
    outer loop
      vertex -3.53206 14.1663 0
      vertex -1.56793 14.9178 0
      vertex -1.52612 14.52 0
    endloop
  endfacet
  facet normal 0 0 -1
    outer loop
      vertex -3.53206 14.1663 0
      vertex -3.62883 14.5544 0
      vertex -1.56793 14.9178 0
    endloop
  endfacet
  facet normal 0 0 -1
    outer loop
      vertex -5.46926 13.5369 0
      vertex -3.62883 14.5544 0
      vertex -3.53206 14.1663 0
    endloop
  endfacet
  facet normal 0 0 -1
    outer loop
      vertex -5.46926 13.5369 0
      vertex -5.6191 13.9078 0
      vertex -3.62883 14.5544 0
    endloop
  endfacet
  facet normal 0 0 -1
    outer loop
      vertex -7.3 12.644 0
      vertex -5.6191 13.9078 0
      vertex -5.46926 13.5369 0
    endloop
  endfacet
  facet normal 0 0 -1
    outer loop
      vertex -7.3 12.644 0
      vertex -7.5 12.9904 0
      vertex -5.6191 13.9078 0
    endloop
  endfacet
  facet normal 0 0 -1
    outer loop
      vertex -8.98866 11.505 0
      vertex -7.5 12.9904 0
      vertex -7.3 12.644 0
    endloop
  endfacet
  facet normal 0 0 -1
    outer loop
      vertex -8.98866 11.505 0
      vertex -9.23492 11.8202 0
      vertex -7.5 12.9904 0
    endloop
  endfacet
  facet normal 0 0 -1
    outer loop
      vertex -10.5024 10.142 0
      vertex -9.23492 11.8202 0
      vertex -8.98866 11.505 0
    endloop
  endfacet
  facet normal 0 0 -1
    outer loop
      vertex -10.5024 10.142 0
      vertex -10.7901 10.4199 0
      vertex -9.23492 11.8202 0
    endloop
  endfacet
  facet normal 0 0 -1
    outer loop
      vertex -11.8116 8.58166 0
      vertex -10.7901 10.4199 0
      vertex -10.5024 10.142 0
    endloop
  endfacet
  facet normal 0 0 -1
    outer loop
      vertex -11.8116 8.58166 0
      vertex -12.1353 8.81678 0
      vertex -10.7901 10.4199 0
    endloop
  endfacet
  facet normal 0 0 -1
    outer loop
      vertex -12.891 6.85428 0
      vertex -12.1353 8.81678 0
      vertex -11.8116 8.58166 0
    endloop
  endfacet
  facet normal 0 0 -1
    outer loop
      vertex -12.891 6.85428 0
      vertex -13.2442 7.04207 0
      vertex -12.1353 8.81678 0
    endloop
  endfacet
  facet normal 0 0 -1
    outer loop
      vertex -13.7195 4.99349 0
      vertex -13.2442 7.04207 0
      vertex -12.891 6.85428 0
    endloop
  endfacet
  facet normal 0 0 -1
    outer loop
      vertex -13.7195 4.99349 0
      vertex -14.0954 5.1303 0
      vertex -13.2442 7.04207 0
    endloop
  endfacet
  facet normal 0 0 -1
    outer loop
      vertex -14.281 3.03551 0
      vertex -14.0954 5.1303 0
      vertex -13.7195 4.99349 0
    endloop
  endfacet
  facet normal 0 0 -1
    outer loop
      vertex -14.6722 3.11868 0
      vertex -14.281 3.03551 0
      vertex -14.5644 1.01844 0
    endloop
  endfacet
  facet normal 0 0 -1
    outer loop
      vertex -14.281 3.03551 0
      vertex -14.6722 3.11868 0
      vertex -14.0954 5.1303 0
    endloop
  endfacet
  facet normal -0 0 -1
    outer loop
      vertex -14.5644 -1.01844 0
      vertex -14.9635 -1.04635 0
      vertex -14.5644 1.01844 0
    endloop
  endfacet
  facet normal 0 0 -1
    outer loop
      vertex -14.9635 1.04635 0
      vertex -14.5644 1.01844 0
      vertex -14.9635 -1.04635 0
    endloop
  endfacet
  facet normal 0 0 -1
    outer loop
      vertex -14.5644 1.01844 0
      vertex -14.9635 1.04635 0
      vertex -14.6722 3.11868 0
    endloop
  endfacet
  facet normal -0.173652 -0.984807 0
    outer loop
      vertex -3.62883 -14.5544 0
      vertex -1.56793 -14.9178 156
      vertex -3.62883 -14.5544 156
    endloop
  endfacet
  facet normal -0.173652 -0.984807 -0
    outer loop
      vertex -1.56793 -14.9178 156
      vertex -3.62883 -14.5544 0
      vertex -1.56793 -14.9178 0
    endloop
  endfacet
  facet normal 0.615654 -0.788017 0
    outer loop
      vertex 8.38789 -12.4356 0
      vertex 10.037 -11.1472 156
      vertex 8.38789 -12.4356 156
    endloop
  endfacet
  facet normal 0.615654 -0.788017 0
    outer loop
      vertex 10.037 -11.1472 156
      vertex 8.38789 -12.4356 0
      vertex 10.037 -11.1472 0
    endloop
  endfacet
  facet normal 0.104554 -0.994519 0
    outer loop
      vertex 0.523492 -14.9909 0
      vertex 2.60472 -14.7721 156
      vertex 0.523492 -14.9909 156
    endloop
  endfacet
  facet normal 0.104554 -0.994519 0
    outer loop
      vertex 2.60472 -14.7721 156
      vertex 0.523492 -14.9909 0
      vertex 2.60472 -14.7721 0
    endloop
  endfacet
  facet normal 0.88294 0.469486 0
    outer loop
      vertex 13.7032 6.10105 156
      vertex 12.7207 7.94879 0
      vertex 12.7207 7.94879 156
    endloop
  endfacet
  facet normal 0.88294 0.469486 0
    outer loop
      vertex 12.7207 7.94879 0
      vertex 13.7032 6.10105 156
      vertex 13.7032 6.10105 0
    endloop
  endfacet
  facet normal -0.848061 -0.529898 0
    outer loop
      vertex -12.1353 -8.81678 0
      vertex -13.2442 -7.04207 156
      vertex -13.2442 -7.04207 0
    endloop
  endfacet
  facet normal -0.848061 -0.529898 0
    outer loop
      vertex -13.2442 -7.04207 156
      vertex -12.1353 -8.81678 0
      vertex -12.1353 -8.81678 156
    endloop
  endfacet
  facet normal -0.766039 0.642794 0
    outer loop
      vertex -12.1353 8.81678 0
      vertex -10.7901 10.4199 156
      vertex -10.7901 10.4199 0
    endloop
  endfacet
  facet normal -0.766039 0.642794 0
    outer loop
      vertex -10.7901 10.4199 156
      vertex -12.1353 8.81678 0
      vertex -12.1353 8.81678 156
    endloop
  endfacet
  facet normal -0.669133 0.743143 0
    outer loop
      vertex -9.23492 11.8202 0
      vertex -10.7901 10.4199 156
      vertex -9.23492 11.8202 156
    endloop
  endfacet
  facet normal -0.669133 0.743143 0
    outer loop
      vertex -10.7901 10.4199 156
      vertex -9.23492 11.8202 0
      vertex -10.7901 10.4199 0
    endloop
  endfacet
  facet normal -0.766039 -0.642794 0
    outer loop
      vertex -10.7901 -10.4199 0
      vertex -12.1353 -8.81678 156
      vertex -12.1353 -8.81678 0
    endloop
  endfacet
  facet normal -0.766039 -0.642794 0
    outer loop
      vertex -12.1353 -8.81678 156
      vertex -10.7901 -10.4199 0
      vertex -10.7901 -10.4199 156
    endloop
  endfacet
  facet normal -0.961265 -0.275627 0
    outer loop
      vertex -14.0954 -5.1303 0
      vertex -14.6722 -3.11868 156
      vertex -14.6722 -3.11868 0
    endloop
  endfacet
  facet normal -0.961265 -0.275627 0
    outer loop
      vertex -14.6722 -3.11868 156
      vertex -14.0954 -5.1303 0
      vertex -14.0954 -5.1303 156
    endloop
  endfacet
  facet normal -0.913541 -0.406747 0
    outer loop
      vertex -13.2442 -7.04207 0
      vertex -14.0954 -5.1303 156
      vertex -14.0954 -5.1303 0
    endloop
  endfacet
  facet normal -0.913541 -0.406747 0
    outer loop
      vertex -14.0954 -5.1303 156
      vertex -13.2442 -7.04207 0
      vertex -13.2442 -7.04207 156
    endloop
  endfacet
  facet normal 0.719349 -0.694649 0
    outer loop
      vertex 10.037 -11.1472 156
      vertex 11.4907 -9.64181 0
      vertex 11.4907 -9.64181 156
    endloop
  endfacet
  facet normal 0.719349 -0.694649 0
    outer loop
      vertex 11.4907 -9.64181 0
      vertex 10.037 -11.1472 156
      vertex 10.037 -11.1472 0
    endloop
  endfacet
  facet normal -0.990265 -0.139198 0
    outer loop
      vertex -14.6722 -3.11868 0
      vertex -14.9635 -1.04635 156
      vertex -14.9635 -1.04635 0
    endloop
  endfacet
  facet normal -0.990265 -0.139198 0
    outer loop
      vertex -14.9635 -1.04635 156
      vertex -14.6722 -3.11868 0
      vertex -14.6722 -3.11868 156
    endloop
  endfacet
  facet normal 0.978147 -0.207914 0
    outer loop
      vertex 14.4189 -4.13456 156
      vertex 14.854 -2.0876 0
      vertex 14.854 -2.0876 156
    endloop
  endfacet
  facet normal 0.978147 -0.207914 0
    outer loop
      vertex 14.854 -2.0876 0
      vertex 14.4189 -4.13456 156
      vertex 14.4189 -4.13456 0
    endloop
  endfacet
  facet normal -0.308983 -0.951067 0
    outer loop
      vertex -5.6191 -13.9078 0
      vertex -3.62883 -14.5544 156
      vertex -5.6191 -13.9078 156
    endloop
  endfacet
  facet normal -0.308983 -0.951067 -0
    outer loop
      vertex -3.62883 -14.5544 156
      vertex -5.6191 -13.9078 0
      vertex -3.62883 -14.5544 0
    endloop
  endfacet
  facet normal -0.990265 0.139198 0
    outer loop
      vertex -14.9635 1.04635 0
      vertex -14.6722 3.11868 156
      vertex -14.6722 3.11868 0
    endloop
  endfacet
  facet normal -0.990265 0.139198 0
    outer loop
      vertex -14.6722 3.11868 156
      vertex -14.9635 1.04635 0
      vertex -14.9635 1.04635 156
    endloop
  endfacet
  facet normal 0.499984 0.866034 -0
    outer loop
      vertex 8.38789 12.4356 0
      vertex 6.57557 13.4819 156
      vertex 8.38789 12.4356 156
    endloop
  endfacet
  facet normal 0.499984 0.866034 0
    outer loop
      vertex 6.57557 13.4819 156
      vertex 8.38789 12.4356 0
      vertex 6.57557 13.4819 0
    endloop
  endfacet
  facet normal 0.939699 0.342002 0
    outer loop
      vertex 14.4189 4.13456 156
      vertex 13.7032 6.10105 0
      vertex 13.7032 6.10105 156
    endloop
  endfacet
  facet normal 0.939699 0.342002 0
    outer loop
      vertex 13.7032 6.10105 0
      vertex 14.4189 4.13456 156
      vertex 14.4189 4.13456 0
    endloop
  endfacet
  facet normal 0 0 1
    outer loop
      vertex 14.6 0 156
      vertex 15 0 156
      vertex 14.854 2.0876 156
    endloop
  endfacet
  facet normal 0 0 1
    outer loop
      vertex 15 0 156
      vertex 14.6 0 156
      vertex 14.854 -2.0876 156
    endloop
  endfacet
  facet normal 0 0 1
    outer loop
      vertex 14.854 2.0876 156
      vertex 14.4579 2.03193 156
      vertex 14.6 0 156
    endloop
  endfacet
  facet normal 0 0 1
    outer loop
      vertex 14.4189 4.13456 156
      vertex 14.4579 2.03193 156
      vertex 14.854 2.0876 156
    endloop
  endfacet
  facet normal 0 0 1
    outer loop
      vertex 14.4189 4.13456 156
      vertex 14.0344 4.02431 156
      vertex 14.4579 2.03193 156
    endloop
  endfacet
  facet normal 0 0 1
    outer loop
      vertex 13.7032 6.10105 156
      vertex 14.0344 4.02431 156
      vertex 14.4189 4.13456 156
    endloop
  endfacet
  facet normal 0 0 1
    outer loop
      vertex 13.7032 6.10105 156
      vertex 13.3378 5.93835 156
      vertex 14.0344 4.02431 156
    endloop
  endfacet
  facet normal 0 0 1
    outer loop
      vertex 12.7207 7.94879 156
      vertex 13.3378 5.93835 156
      vertex 13.7032 6.10105 156
    endloop
  endfacet
  facet normal 0 0 1
    outer loop
      vertex 12.7207 7.94879 156
      vertex 12.3815 7.73682 156
      vertex 13.3378 5.93835 156
    endloop
  endfacet
  facet normal 0 0 1
    outer loop
      vertex 11.4907 9.64181 156
      vertex 12.3815 7.73682 156
      vertex 12.7207 7.94879 156
    endloop
  endfacet
  facet normal 0 0 1
    outer loop
      vertex 11.4907 9.64181 156
      vertex 11.1842 9.3847 156
      vertex 12.3815 7.73682 156
    endloop
  endfacet
  facet normal 0 0 1
    outer loop
      vertex 10.037 11.1472 156
      vertex 11.1842 9.3847 156
      vertex 11.4907 9.64181 156
    endloop
  endfacet
  facet normal 0 0 1
    outer loop
      vertex 10.037 11.1472 156
      vertex 9.76931 10.8499 156
      vertex 11.1842 9.3847 156
    endloop
  endfacet
  facet normal 0 0 1
    outer loop
      vertex 8.38789 12.4356 156
      vertex 9.76931 10.8499 156
      vertex 10.037 11.1472 156
    endloop
  endfacet
  facet normal 0 0 1
    outer loop
      vertex 8.38789 12.4356 156
      vertex 8.16422 12.1039 156
      vertex 9.76931 10.8499 156
    endloop
  endfacet
  facet normal 0 0 1
    outer loop
      vertex 6.57557 13.4819 156
      vertex 8.16422 12.1039 156
      vertex 8.38789 12.4356 156
    endloop
  endfacet
  facet normal 0 0 1
    outer loop
      vertex 6.57557 13.4819 156
      vertex 6.40022 13.1224 156
      vertex 8.16422 12.1039 156
    endloop
  endfacet
  facet normal 0 0 1
    outer loop
      vertex 4.63525 14.2658 156
      vertex 6.40022 13.1224 156
      vertex 6.57557 13.4819 156
    endloop
  endfacet
  facet normal 0 0 1
    outer loop
      vertex 4.63525 14.2658 156
      vertex 4.51165 13.8854 156
      vertex 6.40022 13.1224 156
    endloop
  endfacet
  facet normal 0 0 1
    outer loop
      vertex 2.60472 14.7721 156
      vertex 4.51165 13.8854 156
      vertex 4.63525 14.2658 156
    endloop
  endfacet
  facet normal 0 0 1
    outer loop
      vertex 2.60472 14.7721 156
      vertex 2.53526 14.3782 156
      vertex 4.51165 13.8854 156
    endloop
  endfacet
  facet normal 0 0 1
    outer loop
      vertex 0.523492 14.9909 156
      vertex 2.53526 14.3782 156
      vertex 2.60472 14.7721 156
    endloop
  endfacet
  facet normal 0 0 1
    outer loop
      vertex 0.523492 14.9909 156
      vertex 0.509532 14.5911 156
      vertex 2.53526 14.3782 156
    endloop
  endfacet
  facet normal 0 0 1
    outer loop
      vertex 0.523492 14.9909 156
      vertex -1.52612 14.52 156
      vertex 0.509532 14.5911 156
    endloop
  endfacet
  facet normal -0 0 1
    outer loop
      vertex -1.56793 14.9178 156
      vertex -1.52612 14.52 156
      vertex 0.523492 14.9909 156
    endloop
  endfacet
  facet normal 0 0 1
    outer loop
      vertex -1.56793 14.9178 156
      vertex -3.53206 14.1663 156
      vertex -1.52612 14.52 156
    endloop
  endfacet
  facet normal -0 0 1
    outer loop
      vertex -3.62883 14.5544 156
      vertex -3.53206 14.1663 156
      vertex -1.56793 14.9178 156
    endloop
  endfacet
  facet normal 0 0 1
    outer loop
      vertex -3.62883 14.5544 156
      vertex -5.46926 13.5369 156
      vertex -3.53206 14.1663 156
    endloop
  endfacet
  facet normal -0 0 1
    outer loop
      vertex -5.6191 13.9078 156
      vertex -5.46926 13.5369 156
      vertex -3.62883 14.5544 156
    endloop
  endfacet
  facet normal 0 0 1
    outer loop
      vertex -5.6191 13.9078 156
      vertex -7.3 12.644 156
      vertex -5.46926 13.5369 156
    endloop
  endfacet
  facet normal -0 0 1
    outer loop
      vertex -7.5 12.9904 156
      vertex -7.3 12.644 156
      vertex -5.6191 13.9078 156
    endloop
  endfacet
  facet normal 0 0 1
    outer loop
      vertex -7.5 12.9904 156
      vertex -8.98866 11.505 156
      vertex -7.3 12.644 156
    endloop
  endfacet
  facet normal -0 0 1
    outer loop
      vertex -9.23492 11.8202 156
      vertex -8.98866 11.505 156
      vertex -7.5 12.9904 156
    endloop
  endfacet
  facet normal 0 0 1
    outer loop
      vertex -9.23492 11.8202 156
      vertex -10.5024 10.142 156
      vertex -8.98866 11.505 156
    endloop
  endfacet
  facet normal -0 0 1
    outer loop
      vertex -10.7901 10.4199 156
      vertex -10.5024 10.142 156
      vertex -9.23492 11.8202 156
    endloop
  endfacet
  facet normal 0 0 1
    outer loop
      vertex -10.7901 10.4199 156
      vertex -11.8116 8.58166 156
      vertex -10.5024 10.142 156
    endloop
  endfacet
  facet normal -0 0 1
    outer loop
      vertex -12.1353 8.81678 156
      vertex -11.8116 8.58166 156
      vertex -10.7901 10.4199 156
    endloop
  endfacet
  facet normal 0 0 1
    outer loop
      vertex -12.1353 8.81678 156
      vertex -12.891 6.85428 156
      vertex -11.8116 8.58166 156
    endloop
  endfacet
  facet normal -0 0 1
    outer loop
      vertex -13.2442 7.04207 156
      vertex -12.891 6.85428 156
      vertex -12.1353 8.81678 156
    endloop
  endfacet
  facet normal 0 0 1
    outer loop
      vertex -13.2442 7.04207 156
      vertex -13.7195 4.99349 156
      vertex -12.891 6.85428 156
    endloop
  endfacet
  facet normal -0 0 1
    outer loop
      vertex -14.0954 5.1303 156
      vertex -13.7195 4.99349 156
      vertex -13.2442 7.04207 156
    endloop
  endfacet
  facet normal 0 0 1
    outer loop
      vertex -14.0954 5.1303 156
      vertex -14.281 3.03551 156
      vertex -13.7195 4.99349 156
    endloop
  endfacet
  facet normal -0 0 1
    outer loop
      vertex -14.6722 3.11868 156
      vertex -14.281 3.03551 156
      vertex -14.0954 5.1303 156
    endloop
  endfacet
  facet normal -0 0 1
    outer loop
      vertex -14.9635 1.04635 156
      vertex -14.5644 1.01844 156
      vertex -14.6722 3.11868 156
    endloop
  endfacet
  facet normal 0 0 1
    outer loop
      vertex -14.281 3.03551 156
      vertex -14.6722 3.11868 156
      vertex -14.5644 1.01844 156
    endloop
  endfacet
  facet normal -0 0 1
    outer loop
      vertex 14.4579 -2.03193 156
      vertex 14.854 -2.0876 156
      vertex 14.6 0 156
    endloop
  endfacet
  facet normal 0 0 1
    outer loop
      vertex 14.4579 -2.03193 156
      vertex 14.4189 -4.13456 156
      vertex 14.854 -2.0876 156
    endloop
  endfacet
  facet normal -0 0 1
    outer loop
      vertex 14.0344 -4.02431 156
      vertex 14.4189 -4.13456 156
      vertex 14.4579 -2.03193 156
    endloop
  endfacet
  facet normal 0 0 1
    outer loop
      vertex 14.0344 -4.02431 156
      vertex 13.7032 -6.10105 156
      vertex 14.4189 -4.13456 156
    endloop
  endfacet
  facet normal -0 0 1
    outer loop
      vertex 13.3378 -5.93835 156
      vertex 13.7032 -6.10105 156
      vertex 14.0344 -4.02431 156
    endloop
  endfacet
  facet normal 0 0 1
    outer loop
      vertex 13.3378 -5.93835 156
      vertex 12.7207 -7.94879 156
      vertex 13.7032 -6.10105 156
    endloop
  endfacet
  facet normal -0 0 1
    outer loop
      vertex 12.3815 -7.73682 156
      vertex 12.7207 -7.94879 156
      vertex 13.3378 -5.93835 156
    endloop
  endfacet
  facet normal 0 0 1
    outer loop
      vertex 12.3815 -7.73682 156
      vertex 11.4907 -9.64181 156
      vertex 12.7207 -7.94879 156
    endloop
  endfacet
  facet normal -0 0 1
    outer loop
      vertex 11.1842 -9.3847 156
      vertex 11.4907 -9.64181 156
      vertex 12.3815 -7.73682 156
    endloop
  endfacet
  facet normal 0 0 1
    outer loop
      vertex 11.1842 -9.3847 156
      vertex 10.037 -11.1472 156
      vertex 11.4907 -9.64181 156
    endloop
  endfacet
  facet normal -0 0 1
    outer loop
      vertex 9.76931 -10.8499 156
      vertex 10.037 -11.1472 156
      vertex 11.1842 -9.3847 156
    endloop
  endfacet
  facet normal 0 0 1
    outer loop
      vertex 9.76931 -10.8499 156
      vertex 8.38789 -12.4356 156
      vertex 10.037 -11.1472 156
    endloop
  endfacet
  facet normal -0 0 1
    outer loop
      vertex 8.16422 -12.1039 156
      vertex 8.38789 -12.4356 156
      vertex 9.76931 -10.8499 156
    endloop
  endfacet
  facet normal 0 0 1
    outer loop
      vertex 8.16422 -12.1039 156
      vertex 6.57557 -13.4819 156
      vertex 8.38789 -12.4356 156
    endloop
  endfacet
  facet normal -0 0 1
    outer loop
      vertex 6.40022 -13.1224 156
      vertex 6.57557 -13.4819 156
      vertex 8.16422 -12.1039 156
    endloop
  endfacet
  facet normal 0 0 1
    outer loop
      vertex 6.40022 -13.1224 156
      vertex 4.63525 -14.2658 156
      vertex 6.57557 -13.4819 156
    endloop
  endfacet
  facet normal -0 0 1
    outer loop
      vertex 4.51165 -13.8854 156
      vertex 4.63525 -14.2658 156
      vertex 6.40022 -13.1224 156
    endloop
  endfacet
  facet normal 0 0 1
    outer loop
      vertex 4.51165 -13.8854 156
      vertex 2.60472 -14.7721 156
      vertex 4.63525 -14.2658 156
    endloop
  endfacet
  facet normal -0 0 1
    outer loop
      vertex 2.53526 -14.3782 156
      vertex 2.60472 -14.7721 156
      vertex 4.51165 -13.8854 156
    endloop
  endfacet
  facet normal 0 0 1
    outer loop
      vertex 2.53526 -14.3782 156
      vertex 0.523492 -14.9909 156
      vertex 2.60472 -14.7721 156
    endloop
  endfacet
  facet normal -0 0 1
    outer loop
      vertex 0.509532 -14.5911 156
      vertex 0.523492 -14.9909 156
      vertex 2.53526 -14.3782 156
    endloop
  endfacet
  facet normal 0 0 1
    outer loop
      vertex -1.52612 -14.52 156
      vertex 0.523492 -14.9909 156
      vertex 0.509532 -14.5911 156
    endloop
  endfacet
  facet normal 0 0 1
    outer loop
      vertex -1.52612 -14.52 156
      vertex -1.56793 -14.9178 156
      vertex 0.523492 -14.9909 156
    endloop
  endfacet
  facet normal 0 0 1
    outer loop
      vertex -3.53206 -14.1663 156
      vertex -1.56793 -14.9178 156
      vertex -1.52612 -14.52 156
    endloop
  endfacet
  facet normal 0 0 1
    outer loop
      vertex -3.53206 -14.1663 156
      vertex -3.62883 -14.5544 156
      vertex -1.56793 -14.9178 156
    endloop
  endfacet
  facet normal 0 0 1
    outer loop
      vertex -5.46926 -13.5369 156
      vertex -3.62883 -14.5544 156
      vertex -3.53206 -14.1663 156
    endloop
  endfacet
  facet normal 0 0 1
    outer loop
      vertex -5.46926 -13.5369 156
      vertex -5.6191 -13.9078 156
      vertex -3.62883 -14.5544 156
    endloop
  endfacet
  facet normal 0 0 1
    outer loop
      vertex -7.3 -12.644 156
      vertex -5.6191 -13.9078 156
      vertex -5.46926 -13.5369 156
    endloop
  endfacet
  facet normal 0 0 1
    outer loop
      vertex -7.3 -12.644 156
      vertex -7.5 -12.9904 156
      vertex -5.6191 -13.9078 156
    endloop
  endfacet
  facet normal 0 0 1
    outer loop
      vertex -8.98866 -11.505 156
      vertex -7.5 -12.9904 156
      vertex -7.3 -12.644 156
    endloop
  endfacet
  facet normal 0 0 1
    outer loop
      vertex -8.98866 -11.505 156
      vertex -9.23492 -11.8202 156
      vertex -7.5 -12.9904 156
    endloop
  endfacet
  facet normal 0 0 1
    outer loop
      vertex -10.5024 -10.142 156
      vertex -9.23492 -11.8202 156
      vertex -8.98866 -11.505 156
    endloop
  endfacet
  facet normal 0 0 1
    outer loop
      vertex -10.5024 -10.142 156
      vertex -10.7901 -10.4199 156
      vertex -9.23492 -11.8202 156
    endloop
  endfacet
  facet normal 0 0 1
    outer loop
      vertex -11.8116 -8.58166 156
      vertex -10.7901 -10.4199 156
      vertex -10.5024 -10.142 156
    endloop
  endfacet
  facet normal 0 0 1
    outer loop
      vertex -11.8116 -8.58166 156
      vertex -12.1353 -8.81678 156
      vertex -10.7901 -10.4199 156
    endloop
  endfacet
  facet normal 0 0 1
    outer loop
      vertex -12.891 -6.85428 156
      vertex -12.1353 -8.81678 156
      vertex -11.8116 -8.58166 156
    endloop
  endfacet
  facet normal 0 0 1
    outer loop
      vertex -12.891 -6.85428 156
      vertex -13.2442 -7.04207 156
      vertex -12.1353 -8.81678 156
    endloop
  endfacet
  facet normal 0 0 1
    outer loop
      vertex -13.7195 -4.99349 156
      vertex -13.2442 -7.04207 156
      vertex -12.891 -6.85428 156
    endloop
  endfacet
  facet normal 0 0 1
    outer loop
      vertex -13.7195 -4.99349 156
      vertex -14.0954 -5.1303 156
      vertex -13.2442 -7.04207 156
    endloop
  endfacet
  facet normal 0 0 1
    outer loop
      vertex -14.281 -3.03551 156
      vertex -14.0954 -5.1303 156
      vertex -13.7195 -4.99349 156
    endloop
  endfacet
  facet normal 0 0 1
    outer loop
      vertex -14.6722 -3.11868 156
      vertex -14.281 -3.03551 156
      vertex -14.5644 -1.01844 156
    endloop
  endfacet
  facet normal 0 0 1
    outer loop
      vertex -14.281 -3.03551 156
      vertex -14.6722 -3.11868 156
      vertex -14.0954 -5.1303 156
    endloop
  endfacet
  facet normal 0 0 1
    outer loop
      vertex -14.5644 1.01844 156
      vertex -14.9635 1.04635 156
      vertex -14.5644 -1.01844 156
    endloop
  endfacet
  facet normal 0 0 1
    outer loop
      vertex -14.9635 -1.04635 156
      vertex -14.5644 -1.01844 156
      vertex -14.9635 1.04635 156
    endloop
  endfacet
  facet normal 0 0 1
    outer loop
      vertex -14.5644 -1.01844 156
      vertex -14.9635 -1.04635 156
      vertex -14.6722 -3.11868 156
    endloop
  endfacet
  facet normal 0.104554 0.994519 -0
    outer loop
      vertex 2.60472 14.7721 0
      vertex 0.523492 14.9909 156
      vertex 2.60472 14.7721 156
    endloop
  endfacet
  facet normal 0.104554 0.994519 0
    outer loop
      vertex 0.523492 14.9909 156
      vertex 2.60472 14.7721 0
      vertex 0.523492 14.9909 0
    endloop
  endfacet
  facet normal -1 0 0
    outer loop
      vertex -14.9635 -1.04635 0
      vertex -14.9635 1.04635 156
      vertex -14.9635 1.04635 0
    endloop
  endfacet
  facet normal -1 -0 0
    outer loop
      vertex -14.9635 1.04635 156
      vertex -14.9635 -1.04635 0
      vertex -14.9635 -1.04635 156
    endloop
  endfacet
  facet normal -0.913541 0.406747 0
    outer loop
      vertex -14.0954 5.1303 0
      vertex -13.2442 7.04207 156
      vertex -13.2442 7.04207 0
    endloop
  endfacet
  facet normal -0.913541 0.406747 0
    outer loop
      vertex -13.2442 7.04207 156
      vertex -14.0954 5.1303 0
      vertex -14.0954 5.1303 156
    endloop
  endfacet
  facet normal 0.241936 0.970292 -0
    outer loop
      vertex 4.63525 14.2658 0
      vertex 2.60472 14.7721 156
      vertex 4.63525 14.2658 156
    endloop
  endfacet
  facet normal 0.241936 0.970292 0
    outer loop
      vertex 2.60472 14.7721 156
      vertex 4.63525 14.2658 0
      vertex 2.60472 14.7721 0
    endloop
  endfacet
  facet normal -0.104522 0.994523 0
    outer loop
      vertex 2.53526 -14.3782 0
      vertex 0.509532 -14.5911 156
      vertex 2.53526 -14.3782 156
    endloop
  endfacet
  facet normal -0.104522 0.994523 0
    outer loop
      vertex 0.509532 -14.5911 156
      vertex 2.53526 -14.3782 0
      vertex 0.509532 -14.5911 0
    endloop
  endfacet
  facet normal 0.173648 -0.984808 0
    outer loop
      vertex -3.53206 14.1663 0
      vertex -1.52612 14.52 156
      vertex -3.53206 14.1663 156
    endloop
  endfacet
  facet normal 0.173648 -0.984808 0
    outer loop
      vertex -1.52612 14.52 156
      vertex -3.53206 14.1663 0
      vertex -1.52612 14.52 0
    endloop
  endfacet
  facet normal -0.978147 -0.207915 0
    outer loop
      vertex 14.4579 2.03193 0
      vertex 14.0344 4.02431 156
      vertex 14.0344 4.02431 0
    endloop
  endfacet
  facet normal -0.978147 -0.207915 0
    outer loop
      vertex 14.0344 4.02431 156
      vertex 14.4579 2.03193 0
      vertex 14.4579 2.03193 156
    endloop
  endfacet
  facet normal -0.997564 -0.0697631 0
    outer loop
      vertex 14.6 0 0
      vertex 14.4579 2.03193 156
      vertex 14.4579 2.03193 0
    endloop
  endfacet
  facet normal -0.997564 -0.0697631 0
    outer loop
      vertex 14.4579 2.03193 156
      vertex 14.6 0 0
      vertex 14.6 0 156
    endloop
  endfacet
  facet normal 0.961254 0.275664 0
    outer loop
      vertex -13.7195 -4.99349 156
      vertex -14.281 -3.03551 0
      vertex -14.281 -3.03551 156
    endloop
  endfacet
  facet normal 0.961254 0.275664 0
    outer loop
      vertex -14.281 -3.03551 0
      vertex -13.7195 -4.99349 156
      vertex -13.7195 -4.99349 0
    endloop
  endfacet
  facet normal -0.241936 -0.970292 0
    outer loop
      vertex 2.53526 14.3782 0
      vertex 4.51165 13.8854 156
      vertex 2.53526 14.3782 156
    endloop
  endfacet
  facet normal -0.241936 -0.970292 -0
    outer loop
      vertex 4.51165 13.8854 156
      vertex 2.53526 14.3782 0
      vertex 4.51165 13.8854 0
    endloop
  endfacet
  facet normal -0.88294 -0.469486 0
    outer loop
      vertex 13.3378 5.93835 0
      vertex 12.3815 7.73682 156
      vertex 12.3815 7.73682 0
    endloop
  endfacet
  facet normal -0.88294 -0.469486 0
    outer loop
      vertex 12.3815 7.73682 156
      vertex 13.3378 5.93835 0
      vertex 13.3378 5.93835 156
    endloop
  endfacet
  facet normal 0.913541 -0.406746 0
    outer loop
      vertex -13.7195 4.99349 156
      vertex -12.891 6.85428 0
      vertex -12.891 6.85428 156
    endloop
  endfacet
  facet normal 0.913541 -0.406746 0
    outer loop
      vertex -12.891 6.85428 0
      vertex -13.7195 4.99349 156
      vertex -13.7195 4.99349 0
    endloop
  endfacet
  facet normal -0.997564 0.0697631 0
    outer loop
      vertex 14.4579 -2.03193 0
      vertex 14.6 0 156
      vertex 14.6 0 0
    endloop
  endfacet
  facet normal -0.997564 0.0697631 0
    outer loop
      vertex 14.6 0 156
      vertex 14.4579 -2.03193 0
      vertex 14.4579 -2.03193 156
    endloop
  endfacet
  facet normal -0.809006 0.5878 0
    outer loop
      vertex 11.1842 -9.3847 0
      vertex 12.3815 -7.73682 156
      vertex 12.3815 -7.73682 0
    endloop
  endfacet
  facet normal -0.809006 0.5878 0
    outer loop
      vertex 12.3815 -7.73682 156
      vertex 11.1842 -9.3847 0
      vertex 11.1842 -9.3847 156
    endloop
  endfacet
  facet normal -0.809006 -0.5878 0
    outer loop
      vertex 12.3815 7.73682 0
      vertex 11.1842 9.3847 156
      vertex 11.1842 9.3847 0
    endloop
  endfacet
  facet normal -0.809006 -0.5878 0
    outer loop
      vertex 11.1842 9.3847 156
      vertex 12.3815 7.73682 0
      vertex 12.3815 7.73682 156
    endloop
  endfacet
  facet normal -0.88294 0.469486 0
    outer loop
      vertex 12.3815 -7.73682 0
      vertex 13.3378 -5.93835 156
      vertex 13.3378 -5.93835 0
    endloop
  endfacet
  facet normal -0.88294 0.469486 0
    outer loop
      vertex 13.3378 -5.93835 156
      vertex 12.3815 -7.73682 0
      vertex 12.3815 -7.73682 156
    endloop
  endfacet
  facet normal 0.669137 -0.743139 0
    outer loop
      vertex -10.5024 10.142 0
      vertex -8.98866 11.505 156
      vertex -10.5024 10.142 156
    endloop
  endfacet
  facet normal 0.669137 -0.743139 0
    outer loop
      vertex -8.98866 11.505 156
      vertex -10.5024 10.142 0
      vertex -8.98866 11.505 0
    endloop
  endfacet
  facet normal -0.615651 0.788019 0
    outer loop
      vertex 9.76931 -10.8499 0
      vertex 8.16422 -12.1039 156
      vertex 9.76931 -10.8499 156
    endloop
  endfacet
  facet normal -0.615651 0.788019 0
    outer loop
      vertex 8.16422 -12.1039 156
      vertex 9.76931 -10.8499 0
      vertex 8.16422 -12.1039 0
    endloop
  endfacet
  facet normal 0.961254 -0.275664 0
    outer loop
      vertex -14.281 3.03551 156
      vertex -13.7195 4.99349 0
      vertex -13.7195 4.99349 156
    endloop
  endfacet
  facet normal 0.961254 -0.275664 0
    outer loop
      vertex -13.7195 4.99349 0
      vertex -14.281 3.03551 156
      vertex -14.281 3.03551 0
    endloop
  endfacet
  facet normal -0.978147 0.207915 0
    outer loop
      vertex 14.0344 -4.02431 0
      vertex 14.4579 -2.03193 156
      vertex 14.4579 -2.03193 0
    endloop
  endfacet
  facet normal -0.978147 0.207915 0
    outer loop
      vertex 14.4579 -2.03193 156
      vertex 14.0344 -4.02431 0
      vertex 14.0344 -4.02431 156
    endloop
  endfacet
  facet normal 0.559188 -0.829041 0
    outer loop
      vertex -8.98866 11.505 0
      vertex -7.3 12.644 156
      vertex -8.98866 11.505 156
    endloop
  endfacet
  facet normal 0.559188 -0.829041 0
    outer loop
      vertex -7.3 12.644 156
      vertex -8.98866 11.505 0
      vertex -7.3 12.644 0
    endloop
  endfacet
  facet normal 0.990274 0.139134 0
    outer loop
      vertex -14.281 -3.03551 156
      vertex -14.5644 -1.01844 0
      vertex -14.5644 -1.01844 156
    endloop
  endfacet
  facet normal 0.990274 0.139134 0
    outer loop
      vertex -14.5644 -1.01844 0
      vertex -14.281 -3.03551 156
      vertex -14.281 -3.03551 0
    endloop
  endfacet
  facet normal 1 -0 0
    outer loop
      vertex -14.5644 -1.01844 156
      vertex -14.5644 1.01844 0
      vertex -14.5644 1.01844 156
    endloop
  endfacet
  facet normal 1 0 0
    outer loop
      vertex -14.5644 1.01844 0
      vertex -14.5644 -1.01844 156
      vertex -14.5644 -1.01844 0
    endloop
  endfacet
  facet normal -0.104522 -0.994523 0
    outer loop
      vertex 0.509532 14.5911 0
      vertex 2.53526 14.3782 156
      vertex 0.509532 14.5911 156
    endloop
  endfacet
  facet normal -0.104522 -0.994523 -0
    outer loop
      vertex 2.53526 14.3782 156
      vertex 0.509532 14.5911 0
      vertex 2.53526 14.3782 0
    endloop
  endfacet
  facet normal -0.50002 0.866014 0
    outer loop
      vertex 8.16422 -12.1039 0
      vertex 6.40022 -13.1224 156
      vertex 8.16422 -12.1039 156
    endloop
  endfacet
  facet normal -0.50002 0.866014 0
    outer loop
      vertex 6.40022 -13.1224 156
      vertex 8.16422 -12.1039 0
      vertex 6.40022 -13.1224 0
    endloop
  endfacet
  facet normal 0.913541 0.406746 0
    outer loop
      vertex -12.891 -6.85428 156
      vertex -13.7195 -4.99349 0
      vertex -13.7195 -4.99349 156
    endloop
  endfacet
  facet normal 0.913541 0.406746 0
    outer loop
      vertex -13.7195 -4.99349 0
      vertex -12.891 -6.85428 156
      vertex -12.891 -6.85428 0
    endloop
  endfacet
  facet normal -0.615651 -0.788019 0
    outer loop
      vertex 8.16422 12.1039 0
      vertex 9.76931 10.8499 156
      vertex 8.16422 12.1039 156
    endloop
  endfacet
  facet normal -0.615651 -0.788019 -0
    outer loop
      vertex 9.76931 10.8499 156
      vertex 8.16422 12.1039 0
      vertex 9.76931 10.8499 0
    endloop
  endfacet
  facet normal -0.241936 0.970292 0
    outer loop
      vertex 4.51165 -13.8854 0
      vertex 2.53526 -14.3782 156
      vertex 4.51165 -13.8854 156
    endloop
  endfacet
  facet normal -0.241936 0.970292 0
    outer loop
      vertex 2.53526 -14.3782 156
      vertex 4.51165 -13.8854 0
      vertex 2.53526 -14.3782 0
    endloop
  endfacet
  facet normal -0.374593 0.927189 0
    outer loop
      vertex 6.40022 -13.1224 0
      vertex 4.51165 -13.8854 156
      vertex 6.40022 -13.1224 156
    endloop
  endfacet
  facet normal -0.374593 0.927189 0
    outer loop
      vertex 4.51165 -13.8854 156
      vertex 6.40022 -13.1224 0
      vertex 4.51165 -13.8854 0
    endloop
  endfacet
  facet normal 0.766064 0.642764 0
    outer loop
      vertex -10.5024 -10.142 156
      vertex -11.8116 -8.58166 0
      vertex -11.8116 -8.58166 156
    endloop
  endfacet
  facet normal 0.766064 0.642764 0
    outer loop
      vertex -11.8116 -8.58166 0
      vertex -10.5024 -10.142 156
      vertex -10.5024 -10.142 0
    endloop
  endfacet
  facet normal 0.309002 -0.951061 0
    outer loop
      vertex -5.46926 13.5369 0
      vertex -3.53206 14.1663 156
      vertex -5.46926 13.5369 156
    endloop
  endfacet
  facet normal 0.309002 -0.951061 0
    outer loop
      vertex -3.53206 14.1663 156
      vertex -5.46926 13.5369 0
      vertex -3.53206 14.1663 0
    endloop
  endfacet
  facet normal 0.309002 0.951061 -0
    outer loop
      vertex -3.53206 -14.1663 0
      vertex -5.46926 -13.5369 156
      vertex -3.53206 -14.1663 156
    endloop
  endfacet
  facet normal 0.309002 0.951061 0
    outer loop
      vertex -5.46926 -13.5369 156
      vertex -3.53206 -14.1663 0
      vertex -5.46926 -13.5369 0
    endloop
  endfacet
  facet normal -0.374593 -0.927189 0
    outer loop
      vertex 4.51165 13.8854 0
      vertex 6.40022 13.1224 156
      vertex 4.51165 13.8854 156
    endloop
  endfacet
  facet normal -0.374593 -0.927189 -0
    outer loop
      vertex 6.40022 13.1224 156
      vertex 4.51165 13.8854 0
      vertex 6.40022 13.1224 0
    endloop
  endfacet
  facet normal -0.50002 -0.866014 0
    outer loop
      vertex 6.40022 13.1224 0
      vertex 8.16422 12.1039 156
      vertex 6.40022 13.1224 156
    endloop
  endfacet
  facet normal -0.50002 -0.866014 -0
    outer loop
      vertex 8.16422 12.1039 156
      vertex 6.40022 13.1224 0
      vertex 8.16422 12.1039 0
    endloop
  endfacet
  facet normal 0.0349061 0.999391 -0
    outer loop
      vertex 0.509532 -14.5911 0
      vertex -1.52612 -14.52 156
      vertex 0.509532 -14.5911 156
    endloop
  endfacet
  facet normal 0.0349061 0.999391 0
    outer loop
      vertex -1.52612 -14.52 156
      vertex 0.509532 -14.5911 0
      vertex -1.52612 -14.52 0
    endloop
  endfacet
  facet normal 0.173648 0.984808 -0
    outer loop
      vertex -1.52612 -14.52 0
      vertex -3.53206 -14.1663 156
      vertex -1.52612 -14.52 156
    endloop
  endfacet
  facet normal 0.173648 0.984808 0
    outer loop
      vertex -3.53206 -14.1663 156
      vertex -1.52612 -14.52 0
      vertex -3.53206 -14.1663 0
    endloop
  endfacet
  facet normal 0.766064 -0.642764 0
    outer loop
      vertex -11.8116 8.58166 156
      vertex -10.5024 10.142 0
      vertex -10.5024 10.142 156
    endloop
  endfacet
  facet normal 0.766064 -0.642764 0
    outer loop
      vertex -10.5024 10.142 0
      vertex -11.8116 8.58166 156
      vertex -11.8116 8.58166 0
    endloop
  endfacet
  facet normal 0.848045 -0.529924 0
    outer loop
      vertex -12.891 6.85428 156
      vertex -11.8116 8.58166 0
      vertex -11.8116 8.58166 156
    endloop
  endfacet
  facet normal 0.848045 -0.529924 0
    outer loop
      vertex -11.8116 8.58166 0
      vertex -12.891 6.85428 156
      vertex -12.891 6.85428 0
    endloop
  endfacet
  facet normal 0.848045 0.529924 0
    outer loop
      vertex -11.8116 -8.58166 156
      vertex -12.891 -6.85428 0
      vertex -12.891 -6.85428 156
    endloop
  endfacet
  facet normal 0.848045 0.529924 0
    outer loop
      vertex -12.891 -6.85428 0
      vertex -11.8116 -8.58166 156
      vertex -11.8116 -8.58166 0
    endloop
  endfacet
  facet normal -0.719349 0.694649 0
    outer loop
      vertex 9.76931 -10.8499 0
      vertex 11.1842 -9.3847 156
      vertex 11.1842 -9.3847 0
    endloop
  endfacet
  facet normal -0.719349 0.694649 0
    outer loop
      vertex 11.1842 -9.3847 156
      vertex 9.76931 -10.8499 0
      vertex 9.76931 -10.8499 156
    endloop
  endfacet
  facet normal 0.438367 -0.898796 0
    outer loop
      vertex -7.3 12.644 0
      vertex -5.46926 13.5369 156
      vertex -7.3 12.644 156
    endloop
  endfacet
  facet normal 0.438367 -0.898796 0
    outer loop
      vertex -5.46926 13.5369 156
      vertex -7.3 12.644 0
      vertex -5.46926 13.5369 0
    endloop
  endfacet
  facet normal 0.0349061 -0.999391 0
    outer loop
      vertex -1.52612 14.52 0
      vertex 0.509532 14.5911 156
      vertex -1.52612 14.52 156
    endloop
  endfacet
  facet normal 0.0349061 -0.999391 0
    outer loop
      vertex 0.509532 14.5911 156
      vertex -1.52612 14.52 0
      vertex 0.509532 14.5911 0
    endloop
  endfacet
  facet normal -0.939701 -0.341997 0
    outer loop
      vertex 14.0344 4.02431 0
      vertex 13.3378 5.93835 156
      vertex 13.3378 5.93835 0
    endloop
  endfacet
  facet normal -0.939701 -0.341997 0
    outer loop
      vertex 13.3378 5.93835 156
      vertex 14.0344 4.02431 0
      vertex 14.0344 4.02431 156
    endloop
  endfacet
  facet normal -0.939701 0.341997 0
    outer loop
      vertex 13.3378 -5.93835 0
      vertex 14.0344 -4.02431 156
      vertex 14.0344 -4.02431 0
    endloop
  endfacet
  facet normal -0.939701 0.341997 0
    outer loop
      vertex 14.0344 -4.02431 156
      vertex 13.3378 -5.93835 0
      vertex 13.3378 -5.93835 156
    endloop
  endfacet
  facet normal 0.438367 0.898796 -0
    outer loop
      vertex -5.46926 -13.5369 0
      vertex -7.3 -12.644 156
      vertex -5.46926 -13.5369 156
    endloop
  endfacet
  facet normal 0.438367 0.898796 0
    outer loop
      vertex -7.3 -12.644 156
      vertex -5.46926 -13.5369 0
      vertex -7.3 -12.644 0
    endloop
  endfacet
  facet normal 0.990274 -0.139134 0
    outer loop
      vertex -14.5644 1.01844 156
      vertex -14.281 3.03551 0
      vertex -14.281 3.03551 156
    endloop
  endfacet
  facet normal 0.990274 -0.139134 0
    outer loop
      vertex -14.281 3.03551 0
      vertex -14.5644 1.01844 156
      vertex -14.5644 1.01844 0
    endloop
  endfacet
  facet normal -0.719349 -0.694649 0
    outer loop
      vertex 11.1842 9.3847 0
      vertex 9.76931 10.8499 156
      vertex 9.76931 10.8499 0
    endloop
  endfacet
  facet normal -0.719349 -0.694649 0
    outer loop
      vertex 9.76931 10.8499 156
      vertex 11.1842 9.3847 0
      vertex 11.1842 9.3847 156
    endloop
  endfacet
  facet normal 0.669137 0.743139 -0
    outer loop
      vertex -8.98866 -11.505 0
      vertex -10.5024 -10.142 156
      vertex -8.98866 -11.505 156
    endloop
  endfacet
  facet normal 0.669137 0.743139 0
    outer loop
      vertex -10.5024 -10.142 156
      vertex -8.98866 -11.505 0
      vertex -10.5024 -10.142 0
    endloop
  endfacet
  facet normal 0.559188 0.829041 -0
    outer loop
      vertex -7.3 -12.644 0
      vertex -8.98866 -11.505 156
      vertex -7.3 -12.644 156
    endloop
  endfacet
  facet normal 0.559188 0.829041 0
    outer loop
      vertex -8.98866 -11.505 156
      vertex -7.3 -12.644 0
      vertex -8.98866 -11.505 0
    endloop
  endfacet
endsolid OpenSCAD_Model
