solid OpenSCAD_Model
  facet normal 1 -0 0
    outer loop
      vertex 50.8 0.00999355 2.39
      vertex 50.8 3 0
      vertex 50.8 3 2.39
    endloop
  endfacet
  facet normal 1 0 0
    outer loop
      vertex 50.8 3 0
      vertex 50.8 0.00999355 2.39
      vertex 50.8 0.00999355 0
    endloop
  endfacet
  facet normal 0 0 1
    outer loop
      vertex 6.35 0.00999355 2.39
      vertex 50.8 0.00999355 2.39
      vertex 50.8 3 2.39
    endloop
  endfacet
  facet normal 0 0 1
    outer loop
      vertex 50.8 0.00999355 2.39
      vertex 6.35 0.00999355 2.39
      vertex 20.9927 -31.8064 2.39
    endloop
  endfacet
  facet normal 0 -0 1
    outer loop
      vertex 20.9853 -31.81 2.39
      vertex 20.9927 -31.8064 2.39
      vertex 6.35 0.00999355 2.39
    endloop
  endfacet
  facet normal 0 0 1
    outer loop
      vertex 20.9927 -31.8064 2.39
      vertex 20.9853 -31.81 2.39
      vertex 20.9917 -31.8074 2.39
    endloop
  endfacet
  facet normal 0 0 1
    outer loop
      vertex 20.9917 -31.8074 2.39
      vertex 20.9853 -31.81 2.39
      vertex 20.9906 -31.8083 2.39
    endloop
  endfacet
  facet normal 0 0 1
    outer loop
      vertex 20.9906 -31.8083 2.39
      vertex 20.9853 -31.81 2.39
      vertex 20.9894 -31.809 2.39
    endloop
  endfacet
  facet normal 0 0 1
    outer loop
      vertex 20.9894 -31.809 2.39
      vertex 20.9853 -31.81 2.39
      vertex 20.9881 -31.8095 2.39
    endloop
  endfacet
  facet normal 0 0 1
    outer loop
      vertex 6.35 0.00999355 2.39
      vertex 50.8 3 2.39
      vertex 6.35 3 2.39
    endloop
  endfacet
  facet normal 0 0 1
    outer loop
      vertex 20.9881 -31.8095 2.39
      vertex 20.9853 -31.81 2.39
      vertex 20.9867 -31.8098 2.39
    endloop
  endfacet
  facet normal -0 0 1
    outer loop
      vertex 0.975019 -31.8007 2.39
      vertex 20.9853 -31.81 2.39
      vertex 6.35 0.00999355 2.39
    endloop
  endfacet
  facet normal 0 0 1
    outer loop
      vertex 20.9853 -31.81 2.39
      vertex 0.975019 -31.8007 2.39
      vertex 0.985343 -31.81 2.39
    endloop
  endfacet
  facet normal 0 0 1
    outer loop
      vertex 0.985343 -31.81 2.39
      vertex 0.975019 -31.8007 2.39
      vertex 0.983949 -31.8099 2.39
    endloop
  endfacet
  facet normal 0 0 1
    outer loop
      vertex 0.983949 -31.8099 2.39
      vertex 0.975019 -31.8007 2.39
      vertex 0.982575 -31.8097 2.39
    endloop
  endfacet
  facet normal 0 0 1
    outer loop
      vertex 0.982575 -31.8097 2.39
      vertex 0.975019 -31.8007 2.39
      vertex 0.981248 -31.8093 2.39
    endloop
  endfacet
  facet normal 0 0 1
    outer loop
      vertex 0.981248 -31.8093 2.39
      vertex 0.975019 -31.8007 2.39
      vertex 0.979994 -31.8087 2.39
    endloop
  endfacet
  facet normal 0 0 1
    outer loop
      vertex 0.979994 -31.8087 2.39
      vertex 0.975019 -31.8007 2.39
      vertex 0.978838 -31.8079 2.39
    endloop
  endfacet
  facet normal 0 0 1
    outer loop
      vertex 0.978838 -31.8079 2.39
      vertex 0.975019 -31.8007 2.39
      vertex 0.9778 -31.8069 2.39
    endloop
  endfacet
  facet normal 0 0 1
    outer loop
      vertex 0.9778 -31.8069 2.39
      vertex 0.975019 -31.8007 2.39
      vertex 0.976904 -31.8059 2.39
    endloop
  endfacet
  facet normal 0 0 1
    outer loop
      vertex 0.976904 -31.8059 2.39
      vertex 0.975019 -31.8007 2.39
      vertex 0.976165 -31.8047 2.39
    endloop
  endfacet
  facet normal 0 0 1
    outer loop
      vertex 0.976165 -31.8047 2.39
      vertex 0.975019 -31.8007 2.39
      vertex 0.975597 -31.8034 2.39
    endloop
  endfacet
  facet normal 0 0 1
    outer loop
      vertex 0.975597 -31.8034 2.39
      vertex 0.975019 -31.8007 2.39
      vertex 0.975213 -31.8021 2.39
    endloop
  endfacet
  facet normal 0 0 1
    outer loop
      vertex -0.00997543 -0.000697136 2.39
      vertex 6.35 0.00999355 2.39
      vertex 0.000348091 0.00999355 2.39
    endloop
  endfacet
  facet normal 0 0 1
    outer loop
      vertex -0.00997543 -0.000697136 2.39
      vertex 0.000348091 0.00999355 2.39
      vertex -0.00104523 0.00994492 2.39
    endloop
  endfacet
  facet normal 0 0 1
    outer loop
      vertex -0.00997543 -0.000697136 2.39
      vertex -0.00104523 0.00994492 2.39
      vertex -0.00241852 0.00970268 2.39
    endloop
  endfacet
  facet normal 0 0 1
    outer loop
      vertex -0.00997543 -0.000697136 2.39
      vertex -0.00241852 0.00970268 2.39
      vertex -0.00374603 0.00927162 2.39
    endloop
  endfacet
  facet normal 0 0 1
    outer loop
      vertex -0.00997543 -0.000697136 2.39
      vertex -0.00374603 0.00927162 2.39
      vertex -0.00499916 0.00865936 2.39
    endloop
  endfacet
  facet normal 0 0 1
    outer loop
      vertex -0.00997543 -0.000697136 2.39
      vertex -0.00499916 0.00865936 2.39
      vertex -0.00615597 0.00787926 2.39
    endloop
  endfacet
  facet normal 0 0 1
    outer loop
      vertex -0.00997543 -0.000697136 2.39
      vertex -0.00615597 0.00787926 2.39
      vertex -0.00719261 0.00694656 2.39
    endloop
  endfacet
  facet normal 0 0 1
    outer loop
      vertex -0.00997543 -0.000697136 2.39
      vertex -0.00719261 0.00694656 2.39
      vertex -0.00809002 0.00587749 2.39
    endloop
  endfacet
  facet normal 0 0 1
    outer loop
      vertex -0.00997543 -0.000697136 2.39
      vertex -0.00809002 0.00587749 2.39
      vertex -0.00882912 0.00469398 2.39
    endloop
  endfacet
  facet normal 0 0 1
    outer loop
      vertex -0.00997543 -0.000697136 2.39
      vertex -0.00882912 0.00469398 2.39
      vertex -0.00939655 0.00341988 2.39
    endloop
  endfacet
  facet normal 0 0 1
    outer loop
      vertex -0.00997543 -0.000697136 2.39
      vertex -0.00939655 0.00341988 2.39
      vertex -0.00978088 0.00207901 2.39
    endloop
  endfacet
  facet normal 0 0 1
    outer loop
      vertex -0.00997543 -0.000697136 2.39
      vertex -0.00978088 0.00207901 2.39
      vertex -0.00997543 0.000697136 2.39
    endloop
  endfacet
  facet normal 0 0 1
    outer loop
      vertex 6.35 0.00999355 2.39
      vertex -0.00997543 -0.000697136 2.39
      vertex 0.975019 -31.8007 2.39
    endloop
  endfacet
  facet normal 0 0 1
    outer loop
      vertex 50.8099 0.00139141 2.39
      vertex 50.8099 -0.00139141 2.39
      vertex 50.81 0 2.39
    endloop
  endfacet
  facet normal 0 0 1
    outer loop
      vertex 50.8096 0.00275612 2.39
      vertex 50.8099 -0.00139141 2.39
      vertex 50.8099 0.00139141 2.39
    endloop
  endfacet
  facet normal 0 0 1
    outer loop
      vertex 50.8096 0.00275612 2.39
      vertex 50.8096 -0.00275612 2.39
      vertex 50.8099 -0.00139141 2.39
    endloop
  endfacet
  facet normal 0 0 1
    outer loop
      vertex 50.8091 0.00406647 2.39
      vertex 50.8096 -0.00275612 2.39
      vertex 50.8096 0.00275612 2.39
    endloop
  endfacet
  facet normal 0 0 1
    outer loop
      vertex 50.8091 0.00406647 2.39
      vertex 50.8091 -0.00406647 2.39
      vertex 50.8096 -0.00275612 2.39
    endloop
  endfacet
  facet normal 0 0 1
    outer loop
      vertex 50.8085 0.00529861 2.39
      vertex 50.8091 -0.00406647 2.39
      vertex 50.8091 0.00406647 2.39
    endloop
  endfacet
  facet normal 0 0 1
    outer loop
      vertex 50.8085 0.00529861 2.39
      vertex 50.8085 -0.00529861 2.39
      vertex 50.8091 -0.00406647 2.39
    endloop
  endfacet
  facet normal 0 0 1
    outer loop
      vertex 50.8077 0.00642776 2.39
      vertex 50.8085 -0.00529861 2.39
      vertex 50.8085 0.00529861 2.39
    endloop
  endfacet
  facet normal 0 0 1
    outer loop
      vertex 50.8077 0.00642776 2.39
      vertex 50.8077 -0.00642776 2.39
      vertex 50.8085 -0.00529861 2.39
    endloop
  endfacet
  facet normal 0 0 1
    outer loop
      vertex 50.8067 0.00743103 2.39
      vertex 50.8077 -0.00642776 2.39
      vertex 50.8077 0.00642776 2.39
    endloop
  endfacet
  facet normal 0 0 1
    outer loop
      vertex 50.8056 0.00829029 2.39
      vertex 50.8077 -0.00642776 2.39
      vertex 50.8067 0.00743103 2.39
    endloop
  endfacet
  facet normal 0 0 1
    outer loop
      vertex 50.8044 0.00898743 2.39
      vertex 50.8077 -0.00642776 2.39
      vertex 50.8056 0.00829029 2.39
    endloop
  endfacet
  facet normal 0 0 1
    outer loop
      vertex 50.8031 0.00951004 2.39
      vertex 50.8077 -0.00642776 2.39
      vertex 50.8044 0.00898743 2.39
    endloop
  endfacet
  facet normal 0 0 1
    outer loop
      vertex 50.8017 0.00984764 2.39
      vertex 50.8077 -0.00642776 2.39
      vertex 50.8031 0.00951004 2.39
    endloop
  endfacet
  facet normal -0 0 1
    outer loop
      vertex 50.8 0.00999355 2.39
      vertex 50.8017 0.00984764 2.39
      vertex 50.8003 0.00999355 2.39
    endloop
  endfacet
  facet normal 0 0 1
    outer loop
      vertex 50.8017 0.00984764 2.39
      vertex 50.8 0.00999355 2.39
      vertex 50.8077 -0.00642776 2.39
    endloop
  endfacet
  facet normal 0 0 1
    outer loop
      vertex 50.8077 -0.00642776 2.39
      vertex 50.8 0.00999355 2.39
      vertex 20.9927 -31.8064 2.39
    endloop
  endfacet
  facet normal 0 0 -1
    outer loop
      vertex 0.975019 -31.8007 0
      vertex 20.9853 -31.81 0
      vertex 0.985343 -31.81 0
    endloop
  endfacet
  facet normal 0 0 -1
    outer loop
      vertex 0.975019 -31.8007 0
      vertex 0.985343 -31.81 0
      vertex 0.983949 -31.8099 0
    endloop
  endfacet
  facet normal 0 0 -1
    outer loop
      vertex 0.975019 -31.8007 0
      vertex 0.983949 -31.8099 0
      vertex 0.982575 -31.8097 0
    endloop
  endfacet
  facet normal 0 0 -1
    outer loop
      vertex 0.975019 -31.8007 0
      vertex 0.982575 -31.8097 0
      vertex 0.981248 -31.8093 0
    endloop
  endfacet
  facet normal 0 0 -1
    outer loop
      vertex 0.975019 -31.8007 0
      vertex 0.981248 -31.8093 0
      vertex 0.979994 -31.8087 0
    endloop
  endfacet
  facet normal 0 0 -1
    outer loop
      vertex 0.975019 -31.8007 0
      vertex 0.979994 -31.8087 0
      vertex 0.978838 -31.8079 0
    endloop
  endfacet
  facet normal 0 0 -1
    outer loop
      vertex 0.975019 -31.8007 0
      vertex 0.978838 -31.8079 0
      vertex 0.9778 -31.8069 0
    endloop
  endfacet
  facet normal 0 0 -1
    outer loop
      vertex 0.975019 -31.8007 0
      vertex 0.9778 -31.8069 0
      vertex 0.976904 -31.8059 0
    endloop
  endfacet
  facet normal 0 0 -1
    outer loop
      vertex 0.975019 -31.8007 0
      vertex 0.976904 -31.8059 0
      vertex 0.976165 -31.8047 0
    endloop
  endfacet
  facet normal 0 0 -1
    outer loop
      vertex 0.975019 -31.8007 0
      vertex 0.976165 -31.8047 0
      vertex 0.975597 -31.8034 0
    endloop
  endfacet
  facet normal 0 0 -1
    outer loop
      vertex 0.975019 -31.8007 0
      vertex 0.975597 -31.8034 0
      vertex 0.975213 -31.8021 0
    endloop
  endfacet
  facet normal 0 0 -1
    outer loop
      vertex 20.9853 -31.81 0
      vertex 0.975019 -31.8007 0
      vertex 6.35 0.00999355 0
    endloop
  endfacet
  facet normal 0 0 -1
    outer loop
      vertex -0.00997543 -0.000697136 0
      vertex 6.35 0.00999355 0
      vertex 0.975019 -31.8007 0
    endloop
  endfacet
  facet normal -0 0 -1
    outer loop
      vertex 6.35 0.00999355 0
      vertex -0.00997543 -0.000697136 0
      vertex 0.000348091 0.00999355 0
    endloop
  endfacet
  facet normal 0 0 -1
    outer loop
      vertex 0.000348091 0.00999355 0
      vertex -0.00997543 -0.000697136 0
      vertex -0.00104523 0.00994492 0
    endloop
  endfacet
  facet normal 0 0 -1
    outer loop
      vertex -0.00104523 0.00994492 0
      vertex -0.00997543 -0.000697136 0
      vertex -0.00241852 0.00970268 0
    endloop
  endfacet
  facet normal 0 0 -1
    outer loop
      vertex -0.00241852 0.00970268 0
      vertex -0.00997543 -0.000697136 0
      vertex -0.00374603 0.00927162 0
    endloop
  endfacet
  facet normal 0 0 -1
    outer loop
      vertex -0.00374603 0.00927162 0
      vertex -0.00997543 -0.000697136 0
      vertex -0.00499916 0.00865936 0
    endloop
  endfacet
  facet normal 0 0 -1
    outer loop
      vertex -0.00499916 0.00865936 0
      vertex -0.00997543 -0.000697136 0
      vertex -0.00615597 0.00787926 0
    endloop
  endfacet
  facet normal 0 0 -1
    outer loop
      vertex -0.00615597 0.00787926 0
      vertex -0.00997543 -0.000697136 0
      vertex -0.00719261 0.00694656 0
    endloop
  endfacet
  facet normal 0 0 -1
    outer loop
      vertex -0.00719261 0.00694656 0
      vertex -0.00997543 -0.000697136 0
      vertex -0.00809002 0.00587749 0
    endloop
  endfacet
  facet normal 0 0 -1
    outer loop
      vertex -0.00809002 0.00587749 0
      vertex -0.00997543 -0.000697136 0
      vertex -0.00882912 0.00469398 0
    endloop
  endfacet
  facet normal 0 0 -1
    outer loop
      vertex -0.00882912 0.00469398 0
      vertex -0.00997543 -0.000697136 0
      vertex -0.00939655 0.00341988 0
    endloop
  endfacet
  facet normal 0 0 -1
    outer loop
      vertex -0.00939655 0.00341988 0
      vertex -0.00997543 -0.000697136 0
      vertex -0.00978088 0.00207901 0
    endloop
  endfacet
  facet normal 0 0 -1
    outer loop
      vertex -0.00978088 0.00207901 0
      vertex -0.00997543 -0.000697136 0
      vertex -0.00997543 0.000697136 0
    endloop
  endfacet
  facet normal 0 0 -1
    outer loop
      vertex 50.8099 -0.00139141 0
      vertex 50.8099 0.00139141 0
      vertex 50.81 0 0
    endloop
  endfacet
  facet normal 0 0 -1
    outer loop
      vertex 50.8096 -0.00275612 0
      vertex 50.8099 0.00139141 0
      vertex 50.8099 -0.00139141 0
    endloop
  endfacet
  facet normal 0 0 -1
    outer loop
      vertex 50.8096 -0.00275612 0
      vertex 50.8096 0.00275612 0
      vertex 50.8099 0.00139141 0
    endloop
  endfacet
  facet normal 0 0 -1
    outer loop
      vertex 50.8091 -0.00406647 0
      vertex 50.8096 0.00275612 0
      vertex 50.8096 -0.00275612 0
    endloop
  endfacet
  facet normal 0 0 -1
    outer loop
      vertex 50.8091 -0.00406647 0
      vertex 50.8091 0.00406647 0
      vertex 50.8096 0.00275612 0
    endloop
  endfacet
  facet normal 0 0 -1
    outer loop
      vertex 50.8085 -0.00529861 0
      vertex 50.8091 0.00406647 0
      vertex 50.8091 -0.00406647 0
    endloop
  endfacet
  facet normal 0 0 -1
    outer loop
      vertex 50.8085 -0.00529861 0
      vertex 50.8085 0.00529861 0
      vertex 50.8091 0.00406647 0
    endloop
  endfacet
  facet normal 0 0 -1
    outer loop
      vertex 50.8077 -0.00642776 0
      vertex 50.8085 0.00529861 0
      vertex 50.8085 -0.00529861 0
    endloop
  endfacet
  facet normal 0 0 -1
    outer loop
      vertex 50.8077 -0.00642776 0
      vertex 50.8077 0.00642776 0
      vertex 50.8085 0.00529861 0
    endloop
  endfacet
  facet normal 0 0 -1
    outer loop
      vertex 50.8077 -0.00642776 0
      vertex 50.8067 0.00743103 0
      vertex 50.8077 0.00642776 0
    endloop
  endfacet
  facet normal 0 0 -1
    outer loop
      vertex 50.8077 -0.00642776 0
      vertex 50.8056 0.00829029 0
      vertex 50.8067 0.00743103 0
    endloop
  endfacet
  facet normal 0 0 -1
    outer loop
      vertex 50.8077 -0.00642776 0
      vertex 50.8044 0.00898743 0
      vertex 50.8056 0.00829029 0
    endloop
  endfacet
  facet normal 0 0 -1
    outer loop
      vertex 50.8077 -0.00642776 0
      vertex 50.8031 0.00951004 0
      vertex 50.8044 0.00898743 0
    endloop
  endfacet
  facet normal 0 0 -1
    outer loop
      vertex 50.8077 -0.00642776 0
      vertex 50.8017 0.00984764 0
      vertex 50.8031 0.00951004 0
    endloop
  endfacet
  facet normal 0 0 -1
    outer loop
      vertex 50.8 0.00999355 0
      vertex 50.8017 0.00984764 0
      vertex 50.8077 -0.00642776 0
    endloop
  endfacet
  facet normal 0 0 -1
    outer loop
      vertex 50.8017 0.00984764 0
      vertex 50.8 0.00999355 0
      vertex 50.8003 0.00999355 0
    endloop
  endfacet
  facet normal 0 0 -1
    outer loop
      vertex 20.9927 -31.8064 0
      vertex 50.8 0.00999355 0
      vertex 50.8077 -0.00642776 0
    endloop
  endfacet
  facet normal 0 0 -1
    outer loop
      vertex 6.35 0.00999355 0
      vertex 50.8 0.00999355 0
      vertex 20.9927 -31.8064 0
    endloop
  endfacet
  facet normal 0 0 -1
    outer loop
      vertex 20.9853 -31.81 0
      vertex 20.9927 -31.8064 0
      vertex 20.9917 -31.8074 0
    endloop
  endfacet
  facet normal 0 0 -1
    outer loop
      vertex 20.9853 -31.81 0
      vertex 20.9917 -31.8074 0
      vertex 20.9906 -31.8083 0
    endloop
  endfacet
  facet normal 0 0 -1
    outer loop
      vertex 20.9853 -31.81 0
      vertex 20.9906 -31.8083 0
      vertex 20.9894 -31.809 0
    endloop
  endfacet
  facet normal 0 0 -1
    outer loop
      vertex 20.9853 -31.81 0
      vertex 20.9894 -31.809 0
      vertex 20.9881 -31.8095 0
    endloop
  endfacet
  facet normal 0 0 -1
    outer loop
      vertex 20.9853 -31.81 0
      vertex 20.9881 -31.8095 0
      vertex 20.9867 -31.8098 0
    endloop
  endfacet
  facet normal -0 0 -1
    outer loop
      vertex 20.9927 -31.8064 0
      vertex 20.9853 -31.81 0
      vertex 6.35 0.00999355 0
    endloop
  endfacet
  facet normal 0 0 -1
    outer loop
      vertex 50.8 0.00999355 0
      vertex 6.35 0.00999355 0
      vertex 50.8 3 0
    endloop
  endfacet
  facet normal -0 0 -1
    outer loop
      vertex 50.8 3 0
      vertex 6.35 0.00999355 0
      vertex 6.35 3 0
    endloop
  endfacet
  facet normal 0 1 -0
    outer loop
      vertex 50.8 3 0
      vertex 6.35 3 2.39
      vertex 50.8 3 2.39
    endloop
  endfacet
  facet normal 0 1 0
    outer loop
      vertex 6.35 3 2.39
      vertex 50.8 3 0
      vertex 6.35 3 0
    endloop
  endfacet
  facet normal -1 0 0
    outer loop
      vertex 6.35 0.00999355 0
      vertex 6.35 3 2.39
      vertex 6.35 3 0
    endloop
  endfacet
  facet normal -1 -0 0
    outer loop
      vertex 6.35 3 2.39
      vertex 6.35 0.00999355 0
      vertex 6.35 0.00999355 2.39
    endloop
  endfacet
  facet normal 0.997427 0.0716846 0
    outer loop
      vertex 50.81 0 2.39
      vertex 50.8099 0.00139141 0
      vertex 50.8099 0.00139141 2.39
    endloop
  endfacet
  facet normal 0.997427 0.0716846 0
    outer loop
      vertex 50.8099 0.00139141 0
      vertex 50.81 0 2.39
      vertex 50.81 0 0
    endloop
  endfacet
  facet normal 0.815961 -0.578107 0
    outer loop
      vertex 50.8077 -0.00642776 2.39
      vertex 50.8085 -0.00529861 0
      vertex 50.8085 -0.00529861 2.39
    endloop
  endfacet
  facet normal 0.815961 -0.578107 0
    outer loop
      vertex 50.8085 -0.00529861 0
      vertex 50.8077 -0.00642776 2.39
      vertex 50.8077 -0.00642776 0
    endloop
  endfacet
  facet normal -0.744774 -0.667317 0
    outer loop
      vertex 0.9778 -31.8069 0
      vertex 0.976904 -31.8059 2.39
      vertex 0.976904 -31.8059 0
    endloop
  endfacet
  facet normal -0.744774 -0.667317 0
    outer loop
      vertex 0.976904 -31.8059 2.39
      vertex 0.9778 -31.8069 0
      vertex 0.9778 -31.8069 2.39
    endloop
  endfacet
  facet normal 0.729508 -0.683972 0
    outer loop
      vertex 20.9927 -31.8064 2.39
      vertex 50.8077 -0.00642776 0
      vertex 50.8077 -0.00642776 2.39
    endloop
  endfacet
  facet normal 0.729508 -0.683972 0
    outer loop
      vertex 50.8077 -0.00642776 0
      vertex 20.9927 -31.8064 2.39
      vertex 20.9927 -31.8064 0
    endloop
  endfacet
  facet normal 0 1 -0
    outer loop
      vertex 50.8003 0.00999355 0
      vertex 50.8 0.00999355 2.39
      vertex 50.8003 0.00999355 2.39
    endloop
  endfacet
  facet normal 0 1 0
    outer loop
      vertex 50.8 0.00999355 2.39
      vertex 50.8003 0.00999355 0
      vertex 50.8 0.00999355 0
    endloop
  endfacet
  facet normal 0 1 -0
    outer loop
      vertex 6.35 0.00999355 0
      vertex 0.000348091 0.00999355 2.39
      vertex 6.35 0.00999355 2.39
    endloop
  endfacet
  facet normal 0 1 0
    outer loop
      vertex 0.000348091 0.00999355 2.39
      vertex 6.35 0.00999355 0
      vertex 0.000348091 0.00999355 0
    endloop
  endfacet
  facet normal -0.916351 -0.400375 0
    outer loop
      vertex 0.976165 -31.8047 0
      vertex 0.975597 -31.8034 2.39
      vertex 0.975597 -31.8034 0
    endloop
  endfacet
  facet normal -0.916351 -0.400375 0
    outer loop
      vertex 0.975597 -31.8034 2.39
      vertex 0.976165 -31.8047 0
      vertex 0.976165 -31.8047 2.39
    endloop
  endfacet
  facet normal 0.633238 -0.773957 0
    outer loop
      vertex 20.9906 -31.8083 0
      vertex 20.9917 -31.8074 2.39
      vertex 20.9906 -31.8083 2.39
    endloop
  endfacet
  facet normal 0.633238 -0.773957 0
    outer loop
      vertex 20.9917 -31.8074 2.39
      vertex 20.9906 -31.8083 0
      vertex 20.9917 -31.8074 0
    endloop
  endfacet
  facet normal 0.815961 0.578107 0
    outer loop
      vertex 50.8085 0.00529861 2.39
      vertex 50.8077 0.00642776 0
      vertex 50.8077 0.00642776 2.39
    endloop
  endfacet
  facet normal 0.815961 0.578107 0
    outer loop
      vertex 50.8077 0.00642776 0
      vertex 50.8085 0.00529861 2.39
      vertex 50.8085 0.00529861 0
    endloop
  endfacet
  facet normal 0.70826 0.705952 0
    outer loop
      vertex 50.8077 0.00642776 2.39
      vertex 50.8067 0.00743103 0
      vertex 50.8067 0.00743103 2.39
    endloop
  endfacet
  facet normal 0.70826 0.705952 0
    outer loop
      vertex 50.8067 0.00743103 0
      vertex 50.8077 0.00642776 2.39
      vertex 50.8077 0.00642776 0
    endloop
  endfacet
  facet normal -0.668855 0.743393 0
    outer loop
      vertex -0.00615597 0.00787926 0
      vertex -0.00719261 0.00694656 2.39
      vertex -0.00615597 0.00787926 2.39
    endloop
  endfacet
  facet normal -0.668855 0.743393 0
    outer loop
      vertex -0.00719261 0.00694656 2.39
      vertex -0.00615597 0.00787926 0
      vertex -0.00719261 0.00694656 0
    endloop
  endfacet
  facet normal 0.209529 -0.977802 0
    outer loop
      vertex 20.9867 -31.8098 0
      vertex 20.9881 -31.8095 2.39
      vertex 20.9867 -31.8098 2.39
    endloop
  endfacet
  facet normal 0.209529 -0.977802 0
    outer loop
      vertex 20.9881 -31.8095 2.39
      vertex 20.9867 -31.8098 0
      vertex 20.9881 -31.8095 0
    endloop
  endfacet
  facet normal 0 -1 0
    outer loop
      vertex 0.985343 -31.81 0
      vertex 20.9853 -31.81 2.39
      vertex 0.985343 -31.81 2.39
    endloop
  endfacet
  facet normal 0 -1 -0
    outer loop
      vertex 20.9853 -31.81 2.39
      vertex 0.985343 -31.81 0
      vertex 20.9853 -31.81 0
    endloop
  endfacet
  facet normal 0.97668 0.214701 0
    outer loop
      vertex 50.8099 0.00139141 2.39
      vertex 50.8096 0.00275612 0
      vertex 50.8096 0.00275612 2.39
    endloop
  endfacet
  facet normal 0.97668 0.214701 0
    outer loop
      vertex 50.8096 0.00275612 0
      vertex 50.8099 0.00139141 2.39
      vertex 50.8099 0.00139141 0
    endloop
  endfacet
  facet normal -0.999521 -0.0309598 0
    outer loop
      vertex 0.975019 -31.8007 0
      vertex -0.00997543 -0.000697136 2.39
      vertex -0.00997543 -0.000697136 0
    endloop
  endfacet
  facet normal -0.999521 -0.0309598 0
    outer loop
      vertex -0.00997543 -0.000697136 2.39
      vertex 0.975019 -31.8007 0
      vertex 0.975019 -31.8007 2.39
    endloop
  endfacet
  facet normal 0.615593 0.788064 -0
    outer loop
      vertex 50.8067 0.00743103 0
      vertex 50.8056 0.00829029 2.39
      vertex 50.8067 0.00743103 2.39
    endloop
  endfacet
  facet normal 0.615593 0.788064 0
    outer loop
      vertex 50.8056 0.00829029 2.39
      vertex 50.8067 0.00743103 0
      vertex 50.8056 0.00829029 0
    endloop
  endfacet
  facet normal -0.0715521 -0.997437 0
    outer loop
      vertex 0.983949 -31.8099 0
      vertex 0.985343 -31.81 2.39
      vertex 0.983949 -31.8099 2.39
    endloop
  endfacet
  facet normal -0.0715521 -0.997437 -0
    outer loop
      vertex 0.985343 -31.81 2.39
      vertex 0.983949 -31.8099 0
      vertex 0.985343 -31.81 0
    endloop
  endfacet
  facet normal 0.234423 0.972135 -0
    outer loop
      vertex 50.8031 0.00951004 0
      vertex 50.8017 0.00984764 2.39
      vertex 50.8031 0.00951004 2.39
    endloop
  endfacet
  facet normal 0.234423 0.972135 0
    outer loop
      vertex 50.8017 0.00984764 2.39
      vertex 50.8031 0.00951004 0
      vertex 50.8017 0.00984764 0
    endloop
  endfacet
  facet normal -0.034881 0.999391 0
    outer loop
      vertex 0.000348091 0.00999355 0
      vertex -0.00104523 0.00994492 2.39
      vertex 0.000348091 0.00999355 2.39
    endloop
  endfacet
  facet normal -0.034881 0.999391 0
    outer loop
      vertex -0.00104523 0.00994492 2.39
      vertex 0.000348091 0.00999355 0
      vertex -0.00104523 0.00994492 0
    endloop
  endfacet
  facet normal 0.934293 0.356505 0
    outer loop
      vertex 50.8096 0.00275612 2.39
      vertex 50.8091 0.00406647 0
      vertex 50.8091 0.00406647 2.39
    endloop
  endfacet
  facet normal 0.934293 0.356505 0
    outer loop
      vertex 50.8091 0.00406647 0
      vertex 50.8096 0.00275612 2.39
      vertex 50.8096 0.00275612 0
    endloop
  endfacet
  facet normal -1 0 0
    outer loop
      vertex -0.00997543 -0.000697136 0
      vertex -0.00997543 0.000697136 2.39
      vertex -0.00997543 0.000697136 0
    endloop
  endfacet
  facet normal -1 -0 0
    outer loop
      vertex -0.00997543 0.000697136 2.39
      vertex -0.00997543 -0.000697136 0
      vertex -0.00997543 -0.000697136 2.39
    endloop
  endfacet
  facet normal -0.76592 0.642936 0
    outer loop
      vertex -0.00809002 0.00587749 0
      vertex -0.00719261 0.00694656 2.39
      vertex -0.00719261 0.00694656 0
    endloop
  endfacet
  facet normal -0.76592 0.642936 0
    outer loop
      vertex -0.00719261 0.00694656 2.39
      vertex -0.00809002 0.00587749 0
      vertex -0.00809002 0.00587749 2.39
    endloop
  endfacet
  facet normal 0.707107 -0.707107 0
    outer loop
      vertex 20.9917 -31.8074 2.39
      vertex 20.9927 -31.8064 0
      vertex 20.9927 -31.8064 2.39
    endloop
  endfacet
  facet normal 0.707107 -0.707107 0
    outer loop
      vertex 20.9927 -31.8064 0
      vertex 20.9917 -31.8074 2.39
      vertex 20.9917 -31.8074 0
    endloop
  endfacet
  facet normal 0.503871 -0.863779 0
    outer loop
      vertex 20.9894 -31.809 0
      vertex 20.9906 -31.8083 2.39
      vertex 20.9894 -31.809 2.39
    endloop
  endfacet
  facet normal 0.503871 -0.863779 0
    outer loop
      vertex 20.9906 -31.8083 2.39
      vertex 20.9894 -31.809 0
      vertex 20.9906 -31.8083 0
    endloop
  endfacet
  facet normal -0.431608 -0.902061 0
    outer loop
      vertex 0.979994 -31.8087 0
      vertex 0.981248 -31.8093 2.39
      vertex 0.979994 -31.8087 2.39
    endloop
  endfacet
  facet normal -0.431608 -0.902061 -0
    outer loop
      vertex 0.981248 -31.8093 2.39
      vertex 0.979994 -31.8087 0
      vertex 0.981248 -31.8093 0
    endloop
  endfacet
  facet normal 0.997427 -0.0716846 0
    outer loop
      vertex 50.8099 -0.00139141 2.39
      vertex 50.81 0 0
      vertex 50.81 0 2.39
    endloop
  endfacet
  facet normal 0.997427 -0.0716846 0
    outer loop
      vertex 50.81 0 0
      vertex 50.8099 -0.00139141 2.39
      vertex 50.8099 -0.00139141 0
    endloop
  endfacet
  facet normal -0.961292 0.275532 0
    outer loop
      vertex -0.00978088 0.00207901 0
      vertex -0.00939655 0.00341988 2.39
      vertex -0.00939655 0.00341988 0
    endloop
  endfacet
  facet normal -0.961292 0.275532 0
    outer loop
      vertex -0.00939655 0.00341988 2.39
      vertex -0.00978088 0.00207901 0
      vertex -0.00978088 0.00207901 2.39
    endloop
  endfacet
  facet normal 0.141421 -0.989949 0
    outer loop
      vertex 20.9853 -31.81 0
      vertex 20.9867 -31.8098 2.39
      vertex 20.9853 -31.81 2.39
    endloop
  endfacet
  facet normal 0.141421 -0.989949 0
    outer loop
      vertex 20.9867 -31.8098 2.39
      vertex 20.9853 -31.81 0
      vertex 20.9867 -31.8098 0
    endloop
  endfacet
  facet normal -0.693802 -0.720166 0
    outer loop
      vertex 0.9778 -31.8069 0
      vertex 0.978838 -31.8079 2.39
      vertex 0.9778 -31.8069 2.39
    endloop
  endfacet
  facet normal -0.693802 -0.720166 -0
    outer loop
      vertex 0.978838 -31.8079 2.39
      vertex 0.9778 -31.8069 0
      vertex 0.978838 -31.8079 0
    endloop
  endfacet
  facet normal -0.173712 0.984796 0
    outer loop
      vertex -0.00104523 0.00994492 0
      vertex -0.00241852 0.00970268 2.39
      vertex -0.00104523 0.00994492 2.39
    endloop
  endfacet
  facet normal -0.173712 0.984796 0
    outer loop
      vertex -0.00241852 0.00970268 2.39
      vertex -0.00104523 0.00994492 0
      vertex -0.00241852 0.00970268 0
    endloop
  endfacet
  facet normal -0.308839 0.951114 0
    outer loop
      vertex -0.00241852 0.00970268 0
      vertex -0.00374603 0.00927162 2.39
      vertex -0.00241852 0.00970268 2.39
    endloop
  endfacet
  facet normal -0.308839 0.951114 0
    outer loop
      vertex -0.00374603 0.00927162 2.39
      vertex -0.00241852 0.00970268 0
      vertex -0.00374603 0.00927162 0
    endloop
  endfacet
  facet normal -0.438989 0.898492 0
    outer loop
      vertex -0.00374603 0.00927162 0
      vertex -0.00499916 0.00865936 2.39
      vertex -0.00374603 0.00927162 2.39
    endloop
  endfacet
  facet normal -0.438989 0.898492 0
    outer loop
      vertex -0.00499916 0.00865936 2.39
      vertex -0.00374603 0.00927162 0
      vertex -0.00499916 0.00865936 0
    endloop
  endfacet
  facet normal -0.913502 0.406835 0
    outer loop
      vertex -0.00939655 0.00341988 0
      vertex -0.00882912 0.00469398 2.39
      vertex -0.00882912 0.00469398 0
    endloop
  endfacet
  facet normal -0.913502 0.406835 0
    outer loop
      vertex -0.00882912 0.00469398 2.39
      vertex -0.00939655 0.00341988 0
      vertex -0.00939655 0.00341988 2.39
    endloop
  endfacet
  facet normal 0.502333 0.864674 -0
    outer loop
      vertex 50.8056 0.00829029 0
      vertex 50.8044 0.00898743 2.39
      vertex 50.8056 0.00829029 2.39
    endloop
  endfacet
  facet normal 0.502333 0.864674 0
    outer loop
      vertex 50.8044 0.00898743 2.39
      vertex 50.8056 0.00829029 0
      vertex 50.8044 0.00898743 0
    endloop
  endfacet
  facet normal 0.899068 -0.437808 0
    outer loop
      vertex 50.8085 -0.00529861 2.39
      vertex 50.8091 -0.00406647 0
      vertex 50.8091 -0.00406647 2.39
    endloop
  endfacet
  facet normal 0.899068 -0.437808 0
    outer loop
      vertex 50.8091 -0.00406647 0
      vertex 50.8085 -0.00529861 2.39
      vertex 50.8085 -0.00529861 0
    endloop
  endfacet
  facet normal -0.559105 0.829097 0
    outer loop
      vertex -0.00499916 0.00865936 0
      vertex -0.00615597 0.00787926 2.39
      vertex -0.00499916 0.00865936 2.39
    endloop
  endfacet
  facet normal -0.559105 0.829097 0
    outer loop
      vertex -0.00615597 0.00787926 2.39
      vertex -0.00499916 0.00865936 0
      vertex -0.00615597 0.00787926 0
    endloop
  endfacet
  facet normal -0.144042 -0.989572 0
    outer loop
      vertex 0.982575 -31.8097 0
      vertex 0.983949 -31.8099 2.39
      vertex 0.982575 -31.8097 2.39
    endloop
  endfacet
  facet normal -0.144042 -0.989572 -0
    outer loop
      vertex 0.983949 -31.8099 2.39
      vertex 0.982575 -31.8097 0
      vertex 0.983949 -31.8099 0
    endloop
  endfacet
  facet normal 0.358979 -0.933346 0
    outer loop
      vertex 20.9881 -31.8095 0
      vertex 20.9894 -31.809 2.39
      vertex 20.9881 -31.8095 2.39
    endloop
  endfacet
  facet normal 0.358979 -0.933346 0
    outer loop
      vertex 20.9894 -31.809 2.39
      vertex 20.9881 -31.8095 0
      vertex 20.9894 -31.809 0
    endloop
  endfacet
  facet normal 0.10366 0.994613 -0
    outer loop
      vertex 50.8017 0.00984764 0
      vertex 50.8003 0.00999355 2.39
      vertex 50.8017 0.00984764 2.39
    endloop
  endfacet
  facet normal 0.10366 0.994613 0
    outer loop
      vertex 50.8003 0.00999355 2.39
      vertex 50.8017 0.00984764 0
      vertex 50.8003 0.00999355 0
    endloop
  endfacet
  facet normal 0.934293 -0.356505 0
    outer loop
      vertex 50.8091 -0.00406647 2.39
      vertex 50.8096 -0.00275612 0
      vertex 50.8096 -0.00275612 2.39
    endloop
  endfacet
  facet normal 0.934293 -0.356505 0
    outer loop
      vertex 50.8096 -0.00275612 0
      vertex 50.8091 -0.00406647 2.39
      vertex 50.8091 -0.00406647 0
    endloop
  endfacet
  facet normal 0.97668 -0.214701 0
    outer loop
      vertex 50.8096 -0.00275612 2.39
      vertex 50.8099 -0.00139141 0
      vertex 50.8099 -0.00139141 2.39
    endloop
  endfacet
  facet normal 0.97668 -0.214701 0
    outer loop
      vertex 50.8099 -0.00139141 0
      vertex 50.8096 -0.00275612 2.39
      vertex 50.8096 -0.00275612 0
    endloop
  endfacet
  facet normal 0.372996 0.927833 -0
    outer loop
      vertex 50.8044 0.00898743 0
      vertex 50.8031 0.00951004 2.39
      vertex 50.8044 0.00898743 2.39
    endloop
  endfacet
  facet normal 0.372996 0.927833 0
    outer loop
      vertex 50.8031 0.00951004 2.39
      vertex 50.8044 0.00898743 0
      vertex 50.8031 0.00951004 0
    endloop
  endfacet
  facet normal -0.990234 0.139412 0
    outer loop
      vertex -0.00997543 0.000697136 0
      vertex -0.00978088 0.00207901 2.39
      vertex -0.00978088 0.00207901 0
    endloop
  endfacet
  facet normal -0.990234 0.139412 0
    outer loop
      vertex -0.00978088 0.00207901 2.39
      vertex -0.00997543 0.000697136 0
      vertex -0.00997543 0.000697136 2.39
    endloop
  endfacet
  facet normal 0.899068 0.437808 0
    outer loop
      vertex 50.8091 0.00406647 2.39
      vertex 50.8085 0.00529861 0
      vertex 50.8085 0.00529861 2.39
    endloop
  endfacet
  facet normal 0.899068 0.437808 0
    outer loop
      vertex 50.8085 0.00529861 0
      vertex 50.8091 0.00406647 2.39
      vertex 50.8091 0.00406647 0
    endloop
  endfacet
  facet normal -0.848189 0.529693 0
    outer loop
      vertex -0.00882912 0.00469398 0
      vertex -0.00809002 0.00587749 2.39
      vertex -0.00809002 0.00587749 0
    endloop
  endfacet
  facet normal -0.848189 0.529693 0
    outer loop
      vertex -0.00809002 0.00587749 2.39
      vertex -0.00882912 0.00469398 0
      vertex -0.00882912 0.00469398 2.39
    endloop
  endfacet
  facet normal -0.990535 -0.13726 0
    outer loop
      vertex 0.975213 -31.8021 0
      vertex 0.975019 -31.8007 2.39
      vertex 0.975019 -31.8007 0
    endloop
  endfacet
  facet normal -0.990535 -0.13726 0
    outer loop
      vertex 0.975019 -31.8007 2.39
      vertex 0.975213 -31.8021 0
      vertex 0.975213 -31.8021 2.39
    endloop
  endfacet
  facet normal -0.959036 -0.283284 0
    outer loop
      vertex 0.975597 -31.8034 0
      vertex 0.975213 -31.8021 2.39
      vertex 0.975213 -31.8021 0
    endloop
  endfacet
  facet normal -0.959036 -0.283284 0
    outer loop
      vertex 0.975213 -31.8021 2.39
      vertex 0.975597 -31.8034 0
      vertex 0.975597 -31.8034 2.39
    endloop
  endfacet
  facet normal -0.851488 -0.524375 0
    outer loop
      vertex 0.976904 -31.8059 0
      vertex 0.976165 -31.8047 2.39
      vertex 0.976165 -31.8047 0
    endloop
  endfacet
  facet normal -0.851488 -0.524375 0
    outer loop
      vertex 0.976165 -31.8047 2.39
      vertex 0.976904 -31.8059 0
      vertex 0.976904 -31.8059 2.39
    endloop
  endfacet
  facet normal -0.288605 -0.957448 0
    outer loop
      vertex 0.981248 -31.8093 0
      vertex 0.982575 -31.8097 2.39
      vertex 0.981248 -31.8093 2.39
    endloop
  endfacet
  facet normal -0.288605 -0.957448 -0
    outer loop
      vertex 0.982575 -31.8097 2.39
      vertex 0.981248 -31.8093 0
      vertex 0.982575 -31.8097 0
    endloop
  endfacet
  facet normal -0.569062 -0.822295 0
    outer loop
      vertex 0.978838 -31.8079 0
      vertex 0.979994 -31.8087 2.39
      vertex 0.978838 -31.8079 2.39
    endloop
  endfacet
  facet normal -0.569062 -0.822295 -0
    outer loop
      vertex 0.979994 -31.8087 2.39
      vertex 0.978838 -31.8079 0
      vertex 0.979994 -31.8087 0
    endloop
  endfacet
endsolid OpenSCAD_Model
