solid OpenSCAD_Model
  facet normal 0.10453 0.994522 1.69831e-07
    outer loop
      vertex 3.12567 17.7265 500
      vertex 2.39 17.8039 50.8
      vertex 0.62819 17.989 500
    endloop
  endfacet
  facet normal 0.104633 0.994511 -0
    outer loop
      vertex 3.12567 17.7265 0
      vertex 2.39 17.8039 50.8
      vertex 3.12567 17.7265 500
    endloop
  endfacet
  facet normal 0.104633 0.994511 0
    outer loop
      vertex 2.39 17.8039 50.8
      vertex 3.12567 17.7265 0
      vertex 2.39 17.8039 6.35
    endloop
  endfacet
  facet normal 0.10453 0.994522 -1.20138e-05
    outer loop
      vertex 0.62819 17.989 0
      vertex 2.39 17.8039 6.35
      vertex 3.12567 17.7265 0
    endloop
  endfacet
  facet normal 0.104487 0.994526 0
    outer loop
      vertex 2.39 17.8039 6.35
      vertex 0.62819 17.989 0
      vertex 0.62819 17.989 6.35
    endloop
  endfacet
  facet normal 0.104487 0.994526 0
    outer loop
      vertex 0.62819 17.989 500
      vertex 2.39 17.8039 50.8
      vertex 0.62819 17.989 50.8
    endloop
  endfacet
  facet normal 0.978149 0.207907 0
    outer loop
      vertex 17.8248 2.50512 500
      vertex 17.3027 4.96147 0
      vertex 17.3027 4.96147 500
    endloop
  endfacet
  facet normal 0.978149 0.207907 0
    outer loop
      vertex 17.3027 4.96147 0
      vertex 17.8248 2.50512 500
      vertex 17.8248 2.50512 0
    endloop
  endfacet
  facet normal 0.997563 0.0697664 0
    outer loop
      vertex 18 0 500
      vertex 17.8248 2.50512 0
      vertex 17.8248 2.50512 500
    endloop
  endfacet
  facet normal 0.997563 0.0697664 0
    outer loop
      vertex 17.8248 2.50512 0
      vertex 18 0 500
      vertex 18 0 0
    endloop
  endfacet
  facet normal 0.939692 0.342022 0
    outer loop
      vertex 17.3027 4.96147 500
      vertex 16.4438 7.32126 0
      vertex 16.4438 7.32126 500
    endloop
  endfacet
  facet normal 0.939692 0.342022 0
    outer loop
      vertex 16.4438 7.32126 0
      vertex 17.3027 4.96147 500
      vertex 17.3027 4.96147 0
    endloop
  endfacet
  facet normal 0.374599 0.927187 -0
    outer loop
      vertex 7.89068 16.1783 0
      vertex 5.56231 17.119 500
      vertex 7.89068 16.1783 500
    endloop
  endfacet
  facet normal 0.374599 0.927187 0
    outer loop
      vertex 5.56231 17.119 500
      vertex 7.89068 16.1783 0
      vertex 5.56231 17.119 0
    endloop
  endfacet
  facet normal -0.990268 -0.139175 0
    outer loop
      vertex -17.6067 -3.74241 0
      vertex -17.9562 -1.25562 500
      vertex -17.9562 -1.25562 0
    endloop
  endfacet
  facet normal -0.990268 -0.139175 0
    outer loop
      vertex -17.9562 -1.25562 500
      vertex -17.6067 -3.74241 0
      vertex -17.6067 -3.74241 500
    endloop
  endfacet
  facet normal 0.997563 -0.0697664 0
    outer loop
      vertex 17.8248 -2.50512 500
      vertex 18 0 0
      vertex 18 0 500
    endloop
  endfacet
  facet normal 0.997563 -0.0697664 0
    outer loop
      vertex 18 0 0
      vertex 17.8248 -2.50512 500
      vertex 17.8248 -2.50512 0
    endloop
  endfacet
  facet normal 0.882957 0.469455 0
    outer loop
      vertex 16.4438 7.32126 500
      vertex 15.2649 9.53855 0
      vertex 15.2649 9.53855 500
    endloop
  endfacet
  facet normal 0.882957 0.469455 0
    outer loop
      vertex 15.2649 9.53855 0
      vertex 16.4438 7.32126 500
      vertex 16.4438 7.32126 0
    endloop
  endfacet
  facet normal -0.0348833 -0.999391 0
    outer loop
      vertex -1.88151 -17.9014 0
      vertex 0.62819 -17.989 500
      vertex -1.88151 -17.9014 500
    endloop
  endfacet
  facet normal -0.0348833 -0.999391 -0
    outer loop
      vertex 0.62819 -17.989 500
      vertex -1.88151 -17.9014 0
      vertex 0.62819 -17.989 0
    endloop
  endfacet
  facet normal -0.0348409 0.999393 0
    outer loop
      vertex 0.62819 17.989 6.35
      vertex 0.62819 17.989 0
      vertex 0 17.9671 6.35
    endloop
  endfacet
  facet normal -0.0348833 0.999391 0
    outer loop
      vertex 0.62819 17.989 50.8
      vertex -1.88151 17.9014 500
      vertex 0.62819 17.989 500
    endloop
  endfacet
  facet normal -0.0348409 0.999393 2.3734e-07
    outer loop
      vertex 0 17.9671 50.8
      vertex -1.88151 17.9014 500
      vertex 0.62819 17.989 50.8
    endloop
  endfacet
  facet normal -0.0348975 0.999391 0
    outer loop
      vertex -1.88151 17.9014 0
      vertex 0 17.9671 50.8
      vertex 0 17.9671 6.35
    endloop
  endfacet
  facet normal -0.0348975 0.999391 0
    outer loop
      vertex 0 17.9671 50.8
      vertex -1.88151 17.9014 0
      vertex -1.88151 17.9014 500
    endloop
  endfacet
  facet normal -0.0348833 0.999391 -4.20248e-06
    outer loop
      vertex -1.88151 17.9014 0
      vertex 0 17.9671 6.35
      vertex 0.62819 17.989 0
    endloop
  endfacet
  facet normal 0.88296 -0.469449 0
    outer loop
      vertex 16.4438 -7.32126 500
      vertex 15.56 -8.98355 50.8
      vertex 16.4438 -7.32126 0
    endloop
  endfacet
  facet normal 0.882957 -0.469455 2.90585e-08
    outer loop
      vertex 15.2649 -9.53855 500
      vertex 15.56 -8.98355 50.8
      vertex 16.4438 -7.32126 500
    endloop
  endfacet
  facet normal 0.882947 -0.469473 0
    outer loop
      vertex 15.56 -8.98355 50.8
      vertex 15.2649 -9.53855 500
      vertex 15.2649 -9.53855 50.8
    endloop
  endfacet
  facet normal 0.88296 -0.469449 0
    outer loop
      vertex 15.56 -8.98355 6.35
      vertex 16.4438 -7.32126 0
      vertex 15.56 -8.98355 50.8
    endloop
  endfacet
  facet normal 0.882947 -0.469473 0
    outer loop
      vertex 15.2649 -9.53855 0
      vertex 15.56 -8.98355 6.35
      vertex 15.2649 -9.53855 6.35
    endloop
  endfacet
  facet normal 0.882957 -0.469455 -2.0556e-06
    outer loop
      vertex 15.56 -8.98355 6.35
      vertex 15.2649 -9.53855 0
      vertex 16.4438 -7.32126 0
    endloop
  endfacet
  facet normal -0.76604 0.642793 0
    outer loop
      vertex -14.5623 10.5801 0
      vertex -12.9481 12.5038 500
      vertex -12.9481 12.5038 0
    endloop
  endfacet
  facet normal -0.76604 0.642793 0
    outer loop
      vertex -12.9481 12.5038 500
      vertex -14.5623 10.5801 0
      vertex -14.5623 10.5801 500
    endloop
  endfacet
  facet normal -0.848043 -0.529927 0
    outer loop
      vertex -15.8931 -8.45049 0
      vertex -15.56 -8.98355 6.35
      vertex -15.8931 -8.45049 6.35
    endloop
  endfacet
  facet normal -0.848033 -0.529944 0
    outer loop
      vertex -15.56 -8.98355 6.35
      vertex -14.5623 -10.5801 0
      vertex -15.56 -8.98355 50.8
    endloop
  endfacet
  facet normal -0.848035 -0.52994 -1.45219e-06
    outer loop
      vertex -14.5623 -10.5801 0
      vertex -15.56 -8.98355 6.35
      vertex -15.8931 -8.45049 0
    endloop
  endfacet
  facet normal -0.848043 -0.529927 0
    outer loop
      vertex -15.56 -8.98355 50.8
      vertex -15.8931 -8.45049 500
      vertex -15.8931 -8.45049 50.8
    endloop
  endfacet
  facet normal -0.848033 -0.529944 -0
    outer loop
      vertex -14.5623 -10.5801 500
      vertex -15.56 -8.98355 50.8
      vertex -14.5623 -10.5801 0
    endloop
  endfacet
  facet normal -0.848035 -0.52994 2.05285e-08
    outer loop
      vertex -15.56 -8.98355 50.8
      vertex -14.5623 -10.5801 500
      vertex -15.8931 -8.45049 500
    endloop
  endfacet
  facet normal 0.10453 -0.994522 0
    outer loop
      vertex 0.62819 -17.989 0
      vertex 3.12567 -17.7265 500
      vertex 0.62819 -17.989 500
    endloop
  endfacet
  facet normal 0.10453 -0.994522 0
    outer loop
      vertex 3.12567 -17.7265 500
      vertex 0.62819 -17.989 0
      vertex 3.12567 -17.7265 0
    endloop
  endfacet
  facet normal -0.76604 -0.642793 0
    outer loop
      vertex -12.9481 -12.5038 0
      vertex -14.5623 -10.5801 500
      vertex -14.5623 -10.5801 0
    endloop
  endfacet
  facet normal -0.76604 -0.642793 0
    outer loop
      vertex -14.5623 -10.5801 500
      vertex -12.9481 -12.5038 0
      vertex -12.9481 -12.5038 500
    endloop
  endfacet
  facet normal 0.49999 0.866031 -0
    outer loop
      vertex 10.0655 14.9227 0
      vertex 7.89068 16.1783 500
      vertex 10.0655 14.9227 500
    endloop
  endfacet
  facet normal 0.49999 0.866031 0
    outer loop
      vertex 7.89068 16.1783 500
      vertex 10.0655 14.9227 0
      vertex 7.89068 16.1783 0
    endloop
  endfacet
  facet normal -0.173659 -0.984806 0
    outer loop
      vertex -4.35459 -17.4653 0
      vertex -1.88151 -17.9014 500
      vertex -4.35459 -17.4653 500
    endloop
  endfacet
  facet normal -0.173659 -0.984806 -0
    outer loop
      vertex -1.88151 -17.9014 500
      vertex -4.35459 -17.4653 0
      vertex -1.88151 -17.9014 0
    endloop
  endfacet
  facet normal 0.374599 -0.927187 0
    outer loop
      vertex 5.56231 -17.119 0
      vertex 7.89068 -16.1783 500
      vertex 5.56231 -17.119 500
    endloop
  endfacet
  facet normal 0.374599 -0.927187 0
    outer loop
      vertex 7.89068 -16.1783 500
      vertex 5.56231 -17.119 0
      vertex 7.89068 -16.1783 0
    endloop
  endfacet
  facet normal 0.809002 -0.587806 0
    outer loop
      vertex 15.2649 -9.53855 500
      vertex 14.2236 -10.9717 50.8
      vertex 15.2649 -9.53855 50.8
    endloop
  endfacet
  facet normal 0.80904 -0.587754 0
    outer loop
      vertex 13.7888 -11.5702 0
      vertex 14.2236 -10.9717 50.8
      vertex 13.7888 -11.5702 500
    endloop
  endfacet
  facet normal 0.809013 -0.58779 -7.48452e-08
    outer loop
      vertex 13.7888 -11.5702 500
      vertex 14.2236 -10.9717 50.8
      vertex 15.2649 -9.53855 500
    endloop
  endfacet
  facet normal 0.809002 -0.587806 0
    outer loop
      vertex 14.2236 -10.9717 6.35
      vertex 15.2649 -9.53855 0
      vertex 15.2649 -9.53855 6.35
    endloop
  endfacet
  facet normal 0.809013 -0.58779 5.29456e-06
    outer loop
      vertex 14.2236 -10.9717 6.35
      vertex 13.7888 -11.5702 0
      vertex 15.2649 -9.53855 0
    endloop
  endfacet
  facet normal 0.80904 -0.587754 0
    outer loop
      vertex 14.2236 -10.9717 50.8
      vertex 13.7888 -11.5702 0
      vertex 14.2236 -10.9717 6.35
    endloop
  endfacet
  facet normal -0.309011 -0.951058 0
    outer loop
      vertex -6.74292 -16.6893 0
      vertex -4.35459 -17.4653 500
      vertex -6.74292 -16.6893 500
    endloop
  endfacet
  facet normal -0.309011 -0.951058 -0
    outer loop
      vertex -4.35459 -17.4653 500
      vertex -6.74292 -16.6893 0
      vertex -4.35459 -17.4653 0
    endloop
  endfacet
  facet normal 0.809013 0.58779 0
    outer loop
      vertex 15.2649 9.53855 500
      vertex 13.7888 11.5702 0
      vertex 13.7888 11.5702 500
    endloop
  endfacet
  facet normal 0.809013 0.58779 0
    outer loop
      vertex 13.7888 11.5702 0
      vertex 15.2649 9.53855 500
      vertex 15.2649 9.53855 0
    endloop
  endfacet
  facet normal -0.913547 0.406732 0
    outer loop
      vertex -16.9145 6.15636 0
      vertex -15.8931 8.45049 500
      vertex -15.8931 8.45049 0
    endloop
  endfacet
  facet normal -0.913547 0.406732 0
    outer loop
      vertex -15.8931 8.45049 500
      vertex -16.9145 6.15636 0
      vertex -16.9145 6.15636 500
    endloop
  endfacet
  facet normal 0.719344 0.694654 0
    outer loop
      vertex 13.7888 11.5702 500
      vertex 12.0444 13.3766 0
      vertex 12.0444 13.3766 500
    endloop
  endfacet
  facet normal 0.719344 0.694654 0
    outer loop
      vertex 12.0444 13.3766 0
      vertex 13.7888 11.5702 500
      vertex 13.7888 11.5702 0
    endloop
  endfacet
  facet normal -0.913531 -0.406768 -0
    outer loop
      vertex -16.6136 -6.83213 50.8
      vertex -16.9145 -6.15636 0
      vertex -16.6136 -6.83213 6.35
    endloop
  endfacet
  facet normal -0.913547 -0.406732 4.53013e-06
    outer loop
      vertex -15.8931 -8.45049 0
      vertex -16.6136 -6.83213 6.35
      vertex -16.9145 -6.15636 0
    endloop
  endfacet
  facet normal -0.913554 -0.406718 0
    outer loop
      vertex -16.6136 -6.83213 6.35
      vertex -15.8931 -8.45049 0
      vertex -15.8931 -8.45049 6.35
    endloop
  endfacet
  facet normal -0.913531 -0.406768 0
    outer loop
      vertex -16.9145 -6.15636 0
      vertex -16.6136 -6.83213 50.8
      vertex -16.9145 -6.15636 500
    endloop
  endfacet
  facet normal -0.913554 -0.406718 -9.07802e-08
    outer loop
      vertex -15.8931 -8.45049 50.8
      vertex -16.9145 -6.15636 500
      vertex -16.6136 -6.83213 50.8
    endloop
  endfacet
  facet normal -0.913547 -0.406732 0
    outer loop
      vertex -16.9145 -6.15636 500
      vertex -15.8931 -8.45049 50.8
      vertex -15.8931 -8.45049 500
    endloop
  endfacet
  facet normal 0.615665 0.788008 -0
    outer loop
      vertex 12.0444 13.3766 0
      vertex 10.0655 14.9227 500
      vertex 12.0444 13.3766 500
    endloop
  endfacet
  facet normal 0.615665 0.788008 0
    outer loop
      vertex 10.0655 14.9227 500
      vertex 12.0444 13.3766 0
      vertex 10.0655 14.9227 0
    endloop
  endfacet
  facet normal 0.939692 -0.342022 0
    outer loop
      vertex 16.4438 -7.32126 500
      vertex 17.3027 -4.96147 0
      vertex 17.3027 -4.96147 500
    endloop
  endfacet
  facet normal 0.939692 -0.342022 0
    outer loop
      vertex 17.3027 -4.96147 0
      vertex 16.4438 -7.32126 500
      vertex 16.4438 -7.32126 0
    endloop
  endfacet
  facet normal 0.978149 -0.207907 0
    outer loop
      vertex 17.3027 -4.96147 500
      vertex 17.8248 -2.50512 0
      vertex 17.8248 -2.50512 500
    endloop
  endfacet
  facet normal 0.978149 -0.207907 0
    outer loop
      vertex 17.8248 -2.50512 0
      vertex 17.3027 -4.96147 500
      vertex 17.3027 -4.96147 0
    endloop
  endfacet
  facet normal 0 0 1
    outer loop
      vertex 17.5 0 500
      vertex 18 0 500
      vertex 17.8248 2.50512 500
    endloop
  endfacet
  facet normal 0 0 1
    outer loop
      vertex 18 0 500
      vertex 17.5 0 500
      vertex 17.8248 -2.50512 500
    endloop
  endfacet
  facet normal 0 0 1
    outer loop
      vertex 17.8248 2.50512 500
      vertex 17.3297 2.43553 500
      vertex 17.5 0 500
    endloop
  endfacet
  facet normal 0 0 1
    outer loop
      vertex 17.3027 4.96147 500
      vertex 17.3297 2.43553 500
      vertex 17.8248 2.50512 500
    endloop
  endfacet
  facet normal 0 0 1
    outer loop
      vertex 17.3027 4.96147 500
      vertex 16.8221 4.82365 500
      vertex 17.3297 2.43553 500
    endloop
  endfacet
  facet normal 0 0 1
    outer loop
      vertex 16.4438 7.32126 500
      vertex 16.8221 4.82365 500
      vertex 17.3027 4.96147 500
    endloop
  endfacet
  facet normal 0 0 1
    outer loop
      vertex 16.4438 7.32126 500
      vertex 15.987 7.11789 500
      vertex 16.8221 4.82365 500
    endloop
  endfacet
  facet normal 0 0 1
    outer loop
      vertex 15.2649 9.53855 500
      vertex 15.987 7.11789 500
      vertex 16.4438 7.32126 500
    endloop
  endfacet
  facet normal 0 0 1
    outer loop
      vertex 15.2649 9.53855 500
      vertex 14.8408 9.27359 500
      vertex 15.987 7.11789 500
    endloop
  endfacet
  facet normal 0 0 1
    outer loop
      vertex 13.7888 11.5702 500
      vertex 14.8408 9.27359 500
      vertex 15.2649 9.53855 500
    endloop
  endfacet
  facet normal 0 0 1
    outer loop
      vertex 13.7888 11.5702 500
      vertex 13.4058 11.2488 500
      vertex 14.8408 9.27359 500
    endloop
  endfacet
  facet normal 0 0 1
    outer loop
      vertex 12.0444 13.3766 500
      vertex 13.4058 11.2488 500
      vertex 13.7888 11.5702 500
    endloop
  endfacet
  facet normal 0 0 1
    outer loop
      vertex 12.0444 13.3766 500
      vertex 11.7098 13.005 500
      vertex 13.4058 11.2488 500
    endloop
  endfacet
  facet normal 0 0 1
    outer loop
      vertex 10.0655 14.9227 500
      vertex 11.7098 13.005 500
      vertex 12.0444 13.3766 500
    endloop
  endfacet
  facet normal 0 0 1
    outer loop
      vertex 10.0655 14.9227 500
      vertex 9.78588 14.5082 500
      vertex 11.7098 13.005 500
    endloop
  endfacet
  facet normal 0 0 1
    outer loop
      vertex 7.89068 16.1783 500
      vertex 9.78588 14.5082 500
      vertex 10.0655 14.9227 500
    endloop
  endfacet
  facet normal 0 0 1
    outer loop
      vertex 7.89068 16.1783 500
      vertex 7.67149 15.7289 500
      vertex 9.78588 14.5082 500
    endloop
  endfacet
  facet normal 0 0 1
    outer loop
      vertex 5.56231 17.119 500
      vertex 7.67149 15.7289 500
      vertex 7.89068 16.1783 500
    endloop
  endfacet
  facet normal 0 0 1
    outer loop
      vertex 5.56231 17.119 500
      vertex 5.4078 16.6435 500
      vertex 7.67149 15.7289 500
    endloop
  endfacet
  facet normal 0 0 1
    outer loop
      vertex 3.12567 17.7265 500
      vertex 5.4078 16.6435 500
      vertex 5.56231 17.119 500
    endloop
  endfacet
  facet normal 0 0 1
    outer loop
      vertex 3.12567 17.7265 500
      vertex 3.03884 17.2341 500
      vertex 5.4078 16.6435 500
    endloop
  endfacet
  facet normal 0 0 1
    outer loop
      vertex 0.62819 17.989 500
      vertex 3.03884 17.2341 500
      vertex 3.12567 17.7265 500
    endloop
  endfacet
  facet normal 0 0 1
    outer loop
      vertex 0.62819 17.989 500
      vertex 0.610741 17.4893 500
      vertex 3.03884 17.2341 500
    endloop
  endfacet
  facet normal 0 0 1
    outer loop
      vertex 0.62819 17.989 500
      vertex -1.82925 17.4041 500
      vertex 0.610741 17.4893 500
    endloop
  endfacet
  facet normal -0 0 1
    outer loop
      vertex -1.88151 17.9014 500
      vertex -1.82925 17.4041 500
      vertex 0.62819 17.989 500
    endloop
  endfacet
  facet normal 0 0 1
    outer loop
      vertex -1.88151 17.9014 500
      vertex -4.23363 16.9802 500
      vertex -1.82925 17.4041 500
    endloop
  endfacet
  facet normal -0 0 1
    outer loop
      vertex -4.35459 17.4653 500
      vertex -4.23363 16.9802 500
      vertex -1.88151 17.9014 500
    endloop
  endfacet
  facet normal 0 0 1
    outer loop
      vertex -4.35459 17.4653 500
      vertex -6.55561 16.2257 500
      vertex -4.23363 16.9802 500
    endloop
  endfacet
  facet normal -0 0 1
    outer loop
      vertex -6.74292 16.6893 500
      vertex -6.55561 16.2257 500
      vertex -4.35459 17.4653 500
    endloop
  endfacet
  facet normal 0 0 1
    outer loop
      vertex -6.74292 16.6893 500
      vertex -8.75 15.1554 500
      vertex -6.55561 16.2257 500
    endloop
  endfacet
  facet normal -0 0 1
    outer loop
      vertex -9 15.5885 500
      vertex -8.75 15.1554 500
      vertex -6.74292 16.6893 500
    endloop
  endfacet
  facet normal 0 0 1
    outer loop
      vertex -9 15.5885 500
      vertex -10.7741 13.7902 500
      vertex -8.75 15.1554 500
    endloop
  endfacet
  facet normal -0 0 1
    outer loop
      vertex -11.0819 14.1842 500
      vertex -10.7741 13.7902 500
      vertex -9 15.5885 500
    endloop
  endfacet
  facet normal 0 0 1
    outer loop
      vertex -11.0819 14.1842 500
      vertex -12.5884 12.1565 500
      vertex -10.7741 13.7902 500
    endloop
  endfacet
  facet normal -0 0 1
    outer loop
      vertex -12.9481 12.5038 500
      vertex -12.5884 12.1565 500
      vertex -11.0819 14.1842 500
    endloop
  endfacet
  facet normal 0 0 1
    outer loop
      vertex -12.9481 12.5038 500
      vertex -14.1578 10.2862 500
      vertex -12.5884 12.1565 500
    endloop
  endfacet
  facet normal -0 0 1
    outer loop
      vertex -14.5623 10.5801 500
      vertex -14.1578 10.2862 500
      vertex -12.9481 12.5038 500
    endloop
  endfacet
  facet normal 0 0 1
    outer loop
      vertex -14.5623 10.5801 500
      vertex -15.4516 8.21575 500
      vertex -14.1578 10.2862 500
    endloop
  endfacet
  facet normal -0 0 1
    outer loop
      vertex -15.8931 8.45049 500
      vertex -15.4516 8.21575 500
      vertex -14.5623 10.5801 500
    endloop
  endfacet
  facet normal 0 0 1
    outer loop
      vertex -15.8931 8.45049 500
      vertex -16.4446 5.98535 500
      vertex -15.4516 8.21575 500
    endloop
  endfacet
  facet normal -0 0 1
    outer loop
      vertex -16.9145 6.15636 500
      vertex -16.4446 5.98535 500
      vertex -15.8931 8.45049 500
    endloop
  endfacet
  facet normal 0 0 1
    outer loop
      vertex -16.9145 6.15636 500
      vertex -17.1176 3.63845 500
      vertex -16.4446 5.98535 500
    endloop
  endfacet
  facet normal -0 0 1
    outer loop
      vertex -17.6067 3.74241 500
      vertex -17.1176 3.63845 500
      vertex -16.9145 6.15636 500
    endloop
  endfacet
  facet normal -0 0 1
    outer loop
      vertex -17.9562 1.25562 500
      vertex -17.4574 1.22074 500
      vertex -17.6067 3.74241 500
    endloop
  endfacet
  facet normal 0 0 1
    outer loop
      vertex -17.1176 3.63845 500
      vertex -17.6067 3.74241 500
      vertex -17.4574 1.22074 500
    endloop
  endfacet
  facet normal -0 0 1
    outer loop
      vertex 17.3297 -2.43553 500
      vertex 17.8248 -2.50512 500
      vertex 17.5 0 500
    endloop
  endfacet
  facet normal 0 0 1
    outer loop
      vertex 17.3297 -2.43553 500
      vertex 17.3027 -4.96147 500
      vertex 17.8248 -2.50512 500
    endloop
  endfacet
  facet normal -0 0 1
    outer loop
      vertex 16.8221 -4.82365 500
      vertex 17.3027 -4.96147 500
      vertex 17.3297 -2.43553 500
    endloop
  endfacet
  facet normal 0 0 1
    outer loop
      vertex 16.8221 -4.82365 500
      vertex 16.4438 -7.32126 500
      vertex 17.3027 -4.96147 500
    endloop
  endfacet
  facet normal -0 0 1
    outer loop
      vertex 15.987 -7.11789 500
      vertex 16.4438 -7.32126 500
      vertex 16.8221 -4.82365 500
    endloop
  endfacet
  facet normal 0 0 1
    outer loop
      vertex 15.987 -7.11789 500
      vertex 15.2649 -9.53855 500
      vertex 16.4438 -7.32126 500
    endloop
  endfacet
  facet normal -0 0 1
    outer loop
      vertex 14.8408 -9.27359 500
      vertex 15.2649 -9.53855 500
      vertex 15.987 -7.11789 500
    endloop
  endfacet
  facet normal 0 0 1
    outer loop
      vertex 14.8408 -9.27359 500
      vertex 13.7888 -11.5702 500
      vertex 15.2649 -9.53855 500
    endloop
  endfacet
  facet normal -0 0 1
    outer loop
      vertex 13.4058 -11.2488 500
      vertex 13.7888 -11.5702 500
      vertex 14.8408 -9.27359 500
    endloop
  endfacet
  facet normal 0 0 1
    outer loop
      vertex 13.4058 -11.2488 500
      vertex 12.0444 -13.3766 500
      vertex 13.7888 -11.5702 500
    endloop
  endfacet
  facet normal -0 0 1
    outer loop
      vertex 11.7098 -13.005 500
      vertex 12.0444 -13.3766 500
      vertex 13.4058 -11.2488 500
    endloop
  endfacet
  facet normal 0 0 1
    outer loop
      vertex 11.7098 -13.005 500
      vertex 10.0655 -14.9227 500
      vertex 12.0444 -13.3766 500
    endloop
  endfacet
  facet normal -0 0 1
    outer loop
      vertex 9.78588 -14.5082 500
      vertex 10.0655 -14.9227 500
      vertex 11.7098 -13.005 500
    endloop
  endfacet
  facet normal 0 0 1
    outer loop
      vertex 9.78588 -14.5082 500
      vertex 7.89068 -16.1783 500
      vertex 10.0655 -14.9227 500
    endloop
  endfacet
  facet normal -0 0 1
    outer loop
      vertex 7.67149 -15.7289 500
      vertex 7.89068 -16.1783 500
      vertex 9.78588 -14.5082 500
    endloop
  endfacet
  facet normal 0 0 1
    outer loop
      vertex 7.67149 -15.7289 500
      vertex 5.56231 -17.119 500
      vertex 7.89068 -16.1783 500
    endloop
  endfacet
  facet normal -0 0 1
    outer loop
      vertex 5.4078 -16.6435 500
      vertex 5.56231 -17.119 500
      vertex 7.67149 -15.7289 500
    endloop
  endfacet
  facet normal 0 0 1
    outer loop
      vertex 5.4078 -16.6435 500
      vertex 3.12567 -17.7265 500
      vertex 5.56231 -17.119 500
    endloop
  endfacet
  facet normal -0 0 1
    outer loop
      vertex 3.03884 -17.2341 500
      vertex 3.12567 -17.7265 500
      vertex 5.4078 -16.6435 500
    endloop
  endfacet
  facet normal 0 0 1
    outer loop
      vertex 3.03884 -17.2341 500
      vertex 0.62819 -17.989 500
      vertex 3.12567 -17.7265 500
    endloop
  endfacet
  facet normal -0 0 1
    outer loop
      vertex 0.610741 -17.4893 500
      vertex 0.62819 -17.989 500
      vertex 3.03884 -17.2341 500
    endloop
  endfacet
  facet normal 0 0 1
    outer loop
      vertex -1.82925 -17.4041 500
      vertex 0.62819 -17.989 500
      vertex 0.610741 -17.4893 500
    endloop
  endfacet
  facet normal 0 0 1
    outer loop
      vertex -1.82925 -17.4041 500
      vertex -1.88151 -17.9014 500
      vertex 0.62819 -17.989 500
    endloop
  endfacet
  facet normal 0 0 1
    outer loop
      vertex -4.23363 -16.9802 500
      vertex -1.88151 -17.9014 500
      vertex -1.82925 -17.4041 500
    endloop
  endfacet
  facet normal 0 0 1
    outer loop
      vertex -4.23363 -16.9802 500
      vertex -4.35459 -17.4653 500
      vertex -1.88151 -17.9014 500
    endloop
  endfacet
  facet normal 0 0 1
    outer loop
      vertex -6.55561 -16.2257 500
      vertex -4.35459 -17.4653 500
      vertex -4.23363 -16.9802 500
    endloop
  endfacet
  facet normal 0 0 1
    outer loop
      vertex -6.55561 -16.2257 500
      vertex -6.74292 -16.6893 500
      vertex -4.35459 -17.4653 500
    endloop
  endfacet
  facet normal 0 0 1
    outer loop
      vertex -8.75 -15.1554 500
      vertex -6.74292 -16.6893 500
      vertex -6.55561 -16.2257 500
    endloop
  endfacet
  facet normal 0 0 1
    outer loop
      vertex -8.75 -15.1554 500
      vertex -9 -15.5885 500
      vertex -6.74292 -16.6893 500
    endloop
  endfacet
  facet normal 0 0 1
    outer loop
      vertex -10.7741 -13.7902 500
      vertex -9 -15.5885 500
      vertex -8.75 -15.1554 500
    endloop
  endfacet
  facet normal 0 0 1
    outer loop
      vertex -10.7741 -13.7902 500
      vertex -11.0819 -14.1842 500
      vertex -9 -15.5885 500
    endloop
  endfacet
  facet normal 0 0 1
    outer loop
      vertex -12.5884 -12.1565 500
      vertex -11.0819 -14.1842 500
      vertex -10.7741 -13.7902 500
    endloop
  endfacet
  facet normal 0 0 1
    outer loop
      vertex -12.5884 -12.1565 500
      vertex -12.9481 -12.5038 500
      vertex -11.0819 -14.1842 500
    endloop
  endfacet
  facet normal 0 0 1
    outer loop
      vertex -14.1578 -10.2862 500
      vertex -12.9481 -12.5038 500
      vertex -12.5884 -12.1565 500
    endloop
  endfacet
  facet normal 0 0 1
    outer loop
      vertex -14.1578 -10.2862 500
      vertex -14.5623 -10.5801 500
      vertex -12.9481 -12.5038 500
    endloop
  endfacet
  facet normal 0 0 1
    outer loop
      vertex -15.4516 -8.21575 500
      vertex -14.5623 -10.5801 500
      vertex -14.1578 -10.2862 500
    endloop
  endfacet
  facet normal 0 0 1
    outer loop
      vertex -15.4516 -8.21575 500
      vertex -15.8931 -8.45049 500
      vertex -14.5623 -10.5801 500
    endloop
  endfacet
  facet normal 0 0 1
    outer loop
      vertex -16.4446 -5.98535 500
      vertex -15.8931 -8.45049 500
      vertex -15.4516 -8.21575 500
    endloop
  endfacet
  facet normal 0 0 1
    outer loop
      vertex -16.4446 -5.98535 500
      vertex -16.9145 -6.15636 500
      vertex -15.8931 -8.45049 500
    endloop
  endfacet
  facet normal 0 0 1
    outer loop
      vertex -17.1176 -3.63845 500
      vertex -16.9145 -6.15636 500
      vertex -16.4446 -5.98535 500
    endloop
  endfacet
  facet normal 0 0 1
    outer loop
      vertex -17.6067 -3.74241 500
      vertex -17.1176 -3.63845 500
      vertex -17.4574 -1.22074 500
    endloop
  endfacet
  facet normal 0 0 1
    outer loop
      vertex -17.1176 -3.63845 500
      vertex -17.6067 -3.74241 500
      vertex -16.9145 -6.15636 500
    endloop
  endfacet
  facet normal 0 0 1
    outer loop
      vertex -17.4574 1.22074 500
      vertex -17.9562 1.25562 500
      vertex -17.4574 -1.22074 500
    endloop
  endfacet
  facet normal 0 0 1
    outer loop
      vertex -17.9562 -1.25562 500
      vertex -17.4574 -1.22074 500
      vertex -17.9562 1.25562 500
    endloop
  endfacet
  facet normal 0 0 1
    outer loop
      vertex -17.4574 -1.22074 500
      vertex -17.9562 -1.25562 500
      vertex -17.6067 -3.74241 500
    endloop
  endfacet
  facet normal 0.719344 -0.694654 0
    outer loop
      vertex 12.0444 -13.3766 500
      vertex 13.7888 -11.5702 0
      vertex 13.7888 -11.5702 500
    endloop
  endfacet
  facet normal 0.719344 -0.694654 0
    outer loop
      vertex 13.7888 -11.5702 0
      vertex 12.0444 -13.3766 500
      vertex 12.0444 -13.3766 0
    endloop
  endfacet
  facet normal -0.438355 0.898802 0
    outer loop
      vertex -6.74292 16.6893 0
      vertex -9 15.5885 500
      vertex -6.74292 16.6893 500
    endloop
  endfacet
  facet normal -0.438355 0.898802 0
    outer loop
      vertex -9 15.5885 500
      vertex -6.74292 16.6893 0
      vertex -9 15.5885 0
    endloop
  endfacet
  facet normal -0.669145 -0.743132 0
    outer loop
      vertex -12.9481 -12.5038 0
      vertex -11.0819 -14.1842 500
      vertex -12.9481 -12.5038 500
    endloop
  endfacet
  facet normal -0.669145 -0.743132 -0
    outer loop
      vertex -11.0819 -14.1842 500
      vertex -12.9481 -12.5038 0
      vertex -11.0819 -14.1842 0
    endloop
  endfacet
  facet normal -0.961261 0.275641 0
    outer loop
      vertex -17.6067 3.74241 0
      vertex -16.9145 6.15636 500
      vertex -16.9145 6.15636 0
    endloop
  endfacet
  facet normal -0.961261 0.275641 0
    outer loop
      vertex -16.9145 6.15636 500
      vertex -17.6067 3.74241 0
      vertex -17.6067 3.74241 500
    endloop
  endfacet
  facet normal -0.438355 -0.898802 0
    outer loop
      vertex -9 -15.5885 0
      vertex -6.74292 -16.6893 500
      vertex -9 -15.5885 500
    endloop
  endfacet
  facet normal -0.438355 -0.898802 -0
    outer loop
      vertex -6.74292 -16.6893 500
      vertex -9 -15.5885 0
      vertex -6.74292 -16.6893 0
    endloop
  endfacet
  facet normal 0.241913 -0.970298 0
    outer loop
      vertex 3.12567 -17.7265 0
      vertex 5.56231 -17.119 500
      vertex 3.12567 -17.7265 500
    endloop
  endfacet
  facet normal 0.241913 -0.970298 0
    outer loop
      vertex 5.56231 -17.119 500
      vertex 3.12567 -17.7265 0
      vertex 5.56231 -17.119 0
    endloop
  endfacet
  facet normal -0.961261 -0.275641 0
    outer loop
      vertex -16.9145 -6.15636 0
      vertex -17.6067 -3.74241 500
      vertex -17.6067 -3.74241 0
    endloop
  endfacet
  facet normal -0.961261 -0.275641 0
    outer loop
      vertex -17.6067 -3.74241 500
      vertex -16.9145 -6.15636 0
      vertex -16.9145 -6.15636 500
    endloop
  endfacet
  facet normal 0.49999 -0.866031 0
    outer loop
      vertex 7.89068 -16.1783 0
      vertex 10.0655 -14.9227 500
      vertex 7.89068 -16.1783 500
    endloop
  endfacet
  facet normal 0.49999 -0.866031 0
    outer loop
      vertex 10.0655 -14.9227 500
      vertex 7.89068 -16.1783 0
      vertex 10.0655 -14.9227 0
    endloop
  endfacet
  facet normal 0 0 -1
    outer loop
      vertex 17.5 0 0
      vertex 18 0 0
      vertex 17.8248 -2.50512 0
    endloop
  endfacet
  facet normal 0 0 -1
    outer loop
      vertex 18 0 0
      vertex 17.5 0 0
      vertex 17.8248 2.50512 0
    endloop
  endfacet
  facet normal 0 0 -1
    outer loop
      vertex 17.8248 -2.50512 0
      vertex 17.3297 -2.43553 0
      vertex 17.5 0 0
    endloop
  endfacet
  facet normal 0 0 -1
    outer loop
      vertex 17.3027 -4.96147 0
      vertex 17.3297 -2.43553 0
      vertex 17.8248 -2.50512 0
    endloop
  endfacet
  facet normal 0 0 -1
    outer loop
      vertex 17.3027 -4.96147 0
      vertex 16.8221 -4.82365 0
      vertex 17.3297 -2.43553 0
    endloop
  endfacet
  facet normal 0 0 -1
    outer loop
      vertex 16.4438 -7.32126 0
      vertex 16.8221 -4.82365 0
      vertex 17.3027 -4.96147 0
    endloop
  endfacet
  facet normal 0 0 -1
    outer loop
      vertex 16.4438 -7.32126 0
      vertex 15.987 -7.11789 0
      vertex 16.8221 -4.82365 0
    endloop
  endfacet
  facet normal 0 0 -1
    outer loop
      vertex 15.2649 -9.53855 0
      vertex 15.987 -7.11789 0
      vertex 16.4438 -7.32126 0
    endloop
  endfacet
  facet normal 0 0 -1
    outer loop
      vertex 15.2649 -9.53855 0
      vertex 14.8408 -9.27359 0
      vertex 15.987 -7.11789 0
    endloop
  endfacet
  facet normal 0 0 -1
    outer loop
      vertex 13.7888 -11.5702 0
      vertex 14.8408 -9.27359 0
      vertex 15.2649 -9.53855 0
    endloop
  endfacet
  facet normal 0 0 -1
    outer loop
      vertex 13.7888 -11.5702 0
      vertex 13.4058 -11.2488 0
      vertex 14.8408 -9.27359 0
    endloop
  endfacet
  facet normal 0 0 -1
    outer loop
      vertex 12.0444 -13.3766 0
      vertex 13.4058 -11.2488 0
      vertex 13.7888 -11.5702 0
    endloop
  endfacet
  facet normal 0 0 -1
    outer loop
      vertex 12.0444 -13.3766 0
      vertex 11.7098 -13.005 0
      vertex 13.4058 -11.2488 0
    endloop
  endfacet
  facet normal 0 0 -1
    outer loop
      vertex 10.0655 -14.9227 0
      vertex 11.7098 -13.005 0
      vertex 12.0444 -13.3766 0
    endloop
  endfacet
  facet normal 0 0 -1
    outer loop
      vertex 10.0655 -14.9227 0
      vertex 9.78588 -14.5082 0
      vertex 11.7098 -13.005 0
    endloop
  endfacet
  facet normal 0 0 -1
    outer loop
      vertex 7.89068 -16.1783 0
      vertex 9.78588 -14.5082 0
      vertex 10.0655 -14.9227 0
    endloop
  endfacet
  facet normal 0 0 -1
    outer loop
      vertex 7.89068 -16.1783 0
      vertex 7.67149 -15.7289 0
      vertex 9.78588 -14.5082 0
    endloop
  endfacet
  facet normal 0 0 -1
    outer loop
      vertex 5.56231 -17.119 0
      vertex 7.67149 -15.7289 0
      vertex 7.89068 -16.1783 0
    endloop
  endfacet
  facet normal 0 0 -1
    outer loop
      vertex 5.56231 -17.119 0
      vertex 5.4078 -16.6435 0
      vertex 7.67149 -15.7289 0
    endloop
  endfacet
  facet normal 0 0 -1
    outer loop
      vertex 3.12567 -17.7265 0
      vertex 5.4078 -16.6435 0
      vertex 5.56231 -17.119 0
    endloop
  endfacet
  facet normal 0 0 -1
    outer loop
      vertex 3.12567 -17.7265 0
      vertex 3.03884 -17.2341 0
      vertex 5.4078 -16.6435 0
    endloop
  endfacet
  facet normal 0 0 -1
    outer loop
      vertex 0.62819 -17.989 0
      vertex 3.03884 -17.2341 0
      vertex 3.12567 -17.7265 0
    endloop
  endfacet
  facet normal 0 0 -1
    outer loop
      vertex 0.62819 -17.989 0
      vertex 0.610741 -17.4893 0
      vertex 3.03884 -17.2341 0
    endloop
  endfacet
  facet normal 0 0 -1
    outer loop
      vertex 0.62819 -17.989 0
      vertex -1.82925 -17.4041 0
      vertex 0.610741 -17.4893 0
    endloop
  endfacet
  facet normal 0 0 -1
    outer loop
      vertex -1.88151 -17.9014 0
      vertex -1.82925 -17.4041 0
      vertex 0.62819 -17.989 0
    endloop
  endfacet
  facet normal 0 0 -1
    outer loop
      vertex -1.88151 -17.9014 0
      vertex -4.23363 -16.9802 0
      vertex -1.82925 -17.4041 0
    endloop
  endfacet
  facet normal 0 0 -1
    outer loop
      vertex -4.35459 -17.4653 0
      vertex -4.23363 -16.9802 0
      vertex -1.88151 -17.9014 0
    endloop
  endfacet
  facet normal 0 0 -1
    outer loop
      vertex -4.35459 -17.4653 0
      vertex -6.55561 -16.2257 0
      vertex -4.23363 -16.9802 0
    endloop
  endfacet
  facet normal 0 0 -1
    outer loop
      vertex -6.74292 -16.6893 0
      vertex -6.55561 -16.2257 0
      vertex -4.35459 -17.4653 0
    endloop
  endfacet
  facet normal 0 0 -1
    outer loop
      vertex -6.74292 -16.6893 0
      vertex -8.75 -15.1554 0
      vertex -6.55561 -16.2257 0
    endloop
  endfacet
  facet normal 0 0 -1
    outer loop
      vertex -9 -15.5885 0
      vertex -8.75 -15.1554 0
      vertex -6.74292 -16.6893 0
    endloop
  endfacet
  facet normal 0 0 -1
    outer loop
      vertex -9 -15.5885 0
      vertex -10.7741 -13.7902 0
      vertex -8.75 -15.1554 0
    endloop
  endfacet
  facet normal 0 0 -1
    outer loop
      vertex -11.0819 -14.1842 0
      vertex -10.7741 -13.7902 0
      vertex -9 -15.5885 0
    endloop
  endfacet
  facet normal 0 0 -1
    outer loop
      vertex -11.0819 -14.1842 0
      vertex -12.5884 -12.1565 0
      vertex -10.7741 -13.7902 0
    endloop
  endfacet
  facet normal 0 0 -1
    outer loop
      vertex -12.9481 -12.5038 0
      vertex -12.5884 -12.1565 0
      vertex -11.0819 -14.1842 0
    endloop
  endfacet
  facet normal 0 0 -1
    outer loop
      vertex -12.9481 -12.5038 0
      vertex -14.1578 -10.2862 0
      vertex -12.5884 -12.1565 0
    endloop
  endfacet
  facet normal 0 0 -1
    outer loop
      vertex -14.5623 -10.5801 0
      vertex -14.1578 -10.2862 0
      vertex -12.9481 -12.5038 0
    endloop
  endfacet
  facet normal 0 0 -1
    outer loop
      vertex -14.5623 -10.5801 0
      vertex -15.4516 -8.21575 0
      vertex -14.1578 -10.2862 0
    endloop
  endfacet
  facet normal 0 0 -1
    outer loop
      vertex -15.8931 -8.45049 0
      vertex -15.4516 -8.21575 0
      vertex -14.5623 -10.5801 0
    endloop
  endfacet
  facet normal 0 0 -1
    outer loop
      vertex -15.8931 -8.45049 0
      vertex -16.4446 -5.98535 0
      vertex -15.4516 -8.21575 0
    endloop
  endfacet
  facet normal 0 0 -1
    outer loop
      vertex -16.9145 -6.15636 0
      vertex -16.4446 -5.98535 0
      vertex -15.8931 -8.45049 0
    endloop
  endfacet
  facet normal 0 0 -1
    outer loop
      vertex -16.9145 -6.15636 0
      vertex -17.1176 -3.63845 0
      vertex -16.4446 -5.98535 0
    endloop
  endfacet
  facet normal 0 0 -1
    outer loop
      vertex -17.6067 -3.74241 0
      vertex -17.1176 -3.63845 0
      vertex -16.9145 -6.15636 0
    endloop
  endfacet
  facet normal 0 0 -1
    outer loop
      vertex -17.9562 -1.25562 0
      vertex -17.4574 -1.22074 0
      vertex -17.6067 -3.74241 0
    endloop
  endfacet
  facet normal -0 0 -1
    outer loop
      vertex -17.1176 -3.63845 0
      vertex -17.6067 -3.74241 0
      vertex -17.4574 -1.22074 0
    endloop
  endfacet
  facet normal 0 0 -1
    outer loop
      vertex 17.3297 2.43553 0
      vertex 17.8248 2.50512 0
      vertex 17.5 0 0
    endloop
  endfacet
  facet normal 0 0 -1
    outer loop
      vertex 17.3297 2.43553 0
      vertex 17.3027 4.96147 0
      vertex 17.8248 2.50512 0
    endloop
  endfacet
  facet normal 0 0 -1
    outer loop
      vertex 16.8221 4.82365 0
      vertex 17.3027 4.96147 0
      vertex 17.3297 2.43553 0
    endloop
  endfacet
  facet normal 0 0 -1
    outer loop
      vertex 16.8221 4.82365 0
      vertex 16.4438 7.32126 0
      vertex 17.3027 4.96147 0
    endloop
  endfacet
  facet normal 0 0 -1
    outer loop
      vertex 15.987 7.11789 0
      vertex 16.4438 7.32126 0
      vertex 16.8221 4.82365 0
    endloop
  endfacet
  facet normal 0 0 -1
    outer loop
      vertex 15.987 7.11789 0
      vertex 15.2649 9.53855 0
      vertex 16.4438 7.32126 0
    endloop
  endfacet
  facet normal 0 0 -1
    outer loop
      vertex 14.8408 9.27359 0
      vertex 15.2649 9.53855 0
      vertex 15.987 7.11789 0
    endloop
  endfacet
  facet normal 0 0 -1
    outer loop
      vertex 14.8408 9.27359 0
      vertex 13.7888 11.5702 0
      vertex 15.2649 9.53855 0
    endloop
  endfacet
  facet normal 0 0 -1
    outer loop
      vertex 13.4058 11.2488 0
      vertex 13.7888 11.5702 0
      vertex 14.8408 9.27359 0
    endloop
  endfacet
  facet normal 0 0 -1
    outer loop
      vertex 13.4058 11.2488 0
      vertex 12.0444 13.3766 0
      vertex 13.7888 11.5702 0
    endloop
  endfacet
  facet normal 0 0 -1
    outer loop
      vertex 11.7098 13.005 0
      vertex 12.0444 13.3766 0
      vertex 13.4058 11.2488 0
    endloop
  endfacet
  facet normal 0 0 -1
    outer loop
      vertex 11.7098 13.005 0
      vertex 10.0655 14.9227 0
      vertex 12.0444 13.3766 0
    endloop
  endfacet
  facet normal 0 0 -1
    outer loop
      vertex 9.78588 14.5082 0
      vertex 10.0655 14.9227 0
      vertex 11.7098 13.005 0
    endloop
  endfacet
  facet normal 0 0 -1
    outer loop
      vertex 9.78588 14.5082 0
      vertex 7.89068 16.1783 0
      vertex 10.0655 14.9227 0
    endloop
  endfacet
  facet normal 0 0 -1
    outer loop
      vertex 7.67149 15.7289 0
      vertex 7.89068 16.1783 0
      vertex 9.78588 14.5082 0
    endloop
  endfacet
  facet normal 0 0 -1
    outer loop
      vertex 7.67149 15.7289 0
      vertex 5.56231 17.119 0
      vertex 7.89068 16.1783 0
    endloop
  endfacet
  facet normal 0 0 -1
    outer loop
      vertex 5.4078 16.6435 0
      vertex 5.56231 17.119 0
      vertex 7.67149 15.7289 0
    endloop
  endfacet
  facet normal 0 0 -1
    outer loop
      vertex 5.4078 16.6435 0
      vertex 3.12567 17.7265 0
      vertex 5.56231 17.119 0
    endloop
  endfacet
  facet normal 0 0 -1
    outer loop
      vertex 3.03884 17.2341 0
      vertex 3.12567 17.7265 0
      vertex 5.4078 16.6435 0
    endloop
  endfacet
  facet normal 0 0 -1
    outer loop
      vertex 3.03884 17.2341 0
      vertex 0.62819 17.989 0
      vertex 3.12567 17.7265 0
    endloop
  endfacet
  facet normal 0 0 -1
    outer loop
      vertex 0.610741 17.4893 0
      vertex 0.62819 17.989 0
      vertex 3.03884 17.2341 0
    endloop
  endfacet
  facet normal 0 0 -1
    outer loop
      vertex -1.82925 17.4041 0
      vertex 0.62819 17.989 0
      vertex 0.610741 17.4893 0
    endloop
  endfacet
  facet normal 0 0 -1
    outer loop
      vertex -1.82925 17.4041 0
      vertex -1.88151 17.9014 0
      vertex 0.62819 17.989 0
    endloop
  endfacet
  facet normal 0 0 -1
    outer loop
      vertex -4.23363 16.9802 0
      vertex -1.88151 17.9014 0
      vertex -1.82925 17.4041 0
    endloop
  endfacet
  facet normal 0 0 -1
    outer loop
      vertex -4.23363 16.9802 0
      vertex -4.35459 17.4653 0
      vertex -1.88151 17.9014 0
    endloop
  endfacet
  facet normal 0 0 -1
    outer loop
      vertex -6.55561 16.2257 0
      vertex -4.35459 17.4653 0
      vertex -4.23363 16.9802 0
    endloop
  endfacet
  facet normal 0 0 -1
    outer loop
      vertex -6.55561 16.2257 0
      vertex -6.74292 16.6893 0
      vertex -4.35459 17.4653 0
    endloop
  endfacet
  facet normal 0 0 -1
    outer loop
      vertex -8.75 15.1554 0
      vertex -6.74292 16.6893 0
      vertex -6.55561 16.2257 0
    endloop
  endfacet
  facet normal 0 0 -1
    outer loop
      vertex -8.75 15.1554 0
      vertex -9 15.5885 0
      vertex -6.74292 16.6893 0
    endloop
  endfacet
  facet normal 0 0 -1
    outer loop
      vertex -10.7741 13.7902 0
      vertex -9 15.5885 0
      vertex -8.75 15.1554 0
    endloop
  endfacet
  facet normal 0 0 -1
    outer loop
      vertex -10.7741 13.7902 0
      vertex -11.0819 14.1842 0
      vertex -9 15.5885 0
    endloop
  endfacet
  facet normal 0 0 -1
    outer loop
      vertex -12.5884 12.1565 0
      vertex -11.0819 14.1842 0
      vertex -10.7741 13.7902 0
    endloop
  endfacet
  facet normal 0 0 -1
    outer loop
      vertex -12.5884 12.1565 0
      vertex -12.9481 12.5038 0
      vertex -11.0819 14.1842 0
    endloop
  endfacet
  facet normal 0 0 -1
    outer loop
      vertex -14.1578 10.2862 0
      vertex -12.9481 12.5038 0
      vertex -12.5884 12.1565 0
    endloop
  endfacet
  facet normal 0 0 -1
    outer loop
      vertex -14.1578 10.2862 0
      vertex -14.5623 10.5801 0
      vertex -12.9481 12.5038 0
    endloop
  endfacet
  facet normal 0 0 -1
    outer loop
      vertex -15.4516 8.21575 0
      vertex -14.5623 10.5801 0
      vertex -14.1578 10.2862 0
    endloop
  endfacet
  facet normal 0 0 -1
    outer loop
      vertex -15.4516 8.21575 0
      vertex -15.8931 8.45049 0
      vertex -14.5623 10.5801 0
    endloop
  endfacet
  facet normal 0 0 -1
    outer loop
      vertex -16.4446 5.98535 0
      vertex -15.8931 8.45049 0
      vertex -15.4516 8.21575 0
    endloop
  endfacet
  facet normal 0 0 -1
    outer loop
      vertex -16.4446 5.98535 0
      vertex -16.9145 6.15636 0
      vertex -15.8931 8.45049 0
    endloop
  endfacet
  facet normal 0 0 -1
    outer loop
      vertex -17.1176 3.63845 0
      vertex -16.9145 6.15636 0
      vertex -16.4446 5.98535 0
    endloop
  endfacet
  facet normal 0 0 -1
    outer loop
      vertex -17.6067 3.74241 0
      vertex -17.1176 3.63845 0
      vertex -17.4574 1.22074 0
    endloop
  endfacet
  facet normal 0 0 -1
    outer loop
      vertex -17.1176 3.63845 0
      vertex -17.6067 3.74241 0
      vertex -16.9145 6.15636 0
    endloop
  endfacet
  facet normal -0 0 -1
    outer loop
      vertex -17.4574 -1.22074 0
      vertex -17.9562 -1.25562 0
      vertex -17.4574 1.22074 0
    endloop
  endfacet
  facet normal 0 0 -1
    outer loop
      vertex -17.9562 1.25562 0
      vertex -17.4574 1.22074 0
      vertex -17.9562 -1.25562 0
    endloop
  endfacet
  facet normal 0 0 -1
    outer loop
      vertex -17.4574 1.22074 0
      vertex -17.9562 1.25562 0
      vertex -17.6067 3.74241 0
    endloop
  endfacet
  facet normal -0.559204 -0.82903 0
    outer loop
      vertex -11.0819 -14.1842 0
      vertex -9 -15.5885 500
      vertex -11.0819 -14.1842 500
    endloop
  endfacet
  facet normal -0.559204 -0.82903 -0
    outer loop
      vertex -9 -15.5885 500
      vertex -11.0819 -14.1842 0
      vertex -9 -15.5885 0
    endloop
  endfacet
  facet normal -0.309011 0.951058 0
    outer loop
      vertex -4.35459 17.4653 0
      vertex -6.74292 16.6893 500
      vertex -4.35459 17.4653 500
    endloop
  endfacet
  facet normal -0.309011 0.951058 0
    outer loop
      vertex -6.74292 16.6893 500
      vertex -4.35459 17.4653 0
      vertex -6.74292 16.6893 0
    endloop
  endfacet
  facet normal 0.241913 0.970298 -0
    outer loop
      vertex 5.56231 17.119 0
      vertex 3.12567 17.7265 500
      vertex 5.56231 17.119 500
    endloop
  endfacet
  facet normal 0.241913 0.970298 0
    outer loop
      vertex 3.12567 17.7265 500
      vertex 5.56231 17.119 0
      vertex 3.12567 17.7265 0
    endloop
  endfacet
  facet normal -0.559204 0.82903 0
    outer loop
      vertex -9 15.5885 0
      vertex -11.0819 14.1842 500
      vertex -9 15.5885 500
    endloop
  endfacet
  facet normal -0.559204 0.82903 0
    outer loop
      vertex -11.0819 14.1842 500
      vertex -9 15.5885 0
      vertex -11.0819 14.1842 0
    endloop
  endfacet
  facet normal -0.173659 0.984806 0
    outer loop
      vertex -1.88151 17.9014 0
      vertex -4.35459 17.4653 500
      vertex -1.88151 17.9014 500
    endloop
  endfacet
  facet normal -0.173659 0.984806 0
    outer loop
      vertex -4.35459 17.4653 500
      vertex -1.88151 17.9014 0
      vertex -4.35459 17.4653 0
    endloop
  endfacet
  facet normal -1 0 0
    outer loop
      vertex -17.9562 -1.25562 0
      vertex -17.9562 1.25562 500
      vertex -17.9562 1.25562 0
    endloop
  endfacet
  facet normal -1 -0 0
    outer loop
      vertex -17.9562 1.25562 500
      vertex -17.9562 -1.25562 0
      vertex -17.9562 -1.25562 500
    endloop
  endfacet
  facet normal -0.848035 0.52994 0
    outer loop
      vertex -15.8931 8.45049 0
      vertex -14.5623 10.5801 500
      vertex -14.5623 10.5801 0
    endloop
  endfacet
  facet normal -0.848035 0.52994 0
    outer loop
      vertex -14.5623 10.5801 500
      vertex -15.8931 8.45049 0
      vertex -15.8931 8.45049 500
    endloop
  endfacet
  facet normal -0.990268 0.139175 0
    outer loop
      vertex -17.9562 1.25562 0
      vertex -17.6067 3.74241 500
      vertex -17.6067 3.74241 0
    endloop
  endfacet
  facet normal -0.990268 0.139175 0
    outer loop
      vertex -17.6067 3.74241 500
      vertex -17.9562 1.25562 0
      vertex -17.9562 1.25562 500
    endloop
  endfacet
  facet normal -0.669145 0.743132 0
    outer loop
      vertex -11.0819 14.1842 0
      vertex -12.9481 12.5038 500
      vertex -11.0819 14.1842 500
    endloop
  endfacet
  facet normal -0.669145 0.743132 0
    outer loop
      vertex -12.9481 12.5038 500
      vertex -11.0819 14.1842 0
      vertex -12.9481 12.5038 0
    endloop
  endfacet
  facet normal 0.615665 -0.788008 0
    outer loop
      vertex 10.0655 -14.9227 0
      vertex 12.0444 -13.3766 500
      vertex 10.0655 -14.9227 500
    endloop
  endfacet
  facet normal 0.615665 -0.788008 0
    outer loop
      vertex 12.0444 -13.3766 500
      vertex 10.0655 -14.9227 0
      vertex 12.0444 -13.3766 0
    endloop
  endfacet
  facet normal -0.719328 -0.694671 0
    outer loop
      vertex 13.4058 11.2488 0
      vertex 11.7098 13.005 500
      vertex 11.7098 13.005 0
    endloop
  endfacet
  facet normal -0.719328 -0.694671 0
    outer loop
      vertex 11.7098 13.005 500
      vertex 13.4058 11.2488 0
      vertex 13.4058 11.2488 500
    endloop
  endfacet
  facet normal -0.978148 -0.207908 0
    outer loop
      vertex 17.3297 2.43553 0
      vertex 16.8221 4.82365 500
      vertex 16.8221 4.82365 0
    endloop
  endfacet
  facet normal -0.978148 -0.207908 0
    outer loop
      vertex 16.8221 4.82365 500
      vertex 17.3297 2.43553 0
      vertex 17.3297 2.43553 500
    endloop
  endfacet
  facet normal -0.997564 -0.0697529 0
    outer loop
      vertex 17.5 0 0
      vertex 17.3297 2.43553 500
      vertex 17.3297 2.43553 0
    endloop
  endfacet
  facet normal -0.997564 -0.0697529 0
    outer loop
      vertex 17.3297 2.43553 500
      vertex 17.5 0 0
      vertex 17.5 0 500
    endloop
  endfacet
  facet normal -0.939684 -0.342044 0
    outer loop
      vertex 16.8221 4.82365 0
      vertex 15.987 7.11789 500
      vertex 15.987 7.11789 0
    endloop
  endfacet
  facet normal -0.939684 -0.342044 0
    outer loop
      vertex 15.987 7.11789 500
      vertex 16.8221 4.82365 0
      vertex 16.8221 4.82365 500
    endloop
  endfacet
  facet normal -0.37461 -0.927182 0
    outer loop
      vertex 5.4078 16.6435 0
      vertex 7.67149 15.7289 500
      vertex 5.4078 16.6435 500
    endloop
  endfacet
  facet normal -0.37461 -0.927182 -0
    outer loop
      vertex 7.67149 15.7289 500
      vertex 5.4078 16.6435 0
      vertex 7.67149 15.7289 0
    endloop
  endfacet
  facet normal -0.615679 -0.787997 0
    outer loop
      vertex 9.78588 14.5082 0
      vertex 11.7098 13.005 500
      vertex 9.78588 14.5082 500
    endloop
  endfacet
  facet normal -0.615679 -0.787997 -0
    outer loop
      vertex 11.7098 13.005 500
      vertex 9.78588 14.5082 0
      vertex 11.7098 13.005 0
    endloop
  endfacet
  facet normal -0.241903 0.9703 0
    outer loop
      vertex 5.4078 -16.6435 0
      vertex 3.03884 -17.2341 500
      vertex 5.4078 -16.6435 500
    endloop
  endfacet
  facet normal -0.241903 0.9703 0
    outer loop
      vertex 3.03884 -17.2341 500
      vertex 5.4078 -16.6435 0
      vertex 3.03884 -17.2341 0
    endloop
  endfacet
  facet normal -0.809045 0.587747 0
    outer loop
      vertex 14.8408 -9.27359 0
      vertex 13.7893 -10.721 6.35
      vertex 14.8408 -9.27359 6.35
    endloop
  endfacet
  facet normal -0.808995 0.587816 0
    outer loop
      vertex 13.7893 -10.721 6.35
      vertex 13.4058 -11.2488 0
      vertex 13.7893 -10.721 50.8
    endloop
  endfacet
  facet normal -0.809031 0.587765 6.45253e-06
    outer loop
      vertex 13.4058 -11.2488 0
      vertex 13.7893 -10.721 6.35
      vertex 14.8408 -9.27359 0
    endloop
  endfacet
  facet normal -0.809045 0.587747 0
    outer loop
      vertex 13.7893 -10.721 50.8
      vertex 14.8408 -9.27359 500
      vertex 14.8408 -9.27359 50.8
    endloop
  endfacet
  facet normal -0.808995 0.587816 0
    outer loop
      vertex 13.4058 -11.2488 500
      vertex 13.7893 -10.721 50.8
      vertex 13.4058 -11.2488 0
    endloop
  endfacet
  facet normal -0.809031 0.587765 -9.12146e-08
    outer loop
      vertex 13.7893 -10.721 50.8
      vertex 13.4058 -11.2488 500
      vertex 14.8408 -9.27359 500
    endloop
  endfacet
  facet normal 0.0348969 -0.999391 -5.77407e-08
    outer loop
      vertex -1.82925 17.4041 500
      vertex 0 17.468 50.8
      vertex 0.610741 17.4893 500
    endloop
  endfacet
  facet normal 0.0349111 -0.99939 0
    outer loop
      vertex -1.82925 17.4041 0
      vertex 0 17.468 50.8
      vertex -1.82925 17.4041 500
    endloop
  endfacet
  facet normal 0.0349111 -0.99939 0
    outer loop
      vertex 0 17.468 50.8
      vertex -1.82925 17.4041 0
      vertex 0 17.468 6.35
    endloop
  endfacet
  facet normal 0.0348969 -0.999391 4.08459e-06
    outer loop
      vertex 0.610741 17.4893 0
      vertex 0 17.468 6.35
      vertex -1.82925 17.4041 0
    endloop
  endfacet
  facet normal 0.0348545 -0.999392 0
    outer loop
      vertex 0 17.468 6.35
      vertex 0.610741 17.4893 0
      vertex 0.610741 17.4893 6.35
    endloop
  endfacet
  facet normal 0.0348545 -0.999392 0
    outer loop
      vertex 0.610741 17.4893 500
      vertex 0 17.468 50.8
      vertex 0.610741 17.4893 50.8
    endloop
  endfacet
  facet normal -0.978148 0.207908 0
    outer loop
      vertex 16.8221 -4.82365 0
      vertex 17.3297 -2.43553 500
      vertex 17.3297 -2.43553 0
    endloop
  endfacet
  facet normal -0.978148 0.207908 0
    outer loop
      vertex 17.3297 -2.43553 500
      vertex 16.8221 -4.82365 0
      vertex 16.8221 -4.82365 500
    endloop
  endfacet
  facet normal -0.997564 0.0697529 0
    outer loop
      vertex 17.3297 -2.43553 0
      vertex 17.5 0 500
      vertex 17.5 0 0
    endloop
  endfacet
  facet normal -0.997564 0.0697529 0
    outer loop
      vertex 17.5 0 500
      vertex 17.3297 -2.43553 0
      vertex 17.3297 -2.43553 500
    endloop
  endfacet
  facet normal 0.438379 0.89879 -0
    outer loop
      vertex -6.55561 -16.2257 0
      vertex -8.75 -15.1554 500
      vertex -6.55561 -16.2257 500
    endloop
  endfacet
  facet normal 0.438379 0.89879 0
    outer loop
      vertex -8.75 -15.1554 500
      vertex -6.55561 -16.2257 0
      vertex -8.75 -15.1554 0
    endloop
  endfacet
  facet normal -0.882949 -0.46947 0
    outer loop
      vertex 15.987 7.11789 0
      vertex 14.8408 9.27359 500
      vertex 14.8408 9.27359 0
    endloop
  endfacet
  facet normal -0.882949 -0.46947 0
    outer loop
      vertex 14.8408 9.27359 500
      vertex 15.987 7.11789 0
      vertex 15.987 7.11789 500
    endloop
  endfacet
  facet normal 0.766038 0.642795 0
    outer loop
      vertex -12.5884 -12.1565 500
      vertex -14.1578 -10.2862 0
      vertex -14.1578 -10.2862 500
    endloop
  endfacet
  facet normal 0.766038 0.642795 0
    outer loop
      vertex -14.1578 -10.2862 0
      vertex -12.5884 -12.1565 500
      vertex -12.5884 -12.1565 0
    endloop
  endfacet
  facet normal -0.499987 -0.866033 0
    outer loop
      vertex 7.67149 15.7289 0
      vertex 9.78588 14.5082 500
      vertex 7.67149 15.7289 500
    endloop
  endfacet
  facet normal -0.499987 -0.866033 -0
    outer loop
      vertex 9.78588 14.5082 500
      vertex 7.67149 15.7289 0
      vertex 9.78588 14.5082 0
    endloop
  endfacet
  facet normal -0.241903 -0.9703 0
    outer loop
      vertex 3.03884 17.2341 0
      vertex 5.4078 16.6435 500
      vertex 3.03884 17.2341 500
    endloop
  endfacet
  facet normal -0.241903 -0.9703 -0
    outer loop
      vertex 5.4078 16.6435 500
      vertex 3.03884 17.2341 0
      vertex 5.4078 16.6435 0
    endloop
  endfacet
  facet normal 0.559172 0.829051 -0
    outer loop
      vertex -8.75 -15.1554 0
      vertex -10.7741 -13.7902 500
      vertex -8.75 -15.1554 500
    endloop
  endfacet
  facet normal 0.559172 0.829051 0
    outer loop
      vertex -10.7741 -13.7902 500
      vertex -8.75 -15.1554 0
      vertex -10.7741 -13.7902 0
    endloop
  endfacet
  facet normal 0.990267 -0.139178 0
    outer loop
      vertex -17.4574 1.22074 500
      vertex -17.1176 3.63845 0
      vertex -17.1176 3.63845 500
    endloop
  endfacet
  facet normal 0.990267 -0.139178 0
    outer loop
      vertex -17.1176 3.63845 0
      vertex -17.4574 1.22074 500
      vertex -17.4574 1.22074 0
    endloop
  endfacet
  facet normal 0.669153 -0.743125 0
    outer loop
      vertex -12.5884 12.1565 0
      vertex -10.7741 13.7902 500
      vertex -12.5884 12.1565 500
    endloop
  endfacet
  facet normal 0.669153 -0.743125 0
    outer loop
      vertex -10.7741 13.7902 500
      vertex -12.5884 12.1565 0
      vertex -10.7741 13.7902 0
    endloop
  endfacet
  facet normal -0.37461 0.927182 0
    outer loop
      vertex 7.67149 -15.7289 0
      vertex 5.4078 -16.6435 500
      vertex 7.67149 -15.7289 500
    endloop
  endfacet
  facet normal -0.37461 0.927182 0
    outer loop
      vertex 5.4078 -16.6435 500
      vertex 7.67149 -15.7289 0
      vertex 5.4078 -16.6435 0
    endloop
  endfacet
  facet normal -0.499987 0.866033 0
    outer loop
      vertex 9.78588 -14.5082 0
      vertex 7.67149 -15.7289 500
      vertex 9.78588 -14.5082 500
    endloop
  endfacet
  facet normal -0.499987 0.866033 0
    outer loop
      vertex 7.67149 -15.7289 500
      vertex 9.78588 -14.5082 0
      vertex 7.67149 -15.7289 0
    endloop
  endfacet
  facet normal -0.809031 -0.587765 0
    outer loop
      vertex 14.8408 9.27359 0
      vertex 13.4058 11.2488 500
      vertex 13.4058 11.2488 0
    endloop
  endfacet
  facet normal -0.809031 -0.587765 0
    outer loop
      vertex 13.4058 11.2488 500
      vertex 14.8408 9.27359 0
      vertex 14.8408 9.27359 500
    endloop
  endfacet
  facet normal 0.913551 -0.406724 0
    outer loop
      vertex -16.4446 5.98535 500
      vertex -15.4516 8.21575 0
      vertex -15.4516 8.21575 500
    endloop
  endfacet
  facet normal 0.913551 -0.406724 0
    outer loop
      vertex -15.4516 8.21575 0
      vertex -16.4446 5.98535 500
      vertex -16.4446 5.98535 0
    endloop
  endfacet
  facet normal -0.939684 0.342044 0
    outer loop
      vertex 15.987 -7.11789 0
      vertex 16.8221 -4.82365 500
      vertex 16.8221 -4.82365 0
    endloop
  endfacet
  facet normal -0.939684 0.342044 0
    outer loop
      vertex 16.8221 -4.82365 500
      vertex 15.987 -7.11789 0
      vertex 15.987 -7.11789 500
    endloop
  endfacet
  facet normal 0.559172 -0.829051 0
    outer loop
      vertex -10.7741 13.7902 0
      vertex -8.75 15.1554 500
      vertex -10.7741 13.7902 500
    endloop
  endfacet
  facet normal 0.559172 -0.829051 0
    outer loop
      vertex -8.75 15.1554 500
      vertex -10.7741 13.7902 0
      vertex -8.75 15.1554 0
    endloop
  endfacet
  facet normal -0.882949 0.469469 0
    outer loop
      vertex 15.1277 -8.73401 50.8
      vertex 15.987 -7.11789 0
      vertex 15.1277 -8.73401 6.35
    endloop
  endfacet
  facet normal -0.882949 0.46947 2.40851e-07
    outer loop
      vertex 14.8408 -9.27359 0
      vertex 15.1277 -8.73401 6.35
      vertex 15.987 -7.11789 0
    endloop
  endfacet
  facet normal -0.882947 0.469472 0
    outer loop
      vertex 15.1277 -8.73401 6.35
      vertex 14.8408 -9.27359 0
      vertex 14.8408 -9.27359 6.35
    endloop
  endfacet
  facet normal -0.882949 0.469469 0
    outer loop
      vertex 15.987 -7.11789 0
      vertex 15.1277 -8.73401 50.8
      vertex 15.987 -7.11789 500
    endloop
  endfacet
  facet normal -0.882947 0.469472 -1.36023e-08
    outer loop
      vertex 14.8408 -9.27359 50.8
      vertex 15.987 -7.11789 500
      vertex 15.1277 -8.73401 50.8
    endloop
  endfacet
  facet normal -0.882949 0.46947 0
    outer loop
      vertex 15.987 -7.11789 500
      vertex 14.8408 -9.27359 50.8
      vertex 14.8408 -9.27359 500
    endloop
  endfacet
  facet normal 0.91358 0.406659 0
    outer loop
      vertex -16.4446 -5.98535 500
      vertex -16.1793 -6.58136 50.8
      vertex -16.4446 -5.98535 0
    endloop
  endfacet
  facet normal 0.913551 0.406724 -1.02863e-07
    outer loop
      vertex -15.4516 -8.21575 500
      vertex -16.1793 -6.58136 50.8
      vertex -16.4446 -5.98535 500
    endloop
  endfacet
  facet normal 0.913541 0.406747 0
    outer loop
      vertex -16.1793 -6.58136 50.8
      vertex -15.4516 -8.21575 500
      vertex -15.4516 -8.21575 50.8
    endloop
  endfacet
  facet normal 0.91358 0.406659 -0
    outer loop
      vertex -16.1793 -6.58136 6.35
      vertex -16.4446 -5.98535 0
      vertex -16.1793 -6.58136 50.8
    endloop
  endfacet
  facet normal 0.913541 0.406747 -0
    outer loop
      vertex -15.4516 -8.21575 0
      vertex -16.1793 -6.58136 6.35
      vertex -15.4516 -8.21575 6.35
    endloop
  endfacet
  facet normal 0.913551 0.406724 7.27653e-06
    outer loop
      vertex -16.1793 -6.58136 6.35
      vertex -15.4516 -8.21575 0
      vertex -16.4446 -5.98535 0
    endloop
  endfacet
  facet normal 0.173626 -0.984812 0
    outer loop
      vertex -4.23363 16.9802 0
      vertex -1.82925 17.4041 500
      vertex -4.23363 16.9802 500
    endloop
  endfacet
  facet normal 0.173626 -0.984812 0
    outer loop
      vertex -1.82925 17.4041 500
      vertex -4.23363 16.9802 0
      vertex -1.82925 17.4041 0
    endloop
  endfacet
  facet normal 0.309033 -0.951051 0
    outer loop
      vertex -6.55561 16.2257 0
      vertex -4.23363 16.9802 500
      vertex -6.55561 16.2257 500
    endloop
  endfacet
  facet normal 0.309033 -0.951051 0
    outer loop
      vertex -4.23363 16.9802 500
      vertex -6.55561 16.2257 0
      vertex -4.23363 16.9802 0
    endloop
  endfacet
  facet normal 0.669153 0.743125 -0
    outer loop
      vertex -10.7741 -13.7902 0
      vertex -12.5884 -12.1565 500
      vertex -10.7741 -13.7902 500
    endloop
  endfacet
  facet normal 0.669153 0.743125 0
    outer loop
      vertex -12.5884 -12.1565 500
      vertex -10.7741 -13.7902 0
      vertex -12.5884 -12.1565 0
    endloop
  endfacet
  facet normal 0.309033 0.951051 -0
    outer loop
      vertex -4.23363 -16.9802 0
      vertex -6.55561 -16.2257 500
      vertex -4.23363 -16.9802 500
    endloop
  endfacet
  facet normal 0.309033 0.951051 0
    outer loop
      vertex -6.55561 -16.2257 500
      vertex -4.23363 -16.9802 0
      vertex -6.55561 -16.2257 0
    endloop
  endfacet
  facet normal 0.0348969 0.999391 -0
    outer loop
      vertex 0.610741 -17.4893 0
      vertex -1.82925 -17.4041 500
      vertex 0.610741 -17.4893 500
    endloop
  endfacet
  facet normal 0.0348969 0.999391 0
    outer loop
      vertex -1.82925 -17.4041 500
      vertex 0.610741 -17.4893 0
      vertex -1.82925 -17.4041 0
    endloop
  endfacet
  facet normal -0.719328 0.694671 0
    outer loop
      vertex 11.7098 -13.005 0
      vertex 13.4058 -11.2488 500
      vertex 13.4058 -11.2488 0
    endloop
  endfacet
  facet normal -0.719328 0.694671 0
    outer loop
      vertex 13.4058 -11.2488 500
      vertex 11.7098 -13.005 0
      vertex 11.7098 -13.005 500
    endloop
  endfacet
  facet normal 0.848007 0.529984 0
    outer loop
      vertex -15.4516 -8.21575 500
      vertex -15.1277 -8.73401 50.8
      vertex -15.4516 -8.21575 50.8
    endloop
  endfacet
  facet normal 0.848052 0.529913 -0
    outer loop
      vertex -14.1578 -10.2862 0
      vertex -15.1277 -8.73401 50.8
      vertex -14.1578 -10.2862 500
    endloop
  endfacet
  facet normal 0.848041 0.529931 8.56816e-08
    outer loop
      vertex -14.1578 -10.2862 500
      vertex -15.1277 -8.73401 50.8
      vertex -15.4516 -8.21575 500
    endloop
  endfacet
  facet normal 0.848007 0.529984 0
    outer loop
      vertex -15.1277 -8.73401 6.35
      vertex -15.4516 -8.21575 0
      vertex -15.4516 -8.21575 6.35
    endloop
  endfacet
  facet normal 0.848041 0.529931 -6.06113e-06
    outer loop
      vertex -15.1277 -8.73401 6.35
      vertex -14.1578 -10.2862 0
      vertex -15.4516 -8.21575 0
    endloop
  endfacet
  facet normal 0.848052 0.529913 0
    outer loop
      vertex -15.1277 -8.73401 50.8
      vertex -14.1578 -10.2862 0
      vertex -15.1277 -8.73401 6.35
    endloop
  endfacet
  facet normal 0.438379 -0.89879 0
    outer loop
      vertex -8.75 15.1554 0
      vertex -6.55561 16.2257 500
      vertex -8.75 15.1554 500
    endloop
  endfacet
  facet normal 0.438379 -0.89879 0
    outer loop
      vertex -6.55561 16.2257 500
      vertex -8.75 15.1554 0
      vertex -6.55561 16.2257 0
    endloop
  endfacet
  facet normal 0.173626 0.984812 -0
    outer loop
      vertex -1.82925 -17.4041 0
      vertex -4.23363 -16.9802 500
      vertex -1.82925 -17.4041 500
    endloop
  endfacet
  facet normal 0.173626 0.984812 0
    outer loop
      vertex -4.23363 -16.9802 500
      vertex -1.82925 -17.4041 0
      vertex -4.23363 -16.9802 0
    endloop
  endfacet
  facet normal 0.990267 0.139178 0
    outer loop
      vertex -17.1176 -3.63845 500
      vertex -17.4574 -1.22074 0
      vertex -17.4574 -1.22074 500
    endloop
  endfacet
  facet normal 0.990267 0.139178 0
    outer loop
      vertex -17.4574 -1.22074 0
      vertex -17.1176 -3.63845 500
      vertex -17.1176 -3.63845 0
    endloop
  endfacet
  facet normal -0.615679 0.787997 0
    outer loop
      vertex 11.7098 -13.005 0
      vertex 9.78588 -14.5082 500
      vertex 11.7098 -13.005 500
    endloop
  endfacet
  facet normal -0.615679 0.787997 0
    outer loop
      vertex 9.78588 -14.5082 500
      vertex 11.7098 -13.005 0
      vertex 9.78588 -14.5082 0
    endloop
  endfacet
  facet normal 0.766038 -0.642795 0
    outer loop
      vertex -14.1578 10.2862 500
      vertex -12.5884 12.1565 0
      vertex -12.5884 12.1565 500
    endloop
  endfacet
  facet normal 0.766038 -0.642795 0
    outer loop
      vertex -12.5884 12.1565 0
      vertex -14.1578 10.2862 500
      vertex -14.1578 10.2862 0
    endloop
  endfacet
  facet normal 0.961258 0.275651 0
    outer loop
      vertex -16.4446 -5.98535 500
      vertex -17.1176 -3.63845 0
      vertex -17.1176 -3.63845 500
    endloop
  endfacet
  facet normal 0.961258 0.275651 0
    outer loop
      vertex -17.1176 -3.63845 0
      vertex -16.4446 -5.98535 500
      vertex -16.4446 -5.98535 0
    endloop
  endfacet
  facet normal 1 -0 0
    outer loop
      vertex -17.4574 -1.22074 500
      vertex -17.4574 1.22074 0
      vertex -17.4574 1.22074 500
    endloop
  endfacet
  facet normal 1 0 0
    outer loop
      vertex -17.4574 1.22074 0
      vertex -17.4574 -1.22074 500
      vertex -17.4574 -1.22074 0
    endloop
  endfacet
  facet normal -0.104527 0.994522 0
    outer loop
      vertex 3.03884 -17.2341 0
      vertex 0.610741 -17.4893 500
      vertex 3.03884 -17.2341 500
    endloop
  endfacet
  facet normal -0.104527 0.994522 0
    outer loop
      vertex 0.610741 -17.4893 500
      vertex 3.03884 -17.2341 0
      vertex 0.610741 -17.4893 0
    endloop
  endfacet
  facet normal -0.104524 -0.994522 -0
    outer loop
      vertex 0.610741 17.4893 6.35
      vertex 0.610741 17.4893 0
      vertex 2.39 17.3023 6.35
    endloop
  endfacet
  facet normal -0.104527 -0.994522 0
    outer loop
      vertex 0.610741 17.4893 50.8
      vertex 3.03884 17.2341 500
      vertex 0.610741 17.4893 500
    endloop
  endfacet
  facet normal -0.104524 -0.994522 -1.54095e-08
    outer loop
      vertex 2.39 17.3023 50.8
      vertex 3.03884 17.2341 500
      vertex 0.610741 17.4893 50.8
    endloop
  endfacet
  facet normal -0.104535 -0.994521 0
    outer loop
      vertex 3.03884 17.2341 0
      vertex 2.39 17.3023 50.8
      vertex 2.39 17.3023 6.35
    endloop
  endfacet
  facet normal -0.104535 -0.994521 0
    outer loop
      vertex 2.39 17.3023 50.8
      vertex 3.03884 17.2341 0
      vertex 3.03884 17.2341 500
    endloop
  endfacet
  facet normal -0.104527 -0.994522 7.98782e-07
    outer loop
      vertex 3.03884 17.2341 0
      vertex 2.39 17.3023 6.35
      vertex 0.610741 17.4893 0
    endloop
  endfacet
  facet normal 0.961258 -0.275651 0
    outer loop
      vertex -17.1176 3.63845 500
      vertex -16.4446 5.98535 0
      vertex -16.4446 5.98535 500
    endloop
  endfacet
  facet normal 0.961258 -0.275651 0
    outer loop
      vertex -16.4446 5.98535 0
      vertex -17.1176 3.63845 500
      vertex -17.1176 3.63845 0
    endloop
  endfacet
  facet normal 0.848041 -0.529931 0
    outer loop
      vertex -15.4516 8.21575 500
      vertex -14.1578 10.2862 0
      vertex -14.1578 10.2862 500
    endloop
  endfacet
  facet normal 0.848041 -0.529931 0
    outer loop
      vertex -14.1578 10.2862 0
      vertex -15.4516 8.21575 500
      vertex -15.4516 8.21575 0
    endloop
  endfacet
  facet normal -1 0 0
    outer loop
      vertex 2.39 17.3023 6.35
      vertex 2.39 17.8039 50.8
      vertex 2.39 17.8039 6.35
    endloop
  endfacet
  facet normal -1 -0 0
    outer loop
      vertex 2.39 17.8039 50.8
      vertex 2.39 17.3023 6.35
      vertex 2.39 17.3023 50.8
    endloop
  endfacet
  facet normal 0 0 -1
    outer loop
      vertex 0.610741 17.4893 50.8
      vertex 2.39 17.8039 50.8
      vertex 2.39 17.3023 50.8
    endloop
  endfacet
  facet normal -0 0 -1
    outer loop
      vertex 2.39 17.8039 50.8
      vertex 0.610741 17.4893 50.8
      vertex 0.62819 17.989 50.8
    endloop
  endfacet
  facet normal 0 0 -1
    outer loop
      vertex 0 17.9671 50.8
      vertex 0.610741 17.4893 50.8
      vertex 0 17.468 50.8
    endloop
  endfacet
  facet normal 0 0 -1
    outer loop
      vertex 0.610741 17.4893 50.8
      vertex 0 17.9671 50.8
      vertex 0.62819 17.989 50.8
    endloop
  endfacet
  facet normal 0 0 1
    outer loop
      vertex 0.610741 17.4893 6.35
      vertex 2.39 17.8039 6.35
      vertex 0.62819 17.989 6.35
    endloop
  endfacet
  facet normal 0 0 1
    outer loop
      vertex 2.39 17.8039 6.35
      vertex 0.610741 17.4893 6.35
      vertex 2.39 17.3023 6.35
    endloop
  endfacet
  facet normal -0 0 1
    outer loop
      vertex 0 17.9671 6.35
      vertex 0.610741 17.4893 6.35
      vertex 0.62819 17.989 6.35
    endloop
  endfacet
  facet normal 0 0 1
    outer loop
      vertex 0.610741 17.4893 6.35
      vertex 0 17.9671 6.35
      vertex 0 17.468 6.35
    endloop
  endfacet
  facet normal 1 -0 0
    outer loop
      vertex 0 17.468 50.8
      vertex 0 17.9671 6.35
      vertex 0 17.9671 50.8
    endloop
  endfacet
  facet normal 1 0 0
    outer loop
      vertex 0 17.9671 6.35
      vertex 0 17.468 50.8
      vertex 0 17.468 6.35
    endloop
  endfacet
  facet normal 0 0 -1
    outer loop
      vertex -15.56 -8.98355 50.8
      vertex -15.4516 -8.21575 50.8
      vertex -15.1277 -8.73401 50.8
    endloop
  endfacet
  facet normal 0 0 -1
    outer loop
      vertex -15.8931 -8.45049 50.8
      vertex -15.4516 -8.21575 50.8
      vertex -15.56 -8.98355 50.8
    endloop
  endfacet
  facet normal 0 0 -1
    outer loop
      vertex -16.6136 -6.83213 50.8
      vertex -15.4516 -8.21575 50.8
      vertex -15.8931 -8.45049 50.8
    endloop
  endfacet
  facet normal 0 0 -1
    outer loop
      vertex -15.4516 -8.21575 50.8
      vertex -16.6136 -6.83213 50.8
      vertex -16.1793 -6.58136 50.8
    endloop
  endfacet
  facet normal 0.50004 -0.866002 0
    outer loop
      vertex -16.6136 -6.83213 6.35
      vertex -16.1793 -6.58136 50.8
      vertex -16.6136 -6.83213 50.8
    endloop
  endfacet
  facet normal 0.50004 -0.866002 0
    outer loop
      vertex -16.1793 -6.58136 50.8
      vertex -16.6136 -6.83213 6.35
      vertex -16.1793 -6.58136 6.35
    endloop
  endfacet
  facet normal -0.499927 0.866067 0
    outer loop
      vertex -15.1277 -8.73401 6.35
      vertex -15.56 -8.98355 50.8
      vertex -15.1277 -8.73401 50.8
    endloop
  endfacet
  facet normal -0.499927 0.866067 0
    outer loop
      vertex -15.56 -8.98355 50.8
      vertex -15.1277 -8.73401 6.35
      vertex -15.56 -8.98355 6.35
    endloop
  endfacet
  facet normal 0 0 1
    outer loop
      vertex -15.4516 -8.21575 6.35
      vertex -15.56 -8.98355 6.35
      vertex -15.1277 -8.73401 6.35
    endloop
  endfacet
  facet normal 0 0 1
    outer loop
      vertex -15.4516 -8.21575 6.35
      vertex -15.8931 -8.45049 6.35
      vertex -15.56 -8.98355 6.35
    endloop
  endfacet
  facet normal -0 0 1
    outer loop
      vertex -16.6136 -6.83213 6.35
      vertex -15.4516 -8.21575 6.35
      vertex -16.1793 -6.58136 6.35
    endloop
  endfacet
  facet normal 0 0 1
    outer loop
      vertex -15.4516 -8.21575 6.35
      vertex -16.6136 -6.83213 6.35
      vertex -15.8931 -8.45049 6.35
    endloop
  endfacet
  facet normal 0.499935 0.866063 -0
    outer loop
      vertex 14.2236 -10.9717 6.35
      vertex 13.7893 -10.721 50.8
      vertex 14.2236 -10.9717 50.8
    endloop
  endfacet
  facet normal 0.499935 0.866063 0
    outer loop
      vertex 13.7893 -10.721 50.8
      vertex 14.2236 -10.9717 6.35
      vertex 13.7893 -10.721 6.35
    endloop
  endfacet
  facet normal 0 0 -1
    outer loop
      vertex 14.8408 -9.27359 50.8
      vertex 15.56 -8.98355 50.8
      vertex 15.2649 -9.53855 50.8
    endloop
  endfacet
  facet normal -0 0 -1
    outer loop
      vertex 15.56 -8.98355 50.8
      vertex 14.8408 -9.27359 50.8
      vertex 15.1277 -8.73401 50.8
    endloop
  endfacet
  facet normal 0 0 -1
    outer loop
      vertex 14.2236 -10.9717 50.8
      vertex 14.8408 -9.27359 50.8
      vertex 15.2649 -9.53855 50.8
    endloop
  endfacet
  facet normal 0 0 -1
    outer loop
      vertex 14.8408 -9.27359 50.8
      vertex 14.2236 -10.9717 50.8
      vertex 13.7893 -10.721 50.8
    endloop
  endfacet
  facet normal 0 0 1
    outer loop
      vertex 14.8408 -9.27359 6.35
      vertex 15.56 -8.98355 6.35
      vertex 15.1277 -8.73401 6.35
    endloop
  endfacet
  facet normal 0 0 1
    outer loop
      vertex 15.56 -8.98355 6.35
      vertex 14.8408 -9.27359 6.35
      vertex 15.2649 -9.53855 6.35
    endloop
  endfacet
  facet normal 0 0 1
    outer loop
      vertex 14.8408 -9.27359 6.35
      vertex 14.2236 -10.9717 6.35
      vertex 15.2649 -9.53855 6.35
    endloop
  endfacet
  facet normal 0 -0 1
    outer loop
      vertex 14.2236 -10.9717 6.35
      vertex 14.8408 -9.27359 6.35
      vertex 13.7893 -10.721 6.35
    endloop
  endfacet
  facet normal -0.499927 -0.866067 0
    outer loop
      vertex 15.1277 -8.73401 6.35
      vertex 15.56 -8.98355 50.8
      vertex 15.1277 -8.73401 50.8
    endloop
  endfacet
  facet normal -0.499927 -0.866067 -0
    outer loop
      vertex 15.56 -8.98355 50.8
      vertex 15.1277 -8.73401 6.35
      vertex 15.56 -8.98355 6.35
    endloop
  endfacet
endsolid OpenSCAD_Model
