<svg xmlns="http://www.w3.org/2000/svg" width="398" height="396" viewBox="0 0 398 396"><rect width="100%" height="100%" fill="#f7f9fb"/><rect width="100%" height="100%" fill="#0a1626"/><text x="40" y="24" font-size="13" fill="#9fd3ff" font-weight="bold">small_launch_vehicle_cutaway_redesign_v1 rev 1.0 · PETG + clear PETG windows + TPU pads · 33 parts · 배치 투영도</text><rect x="40" y="56" width="66" height="66" fill="#0c1e35" stroke="#274a79"/><text x="40" y="50" font-size="12" fill="#9fd3ff" font-weight="bold">TOP (X-Y)</text><rect x="52.1" y="68.1" width="41.8" height="41.8" fill="#89ffa8" fill-opacity="0.18" stroke="#89ffa8" stroke-width="0.8"/><rect x="60.9" y="76.9" width="24.2" height="24.2" fill="#9fd3ff" fill-opacity="0.18" stroke="#9fd3ff" stroke-width="0.8"/><rect x="56.5" y="72.5" width="33.0" height="33.0" fill="#ffd39f" fill-opacity="0.18" stroke="#ffd39f" stroke-width="0.8"/><rect x="92.8" y="86.8" width="4.4" height="4.4" fill="#89ffa8" fill-opacity="0.18" stroke="#89ffa8" stroke-width="0.8"/><rect x="48.8" y="86.8" width="4.4" height="4.4" fill="#89ffa8" fill-opacity="0.18" stroke="#89ffa8" stroke-width="0.8"/><rect x="70.8" y="64.8" width="4.4" height="4.4" fill="#89ffa8" fill-opacity="0.18" stroke="#89ffa8" stroke-width="0.8"/><rect x="70.8" y="108.8" width="4.4" height="4.4" fill="#89ffa8" fill-opacity="0.18" stroke="#89ffa8" stroke-width="0.8"/><rect x="66.4" y="82.4" width="13.2" height="13.2" fill="#9fd3ff" fill-opacity="0.18" stroke="#9fd3ff" stroke-width="0.8"/><rect x="52.6" y="68.7" width="40.7" height="40.7" fill="#ffd39f" fill-opacity="0.18" stroke="#ffd39f" stroke-width="0.8"/><rect x="52.1" y="68.1" width="41.8" height="41.8" fill="#ffd39f" fill-opacity="0.18" stroke="#ffd39f" stroke-width="0.8"/><rect x="54.3" y="70.3" width="37.4" height="37.4" fill="#9fd3ff" fill-opacity="0.18" stroke="#9fd3ff" stroke-width="0.8"/><rect x="54.9" y="70.8" width="36.3" height="36.3" fill="#9fd3ff" fill-opacity="0.18" stroke="#9fd3ff" stroke-width="0.8"/><rect x="54.9" y="70.8" width="36.3" height="36.3" fill="#9fd3ff" fill-opacity="0.18" stroke="#9fd3ff" stroke-width="0.8"/><rect x="54.9" y="70.8" width="36.3" height="36.3" fill="#ffd39f" fill-opacity="0.18" stroke="#ffd39f" stroke-width="0.8"/><rect x="54.9" y="70.8" width="36.3" height="36.3" fill="#ffd39f" fill-opacity="0.18" stroke="#ffd39f" stroke-width="0.8"/><rect x="54.9" y="70.8" width="36.3" height="36.3" fill="#ffd39f" fill-opacity="0.18" stroke="#ffd39f" stroke-width="0.8"/><rect x="54.3" y="70.3" width="37.4" height="37.4" fill="#9fd3ff" fill-opacity="0.18" stroke="#9fd3ff" stroke-width="0.8"/><rect x="54.9" y="70.8" width="36.3" height="36.3" fill="#9fd3ff" fill-opacity="0.18" stroke="#9fd3ff" stroke-width="0.8"/><rect x="51.0" y="67.0" width="44.0" height="44.0" fill="#89ffa8" fill-opacity="0.18" stroke="#89ffa8" stroke-width="0.8"/><rect x="78.5" y="82.4" width="13.2" height="13.2" fill="#9fd3ff" fill-opacity="0.18" stroke="#9fd3ff" stroke-width="0.8"/><rect x="64.2" y="80.2" width="17.6" height="17.6" fill="#ffd39f" fill-opacity="0.18" stroke="#ffd39f" stroke-width="0.8"/><rect x="63.1" y="79.1" width="19.8" height="19.8" fill="#9fd3ff" fill-opacity="0.18" stroke="#9fd3ff" stroke-width="0.8"/><rect x="68.6" y="84.6" width="8.8" height="8.8" fill="#ffd39f" fill-opacity="0.18" stroke="#ffd39f" stroke-width="0.8"/><rect x="58.7" y="74.7" width="28.6" height="28.6" fill="#89ffa8" fill-opacity="0.18" stroke="#89ffa8" stroke-width="0.8"/><rect x="64.2" y="80.2" width="17.6" height="17.6" fill="#89ffa8" fill-opacity="0.18" stroke="#89ffa8" stroke-width="0.8"/><rect x="56.5" y="72.5" width="33.0" height="33.0" fill="#89ffa8" fill-opacity="0.18" stroke="#89ffa8" stroke-width="0.8"/><rect x="68.0" y="84.0" width="9.9" height="9.9" fill="#89ffa8" fill-opacity="0.18" stroke="#89ffa8" stroke-width="0.8"/><rect x="69.2" y="85.2" width="7.7" height="7.7" fill="#89ffa8" fill-opacity="0.18" stroke="#89ffa8" stroke-width="0.8"/><rect x="70.2" y="86.2" width="5.5" height="5.5" fill="#89ffa8" fill-opacity="0.18" stroke="#89ffa8" stroke-width="0.8"/><rect x="84.0" y="88.2" width="22.0" height="1.7" fill="#89ffa8" fill-opacity="0.18" stroke="#89ffa8" stroke-width="0.8"/><rect x="40.0" y="88.2" width="22.0" height="1.7" fill="#89ffa8" fill-opacity="0.18" stroke="#89ffa8" stroke-width="0.8"/><rect x="72.2" y="56.0" width="1.7" height="22.0" fill="#89ffa8" fill-opacity="0.18" stroke="#89ffa8" stroke-width="0.8"/><rect x="72.2" y="100.0" width="1.7" height="22.0" fill="#89ffa8" fill-opacity="0.18" stroke="#89ffa8" stroke-width="0.8"/><rect x="146.0" y="56" width="66" height="300" fill="#0c1e35" stroke="#274a79"/><text x="146.0" y="50" font-size="12" fill="#9fd3ff" font-weight="bold">FRONT (X-Z)</text><rect x="158.1" y="56.0" width="41.8" height="47.3" fill="#89ffa8" fill-opacity="0.18" stroke="#89ffa8" stroke-width="0.8"/><rect x="166.9" y="95.1" width="24.2" height="22.0" fill="#9fd3ff" fill-opacity="0.18" stroke="#9fd3ff" stroke-width="0.8"/><rect x="162.5" y="117.1" width="33.0" height="8.8" fill="#ffd39f" fill-opacity="0.18" stroke="#ffd39f" stroke-width="0.8"/><rect x="198.8" y="128.6" width="4.4" height="4.4" fill="#89ffa8" fill-opacity="0.18" stroke="#89ffa8" stroke-width="0.8"/><rect x="154.8" y="128.6" width="4.4" height="4.4" fill="#89ffa8" fill-opacity="0.18" stroke="#89ffa8" stroke-width="0.8"/><rect x="176.8" y="128.6" width="4.4" height="4.4" fill="#89ffa8" fill-opacity="0.18" stroke="#89ffa8" stroke-width="0.8"/><rect x="176.8" y="128.6" width="4.4" height="4.4" fill="#89ffa8" fill-opacity="0.18" stroke="#89ffa8" stroke-width="0.8"/><rect x="172.4" y="124.2" width="13.2" height="13.2" fill="#9fd3ff" fill-opacity="0.18" stroke="#9fd3ff" stroke-width="0.8"/><rect x="158.7" y="137.9" width="40.7" height="13.2" fill="#ffd39f" fill-opacity="0.18" stroke="#ffd39f" stroke-width="0.8"/><rect x="158.1" y="150.6" width="41.8" height="3.3" fill="#ffd39f" fill-opacity="0.18" stroke="#ffd39f" stroke-width="0.8"/><rect x="160.3" y="156.7" width="37.4" height="44.0" fill="#9fd3ff" fill-opacity="0.18" stroke="#9fd3ff" stroke-width="0.8"/><rect x="160.8" y="138.5" width="36.3" height="36.3" fill="#9fd3ff" fill-opacity="0.18" stroke="#9fd3ff" stroke-width="0.8"/><rect x="160.8" y="182.5" width="36.3" height="36.3" fill="#9fd3ff" fill-opacity="0.18" stroke="#9fd3ff" stroke-width="0.8"/><rect x="160.8" y="166.8" width="36.3" height="1.7" fill="#ffd39f" fill-opacity="0.18" stroke="#ffd39f" stroke-width="0.8"/><rect x="160.8" y="177.8" width="36.3" height="1.7" fill="#ffd39f" fill-opacity="0.18" stroke="#ffd39f" stroke-width="0.8"/><rect x="160.8" y="188.8" width="36.3" height="1.7" fill="#ffd39f" fill-opacity="0.18" stroke="#ffd39f" stroke-width="0.8"/><rect x="160.3" y="216.1" width="37.4" height="38.5" fill="#9fd3ff" fill-opacity="0.18" stroke="#9fd3ff" stroke-width="0.8"/><rect x="160.8" y="235.3" width="36.3" height="36.3" fill="#9fd3ff" fill-opacity="0.18" stroke="#9fd3ff" stroke-width="0.8"/><rect x="157.0" y="139.1" width="44.0" height="110.0" fill="#89ffa8" fill-opacity="0.18" stroke="#89ffa8" stroke-width="0.8"/><rect x="184.5" y="259.5" width="13.2" height="12.1" fill="#9fd3ff" fill-opacity="0.18" stroke="#9fd3ff" stroke-width="0.8"/><rect x="170.2" y="262.8" width="17.6" height="5.5" fill="#ffd39f" fill-opacity="0.18" stroke="#ffd39f" stroke-width="0.8"/><rect x="169.1" y="266.6" width="19.8" height="14.3" fill="#9fd3ff" fill-opacity="0.18" stroke="#9fd3ff" stroke-width="0.8"/><rect x="174.6" y="281.0" width="8.8" height="5.5" fill="#ffd39f" fill-opacity="0.18" stroke="#ffd39f" stroke-width="0.8"/><rect x="164.7" y="286.5" width="28.6" height="30.8" fill="#89ffa8" fill-opacity="0.18" stroke="#89ffa8" stroke-width="0.8"/><rect x="170.2" y="317.2" width="17.6" height="38.5" fill="#89ffa8" fill-opacity="0.18" stroke="#89ffa8" stroke-width="0.8"/><rect x="162.5" y="317.2" width="33.0" height="33.0" fill="#89ffa8" fill-opacity="0.18" stroke="#89ffa8" stroke-width="0.8"/><rect x="174.1" y="320.0" width="9.9" height="9.9" fill="#89ffa8" fill-opacity="0.18" stroke="#89ffa8" stroke-width="0.8"/><rect x="175.2" y="332.1" width="7.7" height="7.7" fill="#89ffa8" fill-opacity="0.18" stroke="#89ffa8" stroke-width="0.8"/><rect x="176.2" y="344.2" width="5.5" height="5.5" fill="#89ffa8" fill-opacity="0.18" stroke="#89ffa8" stroke-width="0.8"/><rect x="190.0" y="254.0" width="22.0" height="23.1" fill="#89ffa8" fill-opacity="0.18" stroke="#89ffa8" stroke-width="0.8"/><rect x="146.0" y="254.0" width="22.0" height="23.1" fill="#89ffa8" fill-opacity="0.18" stroke="#89ffa8" stroke-width="0.8"/><rect x="178.2" y="254.0" width="1.7" height="23.1" fill="#89ffa8" fill-opacity="0.18" stroke="#89ffa8" stroke-width="0.8"/><rect x="178.2" y="254.0" width="1.7" height="23.1" fill="#89ffa8" fill-opacity="0.18" stroke="#89ffa8" stroke-width="0.8"/><rect x="252.0" y="56" width="66" height="300" fill="#0c1e35" stroke="#274a79"/><text x="252.0" y="50" font-size="12" fill="#9fd3ff" font-weight="bold">SIDE (Y-Z)</text><rect x="264.1" y="56.0" width="41.8" height="47.3" fill="#89ffa8" fill-opacity="0.18" stroke="#89ffa8" stroke-width="0.8"/><rect x="272.9" y="95.1" width="24.2" height="22.0" fill="#9fd3ff" fill-opacity="0.18" stroke="#9fd3ff" stroke-width="0.8"/><rect x="268.5" y="117.1" width="33.0" height="8.8" fill="#ffd39f" fill-opacity="0.18" stroke="#ffd39f" stroke-width="0.8"/><rect x="282.8" y="128.6" width="4.4" height="4.4" fill="#89ffa8" fill-opacity="0.18" stroke="#89ffa8" stroke-width="0.8"/><rect x="282.8" y="128.6" width="4.4" height="4.4" fill="#89ffa8" fill-opacity="0.18" stroke="#89ffa8" stroke-width="0.8"/><rect x="304.8" y="128.6" width="4.4" height="4.4" fill="#89ffa8" fill-opacity="0.18" stroke="#89ffa8" stroke-width="0.8"/><rect x="260.8" y="128.6" width="4.4" height="4.4" fill="#89ffa8" fill-opacity="0.18" stroke="#89ffa8" stroke-width="0.8"/><rect x="278.4" y="124.2" width="13.2" height="13.2" fill="#9fd3ff" fill-opacity="0.18" stroke="#9fd3ff" stroke-width="0.8"/><rect x="264.6" y="137.9" width="40.7" height="13.2" fill="#ffd39f" fill-opacity="0.18" stroke="#ffd39f" stroke-width="0.8"/><rect x="264.1" y="150.6" width="41.8" height="3.3" fill="#ffd39f" fill-opacity="0.18" stroke="#ffd39f" stroke-width="0.8"/><rect x="266.3" y="156.7" width="37.4" height="44.0" fill="#9fd3ff" fill-opacity="0.18" stroke="#9fd3ff" stroke-width="0.8"/><rect x="266.9" y="138.5" width="36.3" height="36.3" fill="#9fd3ff" fill-opacity="0.18" stroke="#9fd3ff" stroke-width="0.8"/><rect x="266.9" y="182.5" width="36.3" height="36.3" fill="#9fd3ff" fill-opacity="0.18" stroke="#9fd3ff" stroke-width="0.8"/><rect x="266.9" y="166.8" width="36.3" height="1.7" fill="#ffd39f" fill-opacity="0.18" stroke="#ffd39f" stroke-width="0.8"/><rect x="266.9" y="177.8" width="36.3" height="1.7" fill="#ffd39f" fill-opacity="0.18" stroke="#ffd39f" stroke-width="0.8"/><rect x="266.9" y="188.8" width="36.3" height="1.7" fill="#ffd39f" fill-opacity="0.18" stroke="#ffd39f" stroke-width="0.8"/><rect x="266.3" y="216.1" width="37.4" height="38.5" fill="#9fd3ff" fill-opacity="0.18" stroke="#9fd3ff" stroke-width="0.8"/><rect x="266.9" y="235.3" width="36.3" height="36.3" fill="#9fd3ff" fill-opacity="0.18" stroke="#9fd3ff" stroke-width="0.8"/><rect x="263.0" y="139.1" width="44.0" height="110.0" fill="#89ffa8" fill-opacity="0.18" stroke="#89ffa8" stroke-width="0.8"/><rect x="278.4" y="259.5" width="13.2" height="12.1" fill="#9fd3ff" fill-opacity="0.18" stroke="#9fd3ff" stroke-width="0.8"/><rect x="276.2" y="262.8" width="17.6" height="5.5" fill="#ffd39f" fill-opacity="0.18" stroke="#ffd39f" stroke-width="0.8"/><rect x="275.1" y="266.6" width="19.8" height="14.3" fill="#9fd3ff" fill-opacity="0.18" stroke="#9fd3ff" stroke-width="0.8"/><rect x="280.6" y="281.0" width="8.8" height="5.5" fill="#ffd39f" fill-opacity="0.18" stroke="#ffd39f" stroke-width="0.8"/><rect x="270.7" y="286.5" width="28.6" height="30.8" fill="#89ffa8" fill-opacity="0.18" stroke="#89ffa8" stroke-width="0.8"/><rect x="276.2" y="317.2" width="17.6" height="38.5" fill="#89ffa8" fill-opacity="0.18" stroke="#89ffa8" stroke-width="0.8"/><rect x="268.5" y="317.2" width="33.0" height="33.0" fill="#89ffa8" fill-opacity="0.18" stroke="#89ffa8" stroke-width="0.8"/><rect x="280.1" y="320.0" width="9.9" height="9.9" fill="#89ffa8" fill-opacity="0.18" stroke="#89ffa8" stroke-width="0.8"/><rect x="281.1" y="332.1" width="7.7" height="7.7" fill="#89ffa8" fill-opacity="0.18" stroke="#89ffa8" stroke-width="0.8"/><rect x="282.2" y="344.2" width="5.5" height="5.5" fill="#89ffa8" fill-opacity="0.18" stroke="#89ffa8" stroke-width="0.8"/><rect x="284.2" y="254.0" width="1.7" height="23.1" fill="#89ffa8" fill-opacity="0.18" stroke="#89ffa8" stroke-width="0.8"/><rect x="284.2" y="254.0" width="1.7" height="23.1" fill="#89ffa8" fill-opacity="0.18" stroke="#89ffa8" stroke-width="0.8"/><rect x="296.0" y="254.0" width="22.0" height="23.1" fill="#89ffa8" fill-opacity="0.18" stroke="#89ffa8" stroke-width="0.8"/><rect x="252.0" y="254.0" width="22.0" height="23.1" fill="#89ffa8" fill-opacity="0.18" stroke="#89ffa8" stroke-width="0.8"/><text x="40" y="382" font-size="10" fill="#8ba3c7"><tspan fill="#9fd3ff">■</tspan>internal <tspan fill="#89ffa8">■</tspan>external <tspan fill="#ffd39f">■</tspan>structure · 치수선 없는 배치 투영</text></svg>