<svg xmlns="http://www.w3.org/2000/svg" viewBox="0 0 360 220"><rect width="360" height="220" fill="#050d18"/><defs><pattern id="g" width="18" height="18" patternUnits="userSpaceOnUse"><path d="M18 0H0V18" fill="none" stroke="rgba(72,118,174,.14)" stroke-width=".45"/></pattern><style>.panel{fill:rgba(8,28,48,.58);stroke:rgba(137,255,168,.56);stroke-width:1}.skin{fill:rgba(8,28,48,.70);stroke:rgba(133,190,255,.86);stroke-width:.95}.sub{fill:none;stroke:rgba(133,190,255,.40);stroke-width:.65}.txt{font-family:ui-monospace,Consolas,monospace;font-size:8px;letter-spacing:.12em;fill:rgba(230,236,245,.72)}.micro{font-family:ui-monospace,Consolas,monospace;font-size:5.5px;letter-spacing:.1em;fill:rgba(118,169,232,.58)}</style></defs><rect width="360" height="220" fill="url(#g)"/><text x="14" y="20" class="txt">P5 SOLAR ARRAY WING PAIR</text><rect x="28" y="70" width="132" height="64" rx="5" class="panel"/><rect x="200" y="70" width="132" height="64" rx="5" class="panel"/><rect x="160" y="88" width="40" height="28" rx="6" class="skin"/><path class="sub" d="M52 70V134M76 70V134M100 70V134M124 70V134M224 70V134M248 70V134M272 70V134M296 70V134M28 102H332M180 88V44M180 116V172"/><text x="62" y="198" class="micro">DEPLOYABLE WINGS - SINGLE-AXIS DRIVE - 2.4 KW BOL</text></svg>
