<svg xmlns="http://www.w3.org/2000/svg" viewBox="0 0 420 300"><rect width="420" height="300" fill="#050d18"/><defs><pattern id="g" width="20" height="20" patternUnits="userSpaceOnUse"><path d="M20 0L0 0 0 20" fill="none" stroke="rgba(39,74,121,.13)" stroke-width=".4"/></pattern><style>.sk{fill:#081c30;stroke:rgba(100,160,240,.78);stroke-width:1.3;vector-effect:non-scaling-stroke}.pa{fill:rgba(100,160,240,.04);stroke:rgba(100,160,240,.38);stroke-width:.85;stroke-dasharray:5 4;vector-effect:non-scaling-stroke}.ma{fill:none;stroke:rgba(100,160,240,.5);stroke-width:1.1;vector-effect:non-scaling-stroke}.mi{fill:none;stroke:rgba(100,160,240,.22);stroke-width:.7;vector-effect:non-scaling-stroke}.nz{fill:#050d18;stroke:rgba(137,255,168,.45);stroke-width:1;vector-effect:non-scaling-stroke}.cl{fill:none;stroke:rgba(159,211,255,.3);stroke-width:.6;stroke-dasharray:4 3;vector-effect:non-scaling-stroke}.ct{font-family:ui-monospace,monospace;font-size:7px;fill:rgba(230,236,245,.6)}.ti{font-family:ui-monospace,monospace;font-size:7.5px;letter-spacing:.22em;fill:rgba(159,211,255,.52)}.mc{font-family:ui-monospace,monospace;font-size:5.5px;fill:rgba(100,160,240,.32)}.rv{fill:rgba(100,160,240,.25);stroke:none}</style></defs><rect width="420" height="300" fill="url(#g)"/><text x="12" y="16" class="ti">CONNING TOWER FAIRWATER</text>
<text x="12" y="26" class="mc">PERISCOPES · ANTENNA MAST · VHF/SAT COMM · UQC UNDERWATER COMM</text>
<!-- fairwater outer streamlined profile -->
<path d="M155 260 L155 110 Q155 55 210 55 Q265 55 265 110 L265 260 Z" class="sk"/>
<path d="M164 260 L164 114 Q164 66 210 66 Q256 66 256 114 L256 260 Z" class="pa"/>
<!-- periscope 1 (attack, left) -->
<rect x="176" y="30" width="10" height="80" rx="3" class="sk"/>
<rect x="176" y="28" width="10" height="10" rx="2" class="nz"/>
<!-- periscope 2 (search, right) -->
<rect x="214" y="20" width="10" height="90" rx="3" class="sk"/>
<rect x="214" y="18" width="10" height="10" rx="2" class="nz"/>
<!-- antenna mast (tallest) -->
<rect x="205" y="5" width="6" height="55" rx="2" class="ma"/>
<!-- VHF antenna whip -->
<line x1="208" y1="5" x2="208" y2="0" class="ma"/>
<!-- sat-comm dome -->
<circle cx="208" cy="10" r="8" class="pa"/>
<!-- UQC hydrophone (side of hull below waterline) -->
<circle cx="155" cy="220" r="10" class="nz"/>
<!-- hatch on top (circular) -->
<ellipse cx="210" cy="110" rx="22" ry="8" class="sk"/>
<ellipse cx="210" cy="110" rx="16" ry="5" class="nz"/>
<!-- waterline indicator -->
<line x1="100" y1="185" x2="320" y2="185" class="mi" stroke-dasharray="6 4"/>
<text x="320" y="182" class="mc">WL</text>
<!-- callouts -->
<line x1="181" y1="28" x2="100" y2="10" class="cl"/><text x="10" y="8" class="ct">Attack Periscope</text>
<line x1="219" y1="18" x2="295" y2="5" class="cl"/><text x="297" y="3" class="ct">Search Periscope</text>
<line x1="208" y1="10" x2="280" y2="10" class="cl"/><text x="282" y="8" class="ct">Sat Comm Dome</text>
<line x1="155" y1="220" x2="60" y2="235" class="cl"/><text x="10" y="233" class="ct">UQC Hydrophone</text>
<line x1="210" y1="110" x2="310" y2="120" class="cl"/><text x="312" y="118" class="ct">Entry Hatch</text>
<text x="210" y="292" text-anchor="middle" class="mc">RESEARCH SUBMARINE · P8 CONNING TOWER · PERISCOPE+ANTENNA+UQC</text>
</svg>