<svg xmlns="http://www.w3.org/2000/svg" viewBox="0 0 420 300"><rect width="420" height="300" fill="#050d18"/><defs><pattern id="g" width="20" height="20" patternUnits="userSpaceOnUse"><path d="M20 0L0 0 0 20" fill="none" stroke="rgba(39,74,121,.13)" stroke-width=".4"/></pattern><style>.sk{fill:#081c30;stroke:rgba(100,160,240,.78);stroke-width:1.3;vector-effect:non-scaling-stroke}.pa{fill:rgba(100,160,240,.04);stroke:rgba(100,160,240,.38);stroke-width:.85;stroke-dasharray:5 4;vector-effect:non-scaling-stroke}.ma{fill:none;stroke:rgba(100,160,240,.5);stroke-width:1.1;vector-effect:non-scaling-stroke}.mi{fill:none;stroke:rgba(100,160,240,.22);stroke-width:.7;vector-effect:non-scaling-stroke}.nz{fill:#050d18;stroke:rgba(137,255,168,.45);stroke-width:1;vector-effect:non-scaling-stroke}.cl{fill:none;stroke:rgba(159,211,255,.3);stroke-width:.6;stroke-dasharray:4 3;vector-effect:non-scaling-stroke}.ct{font-family:ui-monospace,monospace;font-size:7px;fill:rgba(230,236,245,.6)}.ti{font-family:ui-monospace,monospace;font-size:7.5px;letter-spacing:.22em;fill:rgba(159,211,255,.52)}.mc{font-family:ui-monospace,monospace;font-size:5.5px;fill:rgba(100,160,240,.32)}.rv{fill:rgba(100,160,240,.25);stroke:none}</style></defs><rect width="420" height="300" fill="url(#g)"/><text x="12" y="16" class="ti">RUDDER x2</text>
<text x="12" y="26" class="mc">NACA 0015 SPADE RUDDER · STOCK PIVOT THROUGH DECK · SERVO ACTUATOR · 15% BALANCE</text>
<!-- rudder blade profile (NACA 0015, side view) -->
<path d="M200 60 Q215 80 218 150 Q215 220 200 240 Q185 220 182 150 Q185 80 200 60 Z" class="sk"/>
<path d="M200 68 Q212 85 214 150 Q212 215 200 232 Q188 215 186 150 Q188 85 200 68 Z" class="pa"/>
<!-- rudder stock (vertical shaft) -->
<rect x="196" y="40" width="8" height="220" rx="3" class="sk"/>
<!-- deck penetration point -->
<rect x="184" y="90" width="32" height="20" rx="4" class="sk"/>
<!-- balanced area (leading edge, 15%) -->
<path d="M200 60 Q190 75 188 90" class="ma"/>
<!-- servo actuator lever arm -->
<rect x="210" y="96" width="60" height="12" rx="4" class="pa"/>
<circle cx="268" cy="102" r="8" class="nz"/>
<!-- NACA 0015 profile indicator -->
<text x="200" y="150" text-anchor="middle" class="mc">NACA</text>
<text x="200" y="160" text-anchor="middle" class="mc">0015</text>
<!-- callouts -->
<line x1="200" y1="60" x2="300" y2="38" class="cl"/><text x="302" y="36" class="ct">NACA 0015 Profile</text>
<line x1="184" y1="100" x2="100" y2="80" class="cl"/><text x="60" y="78" class="ct">Deck Bearing Tube</text>
<line x1="268" y1="102" x2="360" y2="88" class="cl"/><text x="362" y="86" class="ct">Servo Actuator Arm</text>
<line x1="188" y1="75" x2="100" y2="55" class="cl"/><text x="10" y="53" class="ct">Balance 15% Fwd</text>
<line x1="200" y1="240" x2="300" y2="258" class="cl"/><text x="302" y="256" class="ct">Rudder Tip Trailing</text>
<text x="210" y="292" text-anchor="middle" class="mc">USV AUTONOMOUS · P5 RUDDER x2 · NACA0015 · SPADE · SERVO ACTUATED</text>
</svg>