<svg xmlns="http://www.w3.org/2000/svg" width="661" height="200" viewBox="0 0 661 200"><rect width="100%" height="100%" fill="#f7f9fb"/><rect width="100%" height="100%" fill="#0a1626"/><text x="40" y="24" font-size="13" fill="#9fd3ff" font-weight="bold">haptic_exo_glove_pair rev r1 · TPU shell + PETG exoskeleton · 110 parts · 배치 투영도</text><rect x="40" y="56" width="178" height="104" fill="#0c1e35" stroke="#274a79"/><text x="40" y="50" font-size="12" fill="#9fd3ff" font-weight="bold">TOP (X-Y)</text><rect x="172.0" y="99.7" width="46.2" height="46.2" fill="#ffd39f" fill-opacity="0.18" stroke="#ffd39f" stroke-width="0.8"/><rect x="174.2" y="101.9" width="41.8" height="41.8" fill="#89ffa8" fill-opacity="0.18" stroke="#89ffa8" stroke-width="0.8"/><rect x="178.6" y="108.5" width="33.0" height="33.0" fill="#ffd39f" fill-opacity="0.18" stroke="#ffd39f" stroke-width="0.8"/><rect x="190.2" y="123.3" width="9.9" height="9.9" fill="#89ffa8" fill-opacity="0.18" stroke="#89ffa8" stroke-width="0.8"/><rect x="180.0" y="112.1" width="6.1" height="6.1" fill="#89ffa8" fill-opacity="0.18" stroke="#89ffa8" stroke-width="0.8"/><rect x="187.7" y="112.1" width="6.1" height="6.1" fill="#89ffa8" fill-opacity="0.18" stroke="#89ffa8" stroke-width="0.8"/><rect x="195.9" y="112.1" width="6.1" height="6.1" fill="#89ffa8" fill-opacity="0.18" stroke="#89ffa8" stroke-width="0.8"/><rect x="203.6" y="112.1" width="6.1" height="6.1" fill="#89ffa8" fill-opacity="0.18" stroke="#89ffa8" stroke-width="0.8"/><rect x="178.9" y="122.0" width="6.1" height="6.1" fill="#89ffa8" fill-opacity="0.18" stroke="#89ffa8" stroke-width="0.8"/><rect x="190.2" y="129.9" width="9.9" height="9.9" fill="#9fd3ff" fill-opacity="0.18" stroke="#9fd3ff" stroke-width="0.8"/><rect x="186.3" y="121.7" width="17.6" height="17.6" fill="#9fd3ff" fill-opacity="0.18" stroke="#9fd3ff" stroke-width="0.8"/><rect x="176.4" y="147.0" width="37.4" height="13.2" fill="#89ffa8" fill-opacity="0.18" stroke="#89ffa8" stroke-width="0.8"/><rect x="179.7" y="147.5" width="30.8" height="12.1" fill="#9fd3ff" fill-opacity="0.18" stroke="#9fd3ff" stroke-width="0.8"/><rect x="179.4" y="101.6" width="7.2" height="7.2" fill="#ffd39f" fill-opacity="0.18" stroke="#ffd39f" stroke-width="0.8"/><rect x="179.7" y="84.0" width="6.6" height="18.5" fill="#ffd39f" fill-opacity="0.18" stroke="#ffd39f" stroke-width="0.8"/><rect x="180.1" y="66.7" width="5.8" height="15.0" fill="#ffd39f" fill-opacity="0.18" stroke="#ffd39f" stroke-width="0.8"/><rect x="180.2" y="61.8" width="5.5" height="5.5" fill="#ffd39f" fill-opacity="0.18" stroke="#ffd39f" stroke-width="0.8"/><rect x="181.8" y="82.9" width="2.4" height="20.7" fill="#89ffa8" fill-opacity="0.18" stroke="#89ffa8" stroke-width="0.8"/><rect x="181.9" y="66.2" width="2.2" height="16.1" fill="#89ffa8" fill-opacity="0.18" stroke="#89ffa8" stroke-width="0.8"/><rect x="181.4" y="80.1" width="3.3" height="3.3" fill="#9fd3ff" fill-opacity="0.18" stroke="#9fd3ff" stroke-width="0.8"/><rect x="179.2" y="63.4" width="7.7" height="4.4" fill="#89ffa8" fill-opacity="0.18" stroke="#89ffa8" stroke-width="0.8"/><rect x="182.3" y="92.7" width="1.3" height="39.4" fill="#9fd3ff" fill-opacity="0.18" stroke="#9fd3ff" stroke-width="0.8"/><rect x="187.1" y="100.0" width="7.2" height="7.2" fill="#ffd39f" fill-opacity="0.18" stroke="#ffd39f" stroke-width="0.8"/><rect x="187.4" y="80.0" width="6.6" height="20.8" fill="#ffd39f" fill-opacity="0.18" stroke="#ffd39f" stroke-width="0.8"/><rect x="187.8" y="61.0" width="5.8" height="16.9" fill="#ffd39f" fill-opacity="0.18" stroke="#ffd39f" stroke-width="0.8"/><rect x="188.0" y="56.0" width="5.5" height="5.5" fill="#ffd39f" fill-opacity="0.18" stroke="#ffd39f" stroke-width="0.8"/><rect x="189.5" y="78.9" width="2.4" height="23.0" fill="#89ffa8" fill-opacity="0.18" stroke="#89ffa8" stroke-width="0.8"/><rect x="189.6" y="60.4" width="2.2" height="18.0" fill="#89ffa8" fill-opacity="0.18" stroke="#89ffa8" stroke-width="0.8"/><rect x="189.1" y="76.2" width="3.3" height="3.3" fill="#9fd3ff" fill-opacity="0.18" stroke="#9fd3ff" stroke-width="0.8"/><rect x="186.9" y="57.6" width="7.7" height="4.4" fill="#89ffa8" fill-opacity="0.18" stroke="#89ffa8" stroke-width="0.8"/><rect x="190.0" y="89.9" width="1.3" height="43.3" fill="#9fd3ff" fill-opacity="0.18" stroke="#9fd3ff" stroke-width="0.8"/><rect x="195.4" y="101.1" width="7.2" height="7.2" fill="#ffd39f" fill-opacity="0.18" stroke="#ffd39f" stroke-width="0.8"/><rect x="195.7" y="83.4" width="6.6" height="18.5" fill="#ffd39f" fill-opacity="0.18" stroke="#ffd39f" stroke-width="0.8"/><rect x="196.0" y="66.2" width="5.8" height="15.0" fill="#ffd39f" fill-opacity="0.18" stroke="#ffd39f" stroke-width="0.8"/><rect x="196.2" y="61.2" width="5.5" height="5.5" fill="#ffd39f" fill-opacity="0.18" stroke="#ffd39f" stroke-width="0.8"/><rect x="197.7" y="82.3" width="2.4" height="20.7" fill="#89ffa8" fill-opacity="0.18" stroke="#89ffa8" stroke-width="0.8"/><rect x="197.9" y="65.6" width="2.2" height="16.1" fill="#89ffa8" fill-opacity="0.18" stroke="#89ffa8" stroke-width="0.8"/><rect x="197.3" y="79.6" width="3.3" height="3.3" fill="#9fd3ff" fill-opacity="0.18" stroke="#9fd3ff" stroke-width="0.8"/><rect x="195.1" y="62.9" width="7.7" height="4.4" fill="#89ffa8" fill-opacity="0.18" stroke="#89ffa8" stroke-width="0.8"/><rect x="198.3" y="92.1" width="1.3" height="39.9" fill="#9fd3ff" fill-opacity="0.18" stroke="#9fd3ff" stroke-width="0.8"/><rect x="203.1" y="103.3" width="7.2" height="7.2" fill="#ffd39f" fill-opacity="0.18" stroke="#ffd39f" stroke-width="0.8"/><rect x="203.4" y="89.7" width="6.6" height="14.4" fill="#ffd39f" fill-opacity="0.18" stroke="#ffd39f" stroke-width="0.8"/><rect x="203.7" y="75.7" width="5.8" height="11.7" fill="#ffd39f" fill-opacity="0.18" stroke="#ffd39f" stroke-width="0.8"/><rect x="203.9" y="70.8" width="5.5" height="5.5" fill="#ffd39f" fill-opacity="0.18" stroke="#ffd39f" stroke-width="0.8"/><rect x="205.4" y="88.6" width="2.4" height="16.6" fill="#89ffa8" fill-opacity="0.18" stroke="#89ffa8" stroke-width="0.8"/><rect x="205.6" y="75.2" width="2.2" height="12.8" fill="#89ffa8" fill-opacity="0.18" stroke="#89ffa8" stroke-width="0.8"/><rect x="205.0" y="85.8" width="3.3" height="3.3" fill="#9fd3ff" fill-opacity="0.18" stroke="#9fd3ff" stroke-width="0.8"/><rect x="202.8" y="72.4" width="7.7" height="4.4" fill="#89ffa8" fill-opacity="0.18" stroke="#89ffa8" stroke-width="0.8"/><rect x="206.0" y="96.3" width="1.3" height="33.7" fill="#9fd3ff" fill-opacity="0.18" stroke="#9fd3ff" stroke-width="0.8"/><rect x="172.6" y="120.0" width="7.7" height="7.7" fill="#ffd39f" fill-opacity="0.18" stroke="#ffd39f" stroke-width="0.8"/><rect x="166.5" y="116.2" width="6.6" height="6.6" fill="#ffd39f" fill-opacity="0.18" stroke="#ffd39f" stroke-width="0.8"/><rect x="158.1" y="111.1" width="5.7" height="5.7" fill="#ffd39f" fill-opacity="0.18" stroke="#ffd39f" stroke-width="0.8"/><rect x="152.8" y="106.8" width="5.5" height="5.5" fill="#ffd39f" fill-opacity="0.18" stroke="#ffd39f" stroke-width="0.8"/><rect x="164.3" y="116.2" width="2.2" height="2.2" fill="#89ffa8" fill-opacity="0.18" stroke="#89ffa8" stroke-width="0.8"/><rect x="151.7" y="105.7" width="7.7" height="7.7" fill="#89ffa8" fill-opacity="0.18" stroke="#89ffa8" stroke-width="0.8"/><rect x="40.0" y="99.7" width="46.2" height="46.2" fill="#ffd39f" fill-opacity="0.18" stroke="#ffd39f" stroke-width="0.8"/><rect x="42.2" y="101.9" width="41.8" height="41.8" fill="#89ffa8" fill-opacity="0.18" stroke="#89ffa8" stroke-width="0.8"/><rect x="46.6" y="108.5" width="33.0" height="33.0" fill="#ffd39f" fill-opacity="0.18" stroke="#ffd39f" stroke-width="0.8"/><rect x="58.2" y="123.3" width="9.9" height="9.9" fill="#89ffa8" fill-opacity="0.18" stroke="#89ffa8" stroke-width="0.8"/><rect x="72.2" y="112.1" width="6.1" height="6.1" fill="#89ffa8" fill-opacity="0.18" stroke="#89ffa8" stroke-width="0.8"/><rect x="64.5" y="112.1" width="6.1" height="6.1" fill="#89ffa8" fill-opacity="0.18" stroke="#89ffa8" stroke-width="0.8"/><rect x="56.2" y="112.1" width="6.1" height="6.1" fill="#89ffa8" fill-opacity="0.18" stroke="#89ffa8" stroke-width="0.8"/><rect x="48.5" y="112.1" width="6.1" height="6.1" fill="#89ffa8" fill-opacity="0.18" stroke="#89ffa8" stroke-width="0.8"/><rect x="73.3" y="122.0" width="6.1" height="6.1" fill="#89ffa8" fill-opacity="0.18" stroke="#89ffa8" stroke-width="0.8"/><rect x="58.2" y="129.9" width="9.9" height="9.9" fill="#9fd3ff" fill-opacity="0.18" stroke="#9fd3ff" stroke-width="0.8"/><rect x="54.3" y="121.7" width="17.6" height="17.6" fill="#9fd3ff" fill-opacity="0.18" stroke="#9fd3ff" stroke-width="0.8"/><rect x="44.4" y="147.0" width="37.4" height="13.2" fill="#89ffa8" fill-opacity="0.18" stroke="#89ffa8" stroke-width="0.8"/><rect x="47.7" y="147.5" width="30.8" height="12.1" fill="#9fd3ff" fill-opacity="0.18" stroke="#9fd3ff" stroke-width="0.8"/><rect x="71.6" y="101.6" width="7.2" height="7.2" fill="#ffd39f" fill-opacity="0.18" stroke="#ffd39f" stroke-width="0.8"/><rect x="71.9" y="84.0" width="6.6" height="18.5" fill="#ffd39f" fill-opacity="0.18" stroke="#ffd39f" stroke-width="0.8"/><rect x="72.3" y="66.7" width="5.8" height="15.0" fill="#ffd39f" fill-opacity="0.18" stroke="#ffd39f" stroke-width="0.8"/><rect x="72.5" y="61.8" width="5.5" height="5.5" fill="#ffd39f" fill-opacity="0.18" stroke="#ffd39f" stroke-width="0.8"/><rect x="74.0" y="82.9" width="2.4" height="20.7" fill="#89ffa8" fill-opacity="0.18" stroke="#89ffa8" stroke-width="0.8"/><rect x="74.1" y="66.2" width="2.2" height="16.1" fill="#89ffa8" fill-opacity="0.18" stroke="#89ffa8" stroke-width="0.8"/><rect x="73.6" y="80.1" width="3.3" height="3.3" fill="#9fd3ff" fill-opacity="0.18" stroke="#9fd3ff" stroke-width="0.8"/><rect x="71.3" y="63.4" width="7.7" height="4.4" fill="#89ffa8" fill-opacity="0.18" stroke="#89ffa8" stroke-width="0.8"/><rect x="74.5" y="92.7" width="1.3" height="39.4" fill="#9fd3ff" fill-opacity="0.18" stroke="#9fd3ff" stroke-width="0.8"/><rect x="63.9" y="100.0" width="7.2" height="7.2" fill="#ffd39f" fill-opacity="0.18" stroke="#ffd39f" stroke-width="0.8"/><rect x="64.2" y="80.0" width="6.6" height="20.8" fill="#ffd39f" fill-opacity="0.18" stroke="#ffd39f" stroke-width="0.8"/><rect x="64.6" y="61.0" width="5.8" height="16.9" fill="#ffd39f" fill-opacity="0.18" stroke="#ffd39f" stroke-width="0.8"/><rect x="64.8" y="56.0" width="5.5" height="5.5" fill="#ffd39f" fill-opacity="0.18" stroke="#ffd39f" stroke-width="0.8"/><rect x="66.3" y="78.9" width="2.4" height="23.0" fill="#89ffa8" fill-opacity="0.18" stroke="#89ffa8" stroke-width="0.8"/><rect x="66.4" y="60.4" width="2.2" height="18.0" fill="#89ffa8" fill-opacity="0.18" stroke="#89ffa8" stroke-width="0.8"/><rect x="65.8" y="76.2" width="3.3" height="3.3" fill="#9fd3ff" fill-opacity="0.18" stroke="#9fd3ff" stroke-width="0.8"/><rect x="63.7" y="57.6" width="7.7" height="4.4" fill="#89ffa8" fill-opacity="0.18" stroke="#89ffa8" stroke-width="0.8"/><rect x="66.8" y="89.9" width="1.3" height="43.3" fill="#9fd3ff" fill-opacity="0.18" stroke="#9fd3ff" stroke-width="0.8"/><rect x="55.7" y="101.1" width="7.2" height="7.2" fill="#ffd39f" fill-opacity="0.18" stroke="#ffd39f" stroke-width="0.8"/><rect x="56.0" y="83.4" width="6.6" height="18.5" fill="#ffd39f" fill-opacity="0.18" stroke="#ffd39f" stroke-width="0.8"/><rect x="56.3" y="66.2" width="5.8" height="15.0" fill="#ffd39f" fill-opacity="0.18" stroke="#ffd39f" stroke-width="0.8"/><rect x="56.5" y="61.2" width="5.5" height="5.5" fill="#ffd39f" fill-opacity="0.18" stroke="#ffd39f" stroke-width="0.8"/><rect x="58.0" y="82.3" width="2.4" height="20.7" fill="#89ffa8" fill-opacity="0.18" stroke="#89ffa8" stroke-width="0.8"/><rect x="58.2" y="65.6" width="2.2" height="16.1" fill="#89ffa8" fill-opacity="0.18" stroke="#89ffa8" stroke-width="0.8"/><rect x="57.6" y="79.6" width="3.3" height="3.3" fill="#9fd3ff" fill-opacity="0.18" stroke="#9fd3ff" stroke-width="0.8"/><rect x="55.4" y="62.9" width="7.7" height="4.4" fill="#89ffa8" fill-opacity="0.18" stroke="#89ffa8" stroke-width="0.8"/><rect x="58.6" y="92.1" width="1.3" height="39.9" fill="#9fd3ff" fill-opacity="0.18" stroke="#9fd3ff" stroke-width="0.8"/><rect x="48.0" y="103.3" width="7.2" height="7.2" fill="#ffd39f" fill-opacity="0.18" stroke="#ffd39f" stroke-width="0.8"/><rect x="48.2" y="89.7" width="6.6" height="14.4" fill="#ffd39f" fill-opacity="0.18" stroke="#ffd39f" stroke-width="0.8"/><rect x="48.6" y="75.7" width="5.8" height="11.7" fill="#ffd39f" fill-opacity="0.18" stroke="#ffd39f" stroke-width="0.8"/><rect x="48.8" y="70.8" width="5.5" height="5.5" fill="#ffd39f" fill-opacity="0.18" stroke="#ffd39f" stroke-width="0.8"/><rect x="50.3" y="88.6" width="2.4" height="16.6" fill="#89ffa8" fill-opacity="0.18" stroke="#89ffa8" stroke-width="0.8"/><rect x="50.5" y="75.2" width="2.2" height="12.8" fill="#89ffa8" fill-opacity="0.18" stroke="#89ffa8" stroke-width="0.8"/><rect x="49.9" y="85.8" width="3.3" height="3.3" fill="#9fd3ff" fill-opacity="0.18" stroke="#9fd3ff" stroke-width="0.8"/><rect x="47.7" y="72.4" width="7.7" height="4.4" fill="#89ffa8" fill-opacity="0.18" stroke="#89ffa8" stroke-width="0.8"/><rect x="50.9" y="96.3" width="1.3" height="33.7" fill="#9fd3ff" fill-opacity="0.18" stroke="#9fd3ff" stroke-width="0.8"/><rect x="78.0" y="120.0" width="7.7" height="7.7" fill="#ffd39f" fill-opacity="0.18" stroke="#ffd39f" stroke-width="0.8"/><rect x="85.1" y="116.2" width="6.6" height="6.6" fill="#ffd39f" fill-opacity="0.18" stroke="#ffd39f" stroke-width="0.8"/><rect x="94.3" y="111.1" width="5.7" height="5.7" fill="#ffd39f" fill-opacity="0.18" stroke="#ffd39f" stroke-width="0.8"/><rect x="100.0" y="106.8" width="5.5" height="5.5" fill="#ffd39f" fill-opacity="0.18" stroke="#ffd39f" stroke-width="0.8"/><rect x="91.7" y="116.2" width="2.2" height="2.2" fill="#89ffa8" fill-opacity="0.18" stroke="#89ffa8" stroke-width="0.8"/><rect x="98.8" y="105.7" width="7.7" height="7.7" fill="#89ffa8" fill-opacity="0.18" stroke="#89ffa8" stroke-width="0.8"/><rect x="258.20000000000005" y="56" width="178" height="37" fill="#0c1e35" stroke="#274a79"/><text x="258.20000000000005" y="50" font-size="12" fill="#9fd3ff" font-weight="bold">FRONT (X-Z)</text><rect x="390.2" y="71.4" width="46.2" height="6.6" fill="#ffd39f" fill-opacity="0.18" stroke="#ffd39f" stroke-width="0.8"/><rect x="392.4" y="77.2" width="41.8" height="2.8" fill="#89ffa8" fill-opacity="0.18" stroke="#89ffa8" stroke-width="0.8"/><rect x="396.8" y="68.7" width="33.0" height="3.3" fill="#ffd39f" fill-opacity="0.18" stroke="#ffd39f" stroke-width="0.8"/><rect x="408.4" y="67.8" width="9.9" height="1.7" fill="#89ffa8" fill-opacity="0.18" stroke="#89ffa8" stroke-width="0.8"/><rect x="398.2" y="66.7" width="6.1" height="5.0" fill="#89ffa8" fill-opacity="0.18" stroke="#89ffa8" stroke-width="0.8"/><rect x="405.9" y="66.7" width="6.1" height="5.0" fill="#89ffa8" fill-opacity="0.18" stroke="#89ffa8" stroke-width="0.8"/><rect x="414.1" y="66.7" width="6.1" height="5.0" fill="#89ffa8" fill-opacity="0.18" stroke="#89ffa8" stroke-width="0.8"/><rect x="421.8" y="66.7" width="6.1" height="5.0" fill="#89ffa8" fill-opacity="0.18" stroke="#89ffa8" stroke-width="0.8"/><rect x="397.1" y="66.7" width="6.1" height="5.0" fill="#89ffa8" fill-opacity="0.18" stroke="#89ffa8" stroke-width="0.8"/><rect x="408.4" y="65.3" width="9.9" height="8.8" fill="#9fd3ff" fill-opacity="0.18" stroke="#9fd3ff" stroke-width="0.8"/><rect x="404.5" y="68.1" width="17.6" height="3.3" fill="#9fd3ff" fill-opacity="0.18" stroke="#9fd3ff" stroke-width="0.8"/><rect x="394.6" y="56.0" width="37.4" height="37.4" fill="#89ffa8" fill-opacity="0.18" stroke="#89ffa8" stroke-width="0.8"/><rect x="397.9" y="59.3" width="30.8" height="30.8" fill="#9fd3ff" fill-opacity="0.18" stroke="#9fd3ff" stroke-width="0.8"/><rect x="397.6" y="70.0" width="7.2" height="7.2" fill="#ffd39f" fill-opacity="0.18" stroke="#ffd39f" stroke-width="0.8"/><rect x="397.9" y="70.3" width="6.6" height="6.6" fill="#ffd39f" fill-opacity="0.18" stroke="#ffd39f" stroke-width="0.8"/><rect x="398.3" y="70.7" width="5.8" height="5.8" fill="#ffd39f" fill-opacity="0.18" stroke="#ffd39f" stroke-width="0.8"/><rect x="398.5" y="70.8" width="5.5" height="5.5" fill="#ffd39f" fill-opacity="0.18" stroke="#ffd39f" stroke-width="0.8"/><rect x="400.0" y="68.5" width="2.4" height="2.4" fill="#89ffa8" fill-opacity="0.18" stroke="#89ffa8" stroke-width="0.8"/><rect x="400.1" y="68.7" width="2.2" height="2.2" fill="#89ffa8" fill-opacity="0.18" stroke="#89ffa8" stroke-width="0.8"/><rect x="399.6" y="68.1" width="3.3" height="3.3" fill="#9fd3ff" fill-opacity="0.18" stroke="#9fd3ff" stroke-width="0.8"/><rect x="397.4" y="69.8" width="7.7" height="7.7" fill="#89ffa8" fill-opacity="0.18" stroke="#89ffa8" stroke-width="0.8"/><rect x="400.5" y="68.5" width="1.3" height="1.3" fill="#9fd3ff" fill-opacity="0.18" stroke="#9fd3ff" stroke-width="0.8"/><rect x="405.3" y="70.0" width="7.2" height="7.2" fill="#ffd39f" fill-opacity="0.18" stroke="#ffd39f" stroke-width="0.8"/><rect x="405.6" y="70.3" width="6.6" height="6.6" fill="#ffd39f" fill-opacity="0.18" stroke="#ffd39f" stroke-width="0.8"/><rect x="406.0" y="70.7" width="5.8" height="5.8" fill="#ffd39f" fill-opacity="0.18" stroke="#ffd39f" stroke-width="0.8"/><rect x="406.2" y="70.8" width="5.5" height="5.5" fill="#ffd39f" fill-opacity="0.18" stroke="#ffd39f" stroke-width="0.8"/><rect x="407.7" y="68.5" width="2.4" height="2.4" fill="#89ffa8" fill-opacity="0.18" stroke="#89ffa8" stroke-width="0.8"/><rect x="407.8" y="68.7" width="2.2" height="2.2" fill="#89ffa8" fill-opacity="0.18" stroke="#89ffa8" stroke-width="0.8"/><rect x="407.3" y="68.1" width="3.3" height="3.3" fill="#9fd3ff" fill-opacity="0.18" stroke="#9fd3ff" stroke-width="0.8"/><rect x="405.1" y="69.8" width="7.7" height="7.7" fill="#89ffa8" fill-opacity="0.18" stroke="#89ffa8" stroke-width="0.8"/><rect x="408.2" y="68.5" width="1.3" height="1.3" fill="#9fd3ff" fill-opacity="0.18" stroke="#9fd3ff" stroke-width="0.8"/><rect x="413.6" y="70.0" width="7.2" height="7.2" fill="#ffd39f" fill-opacity="0.18" stroke="#ffd39f" stroke-width="0.8"/><rect x="413.9" y="70.3" width="6.6" height="6.6" fill="#ffd39f" fill-opacity="0.18" stroke="#ffd39f" stroke-width="0.8"/><rect x="414.2" y="70.7" width="5.8" height="5.8" fill="#ffd39f" fill-opacity="0.18" stroke="#ffd39f" stroke-width="0.8"/><rect x="414.4" y="70.8" width="5.5" height="5.5" fill="#ffd39f" fill-opacity="0.18" stroke="#ffd39f" stroke-width="0.8"/><rect x="415.9" y="68.5" width="2.4" height="2.4" fill="#89ffa8" fill-opacity="0.18" stroke="#89ffa8" stroke-width="0.8"/><rect x="416.1" y="68.7" width="2.2" height="2.2" fill="#89ffa8" fill-opacity="0.18" stroke="#89ffa8" stroke-width="0.8"/><rect x="415.5" y="68.1" width="3.3" height="3.3" fill="#9fd3ff" fill-opacity="0.18" stroke="#9fd3ff" stroke-width="0.8"/><rect x="413.3" y="69.8" width="7.7" height="7.7" fill="#89ffa8" fill-opacity="0.18" stroke="#89ffa8" stroke-width="0.8"/><rect x="416.5" y="68.5" width="1.3" height="1.3" fill="#9fd3ff" fill-opacity="0.18" stroke="#9fd3ff" stroke-width="0.8"/><rect x="421.3" y="70.0" width="7.2" height="7.2" fill="#ffd39f" fill-opacity="0.18" stroke="#ffd39f" stroke-width="0.8"/><rect x="421.6" y="70.3" width="6.6" height="6.6" fill="#ffd39f" fill-opacity="0.18" stroke="#ffd39f" stroke-width="0.8"/><rect x="421.9" y="70.7" width="5.8" height="5.8" fill="#ffd39f" fill-opacity="0.18" stroke="#ffd39f" stroke-width="0.8"/><rect x="422.1" y="70.8" width="5.5" height="5.5" fill="#ffd39f" fill-opacity="0.18" stroke="#ffd39f" stroke-width="0.8"/><rect x="423.6" y="68.5" width="2.4" height="2.4" fill="#89ffa8" fill-opacity="0.18" stroke="#89ffa8" stroke-width="0.8"/><rect x="423.8" y="68.7" width="2.2" height="2.2" fill="#89ffa8" fill-opacity="0.18" stroke="#89ffa8" stroke-width="0.8"/><rect x="423.2" y="68.1" width="3.3" height="3.3" fill="#9fd3ff" fill-opacity="0.18" stroke="#9fd3ff" stroke-width="0.8"/><rect x="421.0" y="69.8" width="7.7" height="7.7" fill="#89ffa8" fill-opacity="0.18" stroke="#89ffa8" stroke-width="0.8"/><rect x="424.2" y="68.5" width="1.3" height="1.3" fill="#9fd3ff" fill-opacity="0.18" stroke="#9fd3ff" stroke-width="0.8"/><rect x="390.8" y="70.8" width="7.7" height="7.7" fill="#ffd39f" fill-opacity="0.18" stroke="#ffd39f" stroke-width="0.8"/><rect x="384.7" y="68.1" width="6.6" height="14.3" fill="#ffd39f" fill-opacity="0.18" stroke="#ffd39f" stroke-width="0.8"/><rect x="376.3" y="70.8" width="5.7" height="11.0" fill="#ffd39f" fill-opacity="0.18" stroke="#ffd39f" stroke-width="0.8"/><rect x="371.0" y="74.2" width="5.5" height="5.5" fill="#ffd39f" fill-opacity="0.18" stroke="#ffd39f" stroke-width="0.8"/><rect x="382.5" y="60.4" width="2.2" height="22.0" fill="#89ffa8" fill-opacity="0.18" stroke="#89ffa8" stroke-width="0.8"/><rect x="369.9" y="74.7" width="7.7" height="4.4" fill="#89ffa8" fill-opacity="0.18" stroke="#89ffa8" stroke-width="0.8"/><rect x="258.2" y="71.4" width="46.2" height="6.6" fill="#ffd39f" fill-opacity="0.18" stroke="#ffd39f" stroke-width="0.8"/><rect x="260.4" y="77.2" width="41.8" height="2.8" fill="#89ffa8" fill-opacity="0.18" stroke="#89ffa8" stroke-width="0.8"/><rect x="264.8" y="68.7" width="33.0" height="3.3" fill="#ffd39f" fill-opacity="0.18" stroke="#ffd39f" stroke-width="0.8"/><rect x="276.4" y="67.8" width="9.9" height="1.7" fill="#89ffa8" fill-opacity="0.18" stroke="#89ffa8" stroke-width="0.8"/><rect x="290.4" y="66.7" width="6.1" height="5.0" fill="#89ffa8" fill-opacity="0.18" stroke="#89ffa8" stroke-width="0.8"/><rect x="282.7" y="66.7" width="6.1" height="5.0" fill="#89ffa8" fill-opacity="0.18" stroke="#89ffa8" stroke-width="0.8"/><rect x="274.4" y="66.7" width="6.1" height="5.0" fill="#89ffa8" fill-opacity="0.18" stroke="#89ffa8" stroke-width="0.8"/><rect x="266.7" y="66.7" width="6.1" height="5.0" fill="#89ffa8" fill-opacity="0.18" stroke="#89ffa8" stroke-width="0.8"/><rect x="291.5" y="66.7" width="6.1" height="5.0" fill="#89ffa8" fill-opacity="0.18" stroke="#89ffa8" stroke-width="0.8"/><rect x="276.4" y="65.3" width="9.9" height="8.8" fill="#9fd3ff" fill-opacity="0.18" stroke="#9fd3ff" stroke-width="0.8"/><rect x="272.5" y="68.1" width="17.6" height="3.3" fill="#9fd3ff" fill-opacity="0.18" stroke="#9fd3ff" stroke-width="0.8"/><rect x="262.6" y="56.0" width="37.4" height="37.4" fill="#89ffa8" fill-opacity="0.18" stroke="#89ffa8" stroke-width="0.8"/><rect x="265.9" y="59.3" width="30.8" height="30.8" fill="#9fd3ff" fill-opacity="0.18" stroke="#9fd3ff" stroke-width="0.8"/><rect x="289.8" y="70.0" width="7.2" height="7.2" fill="#ffd39f" fill-opacity="0.18" stroke="#ffd39f" stroke-width="0.8"/><rect x="290.1" y="70.3" width="6.6" height="6.6" fill="#ffd39f" fill-opacity="0.18" stroke="#ffd39f" stroke-width="0.8"/><rect x="290.5" y="70.7" width="5.8" height="5.8" fill="#ffd39f" fill-opacity="0.18" stroke="#ffd39f" stroke-width="0.8"/><rect x="290.7" y="70.8" width="5.5" height="5.5" fill="#ffd39f" fill-opacity="0.18" stroke="#ffd39f" stroke-width="0.8"/><rect x="292.2" y="68.5" width="2.4" height="2.4" fill="#89ffa8" fill-opacity="0.18" stroke="#89ffa8" stroke-width="0.8"/><rect x="292.3" y="68.7" width="2.2" height="2.2" fill="#89ffa8" fill-opacity="0.18" stroke="#89ffa8" stroke-width="0.8"/><rect x="291.8" y="68.1" width="3.3" height="3.3" fill="#9fd3ff" fill-opacity="0.18" stroke="#9fd3ff" stroke-width="0.8"/><rect x="289.6" y="69.8" width="7.7" height="7.7" fill="#89ffa8" fill-opacity="0.18" stroke="#89ffa8" stroke-width="0.8"/><rect x="292.7" y="68.5" width="1.3" height="1.3" fill="#9fd3ff" fill-opacity="0.18" stroke="#9fd3ff" stroke-width="0.8"/><rect x="282.1" y="70.0" width="7.2" height="7.2" fill="#ffd39f" fill-opacity="0.18" stroke="#ffd39f" stroke-width="0.8"/><rect x="282.4" y="70.3" width="6.6" height="6.6" fill="#ffd39f" fill-opacity="0.18" stroke="#ffd39f" stroke-width="0.8"/><rect x="282.8" y="70.7" width="5.8" height="5.8" fill="#ffd39f" fill-opacity="0.18" stroke="#ffd39f" stroke-width="0.8"/><rect x="283.0" y="70.8" width="5.5" height="5.5" fill="#ffd39f" fill-opacity="0.18" stroke="#ffd39f" stroke-width="0.8"/><rect x="284.5" y="68.5" width="2.4" height="2.4" fill="#89ffa8" fill-opacity="0.18" stroke="#89ffa8" stroke-width="0.8"/><rect x="284.6" y="68.7" width="2.2" height="2.2" fill="#89ffa8" fill-opacity="0.18" stroke="#89ffa8" stroke-width="0.8"/><rect x="284.1" y="68.1" width="3.3" height="3.3" fill="#9fd3ff" fill-opacity="0.18" stroke="#9fd3ff" stroke-width="0.8"/><rect x="281.9" y="69.8" width="7.7" height="7.7" fill="#89ffa8" fill-opacity="0.18" stroke="#89ffa8" stroke-width="0.8"/><rect x="285.0" y="68.5" width="1.3" height="1.3" fill="#9fd3ff" fill-opacity="0.18" stroke="#9fd3ff" stroke-width="0.8"/><rect x="273.9" y="70.0" width="7.2" height="7.2" fill="#ffd39f" fill-opacity="0.18" stroke="#ffd39f" stroke-width="0.8"/><rect x="274.2" y="70.3" width="6.6" height="6.6" fill="#ffd39f" fill-opacity="0.18" stroke="#ffd39f" stroke-width="0.8"/><rect x="274.5" y="70.7" width="5.8" height="5.8" fill="#ffd39f" fill-opacity="0.18" stroke="#ffd39f" stroke-width="0.8"/><rect x="274.7" y="70.8" width="5.5" height="5.5" fill="#ffd39f" fill-opacity="0.18" stroke="#ffd39f" stroke-width="0.8"/><rect x="276.2" y="68.5" width="2.4" height="2.4" fill="#89ffa8" fill-opacity="0.18" stroke="#89ffa8" stroke-width="0.8"/><rect x="276.4" y="68.7" width="2.2" height="2.2" fill="#89ffa8" fill-opacity="0.18" stroke="#89ffa8" stroke-width="0.8"/><rect x="275.8" y="68.1" width="3.3" height="3.3" fill="#9fd3ff" fill-opacity="0.18" stroke="#9fd3ff" stroke-width="0.8"/><rect x="273.6" y="69.8" width="7.7" height="7.7" fill="#89ffa8" fill-opacity="0.18" stroke="#89ffa8" stroke-width="0.8"/><rect x="276.8" y="68.5" width="1.3" height="1.3" fill="#9fd3ff" fill-opacity="0.18" stroke="#9fd3ff" stroke-width="0.8"/><rect x="266.2" y="70.0" width="7.2" height="7.2" fill="#ffd39f" fill-opacity="0.18" stroke="#ffd39f" stroke-width="0.8"/><rect x="266.5" y="70.3" width="6.6" height="6.6" fill="#ffd39f" fill-opacity="0.18" stroke="#ffd39f" stroke-width="0.8"/><rect x="266.8" y="70.7" width="5.8" height="5.8" fill="#ffd39f" fill-opacity="0.18" stroke="#ffd39f" stroke-width="0.8"/><rect x="267.0" y="70.8" width="5.5" height="5.5" fill="#ffd39f" fill-opacity="0.18" stroke="#ffd39f" stroke-width="0.8"/><rect x="268.5" y="68.5" width="2.4" height="2.4" fill="#89ffa8" fill-opacity="0.18" stroke="#89ffa8" stroke-width="0.8"/><rect x="268.7" y="68.7" width="2.2" height="2.2" fill="#89ffa8" fill-opacity="0.18" stroke="#89ffa8" stroke-width="0.8"/><rect x="268.1" y="68.1" width="3.3" height="3.3" fill="#9fd3ff" fill-opacity="0.18" stroke="#9fd3ff" stroke-width="0.8"/><rect x="265.9" y="69.8" width="7.7" height="7.7" fill="#89ffa8" fill-opacity="0.18" stroke="#89ffa8" stroke-width="0.8"/><rect x="269.1" y="68.5" width="1.3" height="1.3" fill="#9fd3ff" fill-opacity="0.18" stroke="#9fd3ff" stroke-width="0.8"/><rect x="296.2" y="70.8" width="7.7" height="7.7" fill="#ffd39f" fill-opacity="0.18" stroke="#ffd39f" stroke-width="0.8"/><rect x="303.3" y="68.1" width="6.6" height="14.3" fill="#ffd39f" fill-opacity="0.18" stroke="#ffd39f" stroke-width="0.8"/><rect x="312.5" y="70.8" width="5.7" height="11.0" fill="#ffd39f" fill-opacity="0.18" stroke="#ffd39f" stroke-width="0.8"/><rect x="318.2" y="74.2" width="5.5" height="5.5" fill="#ffd39f" fill-opacity="0.18" stroke="#ffd39f" stroke-width="0.8"/><rect x="309.9" y="60.4" width="2.2" height="22.0" fill="#89ffa8" fill-opacity="0.18" stroke="#89ffa8" stroke-width="0.8"/><rect x="317.1" y="74.7" width="7.7" height="4.4" fill="#89ffa8" fill-opacity="0.18" stroke="#89ffa8" stroke-width="0.8"/><rect x="476.4000000000001" y="56" width="104" height="37" fill="#0c1e35" stroke="#274a79"/><text x="476.4000000000001" y="50" font-size="12" fill="#9fd3ff" font-weight="bold">SIDE (Y-Z)</text><rect x="490.7" y="71.4" width="46.2" height="6.6" fill="#ffd39f" fill-opacity="0.18" stroke="#ffd39f" stroke-width="0.8"/><rect x="492.9" y="77.2" width="41.8" height="2.8" fill="#89ffa8" fill-opacity="0.18" stroke="#89ffa8" stroke-width="0.8"/><rect x="495.1" y="68.7" width="33.0" height="3.3" fill="#ffd39f" fill-opacity="0.18" stroke="#ffd39f" stroke-width="0.8"/><rect x="503.4" y="67.8" width="9.9" height="1.7" fill="#89ffa8" fill-opacity="0.18" stroke="#89ffa8" stroke-width="0.8"/><rect x="518.5" y="66.7" width="6.1" height="5.0" fill="#89ffa8" fill-opacity="0.18" stroke="#89ffa8" stroke-width="0.8"/><rect x="518.5" y="66.7" width="6.1" height="5.0" fill="#89ffa8" fill-opacity="0.18" stroke="#89ffa8" stroke-width="0.8"/><rect x="518.5" y="66.7" width="6.1" height="5.0" fill="#89ffa8" fill-opacity="0.18" stroke="#89ffa8" stroke-width="0.8"/><rect x="518.5" y="66.7" width="6.1" height="5.0" fill="#89ffa8" fill-opacity="0.18" stroke="#89ffa8" stroke-width="0.8"/><rect x="508.6" y="66.7" width="6.1" height="5.0" fill="#89ffa8" fill-opacity="0.18" stroke="#89ffa8" stroke-width="0.8"/><rect x="496.8" y="65.3" width="9.9" height="8.8" fill="#9fd3ff" fill-opacity="0.18" stroke="#9fd3ff" stroke-width="0.8"/><rect x="497.3" y="68.1" width="17.6" height="3.3" fill="#9fd3ff" fill-opacity="0.18" stroke="#9fd3ff" stroke-width="0.8"/><rect x="476.4" y="56.0" width="13.2" height="37.4" fill="#89ffa8" fill-opacity="0.18" stroke="#89ffa8" stroke-width="0.8"/><rect x="477.0" y="59.3" width="12.1" height="30.8" fill="#9fd3ff" fill-opacity="0.18" stroke="#9fd3ff" stroke-width="0.8"/><rect x="527.8" y="70.0" width="7.2" height="7.2" fill="#ffd39f" fill-opacity="0.18" stroke="#ffd39f" stroke-width="0.8"/><rect x="534.2" y="70.3" width="18.5" height="6.6" fill="#ffd39f" fill-opacity="0.18" stroke="#ffd39f" stroke-width="0.8"/><rect x="554.8" y="70.7" width="15.0" height="5.8" fill="#ffd39f" fill-opacity="0.18" stroke="#ffd39f" stroke-width="0.8"/><rect x="569.3" y="70.8" width="5.5" height="5.5" fill="#ffd39f" fill-opacity="0.18" stroke="#ffd39f" stroke-width="0.8"/><rect x="533.1" y="68.5" width="20.7" height="2.4" fill="#89ffa8" fill-opacity="0.18" stroke="#89ffa8" stroke-width="0.8"/><rect x="554.3" y="68.7" width="16.1" height="2.2" fill="#89ffa8" fill-opacity="0.18" stroke="#89ffa8" stroke-width="0.8"/><rect x="553.2" y="68.1" width="3.3" height="3.3" fill="#9fd3ff" fill-opacity="0.18" stroke="#9fd3ff" stroke-width="0.8"/><rect x="568.7" y="69.8" width="4.4" height="7.7" fill="#89ffa8" fill-opacity="0.18" stroke="#89ffa8" stroke-width="0.8"/><rect x="504.6" y="68.5" width="39.4" height="1.3" fill="#9fd3ff" fill-opacity="0.18" stroke="#9fd3ff" stroke-width="0.8"/><rect x="529.5" y="70.0" width="7.2" height="7.2" fill="#ffd39f" fill-opacity="0.18" stroke="#ffd39f" stroke-width="0.8"/><rect x="535.8" y="70.3" width="20.8" height="6.6" fill="#ffd39f" fill-opacity="0.18" stroke="#ffd39f" stroke-width="0.8"/><rect x="558.8" y="70.7" width="16.9" height="5.8" fill="#ffd39f" fill-opacity="0.18" stroke="#ffd39f" stroke-width="0.8"/><rect x="575.1" y="70.8" width="5.5" height="5.5" fill="#ffd39f" fill-opacity="0.18" stroke="#ffd39f" stroke-width="0.8"/><rect x="534.7" y="68.5" width="23.0" height="2.4" fill="#89ffa8" fill-opacity="0.18" stroke="#89ffa8" stroke-width="0.8"/><rect x="558.2" y="68.7" width="18.0" height="2.2" fill="#89ffa8" fill-opacity="0.18" stroke="#89ffa8" stroke-width="0.8"/><rect x="557.1" y="68.1" width="3.3" height="3.3" fill="#9fd3ff" fill-opacity="0.18" stroke="#9fd3ff" stroke-width="0.8"/><rect x="574.5" y="69.8" width="4.4" height="7.7" fill="#89ffa8" fill-opacity="0.18" stroke="#89ffa8" stroke-width="0.8"/><rect x="503.4" y="68.5" width="43.3" height="1.3" fill="#9fd3ff" fill-opacity="0.18" stroke="#9fd3ff" stroke-width="0.8"/><rect x="528.4" y="70.0" width="7.2" height="7.2" fill="#ffd39f" fill-opacity="0.18" stroke="#ffd39f" stroke-width="0.8"/><rect x="534.7" y="70.3" width="18.5" height="6.6" fill="#ffd39f" fill-opacity="0.18" stroke="#ffd39f" stroke-width="0.8"/><rect x="555.4" y="70.7" width="15.0" height="5.8" fill="#ffd39f" fill-opacity="0.18" stroke="#ffd39f" stroke-width="0.8"/><rect x="569.8" y="70.8" width="5.5" height="5.5" fill="#ffd39f" fill-opacity="0.18" stroke="#ffd39f" stroke-width="0.8"/><rect x="533.6" y="68.5" width="20.7" height="2.4" fill="#89ffa8" fill-opacity="0.18" stroke="#89ffa8" stroke-width="0.8"/><rect x="554.8" y="68.7" width="16.1" height="2.2" fill="#89ffa8" fill-opacity="0.18" stroke="#89ffa8" stroke-width="0.8"/><rect x="553.7" y="68.1" width="3.3" height="3.3" fill="#9fd3ff" fill-opacity="0.18" stroke="#9fd3ff" stroke-width="0.8"/><rect x="569.3" y="69.8" width="4.4" height="7.7" fill="#89ffa8" fill-opacity="0.18" stroke="#89ffa8" stroke-width="0.8"/><rect x="504.6" y="68.5" width="39.9" height="1.3" fill="#9fd3ff" fill-opacity="0.18" stroke="#9fd3ff" stroke-width="0.8"/><rect x="526.2" y="70.0" width="7.2" height="7.2" fill="#ffd39f" fill-opacity="0.18" stroke="#ffd39f" stroke-width="0.8"/><rect x="532.5" y="70.3" width="14.4" height="6.6" fill="#ffd39f" fill-opacity="0.18" stroke="#ffd39f" stroke-width="0.8"/><rect x="549.1" y="70.7" width="11.7" height="5.8" fill="#ffd39f" fill-opacity="0.18" stroke="#ffd39f" stroke-width="0.8"/><rect x="560.3" y="70.8" width="5.5" height="5.5" fill="#ffd39f" fill-opacity="0.18" stroke="#ffd39f" stroke-width="0.8"/><rect x="531.4" y="68.5" width="16.6" height="2.4" fill="#89ffa8" fill-opacity="0.18" stroke="#89ffa8" stroke-width="0.8"/><rect x="548.6" y="68.7" width="12.8" height="2.2" fill="#89ffa8" fill-opacity="0.18" stroke="#89ffa8" stroke-width="0.8"/><rect x="547.5" y="68.1" width="3.3" height="3.3" fill="#9fd3ff" fill-opacity="0.18" stroke="#9fd3ff" stroke-width="0.8"/><rect x="559.8" y="69.8" width="4.4" height="7.7" fill="#89ffa8" fill-opacity="0.18" stroke="#89ffa8" stroke-width="0.8"/><rect x="506.6" y="68.5" width="33.7" height="1.3" fill="#9fd3ff" fill-opacity="0.18" stroke="#9fd3ff" stroke-width="0.8"/><rect x="508.9" y="70.8" width="7.7" height="7.7" fill="#ffd39f" fill-opacity="0.18" stroke="#ffd39f" stroke-width="0.8"/><rect x="513.8" y="68.1" width="6.6" height="14.3" fill="#ffd39f" fill-opacity="0.18" stroke="#ffd39f" stroke-width="0.8"/><rect x="519.7" y="70.8" width="5.7" height="11.0" fill="#ffd39f" fill-opacity="0.18" stroke="#ffd39f" stroke-width="0.8"/><rect x="524.3" y="74.2" width="5.5" height="5.5" fill="#ffd39f" fill-opacity="0.18" stroke="#ffd39f" stroke-width="0.8"/><rect x="518.2" y="60.4" width="2.2" height="22.0" fill="#89ffa8" fill-opacity="0.18" stroke="#89ffa8" stroke-width="0.8"/><rect x="523.2" y="74.7" width="7.7" height="4.4" fill="#89ffa8" fill-opacity="0.18" stroke="#89ffa8" stroke-width="0.8"/><rect x="490.7" y="71.4" width="46.2" height="6.6" fill="#ffd39f" fill-opacity="0.18" stroke="#ffd39f" stroke-width="0.8"/><rect x="492.9" y="77.2" width="41.8" height="2.8" fill="#89ffa8" fill-opacity="0.18" stroke="#89ffa8" stroke-width="0.8"/><rect x="495.1" y="68.7" width="33.0" height="3.3" fill="#ffd39f" fill-opacity="0.18" stroke="#ffd39f" stroke-width="0.8"/><rect x="503.4" y="67.8" width="9.9" height="1.7" fill="#89ffa8" fill-opacity="0.18" stroke="#89ffa8" stroke-width="0.8"/><rect x="518.5" y="66.7" width="6.1" height="5.0" fill="#89ffa8" fill-opacity="0.18" stroke="#89ffa8" stroke-width="0.8"/><rect x="518.5" y="66.7" width="6.1" height="5.0" fill="#89ffa8" fill-opacity="0.18" stroke="#89ffa8" stroke-width="0.8"/><rect x="518.5" y="66.7" width="6.1" height="5.0" fill="#89ffa8" fill-opacity="0.18" stroke="#89ffa8" stroke-width="0.8"/><rect x="518.5" y="66.7" width="6.1" height="5.0" fill="#89ffa8" fill-opacity="0.18" stroke="#89ffa8" stroke-width="0.8"/><rect x="508.6" y="66.7" width="6.1" height="5.0" fill="#89ffa8" fill-opacity="0.18" stroke="#89ffa8" stroke-width="0.8"/><rect x="496.8" y="65.3" width="9.9" height="8.8" fill="#9fd3ff" fill-opacity="0.18" stroke="#9fd3ff" stroke-width="0.8"/><rect x="497.3" y="68.1" width="17.6" height="3.3" fill="#9fd3ff" fill-opacity="0.18" stroke="#9fd3ff" stroke-width="0.8"/><rect x="476.4" y="56.0" width="13.2" height="37.4" fill="#89ffa8" fill-opacity="0.18" stroke="#89ffa8" stroke-width="0.8"/><rect x="477.0" y="59.3" width="12.1" height="30.8" fill="#9fd3ff" fill-opacity="0.18" stroke="#9fd3ff" stroke-width="0.8"/><rect x="527.8" y="70.0" width="7.2" height="7.2" fill="#ffd39f" fill-opacity="0.18" stroke="#ffd39f" stroke-width="0.8"/><rect x="534.2" y="70.3" width="18.5" height="6.6" fill="#ffd39f" fill-opacity="0.18" stroke="#ffd39f" stroke-width="0.8"/><rect x="554.8" y="70.7" width="15.0" height="5.8" fill="#ffd39f" fill-opacity="0.18" stroke="#ffd39f" stroke-width="0.8"/><rect x="569.3" y="70.8" width="5.5" height="5.5" fill="#ffd39f" fill-opacity="0.18" stroke="#ffd39f" stroke-width="0.8"/><rect x="533.1" y="68.5" width="20.7" height="2.4" fill="#89ffa8" fill-opacity="0.18" stroke="#89ffa8" stroke-width="0.8"/><rect x="554.3" y="68.7" width="16.1" height="2.2" fill="#89ffa8" fill-opacity="0.18" stroke="#89ffa8" stroke-width="0.8"/><rect x="553.2" y="68.1" width="3.3" height="3.3" fill="#9fd3ff" fill-opacity="0.18" stroke="#9fd3ff" stroke-width="0.8"/><rect x="568.7" y="69.8" width="4.4" height="7.7" fill="#89ffa8" fill-opacity="0.18" stroke="#89ffa8" stroke-width="0.8"/><rect x="504.6" y="68.5" width="39.4" height="1.3" fill="#9fd3ff" fill-opacity="0.18" stroke="#9fd3ff" stroke-width="0.8"/><rect x="529.5" y="70.0" width="7.2" height="7.2" fill="#ffd39f" fill-opacity="0.18" stroke="#ffd39f" stroke-width="0.8"/><rect x="535.8" y="70.3" width="20.8" height="6.6" fill="#ffd39f" fill-opacity="0.18" stroke="#ffd39f" stroke-width="0.8"/><rect x="558.8" y="70.7" width="16.9" height="5.8" fill="#ffd39f" fill-opacity="0.18" stroke="#ffd39f" stroke-width="0.8"/><rect x="575.1" y="70.8" width="5.5" height="5.5" fill="#ffd39f" fill-opacity="0.18" stroke="#ffd39f" stroke-width="0.8"/><rect x="534.7" y="68.5" width="23.0" height="2.4" fill="#89ffa8" fill-opacity="0.18" stroke="#89ffa8" stroke-width="0.8"/><rect x="558.2" y="68.7" width="18.0" height="2.2" fill="#89ffa8" fill-opacity="0.18" stroke="#89ffa8" stroke-width="0.8"/><rect x="557.1" y="68.1" width="3.3" height="3.3" fill="#9fd3ff" fill-opacity="0.18" stroke="#9fd3ff" stroke-width="0.8"/><rect x="574.5" y="69.8" width="4.4" height="7.7" fill="#89ffa8" fill-opacity="0.18" stroke="#89ffa8" stroke-width="0.8"/><rect x="503.4" y="68.5" width="43.3" height="1.3" fill="#9fd3ff" fill-opacity="0.18" stroke="#9fd3ff" stroke-width="0.8"/><rect x="528.4" y="70.0" width="7.2" height="7.2" fill="#ffd39f" fill-opacity="0.18" stroke="#ffd39f" stroke-width="0.8"/><rect x="534.7" y="70.3" width="18.5" height="6.6" fill="#ffd39f" fill-opacity="0.18" stroke="#ffd39f" stroke-width="0.8"/><rect x="555.4" y="70.7" width="15.0" height="5.8" fill="#ffd39f" fill-opacity="0.18" stroke="#ffd39f" stroke-width="0.8"/><rect x="569.8" y="70.8" width="5.5" height="5.5" fill="#ffd39f" fill-opacity="0.18" stroke="#ffd39f" stroke-width="0.8"/><rect x="533.6" y="68.5" width="20.7" height="2.4" fill="#89ffa8" fill-opacity="0.18" stroke="#89ffa8" stroke-width="0.8"/><rect x="554.8" y="68.7" width="16.1" height="2.2" fill="#89ffa8" fill-opacity="0.18" stroke="#89ffa8" stroke-width="0.8"/><rect x="553.7" y="68.1" width="3.3" height="3.3" fill="#9fd3ff" fill-opacity="0.18" stroke="#9fd3ff" stroke-width="0.8"/><rect x="569.3" y="69.8" width="4.4" height="7.7" fill="#89ffa8" fill-opacity="0.18" stroke="#89ffa8" stroke-width="0.8"/><rect x="504.6" y="68.5" width="39.9" height="1.3" fill="#9fd3ff" fill-opacity="0.18" stroke="#9fd3ff" stroke-width="0.8"/><rect x="526.2" y="70.0" width="7.2" height="7.2" fill="#ffd39f" fill-opacity="0.18" stroke="#ffd39f" stroke-width="0.8"/><rect x="532.5" y="70.3" width="14.4" height="6.6" fill="#ffd39f" fill-opacity="0.18" stroke="#ffd39f" stroke-width="0.8"/><rect x="549.1" y="70.7" width="11.7" height="5.8" fill="#ffd39f" fill-opacity="0.18" stroke="#ffd39f" stroke-width="0.8"/><rect x="560.3" y="70.8" width="5.5" height="5.5" fill="#ffd39f" fill-opacity="0.18" stroke="#ffd39f" stroke-width="0.8"/><rect x="531.4" y="68.5" width="16.6" height="2.4" fill="#89ffa8" fill-opacity="0.18" stroke="#89ffa8" stroke-width="0.8"/><rect x="548.6" y="68.7" width="12.8" height="2.2" fill="#89ffa8" fill-opacity="0.18" stroke="#89ffa8" stroke-width="0.8"/><rect x="547.5" y="68.1" width="3.3" height="3.3" fill="#9fd3ff" fill-opacity="0.18" stroke="#9fd3ff" stroke-width="0.8"/><rect x="559.8" y="69.8" width="4.4" height="7.7" fill="#89ffa8" fill-opacity="0.18" stroke="#89ffa8" stroke-width="0.8"/><rect x="506.6" y="68.5" width="33.7" height="1.3" fill="#9fd3ff" fill-opacity="0.18" stroke="#9fd3ff" stroke-width="0.8"/><rect x="508.9" y="70.8" width="7.7" height="7.7" fill="#ffd39f" fill-opacity="0.18" stroke="#ffd39f" stroke-width="0.8"/><rect x="513.8" y="68.1" width="6.6" height="14.3" fill="#ffd39f" fill-opacity="0.18" stroke="#ffd39f" stroke-width="0.8"/><rect x="519.7" y="70.8" width="5.7" height="11.0" fill="#ffd39f" fill-opacity="0.18" stroke="#ffd39f" stroke-width="0.8"/><rect x="524.3" y="74.2" width="5.5" height="5.5" fill="#ffd39f" fill-opacity="0.18" stroke="#ffd39f" stroke-width="0.8"/><rect x="518.2" y="60.4" width="2.2" height="22.0" fill="#89ffa8" fill-opacity="0.18" stroke="#89ffa8" stroke-width="0.8"/><rect x="523.2" y="74.7" width="7.7" height="4.4" fill="#89ffa8" fill-opacity="0.18" stroke="#89ffa8" stroke-width="0.8"/><text x="40" y="186" font-size="10" fill="#8ba3c7"><tspan fill="#9fd3ff">■</tspan>internal <tspan fill="#89ffa8">■</tspan>external <tspan fill="#ffd39f">■</tspan>structure · 치수선 없는 배치 투영</text></svg>