<svg xmlns="http://www.w3.org/2000/svg" width="936" height="278" viewBox="0 0 936 278"><rect width="100%" height="100%" fill="#f7f9fb"/><rect width="100%" height="100%" fill="#0a1626"/><text x="40" y="24" font-size="13" fill="#9fd3ff" font-weight="bold">long_range_recon_wing_serviceability_redesign_v1 rev 1.0 · PETG + clear PETG windows + TPU pads · 22 parts · 배치 투영도</text><rect x="40" y="56" width="277" height="182" fill="#0c1e35" stroke="#274a79"/><text x="40" y="50" font-size="12" fill="#9fd3ff" font-weight="bold">TOP (X-Y)</text><rect x="165.4" y="89.0" width="26.4" height="110.0" fill="#ffd39f" fill-opacity="0.18" stroke="#ffd39f" stroke-width="0.8"/><rect x="165.4" y="71.4" width="26.4" height="26.4" fill="#9fd3ff" fill-opacity="0.18" stroke="#9fd3ff" stroke-width="0.8"/><rect x="164.3" y="79.1" width="28.6" height="11.0" fill="#ffd39f" fill-opacity="0.18" stroke="#ffd39f" stroke-width="0.8"/><rect x="165.4" y="70.8" width="26.4" height="16.5" fill="#89ffa8" fill-opacity="0.18" stroke="#89ffa8" stroke-width="0.8"/><rect x="177.8" y="56.0" width="1.7" height="22.0" fill="#89ffa8" fill-opacity="0.18" stroke="#89ffa8" stroke-width="0.8"/><rect x="41.1" y="130.2" width="275.0" height="34.1" fill="#89ffa8" fill-opacity="0.18" stroke="#89ffa8" stroke-width="0.8"/><rect x="41.1" y="144.6" width="275.0" height="5.5" fill="#ffd39f" fill-opacity="0.18" stroke="#ffd39f" stroke-width="0.8"/><rect x="312.8" y="135.2" width="4.4" height="24.2" fill="#89ffa8" fill-opacity="0.18" stroke="#89ffa8" stroke-width="0.8"/><rect x="40.0" y="135.2" width="4.4" height="24.2" fill="#89ffa8" fill-opacity="0.18" stroke="#89ffa8" stroke-width="0.8"/><rect x="189.6" y="161.1" width="110.0" height="9.9" fill="#89ffa8" fill-opacity="0.18" stroke="#89ffa8" stroke-width="0.8"/><rect x="57.6" y="161.1" width="110.0" height="9.9" fill="#89ffa8" fill-opacity="0.18" stroke="#89ffa8" stroke-width="0.8"/><rect x="208.9" y="145.7" width="7.7" height="82.5" fill="#ffd39f" fill-opacity="0.18" stroke="#ffd39f" stroke-width="0.8"/><rect x="210.5" y="215.5" width="4.4" height="22.0" fill="#89ffa8" fill-opacity="0.18" stroke="#89ffa8" stroke-width="0.8"/><rect x="140.7" y="145.7" width="7.7" height="82.5" fill="#ffd39f" fill-opacity="0.18" stroke="#ffd39f" stroke-width="0.8"/><rect x="142.3" y="215.5" width="4.4" height="22.0" fill="#89ffa8" fill-opacity="0.18" stroke="#89ffa8" stroke-width="0.8"/><rect x="140.1" y="216.6" width="77.0" height="19.8" fill="#89ffa8" fill-opacity="0.18" stroke="#89ffa8" stroke-width="0.8"/><rect x="167.1" y="116.5" width="23.1" height="33.0" fill="#9fd3ff" fill-opacity="0.18" stroke="#9fd3ff" stroke-width="0.8"/><rect x="167.6" y="148.4" width="22.0" height="30.8" fill="#9fd3ff" fill-opacity="0.18" stroke="#9fd3ff" stroke-width="0.8"/><rect x="167.1" y="100.0" width="23.1" height="22.0" fill="#9fd3ff" fill-opacity="0.18" stroke="#9fd3ff" stroke-width="0.8"/><rect x="169.8" y="140.7" width="17.6" height="17.6" fill="#9fd3ff" fill-opacity="0.18" stroke="#9fd3ff" stroke-width="0.8"/><rect x="170.9" y="114.3" width="15.4" height="15.4" fill="#89ffa8" fill-opacity="0.18" stroke="#89ffa8" stroke-width="0.8"/><rect x="168.7" y="145.1" width="19.8" height="19.8" fill="#89ffa8" fill-opacity="0.18" stroke="#89ffa8" stroke-width="0.8"/><rect x="357.20000000000005" y="56" width="277" height="47" fill="#0c1e35" stroke="#274a79"/><text x="357.20000000000005" y="50" font-size="12" fill="#9fd3ff" font-weight="bold">FRONT (X-Z)</text><rect x="482.6" y="67.0" width="26.4" height="26.4" fill="#ffd39f" fill-opacity="0.18" stroke="#ffd39f" stroke-width="0.8"/><rect x="482.6" y="75.8" width="26.4" height="26.4" fill="#9fd3ff" fill-opacity="0.18" stroke="#9fd3ff" stroke-width="0.8"/><rect x="481.5" y="74.7" width="28.6" height="28.6" fill="#ffd39f" fill-opacity="0.18" stroke="#ffd39f" stroke-width="0.8"/><rect x="482.6" y="64.8" width="26.4" height="26.4" fill="#89ffa8" fill-opacity="0.18" stroke="#89ffa8" stroke-width="0.8"/><rect x="495.0" y="75.0" width="1.7" height="1.7" fill="#89ffa8" fill-opacity="0.18" stroke="#89ffa8" stroke-width="0.8"/><rect x="358.3" y="76.3" width="275.0" height="5.5" fill="#89ffa8" fill-opacity="0.18" stroke="#89ffa8" stroke-width="0.8"/><rect x="358.3" y="76.3" width="275.0" height="5.5" fill="#ffd39f" fill-opacity="0.18" stroke="#ffd39f" stroke-width="0.8"/><rect x="630.0" y="62.0" width="4.4" height="18.7" fill="#89ffa8" fill-opacity="0.18" stroke="#89ffa8" stroke-width="0.8"/><rect x="357.2" y="62.0" width="4.4" height="18.7" fill="#89ffa8" fill-opacity="0.18" stroke="#89ffa8" stroke-width="0.8"/><rect x="506.8" y="78.0" width="110.0" height="2.2" fill="#89ffa8" fill-opacity="0.18" stroke="#89ffa8" stroke-width="0.8"/><rect x="374.8" y="78.0" width="110.0" height="2.2" fill="#89ffa8" fill-opacity="0.18" stroke="#89ffa8" stroke-width="0.8"/><rect x="526.1" y="75.2" width="7.7" height="7.7" fill="#ffd39f" fill-opacity="0.18" stroke="#ffd39f" stroke-width="0.8"/><rect x="527.7" y="56.0" width="4.4" height="26.4" fill="#89ffa8" fill-opacity="0.18" stroke="#89ffa8" stroke-width="0.8"/><rect x="457.9" y="75.2" width="7.7" height="7.7" fill="#ffd39f" fill-opacity="0.18" stroke="#ffd39f" stroke-width="0.8"/><rect x="459.5" y="56.0" width="4.4" height="26.4" fill="#89ffa8" fill-opacity="0.18" stroke="#89ffa8" stroke-width="0.8"/><rect x="457.3" y="68.7" width="77.0" height="3.3" fill="#89ffa8" fill-opacity="0.18" stroke="#89ffa8" stroke-width="0.8"/><rect x="484.3" y="72.5" width="23.1" height="19.8" fill="#9fd3ff" fill-opacity="0.18" stroke="#9fd3ff" stroke-width="0.8"/><rect x="484.8" y="77.5" width="22.0" height="12.1" fill="#9fd3ff" fill-opacity="0.18" stroke="#9fd3ff" stroke-width="0.8"/><rect x="484.3" y="72.0" width="23.1" height="7.7" fill="#9fd3ff" fill-opacity="0.18" stroke="#9fd3ff" stroke-width="0.8"/><rect x="487.0" y="58.8" width="17.6" height="38.5" fill="#9fd3ff" fill-opacity="0.18" stroke="#9fd3ff" stroke-width="0.8"/><rect x="488.1" y="57.1" width="15.4" height="15.4" fill="#89ffa8" fill-opacity="0.18" stroke="#89ffa8" stroke-width="0.8"/><rect x="485.9" y="63.7" width="19.8" height="2.2" fill="#89ffa8" fill-opacity="0.18" stroke="#89ffa8" stroke-width="0.8"/><rect x="674.4000000000001" y="56" width="182" height="47" fill="#0c1e35" stroke="#274a79"/><text x="674.4000000000001" y="50" font-size="12" fill="#9fd3ff" font-weight="bold">SIDE (Y-Z)</text><rect x="712.9" y="67.0" width="110.0" height="26.4" fill="#ffd39f" fill-opacity="0.18" stroke="#ffd39f" stroke-width="0.8"/><rect x="814.1" y="75.8" width="26.4" height="26.4" fill="#9fd3ff" fill-opacity="0.18" stroke="#9fd3ff" stroke-width="0.8"/><rect x="821.8" y="74.7" width="11.0" height="28.6" fill="#ffd39f" fill-opacity="0.18" stroke="#ffd39f" stroke-width="0.8"/><rect x="824.6" y="64.8" width="16.5" height="26.4" fill="#89ffa8" fill-opacity="0.18" stroke="#89ffa8" stroke-width="0.8"/><rect x="833.9" y="75.0" width="22.0" height="1.7" fill="#89ffa8" fill-opacity="0.18" stroke="#89ffa8" stroke-width="0.8"/><rect x="747.6" y="76.3" width="34.1" height="5.5" fill="#89ffa8" fill-opacity="0.18" stroke="#89ffa8" stroke-width="0.8"/><rect x="761.9" y="76.3" width="5.5" height="5.5" fill="#ffd39f" fill-opacity="0.18" stroke="#ffd39f" stroke-width="0.8"/><rect x="752.5" y="62.0" width="24.2" height="18.7" fill="#89ffa8" fill-opacity="0.18" stroke="#89ffa8" stroke-width="0.8"/><rect x="752.5" y="62.0" width="24.2" height="18.7" fill="#89ffa8" fill-opacity="0.18" stroke="#89ffa8" stroke-width="0.8"/><rect x="741.0" y="78.0" width="9.9" height="2.2" fill="#89ffa8" fill-opacity="0.18" stroke="#89ffa8" stroke-width="0.8"/><rect x="741.0" y="78.0" width="9.9" height="2.2" fill="#89ffa8" fill-opacity="0.18" stroke="#89ffa8" stroke-width="0.8"/><rect x="683.8" y="75.2" width="82.5" height="7.7" fill="#ffd39f" fill-opacity="0.18" stroke="#ffd39f" stroke-width="0.8"/><rect x="674.4" y="56.0" width="22.0" height="26.4" fill="#89ffa8" fill-opacity="0.18" stroke="#89ffa8" stroke-width="0.8"/><rect x="683.8" y="75.2" width="82.5" height="7.7" fill="#ffd39f" fill-opacity="0.18" stroke="#ffd39f" stroke-width="0.8"/><rect x="674.4" y="56.0" width="22.0" height="26.4" fill="#89ffa8" fill-opacity="0.18" stroke="#89ffa8" stroke-width="0.8"/><rect x="675.5" y="68.7" width="19.8" height="3.3" fill="#89ffa8" fill-opacity="0.18" stroke="#89ffa8" stroke-width="0.8"/><rect x="762.4" y="72.5" width="33.0" height="19.8" fill="#9fd3ff" fill-opacity="0.18" stroke="#9fd3ff" stroke-width="0.8"/><rect x="732.7" y="77.5" width="30.8" height="12.1" fill="#9fd3ff" fill-opacity="0.18" stroke="#9fd3ff" stroke-width="0.8"/><rect x="789.9" y="72.0" width="22.0" height="7.7" fill="#9fd3ff" fill-opacity="0.18" stroke="#9fd3ff" stroke-width="0.8"/><rect x="753.6" y="58.8" width="17.6" height="38.5" fill="#9fd3ff" fill-opacity="0.18" stroke="#9fd3ff" stroke-width="0.8"/><rect x="782.2" y="57.1" width="15.4" height="15.4" fill="#89ffa8" fill-opacity="0.18" stroke="#89ffa8" stroke-width="0.8"/><rect x="747.0" y="63.7" width="19.8" height="2.2" fill="#89ffa8" fill-opacity="0.18" stroke="#89ffa8" stroke-width="0.8"/><text x="40" y="264" font-size="10" fill="#8ba3c7"><tspan fill="#9fd3ff">■</tspan>internal <tspan fill="#89ffa8">■</tspan>external <tspan fill="#ffd39f">■</tspan>structure · 치수선 없는 배치 투영</text></svg>