<svg xmlns="http://www.w3.org/2000/svg" viewBox="0 0 420 300"><rect width="420" height="300" fill="#050d18"/><defs><pattern id="g" width="20" height="20" patternUnits="userSpaceOnUse"><path d="M20 0L0 0 0 20" fill="none" stroke="rgba(39,74,121,.13)" stroke-width=".4"/></pattern><style>.sk{fill:#081c30;stroke:rgba(100,160,240,.78);stroke-width:1.3;vector-effect:non-scaling-stroke}.pa{fill:rgba(100,160,240,.04);stroke:rgba(100,160,240,.38);stroke-width:.85;stroke-dasharray:5 4;vector-effect:non-scaling-stroke}.ma{fill:none;stroke:rgba(100,160,240,.5);stroke-width:1.1;vector-effect:non-scaling-stroke}.mi{fill:none;stroke:rgba(100,160,240,.22);stroke-width:.7;vector-effect:non-scaling-stroke}.nz{fill:#050d18;stroke:rgba(137,255,168,.45);stroke-width:1;vector-effect:non-scaling-stroke}.cl{fill:none;stroke:rgba(159,211,255,.3);stroke-width:.6;stroke-dasharray:4 3;vector-effect:non-scaling-stroke}.ct{font-family:ui-monospace,monospace;font-size:7px;fill:rgba(230,236,245,.6)}.ti{font-family:ui-monospace,monospace;font-size:7.5px;letter-spacing:.22em;fill:rgba(159,211,255,.52)}.mc{font-family:ui-monospace,monospace;font-size:5.5px;fill:rgba(100,160,240,.32)}.rv{fill:rgba(100,160,240,.25);stroke:none}</style></defs><rect width="420" height="300" fill="url(#g)"/><g transform="translate(30,28)">
  <text class="ti" x="180" y="14">CALF SHELL · POWERED AFO</text>
  <text class="mc" x="180" y="24">CFRP POSTERIOR LEAF · ANTERIOR SOFT LINER · STRAP RIVET ANCHORS</text>
  <!-- posterior CFRP leaf (side view) -->
  <path class="sk" d="M160,40 Q200,42 220,60 L228,200 Q226,230 200,240 Q174,248 160,240 L152,200 Z"/>
  <!-- ply orientation lines (CFRP cross-hatch) -->
  <line class="mi" x1="158" y1="60" x2="222" y2="60"/>
  <line class="mi" x1="156" y1="80" x2="226" y2="80"/>
  <line class="mi" x1="154" y1="100" x2="226" y2="100"/>
  <line class="mi" x1="153" y1="120" x2="226" y2="120"/>
  <line class="mi" x1="152" y1="140" x2="226" y2="140"/>
  <line class="mi" x1="153" y1="160" x2="224" y2="160"/>
  <line class="mi" x1="154" y1="180" x2="222" y2="180"/>
  <line class="mi" x1="162" y1="60" x2="154" y2="180"/>
  <line class="mi" x1="178" y1="42" x2="158" y2="200"/>
  <line class="mi" x1="198" y1="42" x2="170" y2="220"/>
  <line class="mi" x1="218" y1="62" x2="186" y2="232"/>
  <text class="mc" x="188" y="140" text-anchor="middle">CFRP PLY</text>
  <!-- anterior soft liner zone -->
  <path class="pa" d="M140,60 Q148,58 152,60 L152,200 Q148,210 140,212 Q132,210 132,200 L132,60 Z"/>
  <text class="ct" x="141" y="135" text-anchor="middle" transform="rotate(-90,141,135)">SOFT LINER</text>
  <!-- strap rivet anchors -->
  <circle class="nz" cx="190" cy="80" r="7"/>
  <text class="mc" x="230" y="83">RIVET ANCHOR ①</text>
  <circle class="nz" cx="190" cy="130" r="7"/>
  <text class="mc" x="230" y="133">RIVET ANCHOR ②</text>
  <circle class="nz" cx="190" cy="175" r="7"/>
  <text class="mc" x="230" y="178">RIVET ANCHOR ③</text>
  <!-- ankle interface at bottom -->
  <rect class="sk" x="155" y="238" width="72" height="14" rx="3"/>
  <text class="ct" x="191" y="249" text-anchor="middle">ANKLE JOINT INTERFACE</text>
  <!-- dimension -->
  <line class="mi" x1="235" y1="40" x2="235" y2="240"/>
  <text class="mc" x="240" y="145">H≈300mm CALF</text>
</g>
<text class="mc" x="10" y="292">p1 · calf_shell · CFRP posterior leaf spring · anterior TPU liner · 3 strap rivet anchors · ankle interface</text>
</svg>