<svg xmlns="http://www.w3.org/2000/svg" viewBox="0 0 420 300">
  <rect width="420" height="300" fill="#050d18"/>
  <defs><pattern id="g" width="20" height="20" patternUnits="userSpaceOnUse"><path d="M20 0L0 0 0 20" fill="none" stroke="rgba(39,74,121,.13)" stroke-width=".4"/></pattern>
  <style>.sk{fill:#081c30;stroke:rgba(100,160,240,.78);stroke-width:1.3;vector-effect:non-scaling-stroke}.pa{fill:rgba(100,160,240,.04);stroke:rgba(100,160,240,.38);stroke-width:.85;stroke-dasharray:5 4;vector-effect:non-scaling-stroke}.ma{fill:none;stroke:rgba(100,160,240,.5);stroke-width:1.1;vector-effect:non-scaling-stroke}.mi{fill:none;stroke:rgba(100,160,240,.22);stroke-width:.7;vector-effect:non-scaling-stroke}.nz{fill:#050d18;stroke:rgba(137,255,168,.45);stroke-width:1;vector-effect:non-scaling-stroke}.cl{fill:none;stroke:rgba(159,211,255,.3);stroke-width:.6;stroke-dasharray:4 3;vector-effect:non-scaling-stroke}.ct{font-family:ui-monospace,monospace;font-size:7px;fill:rgba(230,236,245,.6)}.ti{font-family:ui-monospace,monospace;font-size:7.5px;letter-spacing:.22em;fill:rgba(159,211,255,.52)}.mc{font-family:ui-monospace,monospace;font-size:5.5px;fill:rgba(100,160,240,.32)}.rv{fill:rgba(100,160,240,.25);stroke:none}</style></defs>
  <rect width="420" height="300" fill="url(#g)"/>
  <text x="14" y="18" class="ti">MOTOR + PUSHER PROP MOUNT</text>
  <rect x="190" y="58" width="40" height="184" rx="4" class="sk"/>
  <circle cx="210" cy="176" r="32" class="sk"/>
  <circle cx="210" cy="176" r="22" class="pa"/>
  <line x1="210" y1="154" x2="210" y2="144" class="mi"/>
  <line x1="222" y1="157" x2="229" y2="149" class="mi"/>
  <line x1="228" y1="168" x2="238" y2="168" class="mi"/>
  <line x1="222" y1="179" x2="229" y2="187" class="mi"/>
  <line x1="210" y1="186" x2="210" y2="196" class="mi"/>
  <line x1="198" y1="179" x2="191" y2="187" class="mi"/>
  <line x1="192" y1="168" x2="182" y2="168" class="mi"/>
  <line x1="198" y1="157" x2="191" y2="149" class="mi"/>
  <circle cx="210" cy="176" r="5" class="nz"/>
  <path d="M210 176 Q242 148 250 130 Q238 148 210 176" class="ma"/>
  <path d="M210 176 Q178 148 170 130 Q182 148 210 176" class="ma"/>
  <circle cx="197" cy="163" r="2" class="rv"/><circle cx="223" cy="163" r="2" class="rv"/>
  <circle cx="197" cy="189" r="2" class="rv"/><circle cx="223" cy="189" r="2" class="rv"/>
  <line x1="210" y1="42" x2="210" y2="252" class="mi" stroke-dasharray="8 5"/>
  <text x="214" y="54" class="mc">THRUST (+1° down)</text>
  <path d="M210 144 L268 100 L380 100" class="cl"/><text x="382" y="97" text-anchor="start" class="ct">2814 1350KV BLDC</text>
  <path d="M250 130 L310 78 L380 78" class="cl"/><text x="382" y="75" text-anchor="start" class="ct">10×7 Folding Prop</text>
  <path d="M210 176 L148 230 L14 230" class="cl"/><text x="12" y="227" text-anchor="end" class="ct">Shaft Ø5mm</text>
  <path d="M191 176 L138 200 L14 200" class="cl"/><text x="12" y="197" text-anchor="end" class="ct">25×25mm M3 Mount</text>
  <text x="210" y="290" text-anchor="middle" class="mc">REAR VIEW · PUSHER CONFIG · 2814 1350KV</text>
</svg>