<svg xmlns="http://www.w3.org/2000/svg" viewBox="0 0 420 300">
  <rect width="420" height="300" fill="#050d18"/>
  <defs><pattern id="g" width="20" height="20" patternUnits="userSpaceOnUse"><path d="M20 0L0 0 0 20" fill="none" stroke="rgba(39,74,121,.13)" stroke-width=".4"/></pattern>
  <style>.sk{fill:#081c30;stroke:rgba(100,160,240,.78);stroke-width:1.3;vector-effect:non-scaling-stroke}.pa{fill:rgba(100,160,240,.04);stroke:rgba(100,160,240,.38);stroke-width:.85;stroke-dasharray:5 4;vector-effect:non-scaling-stroke}.ma{fill:none;stroke:rgba(100,160,240,.5);stroke-width:1.1;vector-effect:non-scaling-stroke}.mi{fill:none;stroke:rgba(100,160,240,.22);stroke-width:.7;vector-effect:non-scaling-stroke}.nz{fill:#050d18;stroke:rgba(137,255,168,.45);stroke-width:1;vector-effect:non-scaling-stroke}.cl{fill:none;stroke:rgba(159,211,255,.3);stroke-width:.6;stroke-dasharray:4 3;vector-effect:non-scaling-stroke}.ct{font-family:ui-monospace,monospace;font-size:7px;fill:rgba(230,236,245,.6)}.ti{font-family:ui-monospace,monospace;font-size:7.5px;letter-spacing:.22em;fill:rgba(159,211,255,.52)}.mc{font-family:ui-monospace,monospace;font-size:5.5px;fill:rgba(100,160,240,.32)}.rv{fill:rgba(100,160,240,.25);stroke:none}</style></defs>
  <rect width="420" height="300" fill="url(#g)"/>
  <text x="14" y="18" class="ti">BATTERY BAY SLIDE-IN · 4S 16000mAh</text>
  <rect x="58" y="78" width="304" height="144" rx="5" class="sk"/>
  <rect x="62" y="84" width="8" height="132" rx="2" class="ma"/>
  <rect x="350" y="84" width="8" height="132" rx="2" class="ma"/>
  <rect x="88" y="94" width="244" height="112" rx="3" class="pa"/>
  <line x1="149" y1="94" x2="149" y2="206" class="mi"/>
  <line x1="210" y1="94" x2="210" y2="206" class="mi"/>
  <line x1="271" y1="94" x2="271" y2="206" class="mi"/>
  <text x="118" y="154" text-anchor="middle" class="mc">S1</text>
  <text x="179" y="154" text-anchor="middle" class="mc">S2</text>
  <text x="240" y="154" text-anchor="middle" class="mc">S3</text>
  <text x="301" y="154" text-anchor="middle" class="mc">S4</text>
  <rect x="58" y="130" width="18" height="40" rx="2" class="nz"/>
  <text x="67" y="154" text-anchor="middle" class="mc" transform="rotate(-90,67,154)">XT60</text>
  <line x1="88" y1="226" x2="332" y2="226" class="ma"/>
  <line x1="88" y1="222" x2="88" y2="230" class="mi"/><line x1="332" y1="222" x2="332" y2="230" class="mi"/>
  <text x="210" y="240" text-anchor="middle" class="mc">CG ADJUST SLOT ±40mm</text>
  <rect x="118" y="78" width="184" height="14" rx="2" class="pa"/>
  <text x="210" y="89" text-anchor="middle" class="mc">ACCESS HATCH</text>
  <rect x="322" y="82" width="24" height="18" rx="2" class="pa"/>
  <text x="334" y="77" text-anchor="middle" class="mc">BAL</text>
  <path d="M210 94 L210 54 L380 54" class="cl"/><text x="382" y="51" text-anchor="start" class="ct">4S 16000mAh 21700 Li-ion</text>
  <path d="M67 130 L38 94 L14 94" class="cl"/><text x="12" y="91" text-anchor="end" class="ct">XT60 Main Connector</text>
  <path d="M334 82 L360 54 L406 54" class="cl"/><text x="406" y="51" text-anchor="end" class="ct">Balance Lead JST-XH</text>
  <text x="210" y="290" text-anchor="middle" class="mc">TOP VIEW · SLIDE RAIL BAY · CG ADJUSTABLE</text>
</svg>