<svg xmlns="http://www.w3.org/2000/svg" viewBox="0 0 420 300"><rect width="420" height="300" fill="#050d18"/><defs><pattern id="g" width="20" height="20" patternUnits="userSpaceOnUse"><path d="M20 0L0 0 0 20" fill="none" stroke="rgba(39,74,121,.13)" stroke-width=".4"/></pattern><style>.sk{fill:#081c30;stroke:rgba(100,160,240,.78);stroke-width:1.3;vector-effect:non-scaling-stroke}.pa{fill:rgba(100,160,240,.04);stroke:rgba(100,160,240,.38);stroke-width:.85;stroke-dasharray:5 4;vector-effect:non-scaling-stroke}.ma{fill:none;stroke:rgba(100,160,240,.5);stroke-width:1.1;vector-effect:non-scaling-stroke}.mi{fill:none;stroke:rgba(100,160,240,.22);stroke-width:.7;vector-effect:non-scaling-stroke}.nz{fill:#050d18;stroke:rgba(137,255,168,.45);stroke-width:1;vector-effect:non-scaling-stroke}.cl{fill:none;stroke:rgba(159,211,255,.3);stroke-width:.6;stroke-dasharray:4 3;vector-effect:non-scaling-stroke}.ct{font-family:ui-monospace,monospace;font-size:7px;fill:rgba(230,236,245,.6)}.ti{font-family:ui-monospace,monospace;font-size:7.5px;letter-spacing:.22em;fill:rgba(159,211,255,.52)}.mc{font-family:ui-monospace,monospace;font-size:5.5px;fill:rgba(100,160,240,.32)}.rv{fill:rgba(100,160,240,.25);stroke:none}</style></defs><rect width="420" height="300" fill="url(#g)"/><text x="14" y="18" class="ti">MAIN WING 2-PIECE · NACA 2412</text>
<path d="M30 165 Q140 90 370 148 Q390 158 406 162" class="sk" fill="#081c30"/>
<path d="M30 165 Q90 188 230 174 Q330 168 406 162" class="sk" fill="none"/>
<circle cx="120" cy="148" r="10" class="ma"/>
<circle cx="120" cy="148" r="6" class="pa"/>
<text x="120" y="152" text-anchor="middle" class="mc">Ø15</text>
<circle cx="178" cy="144" r="10" class="ma"/>
<circle cx="178" cy="144" r="6" class="pa"/>
<text x="178" y="148" text-anchor="middle" class="mc">Ø15</text>
<ellipse cx="78" cy="158" rx="26" ry="14" class="pa"/>
<ellipse cx="220" cy="160" rx="32" ry="10" class="pa"/>
<ellipse cx="320" cy="162" rx="30" ry="8" class="pa"/>
<path d="M30 165 Q34 130 56 132 Q56 198 30 165" class="pa"/>
<line x1="30" y1="165" x2="406" y2="165" class="mi" stroke-dasharray="6 4"/>
<text x="218" y="178" text-anchor="middle" class="mc">CHORD LINE · 160mm</text>
<line x1="30" y1="198" x2="406" y2="198" class="mi"/>
<line x1="30" y1="194" x2="30" y2="202" class="mi"/><line x1="406" y1="194" x2="406" y2="202" class="mi"/>
<text x="218" y="212" text-anchor="middle" class="mc">900mm HALF-SPAN</text>
<path d="M30 155 L14 104 L14 68" class="cl"/><text x="16" y="65" class="ct">LE (3-layer CFRP skin)</text>
<path d="M120 138 L120 54 L270 54" class="cl"/><text x="272" y="51" text-anchor="start" class="ct">Spar 1 Ø15mm CFRP</text>
<path d="M178 134 L178 76 L310 76" class="cl"/><text x="312" y="73" text-anchor="start" class="ct">Spar 2 Ø15mm CFRP</text>
<path d="M406 162 L406 78 L406 76" class="cl"/>
<text x="210" y="290" text-anchor="middle" class="mc">PROFILE VIEW · NACA 2412 · 3-LAYER CFRP SKIN</text>
</svg>