<svg xmlns="http://www.w3.org/2000/svg" viewBox="0 0 420 300"><rect width="420" height="300" fill="#050d18"/><defs><pattern id="g" width="20" height="20" patternUnits="userSpaceOnUse"><path d="M20 0 L0 0 0 20" fill="none" stroke="rgba(72,118,174,.14)" stroke-width=".45"/></pattern><style>.skin{fill:rgba(8,28,48,.72);stroke:rgba(133,190,255,.86);stroke-width:1.2}.pcb{fill:rgba(4,24,12,.7);stroke:rgba(80,200,120,.55);stroke-width:.9}.trace{fill:none;stroke:rgba(137,255,168,.42);stroke-width:.6}.detail{fill:none;stroke:rgba(133,190,255,.36);stroke-width:.7}.hot{fill:none;stroke:rgba(137,255,168,.55);stroke-width:.85}.txt{font-family:ui-monospace,Consolas,monospace;font-size:8px;letter-spacing:.12em;fill:rgba(230,236,245,.68)}.micro{font-family:ui-monospace,Consolas,monospace;font-size:6px;letter-spacing:.12em;fill:rgba(118,169,232,.5)}</style></defs><rect width="420" height="300" fill="url(#g)"/><text x="16" y="22" class="txt">P7 MOTOR CONTROLLER (FOC)</text><text x="16" y="36" class="micro">3-PHASE FOC - 200A PEAK - 72V BUS - STM32G474 - CANopen + SPI</text><rect x="62" y="58" width="296" height="184" rx="6" class="pcb"/><rect x="70" y="66" width="280" height="168" rx="4" class="detail"/><rect x="82" y="78" width="68" height="48" rx="2" class="skin" fill="rgba(10,30,50,.9)"/><text x="116" y="96" class="micro" text-anchor="middle" fill="rgba(133,190,255,.7)">STM32</text><text x="116" y="108" class="micro" text-anchor="middle" fill="rgba(133,190,255,.5)">G474</text><rect x="82" y="134" width="68" height="48" rx="2" class="pcb" stroke="rgba(80,200,120,.7)" stroke-width=".9"/><text x="116" y="152" class="micro" text-anchor="middle" fill="rgba(80,200,120,.7)">3-PH</text><text x="116" y="164" class="micro" text-anchor="middle" fill="rgba(80,200,120,.5)">GATE DRV</text><rect x="166" y="78" width="84" height="104" rx="2" class="skin" fill="rgba(10,30,50,.9)"/><text x="208" y="124" class="micro" text-anchor="middle" fill="rgba(133,190,255,.7)">MOSFET</text><text x="208" y="136" class="micro" text-anchor="middle" fill="rgba(133,190,255,.5)">6x 200A</text><rect x="262" y="78" width="68" height="48" rx="2" class="pcb" stroke="rgba(80,200,120,.7)"/><text x="296" y="96" class="micro" text-anchor="middle" fill="rgba(80,200,120,.7)">CAN</text><text x="296" y="108" class="micro" text-anchor="middle" fill="rgba(80,200,120,.5)">ISOLATOR</text><rect x="262" y="134" width="68" height="48" rx="2" class="pcb" stroke="rgba(80,200,120,.7)"/><text x="296" y="152" class="micro" text-anchor="middle" fill="rgba(80,200,120,.7)">SHUNT</text><text x="296" y="164" class="micro" text-anchor="middle" fill="rgba(80,200,120,.5)">SENSOR x2</text><rect x="82" y="196" width="248" height="24" rx="2" class="skin" fill="rgba(10,30,50,.9)"/><line x1="94" y1="196" x2="94" y2="220" class="hot"/><line x1="110" y1="196" x2="110" y2="220" class="hot"/><line x1="126" y1="196" x2="126" y2="220" class="hot"/><line x1="180" y1="196" x2="180" y2="220" class="hot"/><line x1="196" y1="196" x2="196" y2="220" class="hot"/><line x1="260" y1="196" x2="260" y2="220" class="hot"/><line x1="276" y1="196" x2="276" y2="220" class="hot"/><line x1="292" y1="196" x2="292" y2="220" class="hot"/><line x1="308" y1="196" x2="308" y2="220" class="hot"/><path d="M 330 90 L 380 64 L 404 64" class="detail"/><text x="404" y="61" class="micro" text-anchor="end">CANopen INTERFACE</text><path d="M 296 182 L 380 192 L 404 192" class="pcb" stroke="rgba(80,200,120,.55)"/><text x="404" y="189" class="micro" text-anchor="end">DUAL-SHUNT CURRENT SENSE</text><path d="M 116 66 L 60 36 L 18 36" class="detail"/><text x="18" y="33" class="micro">STM32G474 + FOC ALGORITHM</text><path d="M 110 220 L 60 252 L 18 252" class="hot"/><text x="18" y="249" class="micro">U/V/W PHASE OUTPUT PADS</text></svg>
