<svg xmlns="http://www.w3.org/2000/svg" viewBox="0 0 500 600">
  <rect width="500" height="600" fill="#050d18"/>
  <defs>
    <pattern id="fine" width="21" height="21" patternUnits="userSpaceOnUse">
      <path d="M 21 0 L 0 0 0 21" fill="none" stroke="rgba(39,74,121,.08)" stroke-width=".4"/>
    </pattern>
    <pattern id="grid" width="42" height="42" patternUnits="userSpaceOnUse">
      <path d="M 42 0 L 0 0 0 42" fill="none" stroke="rgba(39,74,121,.16)" stroke-width=".55"/>
    </pattern>
    <style>
      .skin{fill:#081c30;stroke:rgba(100,160,240,.76);stroke-width:1.35;vector-effect:non-scaling-stroke}
      .panel{fill:rgba(100,160,240,.035);stroke:rgba(100,160,240,.36);stroke-width:.9;stroke-dasharray:5 4;vector-effect:non-scaling-stroke}
      .glass{fill:rgba(100,160,240,.055);stroke:rgba(100,160,240,.38);stroke-width:.9;vector-effect:non-scaling-stroke}
      .rotor{fill:#061625;stroke:rgba(100,160,240,.58);stroke-width:1.15;vector-effect:non-scaling-stroke}
      .nozzle{fill:#050d18;stroke:rgba(137,255,168,.48);stroke-width:1;vector-effect:non-scaling-stroke}
      .major{fill:none;stroke:rgba(100,160,240,.48);stroke-width:1.15;vector-effect:non-scaling-stroke}
      .minor,.minor *{fill:none;stroke:rgba(100,160,240,.22);stroke-width:.75;vector-effect:non-scaling-stroke}
      .ghost{opacity:.18}
      .system{stroke-width:.9;vector-effect:non-scaling-stroke}
      .flow{fill:none;stroke:rgba(137,255,168,.22);stroke-width:.8;stroke-dasharray:5 4;vector-effect:non-scaling-stroke}
      .lead{fill:none;stroke:rgba(159,211,255,.25);stroke-width:.6;stroke-dasharray:4 3;vector-effect:non-scaling-stroke}
      .title{font-family:ui-monospace,Menlo,Consolas,monospace;font-size:8px;letter-spacing:.26em;fill:rgba(159,211,255,.64)}
      .label{font-family:ui-monospace,Menlo,Consolas,monospace;font-size:6.1px;letter-spacing:.06em;fill:rgba(230,236,245,.64)}
      .micro{font-family:ui-monospace,Menlo,Consolas,monospace;font-size:6px;letter-spacing:.14em;fill:rgba(100,160,240,.34)}
      .dim{fill:none;stroke:rgba(100,160,240,.18);stroke-width:.55;vector-effect:non-scaling-stroke}
    </style>
  </defs>
  <rect width="500" height="600" fill="url(#fine)"/>
  <rect width="500" height="600" fill="url(#grid)"/>
  <text x="18" y="20" class="title">INTERNAL AXIS · COCHLEAR IMPLANT</text>
  <text x="18" y="34" class="micro">8 FUNCTIONAL SYSTEMS · LOAD PATH / FLOW / SUBSYSTEM RELATION</text>
  <line x1="250" y1="42" x2="250" y2="566" class="dim" stroke-dasharray="8 6"/>
  <g class="ghost"><g transform="scale(0.71429 1.42857)"><path d="M190 210 C190 116 276 58 372 78 C486 102 518 242 434 304 C364 356 250 328 244 238 C240 178 298 132 358 154 C414 174 420 250 368 272 C330 288 286 264 292 224" class="skin"/><rect x="454" y="150" width="104" height="84" rx="12" class="panel"/><path d="M244 238 L454 192" class="major"/></g></g>
<path d="M250.0 168.0 C250.0 168.0 250.0 269.0 250.0 269.0" class="flow"/>
<path d="M250.0 269.0 C250.0 269.0 250.0 128.0 250.0 128.0" class="flow"/>
<path d="M250.0 128.0 C250.0 128.0 250.0 395.0 250.0 395.0" class="flow"/>
<path d="M250.0 395.0 C250.0 395.0 250.0 328.0 250.0 328.0" class="flow"/>
<path d="M250.0 328.0 C250.0 328.0 250.0 444.0 250.0 444.0" class="flow"/>
<path d="M250.0 444.0 C211.0 444.0 211.0 488.0 172.0 488.0" class="flow"/>
<path d="M172.0 488.0 C211.0 488.0 211.0 529.0 250.0 529.0" class="flow"/>
<rect x="188.0" y="106.0" width="124.0" height="124.0" rx="4" class="system" fill="rgba(8,28,48,.62)" stroke="rgba(159,211,255,.5)"/>
<path d="M250.0 168.0 L272.5 150.0" class="lead"/>
<text x="250.0" y="168.0" text-anchor="middle" dominant-baseline="middle" class="label">Receiver-Stimulator</text>
<rect x="188.0" y="230.0" width="124.0" height="78.0" rx="4" class="system" fill="rgba(10,38,44,.48)" stroke="rgba(137,255,168,.46)"/>
<path d="M250.0 269.0 L272.5 251.0" class="lead"/>
<text x="250.0" y="269.0" text-anchor="middle" dominant-baseline="middle" class="label">Electrode Array</text>
<rect x="216.0" y="94.0" width="68.0" height="68.0" rx="4" class="system" fill="rgba(8,28,48,.62)" stroke="rgba(159,211,255,.5)"/>
<path d="M250.0 128.0 L272.5 110.0" class="lead"/>
<text x="250.0" y="128.0" text-anchor="middle" dominant-baseline="middle" class="label">Internal Coil+Magnet</text>
<rect x="138.0" y="368.0" width="224.0" height="54.0" rx="4" class="system" fill="rgba(10,38,44,.48)" stroke="rgba(137,255,168,.46)"/>
<path d="M250.0 395.0 L272.5 377.0" class="lead"/>
<text x="250.0" y="395.0" text-anchor="middle" dominant-baseline="middle" class="label">Sound Processor</text>
<rect x="218.0" y="296.0" width="64.0" height="64.0" rx="4" class="system" fill="rgba(8,28,48,.62)" stroke="rgba(159,211,255,.5)"/>
<path d="M250.0 328.0 L272.5 310.0" class="lead"/>
<text x="250.0" y="328.0" text-anchor="middle" dominant-baseline="middle" class="label">External Coil</text>
<rect x="152.0" y="422.0" width="196.0" height="44.0" rx="4" class="system" fill="rgba(10,38,44,.48)" stroke="rgba(137,255,168,.46)"/>
<path d="M250.0 444.0 L272.5 426.0" class="lead"/>
<text x="250.0" y="444.0" text-anchor="middle" dominant-baseline="middle" class="label">Headpiece</text>
<rect x="98.0" y="466.0" width="148.0" height="44.0" rx="4" class="system" fill="rgba(8,28,48,.62)" stroke="rgba(159,211,255,.5)"/>
<path d="M172.0 488.0 L149.5 470.0" class="lead"/>
<text x="172.0" y="488.0" text-anchor="middle" dominant-baseline="middle" class="label">Drill Guide</text>
<rect x="98.0" y="510.0" width="304.0" height="38.0" rx="4" class="system" fill="rgba(10,38,44,.48)" stroke="rgba(137,255,168,.46)"/>
<path d="M250.0 529.0 L272.5 511.0" class="lead"/>
<text x="250.0" y="529.0" text-anchor="middle" dominant-baseline="middle" class="label">Surgical Trial Kit</text>
  <text x="250" y="588" text-anchor="middle" class="micro">AXIS 2 OF 3 · FUNCTIONAL STRUCTURE</text>
</svg>
