<svg xmlns="http://www.w3.org/2000/svg" viewBox="0 0 500 520">
  <rect width="500" height="520" fill="#050d18"/>
  <defs><pattern id="g" width="20" height="20" patternUnits="userSpaceOnUse"><path d="M20 0H0V20" fill="none" stroke="rgba(72,118,174,.13)" stroke-width=".45"/></pattern><style>.skin{fill:rgba(8,28,48,.66);stroke:rgba(133,190,255,.85);stroke-width:1.05}.panel{fill:rgba(8,28,48,.42);stroke:rgba(133,190,255,.55);stroke-width:.75}.zone{fill:none;stroke:rgba(202,169,255,.42);stroke-width:.85;stroke-dasharray:7 4}.zone2{fill:none;stroke:rgba(137,255,168,.35);stroke-width:.72;stroke-dasharray:5 4}.thin{fill:none;stroke:rgba(133,190,255,.28);stroke-width:.55}.leg{fill:none;stroke:rgba(133,190,255,.72);stroke-width:1.9;stroke-linecap:round;stroke-linejoin:round}.txt{font-family:ui-monospace,Menlo,Consolas,monospace;font-size:8px;letter-spacing:.14em;fill:rgba(230,236,245,.72)}.micro{font-family:ui-monospace,Menlo,Consolas,monospace;font-size:5.5px;letter-spacing:.1em;fill:rgba(118,169,232,.58)}</style></defs>
  <rect width="500" height="520" fill="url(#g)"/>
  <text x="18" y="24" class="txt">PART-ZONE AXIS - LUNAR LANDER MASTER</text>
  <text x="18" y="38" class="micro">P1-P8 OVERLAY - FRONT ELEVATION ZONES MATCH UI FOOTPRINTS</text>
  <path class="skin" d="M172 118 H328 L344 176 L318 316 H182 L156 176 Z"/>
  <circle cx="250" cy="228" r="88" class="panel"/>
  <path class="thin" d="M172 176 H328M182 316 H318M250 118 V316M156 176 L344 176"/>
  <rect x="172" y="118" width="156" height="58" rx="6" class="panel"/>
  <rect x="172" y="78" width="156" height="46" rx="5" class="panel"/>
  <circle cx="250" cy="78" r="38" class="panel"/>
  <rect x="48" y="138" width="132" height="38" rx="5" class="panel"/>
  <rect x="320" y="138" width="132" height="38" rx="5" class="panel"/>
  <circle cx="152" cy="198" r="24" class="panel"/><circle cx="348" cy="198" r="24" class="panel"/>
  <path class="skin" d="M208 316 H292 L312 392 H188 Z"/>
  <path class="leg" d="M182 314 L138 338 L98 438M318 314 L362 338 L402 438M180 316 L78 338 L48 438M320 316 L422 338 L452 438"/>
  <path class="zone" d="M78 338 L48 438 H98 L138 338 ZM362 338 L402 438 H452 L422 338 Z"/>
  <circle cx="250" cy="228" r="88" class="zone"/>
  <path class="zone" d="M208 316 H292 L312 392 H188 Z"/>
  <circle cx="152" cy="198" r="24" class="zone2"/><circle cx="348" cy="198" r="24" class="zone2"/>
  <rect x="172" y="118" width="156" height="58" rx="6" class="zone"/>
  <rect x="48" y="138" width="132" height="38" rx="5" class="zone2"/><rect x="320" y="138" width="132" height="38" rx="5" class="zone2"/>
  <circle cx="250" cy="78" r="38" class="zone"/><rect x="172" y="78" width="156" height="46" rx="5" class="zone2"/>
  <text x="196" y="230" class="micro">P1 TANK</text><text x="224" y="360" class="micro">P2 ENGINE</text><text x="128" y="204" class="micro">P3</text><text x="348" y="204" class="micro">P3</text>
  <text x="82" y="426" class="micro">P4</text><text x="402" y="426" class="micro">P4</text><text x="196" y="152" class="micro">P5 AVIONICS</text><text x="78" y="162" class="micro">P6 SOLAR</text><text x="344" y="162" class="micro">P6 SOLAR</text><text x="236" y="82" class="micro">P7</text><text x="196" y="102" class="micro">P8 PAYLOAD</text>
</svg>
