<svg xmlns="http://www.w3.org/2000/svg" viewBox="0 0 350 550">
  <rect width="350" height="550" fill="#050d18"/>
  <defs>
    <pattern id="fine" width="14.5" height="14.5" patternUnits="userSpaceOnUse">
      <path d="M 14.5 0 L 0 0 0 14.5" fill="none" stroke="rgba(39,74,121,.08)" stroke-width=".4"/>
    </pattern>
    <pattern id="grid" width="29" height="29" patternUnits="userSpaceOnUse">
      <path d="M 29 0 L 0 0 0 29" fill="none" stroke="rgba(39,74,121,.16)" stroke-width=".55"/>
    </pattern>
    <style>
      .skin{fill:#081c30;stroke:rgba(100,160,240,.76);stroke-width:1.35;vector-effect:non-scaling-stroke}
      .panel{fill:rgba(100,160,240,.035);stroke:rgba(100,160,240,.36);stroke-width:.9;stroke-dasharray:5 4;vector-effect:non-scaling-stroke}
      .glass{fill:rgba(100,160,240,.055);stroke:rgba(100,160,240,.38);stroke-width:.9;vector-effect:non-scaling-stroke}
      .rotor{fill:#061625;stroke:rgba(100,160,240,.58);stroke-width:1.15;vector-effect:non-scaling-stroke}
      .nozzle{fill:#050d18;stroke:rgba(137,255,168,.48);stroke-width:1;vector-effect:non-scaling-stroke}
      .major{fill:none;stroke:rgba(100,160,240,.48);stroke-width:1.15;vector-effect:non-scaling-stroke}
      .minor,.minor *{fill:none;stroke:rgba(100,160,240,.22);stroke-width:.75;vector-effect:non-scaling-stroke}
      .station{fill:none;stroke:rgba(100,160,240,.085);stroke-width:.5;stroke-dasharray:3 8;vector-effect:non-scaling-stroke}
      .zonewire{fill:none;stroke:rgba(159,211,255,.28);stroke-width:.75;stroke-dasharray:6 4;vector-effect:non-scaling-stroke}
      .zonewire.alt{stroke:rgba(137,255,168,.18)}
      .rivet{fill:rgba(100,160,240,.24);stroke:none}
      .callout-line{fill:none;stroke:rgba(159,211,255,.3);stroke-width:.65;stroke-dasharray:4 3;vector-effect:non-scaling-stroke}
      .callout{font-family:ui-monospace,Menlo,Consolas,monospace;font-size:7px;letter-spacing:.1em;fill:rgba(230,236,245,.58)}
      .thrust-arc{fill:none;stroke:rgba(137,255,168,.25);stroke-width:.75;stroke-dasharray:5 4;vector-effect:non-scaling-stroke}
      .title{font-family:ui-monospace,Menlo,Consolas,monospace;font-size:8px;letter-spacing:.28em;fill:rgba(159,211,255,.5)}
      .micro{font-family:ui-monospace,Menlo,Consolas,monospace;font-size:6px;letter-spacing:.16em;fill:rgba(100,160,240,.32)}
      .dim{fill:none;stroke:rgba(100,160,240,.18);stroke-width:.55;vector-effect:non-scaling-stroke}
    </style>
  </defs>
  <rect width="350" height="550" fill="url(#fine)"/>
  <rect width="350" height="550" fill="url(#grid)"/>
  <text x="18" y="20" class="title">PLAN VIEW · POWERED AFO</text>
  <line x1="175" y1="26" x2="175" y2="518" class="dim" stroke-dasharray="8 6"/>
  <g transform="scale(0.50000 1.30952)"><path d="M330 62 C284 120 272 214 298 314 L180 344 L174 384 L388 384 C420 310 414 170 374 70 Z" class="skin"/><path d="M300 310 L414 310 M290 188 L386 188" class="minor"/><circle cx="350" cy="206" r="30" class="rotor"/></g>
  <g class="detail-layer">
    <line x1="63.0" y1="93.8" x2="287.0" y2="93.8" class="station"/>
<line x1="63.0" y1="153.5" x2="287.0" y2="153.5" class="station"/>
<line x1="63.0" y1="213.3" x2="287.0" y2="213.3" class="station"/>
<line x1="63.0" y1="273.0" x2="287.0" y2="273.0" class="station"/>
<line x1="63.0" y1="332.8" x2="287.0" y2="332.8" class="station"/>
<line x1="63.0" y1="392.5" x2="287.0" y2="392.5" class="station"/>
<line x1="63.0" y1="452.3" x2="287.0" y2="452.3" class="station"/>
    <rect x="78" y="48" width="112" height="224" rx="2" class="zonewire"/>
<circle cx="134" cy="318" r="36" class="zonewire alt"/>
<rect x="74" y="354" width="192" height="42" rx="2" class="zonewire"/>
<rect x="194" y="78" width="82" height="102" rx="2" class="zonewire alt"/>
<rect x="194" y="194" width="82" height="78" rx="2" class="zonewire"/>
<rect x="80" y="28" width="108" height="30" rx="2" class="zonewire alt"/>
<rect x="76" y="396" width="188" height="24" rx="2" class="zonewire"/>
<rect x="192" y="278" width="24" height="82" rx="2" class="zonewire alt"/>
    <circle cx="78.0" cy="48.0" r="1.4" class="rivet"/>
<circle cx="78.0" cy="272.0" r="1.4" class="rivet"/>
<circle cx="134.0" cy="48.0" r="1.4" class="rivet"/>
<circle cx="170.0" cy="282.0" r="1.4" class="rivet"/>
<circle cx="170.0" cy="354.0" r="1.4" class="rivet"/>
<circle cx="134.0" cy="354.0" r="1.4" class="rivet"/>
<circle cx="74.0" cy="354.0" r="1.4" class="rivet"/>
<circle cx="74.0" cy="396.0" r="1.4" class="rivet"/>
<circle cx="170.0" cy="354.0" r="1.4" class="rivet"/>
<circle cx="276.0" cy="78.0" r="1.4" class="rivet"/>
<circle cx="276.0" cy="180.0" r="1.4" class="rivet"/>
<circle cx="235.0" cy="180.0" r="1.4" class="rivet"/>
<circle cx="194.0" cy="194.0" r="1.4" class="rivet"/>
<circle cx="194.0" cy="272.0" r="1.4" class="rivet"/>
<circle cx="235.0" cy="194.0" r="1.4" class="rivet"/>
<circle cx="188.0" cy="28.0" r="1.4" class="rivet"/>
<circle cx="188.0" cy="58.0" r="1.4" class="rivet"/>
<circle cx="134.0" cy="58.0" r="1.4" class="rivet"/>
<circle cx="76.0" cy="396.0" r="1.4" class="rivet"/>
<circle cx="76.0" cy="420.0" r="1.4" class="rivet"/>
<circle cx="170.0" cy="396.0" r="1.4" class="rivet"/>
<circle cx="216.0" cy="278.0" r="1.4" class="rivet"/>
<circle cx="216.0" cy="360.0" r="1.4" class="rivet"/>
<circle cx="204.0" cy="360.0" r="1.4" class="rivet"/>
    <path d="M134.0 160.0 L106.0 44.0 L18.0 44.0" class="callout-line"/>
<text x="18" y="41" text-anchor="start" class="callout">Calf Shell</text>
<path d="M134.0 318.0 L106.0 96.0 L18.0 96.0" class="callout-line"/>
<text x="18" y="93" text-anchor="start" class="callout">Ankle Joint</text>
<path d="M170.0 375.0 L142.0 148.0 L18.0 148.0" class="callout-line"/>
<text x="18" y="145" text-anchor="start" class="callout">Foot Plate</text>
<path d="M235.0 129.0 L263.0 44.0 L332.0 44.0" class="callout-line"/>
<text x="332" y="41" text-anchor="end" class="callout">Battery</text>
<path d="M235.0 233.0 L263.0 96.0 L332.0 96.0" class="callout-line"/>
<text x="332" y="93" text-anchor="end" class="callout">PCB</text>
<path d="M134.0 43.0 L106.0 148.0 L18.0 148.0" class="callout-line"/>
<text x="18" y="145" text-anchor="start" class="callout">Knee Strap</text>
    
  </g>
  <line x1="40" y1="522" x2="310" y2="522" class="dim"/>
  <line x1="40" y1="518" x2="40" y2="526" class="dim"/>
  <line x1="310" y1="518" x2="310" y2="526" class="dim"/>
  <text x="175" y="535" text-anchor="middle" class="micro">OVERLAY-READY · Side View · 8 ZONES</text>
</svg>
