<svg xmlns="http://www.w3.org/2000/svg" viewBox="0 0 500 700">
  <rect width="500" height="700" fill="#050d18"/>
  <defs>
    <pattern id="fine" width="21" height="21" patternUnits="userSpaceOnUse">
      <path d="M 21 0 L 0 0 0 21" fill="none" stroke="rgba(39,74,121,.08)" stroke-width=".4"/>
    </pattern>
    <pattern id="grid" width="42" height="42" patternUnits="userSpaceOnUse">
      <path d="M 42 0 L 0 0 0 42" fill="none" stroke="rgba(39,74,121,.16)" stroke-width=".55"/>
    </pattern>
    <style>
      .skin{fill:#081c30;stroke:rgba(100,160,240,.76);stroke-width:1.35;vector-effect:non-scaling-stroke}
      .panel{fill:rgba(100,160,240,.035);stroke:rgba(100,160,240,.36);stroke-width:.9;stroke-dasharray:5 4;vector-effect:non-scaling-stroke}
      .glass{fill:rgba(100,160,240,.055);stroke:rgba(100,160,240,.38);stroke-width:.9;vector-effect:non-scaling-stroke}
      .rotor{fill:#061625;stroke:rgba(100,160,240,.58);stroke-width:1.15;vector-effect:non-scaling-stroke}
      .nozzle{fill:#050d18;stroke:rgba(137,255,168,.48);stroke-width:1;vector-effect:non-scaling-stroke}
      .major{fill:none;stroke:rgba(100,160,240,.48);stroke-width:1.15;vector-effect:non-scaling-stroke}
      .minor,.minor *{fill:none;stroke:rgba(100,160,240,.22);stroke-width:.75;vector-effect:non-scaling-stroke}
      .ghost{opacity:.18}
      .system{stroke-width:.9;vector-effect:non-scaling-stroke}
      .flow{fill:none;stroke:rgba(137,255,168,.22);stroke-width:.8;stroke-dasharray:5 4;vector-effect:non-scaling-stroke}
      .lead{fill:none;stroke:rgba(159,211,255,.25);stroke-width:.6;stroke-dasharray:4 3;vector-effect:non-scaling-stroke}
      .title{font-family:ui-monospace,Menlo,Consolas,monospace;font-size:8px;letter-spacing:.26em;fill:rgba(159,211,255,.64)}
      .label{font-family:ui-monospace,Menlo,Consolas,monospace;font-size:6.1px;letter-spacing:.06em;fill:rgba(230,236,245,.64)}
      .micro{font-family:ui-monospace,Menlo,Consolas,monospace;font-size:6px;letter-spacing:.14em;fill:rgba(100,160,240,.34)}
      .dim{fill:none;stroke:rgba(100,160,240,.18);stroke-width:.55;vector-effect:non-scaling-stroke}
    </style>
  </defs>
  <rect width="500" height="700" fill="url(#fine)"/>
  <rect width="500" height="700" fill="url(#grid)"/>
  <text x="18" y="20" class="title">INTERNAL AXIS · POWERED EXOSKELETON</text>
  <text x="18" y="34" class="micro">14 FUNCTIONAL SYSTEMS · LOAD PATH / FLOW / SUBSYSTEM RELATION</text>
  <line x1="250" y1="42" x2="250" y2="666" class="dim" stroke-dasharray="8 6"/>
  <g class="ghost"><g transform="scale(0.71429 1.66667)"><rect x="286" y="80" width="128" height="128" rx="14" class="skin"/><path d="M286 130 L210 230 L190 344 M414 130 L490 230 L510 344 M318 208 L286 364 M382 208 L414 364" class="major"/><circle cx="210" cy="230" r="28" class="rotor"/><circle cx="490" cy="230" r="28" class="rotor"/><circle cx="286" cy="364" r="24" class="rotor"/><circle cx="414" cy="364" r="24" class="rotor"/></g></g>
<path d="M250.0 206.0 C221.0 206.0 221.0 268.0 192.0 268.0" class="flow"/>
<path d="M192.0 268.0 C250.0 268.0 250.0 268.0 308.0 268.0" class="flow"/>
<path d="M308.0 268.0 C249.0 268.0 249.0 345.0 190.0 345.0" class="flow"/>
<path d="M190.0 345.0 C250.0 345.0 250.0 345.0 310.0 345.0" class="flow"/>
<path d="M310.0 345.0 C250.0 345.0 250.0 408.0 190.0 408.0" class="flow"/>
<path d="M190.0 408.0 C250.0 408.0 250.0 408.0 310.0 408.0" class="flow"/>
<path d="M310.0 408.0 C250.0 408.0 250.0 484.0 190.0 484.0" class="flow"/>
<path d="M190.0 484.0 C250.0 484.0 250.0 484.0 310.0 484.0" class="flow"/>
<path d="M310.0 484.0 C250.0 484.0 250.0 546.0 190.0 546.0" class="flow"/>
<path d="M190.0 546.0 C250.0 546.0 250.0 546.0 310.0 546.0" class="flow"/>
<path d="M310.0 546.0 C280.0 546.0 280.0 215.0 250.0 215.0" class="flow"/>
<path d="M250.0 215.0 C200.0 215.0 200.0 595.0 150.0 595.0" class="flow"/>
<path d="M150.0 595.0 C250.0 595.0 250.0 595.0 350.0 595.0" class="flow"/>
<rect x="148.0" y="168.0" width="204.0" height="76.0" rx="4" class="system" fill="rgba(8,28,48,.62)" stroke="rgba(159,211,255,.5)"/>
<path d="M250.0 206.0 L272.5 188.0" class="lead"/>
<text x="250.0" y="206.0" text-anchor="middle" dominant-baseline="middle" class="label">Pelvic Harness</text>
<rect x="164.0" y="240.0" width="56.0" height="56.0" rx="4" class="system" fill="rgba(10,38,44,.48)" stroke="rgba(137,255,168,.46)"/>
<path d="M192.0 268.0 L169.5 250.0" class="lead"/>
<text x="192.0" y="268.0" text-anchor="middle" dominant-baseline="middle" class="label">Hip L</text>
<rect x="280.0" y="240.0" width="56.0" height="56.0" rx="4" class="system" fill="rgba(8,28,48,.62)" stroke="rgba(159,211,255,.5)"/>
<path d="M308.0 268.0 L330.5 250.0" class="lead"/>
<text x="308.0" y="268.0" text-anchor="middle" dominant-baseline="middle" class="label">Hip R</text>
<rect x="162.0" y="296.0" width="56.0" height="98.0" rx="4" class="system" fill="rgba(10,38,44,.48)" stroke="rgba(137,255,168,.46)"/>
<path d="M190.0 345.0 L167.5 327.0" class="lead"/>
<text x="190.0" y="345.0" text-anchor="middle" dominant-baseline="middle" class="label">Thigh Shell L</text>
<rect x="282.0" y="296.0" width="56.0" height="98.0" rx="4" class="system" fill="rgba(8,28,48,.62)" stroke="rgba(159,211,255,.5)"/>
<path d="M310.0 345.0 L332.5 327.0" class="lead"/>
<text x="310.0" y="345.0" text-anchor="middle" dominant-baseline="middle" class="label">Thigh Shell R</text>
<rect x="162.0" y="380.0" width="56.0" height="56.0" rx="4" class="system" fill="rgba(10,38,44,.48)" stroke="rgba(137,255,168,.46)"/>
<path d="M190.0 408.0 L167.5 390.0" class="lead"/>
<text x="190.0" y="408.0" text-anchor="middle" dominant-baseline="middle" class="label">Knee L</text>
<rect x="282.0" y="380.0" width="56.0" height="56.0" rx="4" class="system" fill="rgba(8,28,48,.62)" stroke="rgba(159,211,255,.5)"/>
<path d="M310.0 408.0 L332.5 390.0" class="lead"/>
<text x="310.0" y="408.0" text-anchor="middle" dominant-baseline="middle" class="label">Knee R</text>
<rect x="162.0" y="436.0" width="56.0" height="96.0" rx="4" class="system" fill="rgba(10,38,44,.48)" stroke="rgba(137,255,168,.46)"/>
<path d="M190.0 484.0 L167.5 466.0" class="lead"/>
<text x="190.0" y="484.0" text-anchor="middle" dominant-baseline="middle" class="label">Shank Shell L</text>
<rect x="282.0" y="436.0" width="56.0" height="96.0" rx="4" class="system" fill="rgba(8,28,48,.62)" stroke="rgba(159,211,255,.5)"/>
<path d="M310.0 484.0 L332.5 466.0" class="lead"/>
<text x="310.0" y="484.0" text-anchor="middle" dominant-baseline="middle" class="label">Shank Shell R</text>
<rect x="162.0" y="518.0" width="56.0" height="56.0" rx="4" class="system" fill="rgba(10,38,44,.48)" stroke="rgba(137,255,168,.46)"/>
<path d="M190.0 546.0 L167.5 528.0" class="lead"/>
<text x="190.0" y="546.0" text-anchor="middle" dominant-baseline="middle" class="label">Ankle L</text>
<rect x="282.0" y="518.0" width="56.0" height="56.0" rx="4" class="system" fill="rgba(8,28,48,.62)" stroke="rgba(159,211,255,.5)"/>
<path d="M310.0 546.0 L332.5 528.0" class="lead"/>
<text x="310.0" y="546.0" text-anchor="middle" dominant-baseline="middle" class="label">Ankle R</text>
<rect x="148.0" y="188.0" width="204.0" height="54.0" rx="4" class="system" fill="rgba(10,38,44,.48)" stroke="rgba(137,255,168,.46)"/>
<path d="M250.0 215.0 L272.5 197.0" class="lead"/>
<text x="250.0" y="215.0" text-anchor="middle" dominant-baseline="middle" class="label">Battery+Controller</text>
<rect x="78.0" y="578.0" width="144.0" height="34.0" rx="4" class="system" fill="rgba(8,28,48,.62)" stroke="rgba(159,211,255,.5)"/>
<path d="M150.0 595.0 L127.5 577.0" class="lead"/>
<text x="150.0" y="595.0" text-anchor="middle" dominant-baseline="middle" class="label">Crutch Handle L</text>
<rect x="278.0" y="578.0" width="144.0" height="34.0" rx="4" class="system" fill="rgba(10,38,44,.48)" stroke="rgba(137,255,168,.46)"/>
<path d="M350.0 595.0 L372.5 577.0" class="lead"/>
<text x="350.0" y="595.0" text-anchor="middle" dominant-baseline="middle" class="label">Crutch Handle R</text>
  <text x="250" y="688" text-anchor="middle" class="micro">AXIS 2 OF 3 · FUNCTIONAL STRUCTURE</text>
</svg>
