<svg xmlns="http://www.w3.org/2000/svg" viewBox="0 0 600 400">
  <rect width="600" height="400" fill="#050d18"/>
  <defs>
    <pattern id="fine" width="16.5" height="16.5" patternUnits="userSpaceOnUse">
      <path d="M 16.5 0 L 0 0 0 16.5" fill="none" stroke="rgba(39,74,121,.08)" stroke-width=".4"/>
    </pattern>
    <pattern id="grid" width="33" height="33" patternUnits="userSpaceOnUse">
      <path d="M 33 0 L 0 0 0 33" fill="none" stroke="rgba(39,74,121,.16)" stroke-width=".55"/>
    </pattern>
    <style>
      .skin{fill:#081c30;stroke:rgba(100,160,240,.76);stroke-width:1.35;vector-effect:non-scaling-stroke}
      .panel{fill:rgba(100,160,240,.035);stroke:rgba(100,160,240,.36);stroke-width:.9;stroke-dasharray:5 4;vector-effect:non-scaling-stroke}
      .glass{fill:rgba(100,160,240,.055);stroke:rgba(100,160,240,.38);stroke-width:.9;vector-effect:non-scaling-stroke}
      .rotor{fill:#061625;stroke:rgba(100,160,240,.58);stroke-width:1.15;vector-effect:non-scaling-stroke}
      .nozzle{fill:#050d18;stroke:rgba(137,255,168,.48);stroke-width:1;vector-effect:non-scaling-stroke}
      .major{fill:none;stroke:rgba(100,160,240,.48);stroke-width:1.15;vector-effect:non-scaling-stroke}
      .minor,.minor *{fill:none;stroke:rgba(100,160,240,.22);stroke-width:.75;vector-effect:non-scaling-stroke}
      .station{fill:none;stroke:rgba(100,160,240,.085);stroke-width:.5;stroke-dasharray:3 8;vector-effect:non-scaling-stroke}
      .zonewire{fill:none;stroke:rgba(159,211,255,.28);stroke-width:.75;stroke-dasharray:6 4;vector-effect:non-scaling-stroke}
      .zonewire.alt{stroke:rgba(137,255,168,.18)}
      .rivet{fill:rgba(100,160,240,.24);stroke:none}
      .callout-line{fill:none;stroke:rgba(159,211,255,.3);stroke-width:.65;stroke-dasharray:4 3;vector-effect:non-scaling-stroke}
      .callout{font-family:ui-monospace,Menlo,Consolas,monospace;font-size:7px;letter-spacing:.1em;fill:rgba(230,236,245,.58)}
      .thrust-arc{fill:none;stroke:rgba(137,255,168,.25);stroke-width:.75;stroke-dasharray:5 4;vector-effect:non-scaling-stroke}
      .title{font-family:ui-monospace,Menlo,Consolas,monospace;font-size:8px;letter-spacing:.28em;fill:rgba(159,211,255,.5)}
      .micro{font-family:ui-monospace,Menlo,Consolas,monospace;font-size:6px;letter-spacing:.16em;fill:rgba(100,160,240,.32)}
      .dim{fill:none;stroke:rgba(100,160,240,.18);stroke-width:.55;vector-effect:non-scaling-stroke}
    </style>
  </defs>
  <rect width="600" height="400" fill="url(#fine)"/>
  <rect width="600" height="400" fill="url(#grid)"/>
  <text x="18" y="20" class="title">PLAN VIEW · PRECISION LINKAGE</text>
  <line x1="300" y1="26" x2="300" y2="368" class="dim" stroke-dasharray="8 6"/>
  <g transform="scale(0.85714 0.95238)"><rect x="96" y="300" width="508" height="40" rx="6" class="panel"/><circle cx="160" cy="210" r="36" class="rotor"/><circle cx="310" cy="150" r="32" class="rotor"/><circle cx="450" cy="230" r="32" class="rotor"/><circle cx="560" cy="172" r="30" class="rotor"/><path d="M160 210 L310 150 L450 230 L560 172" class="major"/><path d="M160 210 L450 230" class="minor"/></g>
  <g class="detail-layer">
    <line x1="87.2" y1="56.0" x2="87.2" y2="352.0" class="station"/>
<line x1="140.4" y1="56.0" x2="140.4" y2="352.0" class="station"/>
<line x1="193.6" y1="56.0" x2="193.6" y2="352.0" class="station"/>
<line x1="246.8" y1="56.0" x2="246.8" y2="352.0" class="station"/>
<line x1="300.0" y1="56.0" x2="300.0" y2="352.0" class="station"/>
<line x1="353.2" y1="56.0" x2="353.2" y2="352.0" class="station"/>
<line x1="406.4" y1="56.0" x2="406.4" y2="352.0" class="station"/>
<line x1="459.6" y1="56.0" x2="459.6" y2="352.0" class="station"/>
<line x1="512.8" y1="56.0" x2="512.8" y2="352.0" class="station"/>
    <rect x="68" y="78" width="464" height="244" rx="2" class="zonewire"/>
<rect x="108" y="168" width="72" height="64" rx="2" class="zonewire alt"/>
<rect x="178" y="158" width="214" height="84" rx="2" class="zonewire"/>
<rect x="390" y="168" width="72" height="64" rx="2" class="zonewire alt"/>
<circle cx="108" cy="200" r="16" class="zonewire"/>
<circle cx="180" cy="200" r="16" class="zonewire alt"/>
<circle cx="392" cy="200" r="16" class="zonewire"/>
<circle cx="462" cy="200" r="16" class="zonewire alt"/>
<circle cx="108" cy="200" r="10" class="zonewire"/>
<rect x="78" y="288" width="102" height="52" rx="2" class="zonewire alt"/>
<circle cx="462" cy="200" r="22" class="zonewire"/>
    <circle cx="68.0" cy="78.0" r="1.4" class="rivet"/>
<circle cx="68.0" cy="322.0" r="1.4" class="rivet"/>
<circle cx="300.0" cy="78.0" r="1.4" class="rivet"/>
<circle cx="180.0" cy="168.0" r="1.4" class="rivet"/>
<circle cx="180.0" cy="232.0" r="1.4" class="rivet"/>
<circle cx="144.0" cy="232.0" r="1.4" class="rivet"/>
<circle cx="178.0" cy="158.0" r="1.4" class="rivet"/>
<circle cx="178.0" cy="242.0" r="1.4" class="rivet"/>
<circle cx="285.0" cy="158.0" r="1.4" class="rivet"/>
<circle cx="462.0" cy="168.0" r="1.4" class="rivet"/>
<circle cx="462.0" cy="232.0" r="1.4" class="rivet"/>
<circle cx="426.0" cy="232.0" r="1.4" class="rivet"/>
<circle cx="92.0" cy="184.0" r="1.4" class="rivet"/>
<circle cx="92.0" cy="216.0" r="1.4" class="rivet"/>
<circle cx="108.0" cy="184.0" r="1.4" class="rivet"/>
<circle cx="196.0" cy="184.0" r="1.4" class="rivet"/>
<circle cx="196.0" cy="216.0" r="1.4" class="rivet"/>
<circle cx="180.0" cy="216.0" r="1.4" class="rivet"/>
<circle cx="376.0" cy="184.0" r="1.4" class="rivet"/>
<circle cx="376.0" cy="216.0" r="1.4" class="rivet"/>
<circle cx="392.0" cy="184.0" r="1.4" class="rivet"/>
<circle cx="478.0" cy="184.0" r="1.4" class="rivet"/>
<circle cx="478.0" cy="216.0" r="1.4" class="rivet"/>
<circle cx="462.0" cy="216.0" r="1.4" class="rivet"/>
<circle cx="98.0" cy="190.0" r="1.4" class="rivet"/>
<circle cx="98.0" cy="210.0" r="1.4" class="rivet"/>
<circle cx="108.0" cy="190.0" r="1.4" class="rivet"/>
<circle cx="180.0" cy="288.0" r="1.4" class="rivet"/>
<circle cx="180.0" cy="340.0" r="1.4" class="rivet"/>
<circle cx="129.0" cy="340.0" r="1.4" class="rivet"/>
<circle cx="440.0" cy="178.0" r="1.4" class="rivet"/>
<circle cx="440.0" cy="222.0" r="1.4" class="rivet"/>
<circle cx="462.0" cy="178.0" r="1.4" class="rivet"/>
    <path d="M300.0 200.0 L328.0 44.0 L582.0 44.0" class="callout-line"/>
<text x="582" y="41" text-anchor="end" class="callout">Frame (Ground Link)</text>
<path d="M144.0 200.0 L116.0 96.0 L18.0 96.0" class="callout-line"/>
<text x="18" y="93" text-anchor="start" class="callout">Crank (Input)</text>
<path d="M285.0 200.0 L257.0 148.0 L18.0 148.0" class="callout-line"/>
<text x="18" y="145" text-anchor="start" class="callout">Coupler (Floating)</text>
<path d="M426.0 200.0 L454.0 44.0 L582.0 44.0" class="callout-line"/>
<text x="582" y="41" text-anchor="end" class="callout">Rocker (Output)</text>
<path d="M108.0 200.0 L80.0 96.0 L18.0 96.0" class="callout-line"/>
<text x="18" y="93" text-anchor="start" class="callout">Pivot Pin A</text>
<path d="M108.0 200.0 L80.0 148.0 L18.0 148.0" class="callout-line"/>
<text x="18" y="145" text-anchor="start" class="callout">Bearing A</text>
    <text x="576" y="56.00000000000001" text-anchor="end" class="micro">KINEMATIC DATUM · JOINT AXES · LOAD PATH</text>
  </g>
  <line x1="40" y1="372" x2="560" y2="372" class="dim"/>
  <line x1="40" y1="368" x2="40" y2="376" class="dim"/>
  <line x1="560" y1="368" x2="560" y2="376" class="dim"/>
  <text x="300" y="385" text-anchor="middle" class="micro">OVERLAY-READY · Plan View (Top) · 11 ZONES</text>
</svg>
