<svg xmlns="http://www.w3.org/2000/svg" viewBox="0 0 600 440">
  <rect width="600" height="440" fill="#050d18"/>
  <defs>
    <pattern id="fine" width="18.5" height="18.5" patternUnits="userSpaceOnUse">
      <path d="M 18.5 0 L 0 0 0 18.5" fill="none" stroke="rgba(39,74,121,.08)" stroke-width=".4"/>
    </pattern>
    <pattern id="grid" width="37" height="37" patternUnits="userSpaceOnUse">
      <path d="M 37 0 L 0 0 0 37" fill="none" stroke="rgba(39,74,121,.16)" stroke-width=".55"/>
    </pattern>
    <style>
      .skin{fill:#081c30;stroke:rgba(100,160,240,.76);stroke-width:1.35;vector-effect:non-scaling-stroke}
      .panel{fill:rgba(100,160,240,.035);stroke:rgba(100,160,240,.36);stroke-width:.9;stroke-dasharray:5 4;vector-effect:non-scaling-stroke}
      .glass{fill:rgba(100,160,240,.055);stroke:rgba(100,160,240,.38);stroke-width:.9;vector-effect:non-scaling-stroke}
      .rotor{fill:#061625;stroke:rgba(100,160,240,.58);stroke-width:1.15;vector-effect:non-scaling-stroke}
      .nozzle{fill:#050d18;stroke:rgba(137,255,168,.48);stroke-width:1;vector-effect:non-scaling-stroke}
      .major{fill:none;stroke:rgba(100,160,240,.48);stroke-width:1.15;vector-effect:non-scaling-stroke}
      .minor,.minor *{fill:none;stroke:rgba(100,160,240,.22);stroke-width:.75;vector-effect:non-scaling-stroke}
      .ghost{opacity:.18}
      .system{stroke-width:.9;vector-effect:non-scaling-stroke}
      .flow{fill:none;stroke:rgba(137,255,168,.22);stroke-width:.8;stroke-dasharray:5 4;vector-effect:non-scaling-stroke}
      .lead{fill:none;stroke:rgba(159,211,255,.25);stroke-width:.6;stroke-dasharray:4 3;vector-effect:non-scaling-stroke}
      .title{font-family:ui-monospace,Menlo,Consolas,monospace;font-size:8px;letter-spacing:.26em;fill:rgba(159,211,255,.64)}
      .label{font-family:ui-monospace,Menlo,Consolas,monospace;font-size:7.3px;letter-spacing:.06em;fill:rgba(230,236,245,.64)}
      .micro{font-family:ui-monospace,Menlo,Consolas,monospace;font-size:6px;letter-spacing:.14em;fill:rgba(100,160,240,.34)}
      .dim{fill:none;stroke:rgba(100,160,240,.18);stroke-width:.55;vector-effect:non-scaling-stroke}
    </style>
  </defs>
  <rect width="600" height="440" fill="url(#fine)"/>
  <rect width="600" height="440" fill="url(#grid)"/>
  <text x="18" y="20" class="title">INTERNAL AXIS · QUADRUPED WALKER</text>
  <text x="18" y="34" class="micro">14 FUNCTIONAL SYSTEMS · LOAD PATH / FLOW / SUBSYSTEM RELATION</text>
  <line x1="300" y1="42" x2="300" y2="406" class="dim" stroke-dasharray="8 6"/>
  <g class="ghost"><g transform="scale(0.85714 1.04762)"><rect x="225" y="150" width="250" height="120" rx="16" class="skin"/><circle cx="260" cy="300" r="30" class="rotor"/><circle cx="440" cy="300" r="30" class="rotor"/><path d="M250 252 L170 334 L138 320 M450 252 L530 334 L562 320 M260 150 L176 80 L140 96 M440 150 L524 80 L560 96" class="major"/><rect x="285" y="104" width="130" height="46" rx="6" class="panel"/></g></g>
<path d="M300.0 185.0 C241.0 185.0 241.0 184.0 182.0 184.0" class="flow"/>
<path d="M182.0 184.0 C300.0 184.0 300.0 184.0 418.0 184.0" class="flow"/>
<path d="M418.0 184.0 C300.0 184.0 300.0 284.0 182.0 284.0" class="flow"/>
<path d="M182.0 284.0 C300.0 284.0 300.0 284.0 418.0 284.0" class="flow"/>
<path d="M418.0 284.0 C300.0 284.0 300.0 253.0 182.0 253.0" class="flow"/>
<path d="M182.0 253.0 C300.0 253.0 300.0 253.0 418.0 253.0" class="flow"/>
<path d="M418.0 253.0 C300.0 253.0 300.0 308.0 182.0 308.0" class="flow"/>
<path d="M182.0 308.0 C300.0 308.0 300.0 308.0 418.0 308.0" class="flow"/>
<path d="M418.0 308.0 C300.0 308.0 300.0 371.0 182.0 371.0" class="flow"/>
<path d="M182.0 371.0 C300.0 371.0 300.0 371.0 418.0 371.0" class="flow"/>
<path d="M418.0 371.0 C359.0 371.0 359.0 219.0 300.0 219.0" class="flow"/>
<path d="M300.0 219.0 C213.5 219.0 213.5 145.0 127.0 145.0" class="flow"/>
<path d="M127.0 145.0 C280.5 145.0 280.5 184.0 434.0 184.0" class="flow"/>
<rect x="148.0" y="128.0" width="304.0" height="114.0" rx="4" class="system" fill="rgba(8,28,48,.62)" stroke="rgba(159,211,255,.5)"/>
<path d="M300.0 185.0 L327.0 169.6" class="lead"/>
<text x="300.0" y="185.0" text-anchor="middle" dominant-baseline="middle" class="label">Body</text>
<rect x="154.0" y="156.0" width="56.0" height="56.0" rx="4" class="system" fill="rgba(10,38,44,.48)" stroke="rgba(137,255,168,.46)"/>
<path d="M182.0 184.0 L155.0 168.6" class="lead"/>
<text x="182.0" y="184.0" text-anchor="middle" dominant-baseline="middle" class="label">Hip FL</text>
<rect x="390.0" y="156.0" width="56.0" height="56.0" rx="4" class="system" fill="rgba(8,28,48,.62)" stroke="rgba(159,211,255,.5)"/>
<path d="M418.0 184.0 L445.0 168.6" class="lead"/>
<text x="418.0" y="184.0" text-anchor="middle" dominant-baseline="middle" class="label">Hip FR</text>
<rect x="154.0" y="256.0" width="56.0" height="56.0" rx="4" class="system" fill="rgba(10,38,44,.48)" stroke="rgba(137,255,168,.46)"/>
<path d="M182.0 284.0 L155.0 268.6" class="lead"/>
<text x="182.0" y="284.0" text-anchor="middle" dominant-baseline="middle" class="label">Hip RL</text>
<rect x="390.0" y="256.0" width="56.0" height="56.0" rx="4" class="system" fill="rgba(8,28,48,.62)" stroke="rgba(159,211,255,.5)"/>
<path d="M418.0 284.0 L445.0 268.6" class="lead"/>
<text x="418.0" y="284.0" text-anchor="middle" dominant-baseline="middle" class="label">Hip RR</text>
<rect x="168.0" y="212.0" width="28.0" height="82.0" rx="4" class="system" fill="rgba(10,38,44,.48)" stroke="rgba(137,255,168,.46)"/>
<path d="M182.0 253.0 L155.0 237.6" class="lead"/>
<text x="182.0" y="253.0" text-anchor="middle" dominant-baseline="middle" class="label">Thigh FL</text>
<rect x="404.0" y="212.0" width="28.0" height="82.0" rx="4" class="system" fill="rgba(8,28,48,.62)" stroke="rgba(159,211,255,.5)"/>
<path d="M418.0 253.0 L445.0 237.6" class="lead"/>
<text x="418.0" y="253.0" text-anchor="middle" dominant-baseline="middle" class="label">Thigh FR</text>
<rect x="158.0" y="284.0" width="48.0" height="48.0" rx="4" class="system" fill="rgba(10,38,44,.48)" stroke="rgba(137,255,168,.46)"/>
<path d="M182.0 308.0 L155.0 292.6" class="lead"/>
<text x="182.0" y="308.0" text-anchor="middle" dominant-baseline="middle" class="label">Knee FL</text>
<rect x="394.0" y="284.0" width="48.0" height="48.0" rx="4" class="system" fill="rgba(8,28,48,.62)" stroke="rgba(159,211,255,.5)"/>
<path d="M418.0 308.0 L445.0 292.6" class="lead"/>
<text x="418.0" y="308.0" text-anchor="middle" dominant-baseline="middle" class="label">Knee FR</text>
<rect x="168.0" y="332.0" width="28.0" height="78.0" rx="4" class="system" fill="rgba(10,38,44,.48)" stroke="rgba(137,255,168,.46)"/>
<path d="M182.0 371.0 L155.0 355.6" class="lead"/>
<text x="182.0" y="371.0" text-anchor="middle" dominant-baseline="middle" class="label">Shin FL</text>
<rect x="404.0" y="332.0" width="28.0" height="78.0" rx="4" class="system" fill="rgba(8,28,48,.62)" stroke="rgba(159,211,255,.5)"/>
<path d="M418.0 371.0 L445.0 355.6" class="lead"/>
<text x="418.0" y="371.0" text-anchor="middle" dominant-baseline="middle" class="label">Shin FR</text>
<rect x="266.0" y="162.0" width="68.0" height="114.0" rx="4" class="system" fill="rgba(10,38,44,.48)" stroke="rgba(137,255,168,.46)"/>
<path d="M300.0 219.0 L327.0 203.6" class="lead"/>
<text x="300.0" y="219.0" text-anchor="middle" dominant-baseline="middle" class="label">Spine</text>
<rect x="88.0" y="116.0" width="78.0" height="58.0" rx="4" class="system" fill="rgba(8,28,48,.62)" stroke="rgba(159,211,255,.5)"/>
<path d="M127.0 145.0 L100.0 129.6" class="lead"/>
<text x="127.0" y="145.0" text-anchor="middle" dominant-baseline="middle" class="label">Sensor Head</text>
<rect x="388.0" y="142.0" width="92.0" height="84.0" rx="4" class="system" fill="rgba(10,38,44,.48)" stroke="rgba(137,255,168,.46)"/>
<path d="M434.0 184.0 L461.0 168.6" class="lead"/>
<text x="434.0" y="184.0" text-anchor="middle" dominant-baseline="middle" class="label">Battery</text>
  <text x="300" y="428" text-anchor="middle" class="micro">AXIS 2 OF 3 · FUNCTIONAL STRUCTURE</text>
</svg>
