<svg xmlns="http://www.w3.org/2000/svg" viewBox="0 0 400 680">
  <rect width="400" height="680" fill="#050d18"/>
  <defs>
    <pattern id="g" width="20" height="20" patternUnits="userSpaceOnUse"><path d="M20 0 L0 0 0 20" fill="none" stroke="rgba(72,118,174,.13)" stroke-width=".45"/></pattern>
    <style>
      .skin{fill:rgba(8,28,48,.66);stroke:rgba(133,190,255,.88);stroke-width:1.15;vector-effect:non-scaling-stroke}
      .panel{fill:rgba(8,28,48,.36);stroke:rgba(133,190,255,.52);stroke-width:.65;vector-effect:non-scaling-stroke}
      .thin{fill:none;stroke:rgba(133,190,255,.28);stroke-width:.55;vector-effect:non-scaling-stroke}
      .cut{fill:none;stroke:rgba(133,190,255,.25);stroke-width:.55;stroke-dasharray:5 4;vector-effect:non-scaling-stroke}
      .engine{fill:none;stroke:rgba(137,255,168,.45);stroke-width:.8;vector-effect:non-scaling-stroke}
      .txt{font-family:ui-monospace,Menlo,Consolas,monospace;font-size:7px;letter-spacing:.1em;fill:rgba(230,236,245,.66)}
      .micro{font-family:ui-monospace,Menlo,Consolas,monospace;font-size:5.4px;letter-spacing:.1em;fill:rgba(118,169,232,.46)}
      .title{font-family:ui-monospace,Menlo,Consolas,monospace;font-size:8px;letter-spacing:.24em;fill:rgba(159,211,255,.68)}
    </style>
  </defs>
  <rect width="400" height="680" fill="url(#g)"/>
  <text x="16" y="22" class="title">EXTERIOR ELEVATION - SMALL LAUNCH VEHICLE</text>
  <text x="16" y="36" class="micro">SATURN V / MODERN SMALL LAUNCHER SILHOUETTE STUDY</text>
  <line x1="200" y1="48" x2="200" y2="628" class="cut"/>
  <path class="skin" d="M200 29 C184 40 171 58 162 80 C154 98 150 112 150 128 L150 154 L158 154 L158 234 L142 234 L142 274 L142 450 L154 450 L154 526 L136 610 L264 610 L246 526 L246 450 L258 450 L258 274 L258 234 L242 234 L242 154 L250 154 L250 128 C250 112 246 98 238 80 C229 58 216 40 200 29 Z"/>
  <path class="thin" d="M151 103 L249 103 M142 158 L258 158 M142 234 L258 234 M142 274 L258 274 M142 366 L258 366 M142 450 L258 450 M112 526 L288 526"/>
  <path class="panel" d="M151 103 C158 72 177 43 200 29 C223 43 242 72 249 103 Z"/>
  <rect x="142" y="116" width="116" height="42" class="panel"/>
  <rect x="152" y="158" width="96" height="76" class="panel"/>
  <rect x="142" y="234" width="116" height="40" class="panel"/>
  <rect x="142" y="274" width="116" height="176" class="panel"/>
  <path class="panel" d="M162 466 L238 466 L226 516 L174 516 Z"/>
  <polygon points="142,526 108,574 108,604 142,590" class="skin"/>
  <polygon points="258,526 292,574 292,604 258,590" class="skin"/>
  <path class="skin" d="M162 526 L238 526 L264 610 L136 610 Z"/>
  <ellipse cx="200" cy="562" rx="18" ry="26" class="engine"/>
  <ellipse cx="174" cy="584" rx="15" ry="22" class="engine"/>
  <ellipse cx="226" cy="584" rx="15" ry="22" class="engine"/>
  <ellipse cx="183" cy="552" rx="13" ry="17" class="engine"/>
  <ellipse cx="217" cy="552" rx="13" ry="17" class="engine"/>
  <text x="312" y="108" text-anchor="end" class="txt">FAIRING / IU STACK</text>
  <text x="312" y="260" text-anchor="end" class="txt">INTERSTAGE BAND</text>
  <text x="312" y="404" text-anchor="end" class="txt">BOOSTER BARREL</text>
  <text x="312" y="570" text-anchor="end" class="txt">FIN CAN / ENGINE BAY</text>
  <text x="200" y="660" text-anchor="middle" class="micro">AXIS 1 OF 3 - EXTERIOR FORM RECOGNITION</text>
</svg>
