<svg xmlns="http://www.w3.org/2000/svg" viewBox="0 0 400 700">
  <rect width="400" height="700" fill="#050d18"/>
  <defs>
    <pattern id="fine" width="16.5" height="16.5" patternUnits="userSpaceOnUse">
      <path d="M 16.5 0 L 0 0 0 16.5" fill="none" stroke="rgba(39,74,121,.08)" stroke-width=".4"/>
    </pattern>
    <pattern id="grid" width="33" height="33" patternUnits="userSpaceOnUse">
      <path d="M 33 0 L 0 0 0 33" fill="none" stroke="rgba(39,74,121,.16)" stroke-width=".55"/>
    </pattern>
    <style>
      .skin{fill:#081c30;stroke:rgba(100,160,240,.76);stroke-width:1.35;vector-effect:non-scaling-stroke}
      .panel{fill:rgba(100,160,240,.035);stroke:rgba(100,160,240,.36);stroke-width:.9;stroke-dasharray:5 4;vector-effect:non-scaling-stroke}
      .glass{fill:rgba(100,160,240,.055);stroke:rgba(100,160,240,.38);stroke-width:.9;vector-effect:non-scaling-stroke}
      .rotor{fill:#061625;stroke:rgba(100,160,240,.58);stroke-width:1.15;vector-effect:non-scaling-stroke}
      .nozzle{fill:#050d18;stroke:rgba(137,255,168,.48);stroke-width:1;vector-effect:non-scaling-stroke}
      .major{fill:none;stroke:rgba(100,160,240,.48);stroke-width:1.15;vector-effect:non-scaling-stroke}
      .minor,.minor *{fill:none;stroke:rgba(100,160,240,.22);stroke-width:.75;vector-effect:non-scaling-stroke}
      .station{fill:none;stroke:rgba(100,160,240,.085);stroke-width:.5;stroke-dasharray:3 8;vector-effect:non-scaling-stroke}
      .zonewire{fill:none;stroke:rgba(159,211,255,.28);stroke-width:.75;stroke-dasharray:6 4;vector-effect:non-scaling-stroke}
      .zonewire.alt{stroke:rgba(137,255,168,.18)}
      .rivet{fill:rgba(100,160,240,.24);stroke:none}
      .callout-line{fill:none;stroke:rgba(159,211,255,.3);stroke-width:.65;stroke-dasharray:4 3;vector-effect:non-scaling-stroke}
      .callout{font-family:ui-monospace,Menlo,Consolas,monospace;font-size:7px;letter-spacing:.1em;fill:rgba(230,236,245,.58)}
      .thrust-arc{fill:none;stroke:rgba(137,255,168,.25);stroke-width:.75;stroke-dasharray:5 4;vector-effect:non-scaling-stroke}
      .title{font-family:ui-monospace,Menlo,Consolas,monospace;font-size:8px;letter-spacing:.28em;fill:rgba(159,211,255,.5)}
      .micro{font-family:ui-monospace,Menlo,Consolas,monospace;font-size:6px;letter-spacing:.16em;fill:rgba(100,160,240,.32)}
      .dim{fill:none;stroke:rgba(100,160,240,.18);stroke-width:.55;vector-effect:non-scaling-stroke}
    </style>
  </defs>
  <rect width="400" height="700" fill="url(#fine)"/>
  <rect width="400" height="700" fill="url(#grid)"/>
  <text x="18" y="20" class="title">PLAN VIEW · SOLID ROCKET MOTOR</text>
  <line x1="200" y1="26" x2="200" y2="668" class="dim" stroke-dasharray="8 6"/>
  <g transform="scale(0.57143 1.66667)"><rect x="292" y="58" width="116" height="250" rx="30" class="skin"/><path d="M292 308 L234 380 L466 380 L408 308 Z" class="skin"/><path d="M314 78 L386 78 M292 132 L408 132 M292 206 L408 206 M292 276 L408 276" class="minor"/><path d="M322 102 C370 132 322 162 370 192 C322 222 370 252 322 282" class="panel"/><ellipse cx="350" cy="344" rx="34" ry="18" class="nozzle"/><ellipse cx="310" cy="356" rx="17" ry="11" class="nozzle"/><ellipse cx="390" cy="356" rx="17" ry="11" class="nozzle"/></g>
  <g class="detail-layer">
    <line x1="72.0" y1="112.5" x2="328.0" y2="112.5" class="station"/>
<line x1="72.0" y1="191.0" x2="328.0" y2="191.0" class="station"/>
<line x1="72.0" y1="269.5" x2="328.0" y2="269.5" class="station"/>
<line x1="72.0" y1="348.0" x2="328.0" y2="348.0" class="station"/>
<line x1="72.0" y1="426.5" x2="328.0" y2="426.5" class="station"/>
<line x1="72.0" y1="505.0" x2="328.0" y2="505.0" class="station"/>
<line x1="72.0" y1="583.5" x2="328.0" y2="583.5" class="station"/>
    <rect x="138" y="38" width="124" height="48" rx="2" class="zonewire"/>
<rect x="108" y="86" width="184" height="438" rx="2" class="zonewire alt"/>
<rect x="128" y="106" width="144" height="398" rx="2" class="zonewire"/>
<rect x="118" y="106" width="24" height="398" rx="2" class="zonewire alt"/>
<circle cx="200" cy="128" r="22" class="zonewire"/>
<circle cx="200" cy="524" r="28" class="zonewire alt"/>
<rect x="138" y="524" width="124" height="48" rx="2" class="zonewire"/>
<polygon points="158,572 242,572 262,628 138,628" class="zonewire alt"/>
    <circle cx="138.0" cy="38.0" r="1.4" class="rivet"/>
<circle cx="138.0" cy="86.0" r="1.4" class="rivet"/>
<circle cx="200.0" cy="38.0" r="1.4" class="rivet"/>
<circle cx="292.0" cy="86.0" r="1.4" class="rivet"/>
<circle cx="292.0" cy="524.0" r="1.4" class="rivet"/>
<circle cx="200.0" cy="524.0" r="1.4" class="rivet"/>
<circle cx="128.0" cy="106.0" r="1.4" class="rivet"/>
<circle cx="128.0" cy="504.0" r="1.4" class="rivet"/>
<circle cx="200.0" cy="106.0" r="1.4" class="rivet"/>
<circle cx="142.0" cy="106.0" r="1.4" class="rivet"/>
<circle cx="142.0" cy="504.0" r="1.4" class="rivet"/>
<circle cx="130.0" cy="504.0" r="1.4" class="rivet"/>
<circle cx="178.0" cy="106.0" r="1.4" class="rivet"/>
<circle cx="178.0" cy="150.0" r="1.4" class="rivet"/>
<circle cx="200.0" cy="106.0" r="1.4" class="rivet"/>
<circle cx="228.0" cy="496.0" r="1.4" class="rivet"/>
<circle cx="228.0" cy="552.0" r="1.4" class="rivet"/>
<circle cx="200.0" cy="552.0" r="1.4" class="rivet"/>
<circle cx="138.0" cy="524.0" r="1.4" class="rivet"/>
<circle cx="138.0" cy="572.0" r="1.4" class="rivet"/>
<circle cx="200.0" cy="524.0" r="1.4" class="rivet"/>
<circle cx="262.0" cy="572.0" r="1.4" class="rivet"/>
<circle cx="262.0" cy="628.0" r="1.4" class="rivet"/>
<circle cx="200.0" cy="628.0" r="1.4" class="rivet"/>
    <path d="M200.0 62.0 L228.0 44.0 L382.0 44.0" class="callout-line"/>
<text x="382" y="41" text-anchor="end" class="callout">Fwd Closure</text>
<path d="M200.0 305.0 L228.0 96.0 L382.0 96.0" class="callout-line"/>
<text x="382" y="93" text-anchor="end" class="callout">Motor Case</text>
<path d="M200.0 305.0 L228.0 148.0 L382.0 148.0" class="callout-line"/>
<text x="382" y="145" text-anchor="end" class="callout">Propellant Grain</text>
<path d="M130.0 305.0 L102.0 44.0 L18.0 44.0" class="callout-line"/>
<text x="18" y="41" text-anchor="start" class="callout">Insulation</text>
<path d="M200.0 128.0 L228.0 96.0 L382.0 96.0" class="callout-line"/>
<text x="382" y="93" text-anchor="end" class="callout">Igniter</text>
<path d="M200.0 524.0 L228.0 148.0 L382.0 148.0" class="callout-line"/>
<text x="382" y="145" text-anchor="end" class="callout">TVC Flex Joint</text>
    <text x="376" y="126" text-anchor="end" class="micro">STAGE DATUM · INTERTANK · ENGINE CLUSTER</text>
<path d="M136 574 Q200 532 264 574" class="thrust-arc"/>
  </g>
  <line x1="40" y1="672" x2="360" y2="672" class="dim"/>
  <line x1="40" y1="668" x2="40" y2="676" class="dim"/>
  <line x1="360" y1="668" x2="360" y2="676" class="dim"/>
  <text x="200" y="685" text-anchor="middle" class="micro">OVERLAY-READY · Cross-Section (Vertical) · 8 ZONES</text>
</svg>
