<svg xmlns="http://www.w3.org/2000/svg" viewBox="0 0 500 700">
  <rect width="500" height="700" fill="#050d18"/>
  <defs><pattern id="g" width="20" height="20" patternUnits="userSpaceOnUse"><path d="M20 0H0V20" fill="none" stroke="rgba(72,118,174,.13)" stroke-width=".45"/></pattern><style>.skin{fill:rgba(8,28,48,.38);stroke:rgba(133,190,255,.65);stroke-width:.9}.sys{fill:rgba(8,28,48,.68);stroke:rgba(137,255,168,.52);stroke-width:.85}.mirror{fill:rgba(8,28,48,.55);stroke:rgba(137,255,168,.58);stroke-width:.9}.thin{fill:none;stroke:rgba(133,190,255,.28);stroke-width:.55}.flow{fill:none;stroke:rgba(137,255,168,.36);stroke-width:.7;stroke-dasharray:5 4}.txt{font-family:ui-monospace,Menlo,Consolas,monospace;font-size:8px;letter-spacing:.14em;fill:rgba(230,236,245,.72)}.micro{font-family:ui-monospace,Menlo,Consolas,monospace;font-size:5.5px;letter-spacing:.1em;fill:rgba(118,169,232,.58)}</style></defs>
  <rect width="500" height="700" fill="url(#g)"/>
  <text x="18" y="24" class="txt">INTERNAL AXIS - HUBBLE-CLASS SPACE TELESCOPE</text>
  <text x="18" y="38" class="micro">MIRROR CELL - METERING BENCH - EQUIPMENT SECTION - POINTING CONTROL - AXIAL BAY</text>
  <rect x="152" y="84" width="196" height="208" rx="12" class="skin"/>
  <rect x="138" y="48" width="224" height="36" rx="6" class="sys"/>
  <circle cx="250" cy="188" r="88" class="mirror"/>
  <circle cx="250" cy="148" r="28" class="sys"/>
  <path class="flow" d="M250 148 C214 168 206 208 250 248 C294 208 286 168 250 148M250 176 V292"/>
  <path class="thin" d="M176 104 L324 272M324 104 L176 272M152 188 H348"/>
  <rect x="172" y="112" width="156" height="158" rx="8" class="skin"/>
  <rect x="152" y="292" width="196" height="164" rx="10" class="sys"/>
  <rect x="172" y="314" width="54" height="40" rx="5" class="skin"/><rect x="236" y="314" width="42" height="40" rx="5" class="skin"/><rect x="288" y="314" width="42" height="40" rx="5" class="skin"/>
  <circle cx="250" cy="374" r="36" class="sys"/>
  <rect x="172" y="456" width="156" height="84" rx="8" class="sys"/>
  <path class="thin" d="M192 478 H308M192 502 H308M210 456 V540M250 456 V540M290 456 V540"/>
  <text x="132" y="650" class="micro">24-POINT MIRROR SUPPORT - NEAR-ZERO CTE BENCH - MODULAR INSTRUMENT SLOTS</text>
</svg>
