<svg xmlns="http://www.w3.org/2000/svg" viewBox="0 0 420 300"><rect width="420" height="300" fill="#050d18"/><defs><pattern id="g" width="20" height="20" patternUnits="userSpaceOnUse"><path d="M20 0 L0 0 0 20" fill="none" stroke="rgba(72,118,174,.14)" stroke-width=".45"/></pattern><style>.skin{fill:rgba(8,28,48,.72);stroke:rgba(133,190,255,.86);stroke-width:1.2}.pcb{fill:rgba(4,24,12,.8);stroke:rgba(80,200,120,.58);stroke-width:.9}.detail{fill:none;stroke:rgba(133,190,255,.36);stroke-width:.7}.hot{fill:none;stroke:rgba(137,255,168,.55);stroke-width:.85}.txt{font-family:ui-monospace,Consolas,monospace;font-size:8px;letter-spacing:.12em;fill:rgba(230,236,245,.68)}.micro{font-family:ui-monospace,Consolas,monospace;font-size:6px;letter-spacing:.12em;fill:rgba(118,169,232,.5)}</style></defs><rect width="420" height="300" fill="url(#g)"/><text x="16" y="22" class="txt">P1 CENTRAL HUB PLATE (DUAL-DECK)</text><text x="16" y="36" class="micro">4-ARM MOUNT 90 DEG - GIMBAL INTERFACE BOTTOM - ISOLATOR PADS - CFRP</text><circle cx="210" cy="150" r="110" class="skin"/><circle cx="210" cy="150" r="92" fill="#050d18" stroke="rgba(133,190,255,.5)" stroke-width=".7"/><circle cx="210" cy="150" r="44" class="skin"/><circle cx="210" cy="150" r="30" fill="#050d18" stroke="rgba(133,190,255,.7)" stroke-width="1"/><rect x="190" y="40" width="40" height="50" rx="4" class="detail" stroke-dasharray="4 3"/><rect x="190" y="210" width="40" height="50" rx="4" class="detail" stroke-dasharray="4 3"/><rect x="40" y="130" width="50" height="40" rx="4" class="detail" stroke-dasharray="4 3"/><rect x="330" y="130" width="50" height="40" rx="4" class="detail" stroke-dasharray="4 3"/><circle cx="210" cy="68" r="10" fill="rgba(30,40,10,.8)" stroke="rgba(137,255,168,.45)" stroke-width=".8"/><circle cx="342" cy="150" r="10" fill="rgba(30,40,10,.8)" stroke="rgba(137,255,168,.45)" stroke-width=".8"/><circle cx="210" cy="232" r="10" fill="rgba(30,40,10,.8)" stroke="rgba(137,255,168,.45)" stroke-width=".8"/><circle cx="78" cy="150" r="10" fill="rgba(30,40,10,.8)" stroke="rgba(137,255,168,.45)" stroke-width=".8"/><circle cx="210" cy="150" r="18" class="hot" stroke-dasharray="5 3"/><path d="M 320 80 L 370 52 L 404 52" class="detail"/><text x="404" y="49" class="micro" text-anchor="end">ARM FOLD MOUNT x4</text><path d="M 228 150 L 370 120 L 404 120" class="hot"/><text x="404" y="117" class="micro" text-anchor="end">GIMBAL INTERFACE (BOTTOM)</text><text x="16" y="278" class="micro">CFRP DUAL-DECK - 650x650 MM WB - MASS ~280 g</text></svg>
