<svg xmlns="http://www.w3.org/2000/svg" viewBox="0 0 420 300"><rect width="420" height="300" fill="#050d18"/><defs><pattern id="g" width="20" height="20" patternUnits="userSpaceOnUse"><path d="M20 0 L0 0 0 20" fill="none" stroke="rgba(72,118,174,.14)" stroke-width=".45"/></pattern><style>.skin{fill:rgba(8,28,48,.72);stroke:rgba(133,190,255,.86);stroke-width:1.2}.pcb{fill:rgba(4,24,12,.8);stroke:rgba(80,200,120,.58);stroke-width:.9}.detail{fill:none;stroke:rgba(133,190,255,.36);stroke-width:.7}.hot{fill:none;stroke:rgba(137,255,168,.55);stroke-width:.85}.txt{font-family:ui-monospace,Consolas,monospace;font-size:8px;letter-spacing:.12em;fill:rgba(230,236,245,.68)}.micro{font-family:ui-monospace,Consolas,monospace;font-size:6px;letter-spacing:.12em;fill:rgba(118,169,232,.5)}</style></defs><rect width="420" height="300" fill="url(#g)"/><text x="16" y="22" class="txt">P4 LANDING GEAR STRUT x2</text><text x="16" y="36" class="micro">RETRACTABLE CFRP STRUT 400 mm - SERVO RETRACT - GROUND CLEAR 250 mm</text><rect x="88" y="60" width="30" height="200" rx="6" class="skin"/><rect x="302" y="60" width="30" height="200" rx="6" class="skin"/><rect x="110" y="220" width="200" height="18" rx="4" class="skin"/><rect x="96" y="246" width="228" height="14" rx="4" class="detail" stroke-dasharray="4 3"/><line x1="88" y1="80" x2="302" y2="80" class="detail" stroke-dasharray="5 4"/><line x1="88" y1="120" x2="302" y2="120" class="detail" stroke-dasharray="5 4"/><line x1="88" y1="160" x2="302" y2="160" class="detail" stroke-dasharray="5 4"/><rect x="118" y="68" width="32" height="28" rx="3" fill="rgba(20,40,20,.8)" stroke="rgba(137,255,168,.45)" stroke-width=".8"/><rect x="270" y="68" width="32" height="28" rx="3" fill="rgba(20,40,20,.8)" stroke="rgba(137,255,168,.45)" stroke-width=".8"/><line x1="140" y1="68" x2="140" y2="96" class="hot"/><line x1="280" y1="68" x2="280" y2="96" class="hot"/><path d="M 302 70 L 370 40 L 404 40" class="detail"/><text x="404" y="37" class="micro" text-anchor="end">CFRP STRUT L=400 mm</text><path d="M 302 240 L 370 260 L 404 260" class="detail"/><text x="404" y="257" class="micro" text-anchor="end">SKID FOOT PAD (TPU)</text><path d="M 150 68 L 80 32 L 18 32" class="hot"/><text x="18" y="29" class="micro">SERVO RETRACT HINGE</text></svg>
