<svg xmlns="http://www.w3.org/2000/svg" viewBox="0 0 420 300"><rect width="420" height="300" fill="#050d18"/><defs><pattern id="g" width="20" height="20" patternUnits="userSpaceOnUse"><path d="M20 0 L0 0 0 20" fill="none" stroke="rgba(72,118,174,.14)" stroke-width=".45"/></pattern><style>.skin{fill:rgba(8,28,48,.72);stroke:rgba(133,190,255,.86);stroke-width:1.2}.pcb{fill:rgba(4,24,12,.8);stroke:rgba(80,200,120,.58);stroke-width:.9}.detail{fill:none;stroke:rgba(133,190,255,.36);stroke-width:.7}.hot{fill:none;stroke:rgba(137,255,168,.55);stroke-width:.85}.txt{font-family:ui-monospace,Consolas,monospace;font-size:8px;letter-spacing:.12em;fill:rgba(230,236,245,.68)}.micro{font-family:ui-monospace,Consolas,monospace;font-size:6px;letter-spacing:.12em;fill:rgba(118,169,232,.5)}</style></defs><rect width="420" height="300" fill="url(#g)"/><text x="16" y="22" class="txt">P6 BATTERY TRAY (DUAL HOT-SWAP)</text><text x="16" y="36" class="micro">DUAL 6S 10000 mAh RAILS - XT90 ANTI-SPARK - COOLING SLOTS</text><rect x="58" y="78" width="304" height="144" rx="6" class="skin"/><rect x="58" y="110" width="304" height="80" rx="4" fill="#050d18" stroke="rgba(133,190,255,.4)" stroke-width=".6"/><rect x="74" y="118" width="130" height="64" rx="3" fill="rgba(30,10,5,.6)" stroke="rgba(200,100,60,.45)" stroke-width=".7"/><rect x="216" y="118" width="130" height="64" rx="3" fill="rgba(30,10,5,.6)" stroke="rgba(200,100,60,.45)" stroke-width=".7"/><text x="139" y="154" class="micro" text-anchor="middle" fill="rgba(200,100,60,.7)">6S 10000 mAh</text><text x="281" y="154" class="micro" text-anchor="middle" fill="rgba(200,100,60,.7)">6S 10000 mAh</text><rect x="58" y="78" width="44" height="32" rx="3" class="skin"/><circle cx="80" cy="94" r="12" class="hot"/><rect x="318" y="78" width="44" height="32" rx="3" class="skin"/><circle cx="340" cy="94" r="12" class="hot"/><line x1="74" y1="112" x2="74" y2="200" class="detail"/><line x1="200" y1="112" x2="200" y2="200" class="detail"/><line x1="346" y1="112" x2="346" y2="200" class="detail"/><path d="M 80 78 L 60 44 L 18 44" class="hot"/><text x="18" y="41" class="micro">XT90 ANTI-SPARK L</text><path d="M 340 78 L 380 44 L 404 44" class="hot"/><text x="404" y="41" class="micro" text-anchor="end">XT90 ANTI-SPARK R</text><path d="M 200 100 L 200 60 L 18 60" class="detail"/><text x="18" y="57" class="micro">HOT-SWAP GUIDE RAIL</text><text x="16" y="278" class="micro">DUAL 6S - 20 AH TOTAL - 22.2 V NOM - HOT-SWAP CAPABLE</text></svg>
