<svg xmlns="http://www.w3.org/2000/svg" viewBox="0 0 420 300"><rect width="420" height="300" fill="#050d18"/><defs><pattern id="g" width="20" height="20" patternUnits="userSpaceOnUse"><path d="M20 0L0 0 0 20" fill="none" stroke="rgba(39,74,121,.13)" stroke-width=".4"/></pattern><style>.sk{fill:#081c30;stroke:rgba(100,160,240,.78);stroke-width:1.3;vector-effect:non-scaling-stroke}.pa{fill:rgba(100,160,240,.04);stroke:rgba(100,160,240,.38);stroke-width:.85;stroke-dasharray:5 4;vector-effect:non-scaling-stroke}.ma{fill:none;stroke:rgba(100,160,240,.5);stroke-width:1.1;vector-effect:non-scaling-stroke}.mi{fill:none;stroke:rgba(100,160,240,.22);stroke-width:.7;vector-effect:non-scaling-stroke}.nz{fill:#050d18;stroke:rgba(137,255,168,.45);stroke-width:1;vector-effect:non-scaling-stroke}.cl{fill:none;stroke:rgba(159,211,255,.3);stroke-width:.6;stroke-dasharray:4 3;vector-effect:non-scaling-stroke}.ct{font-family:ui-monospace,monospace;font-size:7px;fill:rgba(230,236,245,.6)}.ti{font-family:ui-monospace,monospace;font-size:7.5px;letter-spacing:.22em;fill:rgba(159,211,255,.52)}.mc{font-family:ui-monospace,monospace;font-size:5.5px;fill:rgba(100,160,240,.32)}.rv{fill:rgba(100,160,240,.25);stroke:none}</style></defs><rect width="420" height="300" fill="url(#g)"/><text x="14" y="18" class="ti">WHEEL HUB ×6 · CLEATED · HUB MOTOR</text>
<circle cx="210" cy="148" r="80" class="sk"/>
<circle cx="210" cy="148" r="68" class="pa"/>
<circle cx="210" cy="148" r="28" class="nz"/>
<circle cx="210" cy="148" r="12" class="sk"/>
<g class="mi">
  <line x1="210" y1="68" x2="210" y2="56"/>
  <line x1="247" y1="81" x2="258" y2="70"/>
  <line x1="268" y1="120" x2="278" y2="114"/>
  <line x1="290" y1="148" x2="302" y2="148"/>
  <line x1="268" y1="176" x2="278" y2="182"/>
  <line x1="247" y1="215" x2="258" y2="226"/>
  <line x1="210" y1="228" x2="210" y2="240"/>
  <line x1="173" y1="215" x2="162" y2="226"/>
  <line x1="152" y1="176" x2="142" y2="182"/>
  <line x1="128" y1="148" x2="118" y2="148"/>
  <line x1="152" y1="120" x2="142" y2="114"/>
  <line x1="173" y1="81" x2="162" y2="70"/>
</g>
<g class="ma">
  <path d="M210 68 Q228 62 248 68"/>
  <path d="M248 68 Q268 80 278 100"/>
  <path d="M278 100 Q290 120 290 148"/>
  <path d="M290 148 Q290 176 278 196"/>
</g>
<text x="210" y="148" text-anchor="middle" class="mc" font-size="5">CLEAT</text>
<circle cx="210" cy="148" r="48" class="mi"/>
<path d="M210 56 L240 22 L380 22" class="cl"/><text x="382" y="19" text-anchor="start" class="ct">Cleated Tread (soft terrain)</text>
<path d="M290 148 L340 108 L406 108" class="cl"/><text x="406" y="105" text-anchor="end" class="ct">Hub Motor + Reduction</text>
<path d="M210 136 L180 200 L14 200" class="cl"/><text x="12" y="197" text-anchor="end" class="ct">Suspension Pivot Bearing</text>
<path d="M210 68 L210 232 L360 232" class="cl"/><text x="362" y="229" text-anchor="start" class="ct">Force Sensor (ground contact)</text>
<text x="210" y="290" text-anchor="middle" class="mc">SIDE VIEW · WHEEL HUB Ø300mm · ×6 DRIVEN</text>
</svg>