<svg xmlns="http://www.w3.org/2000/svg" viewBox="0 0 420 300"><rect width="420" height="300" fill="#050d18"/><defs><pattern id="g" width="20" height="20" patternUnits="userSpaceOnUse"><path d="M20 0L0 0 0 20" fill="none" stroke="rgba(39,74,121,.13)" stroke-width=".4"/></pattern><style>.sk{fill:#081c30;stroke:rgba(100,160,240,.78);stroke-width:1.3;vector-effect:non-scaling-stroke}.pa{fill:rgba(100,160,240,.04);stroke:rgba(100,160,240,.38);stroke-width:.85;stroke-dasharray:5 4;vector-effect:non-scaling-stroke}.ma{fill:none;stroke:rgba(100,160,240,.5);stroke-width:1.1;vector-effect:non-scaling-stroke}.mi{fill:none;stroke:rgba(100,160,240,.22);stroke-width:.7;vector-effect:non-scaling-stroke}.nz{fill:#050d18;stroke:rgba(137,255,168,.45);stroke-width:1;vector-effect:non-scaling-stroke}.cl{fill:none;stroke:rgba(159,211,255,.3);stroke-width:.6;stroke-dasharray:4 3;vector-effect:non-scaling-stroke}.ct{font-family:ui-monospace,monospace;font-size:7px;fill:rgba(230,236,245,.6)}.ti{font-family:ui-monospace,monospace;font-size:7.5px;letter-spacing:.22em;fill:rgba(159,211,255,.52)}.mc{font-family:ui-monospace,monospace;font-size:5.5px;fill:rgba(100,160,240,.32)}.rv{fill:rgba(100,160,240,.25);stroke:none}</style></defs><rect width="420" height="300" fill="url(#g)"/><text x="12" y="16" class="ti">CAMERA DOME (FRONT)</text>
<text x="12" y="26" class="mc">HEMISPHERICAL ACRYLIC DOME · Ø100mm · FLANGE DOUBLE O-RING · ANTI-FOG</text>
<!-- dome hemisphere profile -->
<path d="M110 200 Q110 80 210 80 Q310 80 310 200 Z" class="sk"/>
<!-- dome inner surface (anti-fog layer) -->
<path d="M118 200 Q118 90 210 90 Q302 90 302 200 Z" class="pa"/>
<!-- flange ring at base -->
<rect x="90" y="196" width="240" height="26" rx="4" class="sk"/>
<!-- O-ring grooves (double) -->
<rect x="100" y="200" width="220" height="5" rx="1" class="nz"/>
<rect x="100" y="210" width="220" height="5" rx="1" class="nz"/>
<!-- camera inside dome -->
<rect x="175" y="130" width="70" height="50" rx="6" class="pa"/>
<circle cx="210" cy="155" r="20" class="mi"/>
<circle cx="210" cy="155" r="12" class="nz"/>
<!-- bolt holes on flange -->
<circle cx="110" cy="209" r="5" class="pa"/>
<circle cx="145" cy="209" r="5" class="pa"/>
<circle cx="210" cy="209" r="5" class="pa"/>
<circle cx="275" cy="209" r="5" class="pa"/>
<circle cx="310" cy="209" r="5" class="pa"/>
<!-- anti-fog indication arc -->
<path d="M140 120 Q210 100 280 120" class="mi"/>
<!-- callouts -->
<line x1="210" y1="80" x2="320" y2="48" class="cl"/><text x="322" y="46" class="ct">Acrylic Dome Ø100mm</text>
<line x1="302" y1="140" x2="380" y2="120" class="cl"/><text x="382" y="118" class="ct">Anti-Fog Coating</text>
<line x1="210" y1="140" x2="350" y2="155" class="cl"/><text x="352" y="153" class="ct">Camera Housing</text>
<line x1="100" y1="205" x2="30" y2="195" class="cl"/><text x="10" y="193" class="ct">Double O-ring Seal</text>
<line x1="160" y1="222" x2="60" y2="240" class="cl"/><text x="10" y="238" class="ct">M4 Flange Bolt x6</text>
<text x="210" y="292" text-anchor="middle" class="mc">ROV INSPECTION · P4 CAMERA DOME · ACRYLIC · Ø100 · DBL O-RING</text>
</svg>