<svg xmlns="http://www.w3.org/2000/svg" width="373" height="303" viewBox="0 0 373 303"><rect width="100%" height="100%" fill="#f7f9fb"/><rect width="100%" height="100%" fill="#0a1626"/><text x="40" y="24" font-size="13" fill="#9fd3ff" font-weight="bold">cubesat_serviceability_redesign_v1 rev 1.0 · PETG · 127 parts · 배치 투영도</text><rect x="40" y="56" width="58" height="58" fill="#0c1e35" stroke="#274a79"/><text x="40" y="50" font-size="12" fill="#9fd3ff" font-weight="bold">TOP (X-Y)</text><rect x="90.9" y="58.5" width="4.4" height="4.4" fill="#ffd39f" fill-opacity="0.18" stroke="#ffd39f" stroke-width="0.8"/><rect x="88.7" y="62.9" width="2.2" height="2.2" fill="#ffd39f" fill-opacity="0.18" stroke="#ffd39f" stroke-width="0.8"/><rect x="90.9" y="106.9" width="4.4" height="4.4" fill="#ffd39f" fill-opacity="0.18" stroke="#ffd39f" stroke-width="0.8"/><rect x="88.7" y="104.7" width="2.2" height="2.2" fill="#ffd39f" fill-opacity="0.18" stroke="#ffd39f" stroke-width="0.8"/><rect x="42.5" y="58.5" width="4.4" height="4.4" fill="#ffd39f" fill-opacity="0.18" stroke="#ffd39f" stroke-width="0.8"/><rect x="46.9" y="62.9" width="2.2" height="2.2" fill="#ffd39f" fill-opacity="0.18" stroke="#ffd39f" stroke-width="0.8"/><rect x="42.5" y="106.9" width="4.4" height="4.4" fill="#ffd39f" fill-opacity="0.18" stroke="#ffd39f" stroke-width="0.8"/><rect x="46.9" y="104.7" width="2.2" height="2.2" fill="#ffd39f" fill-opacity="0.18" stroke="#ffd39f" stroke-width="0.8"/><rect x="44.1" y="60.1" width="49.5" height="49.5" fill="#ffd39f" fill-opacity="0.18" stroke="#ffd39f" stroke-width="0.8"/><rect x="44.1" y="60.1" width="49.5" height="49.5" fill="#ffd39f" fill-opacity="0.18" stroke="#ffd39f" stroke-width="0.8"/><rect x="44.1" y="60.1" width="49.5" height="49.5" fill="#ffd39f" fill-opacity="0.18" stroke="#ffd39f" stroke-width="0.8"/><rect x="94.9" y="59.6" width="0.8" height="50.6" fill="#89ffa8" fill-opacity="0.18" stroke="#89ffa8" stroke-width="0.8"/><rect x="95.7" y="102.2" width="0.4" height="6.6" fill="#89ffa8" fill-opacity="0.18" stroke="#89ffa8" stroke-width="0.8"/><rect x="95.7" y="102.2" width="0.4" height="6.6" fill="#89ffa8" fill-opacity="0.18" stroke="#89ffa8" stroke-width="0.8"/><rect x="95.7" y="102.2" width="0.4" height="6.6" fill="#89ffa8" fill-opacity="0.18" stroke="#89ffa8" stroke-width="0.8"/><rect x="95.7" y="102.2" width="0.4" height="6.6" fill="#89ffa8" fill-opacity="0.18" stroke="#89ffa8" stroke-width="0.8"/><rect x="95.7" y="102.2" width="0.4" height="6.6" fill="#89ffa8" fill-opacity="0.18" stroke="#89ffa8" stroke-width="0.8"/><rect x="95.7" y="102.2" width="0.4" height="6.6" fill="#89ffa8" fill-opacity="0.18" stroke="#89ffa8" stroke-width="0.8"/><rect x="95.7" y="94.0" width="0.4" height="6.6" fill="#89ffa8" fill-opacity="0.18" stroke="#89ffa8" stroke-width="0.8"/><rect x="95.7" y="94.0" width="0.4" height="6.6" fill="#89ffa8" fill-opacity="0.18" stroke="#89ffa8" stroke-width="0.8"/><rect x="95.7" y="94.0" width="0.4" height="6.6" fill="#89ffa8" fill-opacity="0.18" stroke="#89ffa8" stroke-width="0.8"/><rect x="95.7" y="94.0" width="0.4" height="6.6" fill="#89ffa8" fill-opacity="0.18" stroke="#89ffa8" stroke-width="0.8"/><rect x="95.7" y="94.0" width="0.4" height="6.6" fill="#89ffa8" fill-opacity="0.18" stroke="#89ffa8" stroke-width="0.8"/><rect x="95.7" y="94.0" width="0.4" height="6.6" fill="#89ffa8" fill-opacity="0.18" stroke="#89ffa8" stroke-width="0.8"/><rect x="95.7" y="85.7" width="0.4" height="6.6" fill="#89ffa8" fill-opacity="0.18" stroke="#89ffa8" stroke-width="0.8"/><rect x="95.7" y="85.7" width="0.4" height="6.6" fill="#89ffa8" fill-opacity="0.18" stroke="#89ffa8" stroke-width="0.8"/><rect x="95.7" y="85.7" width="0.4" height="6.6" fill="#89ffa8" fill-opacity="0.18" stroke="#89ffa8" stroke-width="0.8"/><rect x="95.7" y="85.7" width="0.4" height="6.6" fill="#89ffa8" fill-opacity="0.18" stroke="#89ffa8" stroke-width="0.8"/><rect x="95.7" y="85.7" width="0.4" height="6.6" fill="#89ffa8" fill-opacity="0.18" stroke="#89ffa8" stroke-width="0.8"/><rect x="95.7" y="85.7" width="0.4" height="6.6" fill="#89ffa8" fill-opacity="0.18" stroke="#89ffa8" stroke-width="0.8"/><rect x="95.7" y="77.5" width="0.4" height="6.6" fill="#89ffa8" fill-opacity="0.18" stroke="#89ffa8" stroke-width="0.8"/><rect x="95.7" y="77.5" width="0.4" height="6.6" fill="#89ffa8" fill-opacity="0.18" stroke="#89ffa8" stroke-width="0.8"/><rect x="95.7" y="77.5" width="0.4" height="6.6" fill="#89ffa8" fill-opacity="0.18" stroke="#89ffa8" stroke-width="0.8"/><rect x="95.7" y="77.5" width="0.4" height="6.6" fill="#89ffa8" fill-opacity="0.18" stroke="#89ffa8" stroke-width="0.8"/><rect x="95.7" y="77.5" width="0.4" height="6.6" fill="#89ffa8" fill-opacity="0.18" stroke="#89ffa8" stroke-width="0.8"/><rect x="95.7" y="77.5" width="0.4" height="6.6" fill="#89ffa8" fill-opacity="0.18" stroke="#89ffa8" stroke-width="0.8"/><rect x="95.7" y="69.2" width="0.4" height="6.6" fill="#89ffa8" fill-opacity="0.18" stroke="#89ffa8" stroke-width="0.8"/><rect x="95.7" y="69.2" width="0.4" height="6.6" fill="#89ffa8" fill-opacity="0.18" stroke="#89ffa8" stroke-width="0.8"/><rect x="95.7" y="69.2" width="0.4" height="6.6" fill="#89ffa8" fill-opacity="0.18" stroke="#89ffa8" stroke-width="0.8"/><rect x="95.7" y="69.2" width="0.4" height="6.6" fill="#89ffa8" fill-opacity="0.18" stroke="#89ffa8" stroke-width="0.8"/><rect x="95.7" y="69.2" width="0.4" height="6.6" fill="#89ffa8" fill-opacity="0.18" stroke="#89ffa8" stroke-width="0.8"/><rect x="95.7" y="69.2" width="0.4" height="6.6" fill="#89ffa8" fill-opacity="0.18" stroke="#89ffa8" stroke-width="0.8"/><rect x="95.7" y="61.0" width="0.4" height="6.6" fill="#89ffa8" fill-opacity="0.18" stroke="#89ffa8" stroke-width="0.8"/><rect x="95.7" y="61.0" width="0.4" height="6.6" fill="#89ffa8" fill-opacity="0.18" stroke="#89ffa8" stroke-width="0.8"/><rect x="95.7" y="61.0" width="0.4" height="6.6" fill="#89ffa8" fill-opacity="0.18" stroke="#89ffa8" stroke-width="0.8"/><rect x="95.7" y="61.0" width="0.4" height="6.6" fill="#89ffa8" fill-opacity="0.18" stroke="#89ffa8" stroke-width="0.8"/><rect x="95.7" y="61.0" width="0.4" height="6.6" fill="#89ffa8" fill-opacity="0.18" stroke="#89ffa8" stroke-width="0.8"/><rect x="95.7" y="61.0" width="0.4" height="6.6" fill="#89ffa8" fill-opacity="0.18" stroke="#89ffa8" stroke-width="0.8"/><rect x="42.1" y="59.6" width="0.8" height="50.6" fill="#89ffa8" fill-opacity="0.18" stroke="#89ffa8" stroke-width="0.8"/><rect x="41.6" y="102.2" width="0.4" height="6.6" fill="#89ffa8" fill-opacity="0.18" stroke="#89ffa8" stroke-width="0.8"/><rect x="41.6" y="102.2" width="0.4" height="6.6" fill="#89ffa8" fill-opacity="0.18" stroke="#89ffa8" stroke-width="0.8"/><rect x="41.6" y="102.2" width="0.4" height="6.6" fill="#89ffa8" fill-opacity="0.18" stroke="#89ffa8" stroke-width="0.8"/><rect x="41.6" y="102.2" width="0.4" height="6.6" fill="#89ffa8" fill-opacity="0.18" stroke="#89ffa8" stroke-width="0.8"/><rect x="41.6" y="102.2" width="0.4" height="6.6" fill="#89ffa8" fill-opacity="0.18" stroke="#89ffa8" stroke-width="0.8"/><rect x="41.6" y="102.2" width="0.4" height="6.6" fill="#89ffa8" fill-opacity="0.18" stroke="#89ffa8" stroke-width="0.8"/><rect x="41.6" y="94.0" width="0.4" height="6.6" fill="#89ffa8" fill-opacity="0.18" stroke="#89ffa8" stroke-width="0.8"/><rect x="41.6" y="94.0" width="0.4" height="6.6" fill="#89ffa8" fill-opacity="0.18" stroke="#89ffa8" stroke-width="0.8"/><rect x="41.6" y="94.0" width="0.4" height="6.6" fill="#89ffa8" fill-opacity="0.18" stroke="#89ffa8" stroke-width="0.8"/><rect x="41.6" y="94.0" width="0.4" height="6.6" fill="#89ffa8" fill-opacity="0.18" stroke="#89ffa8" stroke-width="0.8"/><rect x="41.6" y="94.0" width="0.4" height="6.6" fill="#89ffa8" fill-opacity="0.18" stroke="#89ffa8" stroke-width="0.8"/><rect x="41.6" y="94.0" width="0.4" height="6.6" fill="#89ffa8" fill-opacity="0.18" stroke="#89ffa8" stroke-width="0.8"/><rect x="41.6" y="85.7" width="0.4" height="6.6" fill="#89ffa8" fill-opacity="0.18" stroke="#89ffa8" stroke-width="0.8"/><rect x="41.6" y="85.7" width="0.4" height="6.6" fill="#89ffa8" fill-opacity="0.18" stroke="#89ffa8" stroke-width="0.8"/><rect x="41.6" y="85.7" width="0.4" height="6.6" fill="#89ffa8" fill-opacity="0.18" stroke="#89ffa8" stroke-width="0.8"/><rect x="41.6" y="85.7" width="0.4" height="6.6" fill="#89ffa8" fill-opacity="0.18" stroke="#89ffa8" stroke-width="0.8"/><rect x="41.6" y="85.7" width="0.4" height="6.6" fill="#89ffa8" fill-opacity="0.18" stroke="#89ffa8" stroke-width="0.8"/><rect x="41.6" y="85.7" width="0.4" height="6.6" fill="#89ffa8" fill-opacity="0.18" stroke="#89ffa8" stroke-width="0.8"/><rect x="41.6" y="77.5" width="0.4" height="6.6" fill="#89ffa8" fill-opacity="0.18" stroke="#89ffa8" stroke-width="0.8"/><rect x="41.6" y="77.5" width="0.4" height="6.6" fill="#89ffa8" fill-opacity="0.18" stroke="#89ffa8" stroke-width="0.8"/><rect x="41.6" y="77.5" width="0.4" height="6.6" fill="#89ffa8" fill-opacity="0.18" stroke="#89ffa8" stroke-width="0.8"/><rect x="41.6" y="77.5" width="0.4" height="6.6" fill="#89ffa8" fill-opacity="0.18" stroke="#89ffa8" stroke-width="0.8"/><rect x="41.6" y="77.5" width="0.4" height="6.6" fill="#89ffa8" fill-opacity="0.18" stroke="#89ffa8" stroke-width="0.8"/><rect x="41.6" y="77.5" width="0.4" height="6.6" fill="#89ffa8" fill-opacity="0.18" stroke="#89ffa8" stroke-width="0.8"/><rect x="41.6" y="69.2" width="0.4" height="6.6" fill="#89ffa8" fill-opacity="0.18" stroke="#89ffa8" stroke-width="0.8"/><rect x="41.6" y="69.2" width="0.4" height="6.6" fill="#89ffa8" fill-opacity="0.18" stroke="#89ffa8" stroke-width="0.8"/><rect x="41.6" y="69.2" width="0.4" height="6.6" fill="#89ffa8" fill-opacity="0.18" stroke="#89ffa8" stroke-width="0.8"/><rect x="41.6" y="69.2" width="0.4" height="6.6" fill="#89ffa8" fill-opacity="0.18" stroke="#89ffa8" stroke-width="0.8"/><rect x="41.6" y="69.2" width="0.4" height="6.6" fill="#89ffa8" fill-opacity="0.18" stroke="#89ffa8" stroke-width="0.8"/><rect x="41.6" y="69.2" width="0.4" height="6.6" fill="#89ffa8" fill-opacity="0.18" stroke="#89ffa8" stroke-width="0.8"/><rect x="41.6" y="61.0" width="0.4" height="6.6" fill="#89ffa8" fill-opacity="0.18" stroke="#89ffa8" stroke-width="0.8"/><rect x="41.6" y="61.0" width="0.4" height="6.6" fill="#89ffa8" fill-opacity="0.18" stroke="#89ffa8" stroke-width="0.8"/><rect x="41.6" y="61.0" width="0.4" height="6.6" fill="#89ffa8" fill-opacity="0.18" stroke="#89ffa8" stroke-width="0.8"/><rect x="41.6" y="61.0" width="0.4" height="6.6" fill="#89ffa8" fill-opacity="0.18" stroke="#89ffa8" stroke-width="0.8"/><rect x="41.6" y="61.0" width="0.4" height="6.6" fill="#89ffa8" fill-opacity="0.18" stroke="#89ffa8" stroke-width="0.8"/><rect x="41.6" y="61.0" width="0.4" height="6.6" fill="#89ffa8" fill-opacity="0.18" stroke="#89ffa8" stroke-width="0.8"/><rect x="43.6" y="58.2" width="50.6" height="1.7" fill="#89ffa8" fill-opacity="0.18" stroke="#89ffa8" stroke-width="0.8"/><rect x="43.6" y="109.9" width="50.6" height="1.7" fill="#89ffa8" fill-opacity="0.18" stroke="#89ffa8" stroke-width="0.8"/><rect x="50.7" y="66.7" width="36.3" height="36.3" fill="#9fd3ff" fill-opacity="0.18" stroke="#9fd3ff" stroke-width="0.8"/><rect x="57.9" y="73.9" width="22.0" height="22.0" fill="#9fd3ff" fill-opacity="0.18" stroke="#9fd3ff" stroke-width="0.8"/><rect x="63.9" y="79.9" width="9.9" height="9.9" fill="#ffd39f" fill-opacity="0.18" stroke="#ffd39f" stroke-width="0.8"/><rect x="56.8" y="72.8" width="24.2" height="24.2" fill="#89ffa8" fill-opacity="0.18" stroke="#89ffa8" stroke-width="0.8"/><rect x="56.2" y="72.2" width="25.3" height="25.3" fill="#ffd39f" fill-opacity="0.18" stroke="#ffd39f" stroke-width="0.8"/><rect x="45.2" y="61.2" width="47.3" height="47.3" fill="#9fd3ff" fill-opacity="0.18" stroke="#9fd3ff" stroke-width="0.8"/><rect x="52.4" y="70.6" width="8.8" height="8.8" fill="#9fd3ff" fill-opacity="0.18" stroke="#9fd3ff" stroke-width="0.8"/><rect x="76.6" y="90.4" width="8.8" height="8.8" fill="#9fd3ff" fill-opacity="0.18" stroke="#9fd3ff" stroke-width="0.8"/><rect x="61.2" y="62.3" width="15.4" height="3.3" fill="#9fd3ff" fill-opacity="0.18" stroke="#9fd3ff" stroke-width="0.8"/><rect x="45.2" y="61.2" width="47.3" height="47.3" fill="#9fd3ff" fill-opacity="0.18" stroke="#9fd3ff" stroke-width="0.8"/><rect x="52.4" y="70.6" width="8.8" height="8.8" fill="#9fd3ff" fill-opacity="0.18" stroke="#9fd3ff" stroke-width="0.8"/><rect x="76.6" y="90.4" width="8.8" height="8.8" fill="#9fd3ff" fill-opacity="0.18" stroke="#9fd3ff" stroke-width="0.8"/><rect x="61.2" y="62.3" width="15.4" height="3.3" fill="#9fd3ff" fill-opacity="0.18" stroke="#9fd3ff" stroke-width="0.8"/><rect x="45.2" y="61.2" width="47.3" height="47.3" fill="#9fd3ff" fill-opacity="0.18" stroke="#9fd3ff" stroke-width="0.8"/><rect x="52.4" y="70.6" width="8.8" height="8.8" fill="#9fd3ff" fill-opacity="0.18" stroke="#9fd3ff" stroke-width="0.8"/><rect x="76.6" y="90.4" width="8.8" height="8.8" fill="#9fd3ff" fill-opacity="0.18" stroke="#9fd3ff" stroke-width="0.8"/><rect x="61.2" y="62.3" width="15.4" height="3.3" fill="#9fd3ff" fill-opacity="0.18" stroke="#9fd3ff" stroke-width="0.8"/><rect x="56.8" y="88.2" width="24.2" height="24.2" fill="#9fd3ff" fill-opacity="0.18" stroke="#9fd3ff" stroke-width="0.8"/><rect x="57.3" y="95.3" width="9.9" height="9.9" fill="#9fd3ff" fill-opacity="0.18" stroke="#9fd3ff" stroke-width="0.8"/><rect x="63.9" y="95.3" width="9.9" height="9.9" fill="#9fd3ff" fill-opacity="0.18" stroke="#9fd3ff" stroke-width="0.8"/><rect x="70.5" y="95.3" width="9.9" height="9.9" fill="#9fd3ff" fill-opacity="0.18" stroke="#9fd3ff" stroke-width="0.8"/><rect x="46.9" y="62.9" width="44.0" height="44.0" fill="#9fd3ff" fill-opacity="0.18" stroke="#9fd3ff" stroke-width="0.8"/><rect x="57.9" y="73.9" width="22.0" height="22.0" fill="#9fd3ff" fill-opacity="0.18" stroke="#9fd3ff" stroke-width="0.8"/><rect x="59.0" y="75.0" width="19.8" height="19.8" fill="#9fd3ff" fill-opacity="0.18" stroke="#9fd3ff" stroke-width="0.8"/><rect x="60.1" y="62.9" width="17.6" height="17.6" fill="#9fd3ff" fill-opacity="0.18" stroke="#9fd3ff" stroke-width="0.8"/><rect x="60.6" y="68.4" width="16.5" height="6.6" fill="#9fd3ff" fill-opacity="0.18" stroke="#9fd3ff" stroke-width="0.8"/><rect x="93.9" y="82.7" width="3.9" height="4.4" fill="#89ffa8" fill-opacity="0.18" stroke="#89ffa8" stroke-width="0.8"/><rect x="40.0" y="82.7" width="3.9" height="4.4" fill="#89ffa8" fill-opacity="0.18" stroke="#89ffa8" stroke-width="0.8"/><rect x="66.7" y="56.0" width="4.4" height="3.9" fill="#89ffa8" fill-opacity="0.18" stroke="#89ffa8" stroke-width="0.8"/><rect x="66.7" y="109.9" width="4.4" height="3.9" fill="#89ffa8" fill-opacity="0.18" stroke="#89ffa8" stroke-width="0.8"/><rect x="93.9" y="82.7" width="3.9" height="4.4" fill="#89ffa8" fill-opacity="0.18" stroke="#89ffa8" stroke-width="0.8"/><rect x="40.0" y="82.7" width="3.9" height="4.4" fill="#89ffa8" fill-opacity="0.18" stroke="#89ffa8" stroke-width="0.8"/><rect x="66.7" y="56.0" width="4.4" height="3.9" fill="#89ffa8" fill-opacity="0.18" stroke="#89ffa8" stroke-width="0.8"/><rect x="66.7" y="109.9" width="4.4" height="3.9" fill="#89ffa8" fill-opacity="0.18" stroke="#89ffa8" stroke-width="0.8"/><rect x="47.4" y="63.4" width="42.9" height="42.9" fill="#9fd3ff" fill-opacity="0.18" stroke="#9fd3ff" stroke-width="0.8"/><rect x="57.3" y="73.3" width="23.1" height="23.1" fill="#89ffa8" fill-opacity="0.18" stroke="#89ffa8" stroke-width="0.8"/><rect x="88.4" y="61.5" width="3.9" height="3.9" fill="#ffd39f" fill-opacity="0.18" stroke="#ffd39f" stroke-width="0.8"/><rect x="88.4" y="104.4" width="3.9" height="3.9" fill="#ffd39f" fill-opacity="0.18" stroke="#ffd39f" stroke-width="0.8"/><rect x="45.5" y="61.5" width="3.9" height="3.9" fill="#ffd39f" fill-opacity="0.18" stroke="#ffd39f" stroke-width="0.8"/><rect x="45.5" y="104.4" width="3.9" height="3.9" fill="#ffd39f" fill-opacity="0.18" stroke="#ffd39f" stroke-width="0.8"/><rect x="137.75" y="56" width="58" height="207" fill="#0c1e35" stroke="#274a79"/><text x="137.75" y="50" font-size="12" fill="#9fd3ff" font-weight="bold">FRONT (X-Z)</text><rect x="188.6" y="56.0" width="4.4" height="181.5" fill="#ffd39f" fill-opacity="0.18" stroke="#ffd39f" stroke-width="0.8"/><rect x="186.4" y="64.2" width="2.2" height="159.5" fill="#ffd39f" fill-opacity="0.18" stroke="#ffd39f" stroke-width="0.8"/><rect x="188.6" y="56.0" width="4.4" height="181.5" fill="#ffd39f" fill-opacity="0.18" stroke="#ffd39f" stroke-width="0.8"/><rect x="186.4" y="64.2" width="2.2" height="159.5" fill="#ffd39f" fill-opacity="0.18" stroke="#ffd39f" stroke-width="0.8"/><rect x="140.2" y="56.0" width="4.4" height="181.5" fill="#ffd39f" fill-opacity="0.18" stroke="#ffd39f" stroke-width="0.8"/><rect x="144.6" y="64.2" width="2.2" height="159.5" fill="#ffd39f" fill-opacity="0.18" stroke="#ffd39f" stroke-width="0.8"/><rect x="140.2" y="56.0" width="4.4" height="181.5" fill="#ffd39f" fill-opacity="0.18" stroke="#ffd39f" stroke-width="0.8"/><rect x="144.6" y="64.2" width="2.2" height="159.5" fill="#ffd39f" fill-opacity="0.18" stroke="#ffd39f" stroke-width="0.8"/><rect x="141.9" y="177.8" width="49.5" height="1.7" fill="#ffd39f" fill-opacity="0.18" stroke="#ffd39f" stroke-width="0.8"/><rect x="141.9" y="107.4" width="49.5" height="1.7" fill="#ffd39f" fill-opacity="0.18" stroke="#ffd39f" stroke-width="0.8"/><rect x="141.9" y="74.4" width="49.5" height="1.7" fill="#ffd39f" fill-opacity="0.18" stroke="#ffd39f" stroke-width="0.8"/><rect x="192.6" y="64.2" width="0.8" height="159.5" fill="#89ffa8" fill-opacity="0.18" stroke="#89ffa8" stroke-width="0.8"/><rect x="193.5" y="183.1" width="0.4" height="15.4" fill="#89ffa8" fill-opacity="0.18" stroke="#89ffa8" stroke-width="0.8"/><rect x="193.5" y="163.2" width="0.4" height="15.4" fill="#89ffa8" fill-opacity="0.18" stroke="#89ffa8" stroke-width="0.8"/><rect x="193.5" y="143.4" width="0.4" height="15.4" fill="#89ffa8" fill-opacity="0.18" stroke="#89ffa8" stroke-width="0.8"/><rect x="193.5" y="123.7" width="0.4" height="15.4" fill="#89ffa8" fill-opacity="0.18" stroke="#89ffa8" stroke-width="0.8"/><rect x="193.5" y="103.8" width="0.4" height="15.4" fill="#89ffa8" fill-opacity="0.18" stroke="#89ffa8" stroke-width="0.8"/><rect x="193.5" y="84.0" width="0.4" height="15.4" fill="#89ffa8" fill-opacity="0.18" stroke="#89ffa8" stroke-width="0.8"/><rect x="193.5" y="183.1" width="0.4" height="15.4" fill="#89ffa8" fill-opacity="0.18" stroke="#89ffa8" stroke-width="0.8"/><rect x="193.5" y="163.2" width="0.4" height="15.4" fill="#89ffa8" fill-opacity="0.18" stroke="#89ffa8" stroke-width="0.8"/><rect x="193.5" y="143.4" width="0.4" height="15.4" fill="#89ffa8" fill-opacity="0.18" stroke="#89ffa8" stroke-width="0.8"/><rect x="193.5" y="123.7" width="0.4" height="15.4" fill="#89ffa8" fill-opacity="0.18" stroke="#89ffa8" stroke-width="0.8"/><rect x="193.5" y="103.8" width="0.4" height="15.4" fill="#89ffa8" fill-opacity="0.18" stroke="#89ffa8" stroke-width="0.8"/><rect x="193.5" y="84.0" width="0.4" height="15.4" fill="#89ffa8" fill-opacity="0.18" stroke="#89ffa8" stroke-width="0.8"/><rect x="193.5" y="183.1" width="0.4" height="15.4" fill="#89ffa8" fill-opacity="0.18" stroke="#89ffa8" stroke-width="0.8"/><rect x="193.5" y="163.2" width="0.4" height="15.4" fill="#89ffa8" fill-opacity="0.18" stroke="#89ffa8" stroke-width="0.8"/><rect x="193.5" y="143.4" width="0.4" height="15.4" fill="#89ffa8" fill-opacity="0.18" stroke="#89ffa8" stroke-width="0.8"/><rect x="193.5" y="123.7" width="0.4" height="15.4" fill="#89ffa8" fill-opacity="0.18" stroke="#89ffa8" stroke-width="0.8"/><rect x="193.5" y="103.8" width="0.4" height="15.4" fill="#89ffa8" fill-opacity="0.18" stroke="#89ffa8" stroke-width="0.8"/><rect x="193.5" y="84.0" width="0.4" height="15.4" fill="#89ffa8" fill-opacity="0.18" stroke="#89ffa8" stroke-width="0.8"/><rect x="193.5" y="183.1" width="0.4" height="15.4" fill="#89ffa8" fill-opacity="0.18" stroke="#89ffa8" stroke-width="0.8"/><rect x="193.5" y="163.2" width="0.4" height="15.4" fill="#89ffa8" fill-opacity="0.18" stroke="#89ffa8" stroke-width="0.8"/><rect x="193.5" y="143.4" width="0.4" height="15.4" fill="#89ffa8" fill-opacity="0.18" stroke="#89ffa8" stroke-width="0.8"/><rect x="193.5" y="123.7" width="0.4" height="15.4" fill="#89ffa8" fill-opacity="0.18" stroke="#89ffa8" stroke-width="0.8"/><rect x="193.5" y="103.8" width="0.4" height="15.4" fill="#89ffa8" fill-opacity="0.18" stroke="#89ffa8" stroke-width="0.8"/><rect x="193.5" y="84.0" width="0.4" height="15.4" fill="#89ffa8" fill-opacity="0.18" stroke="#89ffa8" stroke-width="0.8"/><rect x="193.5" y="183.1" width="0.4" height="15.4" fill="#89ffa8" fill-opacity="0.18" stroke="#89ffa8" stroke-width="0.8"/><rect x="193.5" y="163.2" width="0.4" height="15.4" fill="#89ffa8" fill-opacity="0.18" stroke="#89ffa8" stroke-width="0.8"/><rect x="193.5" y="143.4" width="0.4" height="15.4" fill="#89ffa8" fill-opacity="0.18" stroke="#89ffa8" stroke-width="0.8"/><rect x="193.5" y="123.7" width="0.4" height="15.4" fill="#89ffa8" fill-opacity="0.18" stroke="#89ffa8" stroke-width="0.8"/><rect x="193.5" y="103.8" width="0.4" height="15.4" fill="#89ffa8" fill-opacity="0.18" stroke="#89ffa8" stroke-width="0.8"/><rect x="193.5" y="84.0" width="0.4" height="15.4" fill="#89ffa8" fill-opacity="0.18" stroke="#89ffa8" stroke-width="0.8"/><rect x="193.5" y="183.1" width="0.4" height="15.4" fill="#89ffa8" fill-opacity="0.18" stroke="#89ffa8" stroke-width="0.8"/><rect x="193.5" y="163.2" width="0.4" height="15.4" fill="#89ffa8" fill-opacity="0.18" stroke="#89ffa8" stroke-width="0.8"/><rect x="193.5" y="143.4" width="0.4" height="15.4" fill="#89ffa8" fill-opacity="0.18" stroke="#89ffa8" stroke-width="0.8"/><rect x="193.5" y="123.7" width="0.4" height="15.4" fill="#89ffa8" fill-opacity="0.18" stroke="#89ffa8" stroke-width="0.8"/><rect x="193.5" y="103.8" width="0.4" height="15.4" fill="#89ffa8" fill-opacity="0.18" stroke="#89ffa8" stroke-width="0.8"/><rect x="193.5" y="84.0" width="0.4" height="15.4" fill="#89ffa8" fill-opacity="0.18" stroke="#89ffa8" stroke-width="0.8"/><rect x="139.8" y="64.2" width="0.8" height="159.5" fill="#89ffa8" fill-opacity="0.18" stroke="#89ffa8" stroke-width="0.8"/><rect x="139.3" y="183.1" width="0.4" height="15.4" fill="#89ffa8" fill-opacity="0.18" stroke="#89ffa8" stroke-width="0.8"/><rect x="139.3" y="163.2" width="0.4" height="15.4" fill="#89ffa8" fill-opacity="0.18" stroke="#89ffa8" stroke-width="0.8"/><rect x="139.3" y="143.4" width="0.4" height="15.4" fill="#89ffa8" fill-opacity="0.18" stroke="#89ffa8" stroke-width="0.8"/><rect x="139.3" y="123.7" width="0.4" height="15.4" fill="#89ffa8" fill-opacity="0.18" stroke="#89ffa8" stroke-width="0.8"/><rect x="139.3" y="103.8" width="0.4" height="15.4" fill="#89ffa8" fill-opacity="0.18" stroke="#89ffa8" stroke-width="0.8"/><rect x="139.3" y="84.0" width="0.4" height="15.4" fill="#89ffa8" fill-opacity="0.18" stroke="#89ffa8" stroke-width="0.8"/><rect x="139.3" y="183.1" width="0.4" height="15.4" fill="#89ffa8" fill-opacity="0.18" stroke="#89ffa8" stroke-width="0.8"/><rect x="139.3" y="163.2" width="0.4" height="15.4" fill="#89ffa8" fill-opacity="0.18" stroke="#89ffa8" stroke-width="0.8"/><rect x="139.3" y="143.4" width="0.4" height="15.4" fill="#89ffa8" fill-opacity="0.18" stroke="#89ffa8" stroke-width="0.8"/><rect x="139.3" y="123.7" width="0.4" height="15.4" fill="#89ffa8" fill-opacity="0.18" stroke="#89ffa8" stroke-width="0.8"/><rect x="139.3" y="103.8" width="0.4" height="15.4" fill="#89ffa8" fill-opacity="0.18" stroke="#89ffa8" stroke-width="0.8"/><rect x="139.3" y="84.0" width="0.4" height="15.4" fill="#89ffa8" fill-opacity="0.18" stroke="#89ffa8" stroke-width="0.8"/><rect x="139.3" y="183.1" width="0.4" height="15.4" fill="#89ffa8" fill-opacity="0.18" stroke="#89ffa8" stroke-width="0.8"/><rect x="139.3" y="163.2" width="0.4" height="15.4" fill="#89ffa8" fill-opacity="0.18" stroke="#89ffa8" stroke-width="0.8"/><rect x="139.3" y="143.4" width="0.4" height="15.4" fill="#89ffa8" fill-opacity="0.18" stroke="#89ffa8" stroke-width="0.8"/><rect x="139.3" y="123.7" width="0.4" height="15.4" fill="#89ffa8" fill-opacity="0.18" stroke="#89ffa8" stroke-width="0.8"/><rect x="139.3" y="103.8" width="0.4" height="15.4" fill="#89ffa8" fill-opacity="0.18" stroke="#89ffa8" stroke-width="0.8"/><rect x="139.3" y="84.0" width="0.4" height="15.4" fill="#89ffa8" fill-opacity="0.18" stroke="#89ffa8" stroke-width="0.8"/><rect x="139.3" y="183.1" width="0.4" height="15.4" fill="#89ffa8" fill-opacity="0.18" stroke="#89ffa8" stroke-width="0.8"/><rect x="139.3" y="163.2" width="0.4" height="15.4" fill="#89ffa8" fill-opacity="0.18" stroke="#89ffa8" stroke-width="0.8"/><rect x="139.3" y="143.4" width="0.4" height="15.4" fill="#89ffa8" fill-opacity="0.18" stroke="#89ffa8" stroke-width="0.8"/><rect x="139.3" y="123.7" width="0.4" height="15.4" fill="#89ffa8" fill-opacity="0.18" stroke="#89ffa8" stroke-width="0.8"/><rect x="139.3" y="103.8" width="0.4" height="15.4" fill="#89ffa8" fill-opacity="0.18" stroke="#89ffa8" stroke-width="0.8"/><rect x="139.3" y="84.0" width="0.4" height="15.4" fill="#89ffa8" fill-opacity="0.18" stroke="#89ffa8" stroke-width="0.8"/><rect x="139.3" y="183.1" width="0.4" height="15.4" fill="#89ffa8" fill-opacity="0.18" stroke="#89ffa8" stroke-width="0.8"/><rect x="139.3" y="163.2" width="0.4" height="15.4" fill="#89ffa8" fill-opacity="0.18" stroke="#89ffa8" stroke-width="0.8"/><rect x="139.3" y="143.4" width="0.4" height="15.4" fill="#89ffa8" fill-opacity="0.18" stroke="#89ffa8" stroke-width="0.8"/><rect x="139.3" y="123.7" width="0.4" height="15.4" fill="#89ffa8" fill-opacity="0.18" stroke="#89ffa8" stroke-width="0.8"/><rect x="139.3" y="103.8" width="0.4" height="15.4" fill="#89ffa8" fill-opacity="0.18" stroke="#89ffa8" stroke-width="0.8"/><rect x="139.3" y="84.0" width="0.4" height="15.4" fill="#89ffa8" fill-opacity="0.18" stroke="#89ffa8" stroke-width="0.8"/><rect x="139.3" y="183.1" width="0.4" height="15.4" fill="#89ffa8" fill-opacity="0.18" stroke="#89ffa8" stroke-width="0.8"/><rect x="139.3" y="163.2" width="0.4" height="15.4" fill="#89ffa8" fill-opacity="0.18" stroke="#89ffa8" stroke-width="0.8"/><rect x="139.3" y="143.4" width="0.4" height="15.4" fill="#89ffa8" fill-opacity="0.18" stroke="#89ffa8" stroke-width="0.8"/><rect x="139.3" y="123.7" width="0.4" height="15.4" fill="#89ffa8" fill-opacity="0.18" stroke="#89ffa8" stroke-width="0.8"/><rect x="139.3" y="103.8" width="0.4" height="15.4" fill="#89ffa8" fill-opacity="0.18" stroke="#89ffa8" stroke-width="0.8"/><rect x="139.3" y="84.0" width="0.4" height="15.4" fill="#89ffa8" fill-opacity="0.18" stroke="#89ffa8" stroke-width="0.8"/><rect x="141.3" y="100.0" width="50.6" height="82.5" fill="#89ffa8" fill-opacity="0.18" stroke="#89ffa8" stroke-width="0.8"/><rect x="141.3" y="100.0" width="50.6" height="82.5" fill="#89ffa8" fill-opacity="0.18" stroke="#89ffa8" stroke-width="0.8"/><rect x="148.5" y="181.4" width="36.3" height="35.2" fill="#9fd3ff" fill-opacity="0.18" stroke="#9fd3ff" stroke-width="0.8"/><rect x="155.6" y="219.4" width="22.0" height="14.3" fill="#9fd3ff" fill-opacity="0.18" stroke="#9fd3ff" stroke-width="0.8"/><rect x="161.7" y="233.7" width="9.9" height="6.6" fill="#ffd39f" fill-opacity="0.18" stroke="#ffd39f" stroke-width="0.8"/><rect x="154.5" y="239.2" width="24.2" height="24.2" fill="#89ffa8" fill-opacity="0.18" stroke="#89ffa8" stroke-width="0.8"/><rect x="154.0" y="237.5" width="25.3" height="7.7" fill="#ffd39f" fill-opacity="0.18" stroke="#ffd39f" stroke-width="0.8"/><rect x="143.0" y="170.1" width="47.3" height="2.8" fill="#9fd3ff" fill-opacity="0.18" stroke="#9fd3ff" stroke-width="0.8"/><rect x="150.1" y="168.5" width="8.8" height="1.7" fill="#9fd3ff" fill-opacity="0.18" stroke="#9fd3ff" stroke-width="0.8"/><rect x="174.3" y="168.5" width="8.8" height="1.7" fill="#9fd3ff" fill-opacity="0.18" stroke="#9fd3ff" stroke-width="0.8"/><rect x="158.9" y="166.3" width="15.4" height="3.9" fill="#9fd3ff" fill-opacity="0.18" stroke="#9fd3ff" stroke-width="0.8"/><rect x="143.0" y="157.5" width="47.3" height="2.8" fill="#9fd3ff" fill-opacity="0.18" stroke="#9fd3ff" stroke-width="0.8"/><rect x="150.1" y="155.8" width="8.8" height="1.7" fill="#9fd3ff" fill-opacity="0.18" stroke="#9fd3ff" stroke-width="0.8"/><rect x="174.3" y="155.8" width="8.8" height="1.7" fill="#9fd3ff" fill-opacity="0.18" stroke="#9fd3ff" stroke-width="0.8"/><rect x="158.9" y="153.6" width="15.4" height="3.9" fill="#9fd3ff" fill-opacity="0.18" stroke="#9fd3ff" stroke-width="0.8"/><rect x="143.0" y="145.4" width="47.3" height="2.8" fill="#9fd3ff" fill-opacity="0.18" stroke="#9fd3ff" stroke-width="0.8"/><rect x="150.1" y="143.7" width="8.8" height="1.7" fill="#9fd3ff" fill-opacity="0.18" stroke="#9fd3ff" stroke-width="0.8"/><rect x="174.3" y="143.7" width="8.8" height="1.7" fill="#9fd3ff" fill-opacity="0.18" stroke="#9fd3ff" stroke-width="0.8"/><rect x="158.9" y="141.5" width="15.4" height="3.9" fill="#9fd3ff" fill-opacity="0.18" stroke="#9fd3ff" stroke-width="0.8"/><rect x="154.5" y="119.2" width="24.2" height="22.0" fill="#9fd3ff" fill-opacity="0.18" stroke="#9fd3ff" stroke-width="0.8"/><rect x="155.1" y="120.4" width="9.9" height="19.8" fill="#9fd3ff" fill-opacity="0.18" stroke="#9fd3ff" stroke-width="0.8"/><rect x="161.7" y="120.4" width="9.9" height="19.8" fill="#9fd3ff" fill-opacity="0.18" stroke="#9fd3ff" stroke-width="0.8"/><rect x="168.3" y="120.4" width="9.9" height="19.8" fill="#9fd3ff" fill-opacity="0.18" stroke="#9fd3ff" stroke-width="0.8"/><rect x="144.6" y="78.5" width="44.0" height="28.6" fill="#9fd3ff" fill-opacity="0.18" stroke="#9fd3ff" stroke-width="0.8"/><rect x="155.6" y="78.0" width="22.0" height="16.5" fill="#9fd3ff" fill-opacity="0.18" stroke="#9fd3ff" stroke-width="0.8"/><rect x="156.7" y="66.5" width="19.8" height="19.8" fill="#9fd3ff" fill-opacity="0.18" stroke="#9fd3ff" stroke-width="0.8"/><rect x="157.8" y="85.7" width="17.6" height="17.6" fill="#9fd3ff" fill-opacity="0.18" stroke="#9fd3ff" stroke-width="0.8"/><rect x="158.4" y="83.0" width="16.5" height="4.4" fill="#9fd3ff" fill-opacity="0.18" stroke="#9fd3ff" stroke-width="0.8"/><rect x="191.7" y="111.6" width="3.9" height="4.4" fill="#89ffa8" fill-opacity="0.18" stroke="#89ffa8" stroke-width="0.8"/><rect x="137.8" y="111.6" width="3.9" height="4.4" fill="#89ffa8" fill-opacity="0.18" stroke="#89ffa8" stroke-width="0.8"/><rect x="164.4" y="111.6" width="4.4" height="4.4" fill="#89ffa8" fill-opacity="0.18" stroke="#89ffa8" stroke-width="0.8"/><rect x="164.4" y="111.6" width="4.4" height="4.4" fill="#89ffa8" fill-opacity="0.18" stroke="#89ffa8" stroke-width="0.8"/><rect x="191.7" y="161.1" width="3.9" height="4.4" fill="#89ffa8" fill-opacity="0.18" stroke="#89ffa8" stroke-width="0.8"/><rect x="137.8" y="161.1" width="3.9" height="4.4" fill="#89ffa8" fill-opacity="0.18" stroke="#89ffa8" stroke-width="0.8"/><rect x="164.4" y="161.1" width="4.4" height="4.4" fill="#89ffa8" fill-opacity="0.18" stroke="#89ffa8" stroke-width="0.8"/><rect x="164.4" y="161.1" width="4.4" height="4.4" fill="#89ffa8" fill-opacity="0.18" stroke="#89ffa8" stroke-width="0.8"/><rect x="145.2" y="65.6" width="42.9" height="2.8" fill="#9fd3ff" fill-opacity="0.18" stroke="#9fd3ff" stroke-width="0.8"/><rect x="155.1" y="62.0" width="23.1" height="2.2" fill="#89ffa8" fill-opacity="0.18" stroke="#89ffa8" stroke-width="0.8"/><rect x="186.2" y="57.9" width="3.9" height="7.2" fill="#ffd39f" fill-opacity="0.18" stroke="#ffd39f" stroke-width="0.8"/><rect x="186.2" y="57.9" width="3.9" height="7.2" fill="#ffd39f" fill-opacity="0.18" stroke="#ffd39f" stroke-width="0.8"/><rect x="143.2" y="57.9" width="3.9" height="7.2" fill="#ffd39f" fill-opacity="0.18" stroke="#ffd39f" stroke-width="0.8"/><rect x="143.2" y="57.9" width="3.9" height="7.2" fill="#ffd39f" fill-opacity="0.18" stroke="#ffd39f" stroke-width="0.8"/><rect x="235.5" y="56" width="58" height="207" fill="#0c1e35" stroke="#274a79"/><text x="235.5" y="50" font-size="12" fill="#9fd3ff" font-weight="bold">SIDE (Y-Z)</text><rect x="286.4" y="56.0" width="4.4" height="181.5" fill="#ffd39f" fill-opacity="0.18" stroke="#ffd39f" stroke-width="0.8"/><rect x="284.2" y="64.2" width="2.2" height="159.5" fill="#ffd39f" fill-opacity="0.18" stroke="#ffd39f" stroke-width="0.8"/><rect x="238.0" y="56.0" width="4.4" height="181.5" fill="#ffd39f" fill-opacity="0.18" stroke="#ffd39f" stroke-width="0.8"/><rect x="242.4" y="64.2" width="2.2" height="159.5" fill="#ffd39f" fill-opacity="0.18" stroke="#ffd39f" stroke-width="0.8"/><rect x="286.4" y="56.0" width="4.4" height="181.5" fill="#ffd39f" fill-opacity="0.18" stroke="#ffd39f" stroke-width="0.8"/><rect x="284.2" y="64.2" width="2.2" height="159.5" fill="#ffd39f" fill-opacity="0.18" stroke="#ffd39f" stroke-width="0.8"/><rect x="238.0" y="56.0" width="4.4" height="181.5" fill="#ffd39f" fill-opacity="0.18" stroke="#ffd39f" stroke-width="0.8"/><rect x="242.4" y="64.2" width="2.2" height="159.5" fill="#ffd39f" fill-opacity="0.18" stroke="#ffd39f" stroke-width="0.8"/><rect x="239.6" y="177.8" width="49.5" height="1.7" fill="#ffd39f" fill-opacity="0.18" stroke="#ffd39f" stroke-width="0.8"/><rect x="239.6" y="107.4" width="49.5" height="1.7" fill="#ffd39f" fill-opacity="0.18" stroke="#ffd39f" stroke-width="0.8"/><rect x="239.6" y="74.4" width="49.5" height="1.7" fill="#ffd39f" fill-opacity="0.18" stroke="#ffd39f" stroke-width="0.8"/><rect x="239.1" y="64.2" width="50.6" height="159.5" fill="#89ffa8" fill-opacity="0.18" stroke="#89ffa8" stroke-width="0.8"/><rect x="240.4" y="183.1" width="6.6" height="15.4" fill="#89ffa8" fill-opacity="0.18" stroke="#89ffa8" stroke-width="0.8"/><rect x="240.4" y="163.2" width="6.6" height="15.4" fill="#89ffa8" fill-opacity="0.18" stroke="#89ffa8" stroke-width="0.8"/><rect x="240.4" y="143.4" width="6.6" height="15.4" fill="#89ffa8" fill-opacity="0.18" stroke="#89ffa8" stroke-width="0.8"/><rect x="240.4" y="123.7" width="6.6" height="15.4" fill="#89ffa8" fill-opacity="0.18" stroke="#89ffa8" stroke-width="0.8"/><rect x="240.4" y="103.8" width="6.6" height="15.4" fill="#89ffa8" fill-opacity="0.18" stroke="#89ffa8" stroke-width="0.8"/><rect x="240.4" y="84.0" width="6.6" height="15.4" fill="#89ffa8" fill-opacity="0.18" stroke="#89ffa8" stroke-width="0.8"/><rect x="248.7" y="183.1" width="6.6" height="15.4" fill="#89ffa8" fill-opacity="0.18" stroke="#89ffa8" stroke-width="0.8"/><rect x="248.7" y="163.2" width="6.6" height="15.4" fill="#89ffa8" fill-opacity="0.18" stroke="#89ffa8" stroke-width="0.8"/><rect x="248.7" y="143.4" width="6.6" height="15.4" fill="#89ffa8" fill-opacity="0.18" stroke="#89ffa8" stroke-width="0.8"/><rect x="248.7" y="123.7" width="6.6" height="15.4" fill="#89ffa8" fill-opacity="0.18" stroke="#89ffa8" stroke-width="0.8"/><rect x="248.7" y="103.8" width="6.6" height="15.4" fill="#89ffa8" fill-opacity="0.18" stroke="#89ffa8" stroke-width="0.8"/><rect x="248.7" y="84.0" width="6.6" height="15.4" fill="#89ffa8" fill-opacity="0.18" stroke="#89ffa8" stroke-width="0.8"/><rect x="256.9" y="183.1" width="6.6" height="15.4" fill="#89ffa8" fill-opacity="0.18" stroke="#89ffa8" stroke-width="0.8"/><rect x="256.9" y="163.2" width="6.6" height="15.4" fill="#89ffa8" fill-opacity="0.18" stroke="#89ffa8" stroke-width="0.8"/><rect x="256.9" y="143.4" width="6.6" height="15.4" fill="#89ffa8" fill-opacity="0.18" stroke="#89ffa8" stroke-width="0.8"/><rect x="256.9" y="123.7" width="6.6" height="15.4" fill="#89ffa8" fill-opacity="0.18" stroke="#89ffa8" stroke-width="0.8"/><rect x="256.9" y="103.8" width="6.6" height="15.4" fill="#89ffa8" fill-opacity="0.18" stroke="#89ffa8" stroke-width="0.8"/><rect x="256.9" y="84.0" width="6.6" height="15.4" fill="#89ffa8" fill-opacity="0.18" stroke="#89ffa8" stroke-width="0.8"/><rect x="265.2" y="183.1" width="6.6" height="15.4" fill="#89ffa8" fill-opacity="0.18" stroke="#89ffa8" stroke-width="0.8"/><rect x="265.2" y="163.2" width="6.6" height="15.4" fill="#89ffa8" fill-opacity="0.18" stroke="#89ffa8" stroke-width="0.8"/><rect x="265.2" y="143.4" width="6.6" height="15.4" fill="#89ffa8" fill-opacity="0.18" stroke="#89ffa8" stroke-width="0.8"/><rect x="265.2" y="123.7" width="6.6" height="15.4" fill="#89ffa8" fill-opacity="0.18" stroke="#89ffa8" stroke-width="0.8"/><rect x="265.2" y="103.8" width="6.6" height="15.4" fill="#89ffa8" fill-opacity="0.18" stroke="#89ffa8" stroke-width="0.8"/><rect x="265.2" y="84.0" width="6.6" height="15.4" fill="#89ffa8" fill-opacity="0.18" stroke="#89ffa8" stroke-width="0.8"/><rect x="273.4" y="183.1" width="6.6" height="15.4" fill="#89ffa8" fill-opacity="0.18" stroke="#89ffa8" stroke-width="0.8"/><rect x="273.4" y="163.2" width="6.6" height="15.4" fill="#89ffa8" fill-opacity="0.18" stroke="#89ffa8" stroke-width="0.8"/><rect x="273.4" y="143.4" width="6.6" height="15.4" fill="#89ffa8" fill-opacity="0.18" stroke="#89ffa8" stroke-width="0.8"/><rect x="273.4" y="123.7" width="6.6" height="15.4" fill="#89ffa8" fill-opacity="0.18" stroke="#89ffa8" stroke-width="0.8"/><rect x="273.4" y="103.8" width="6.6" height="15.4" fill="#89ffa8" fill-opacity="0.18" stroke="#89ffa8" stroke-width="0.8"/><rect x="273.4" y="84.0" width="6.6" height="15.4" fill="#89ffa8" fill-opacity="0.18" stroke="#89ffa8" stroke-width="0.8"/><rect x="281.7" y="183.1" width="6.6" height="15.4" fill="#89ffa8" fill-opacity="0.18" stroke="#89ffa8" stroke-width="0.8"/><rect x="281.7" y="163.2" width="6.6" height="15.4" fill="#89ffa8" fill-opacity="0.18" stroke="#89ffa8" stroke-width="0.8"/><rect x="281.7" y="143.4" width="6.6" height="15.4" fill="#89ffa8" fill-opacity="0.18" stroke="#89ffa8" stroke-width="0.8"/><rect x="281.7" y="123.7" width="6.6" height="15.4" fill="#89ffa8" fill-opacity="0.18" stroke="#89ffa8" stroke-width="0.8"/><rect x="281.7" y="103.8" width="6.6" height="15.4" fill="#89ffa8" fill-opacity="0.18" stroke="#89ffa8" stroke-width="0.8"/><rect x="281.7" y="84.0" width="6.6" height="15.4" fill="#89ffa8" fill-opacity="0.18" stroke="#89ffa8" stroke-width="0.8"/><rect x="239.1" y="64.2" width="50.6" height="159.5" fill="#89ffa8" fill-opacity="0.18" stroke="#89ffa8" stroke-width="0.8"/><rect x="240.4" y="183.1" width="6.6" height="15.4" fill="#89ffa8" fill-opacity="0.18" stroke="#89ffa8" stroke-width="0.8"/><rect x="240.4" y="163.2" width="6.6" height="15.4" fill="#89ffa8" fill-opacity="0.18" stroke="#89ffa8" stroke-width="0.8"/><rect x="240.4" y="143.4" width="6.6" height="15.4" fill="#89ffa8" fill-opacity="0.18" stroke="#89ffa8" stroke-width="0.8"/><rect x="240.4" y="123.7" width="6.6" height="15.4" fill="#89ffa8" fill-opacity="0.18" stroke="#89ffa8" stroke-width="0.8"/><rect x="240.4" y="103.8" width="6.6" height="15.4" fill="#89ffa8" fill-opacity="0.18" stroke="#89ffa8" stroke-width="0.8"/><rect x="240.4" y="84.0" width="6.6" height="15.4" fill="#89ffa8" fill-opacity="0.18" stroke="#89ffa8" stroke-width="0.8"/><rect x="248.7" y="183.1" width="6.6" height="15.4" fill="#89ffa8" fill-opacity="0.18" stroke="#89ffa8" stroke-width="0.8"/><rect x="248.7" y="163.2" width="6.6" height="15.4" fill="#89ffa8" fill-opacity="0.18" stroke="#89ffa8" stroke-width="0.8"/><rect x="248.7" y="143.4" width="6.6" height="15.4" fill="#89ffa8" fill-opacity="0.18" stroke="#89ffa8" stroke-width="0.8"/><rect x="248.7" y="123.7" width="6.6" height="15.4" fill="#89ffa8" fill-opacity="0.18" stroke="#89ffa8" stroke-width="0.8"/><rect x="248.7" y="103.8" width="6.6" height="15.4" fill="#89ffa8" fill-opacity="0.18" stroke="#89ffa8" stroke-width="0.8"/><rect x="248.7" y="84.0" width="6.6" height="15.4" fill="#89ffa8" fill-opacity="0.18" stroke="#89ffa8" stroke-width="0.8"/><rect x="256.9" y="183.1" width="6.6" height="15.4" fill="#89ffa8" fill-opacity="0.18" stroke="#89ffa8" stroke-width="0.8"/><rect x="256.9" y="163.2" width="6.6" height="15.4" fill="#89ffa8" fill-opacity="0.18" stroke="#89ffa8" stroke-width="0.8"/><rect x="256.9" y="143.4" width="6.6" height="15.4" fill="#89ffa8" fill-opacity="0.18" stroke="#89ffa8" stroke-width="0.8"/><rect x="256.9" y="123.7" width="6.6" height="15.4" fill="#89ffa8" fill-opacity="0.18" stroke="#89ffa8" stroke-width="0.8"/><rect x="256.9" y="103.8" width="6.6" height="15.4" fill="#89ffa8" fill-opacity="0.18" stroke="#89ffa8" stroke-width="0.8"/><rect x="256.9" y="84.0" width="6.6" height="15.4" fill="#89ffa8" fill-opacity="0.18" stroke="#89ffa8" stroke-width="0.8"/><rect x="265.2" y="183.1" width="6.6" height="15.4" fill="#89ffa8" fill-opacity="0.18" stroke="#89ffa8" stroke-width="0.8"/><rect x="265.2" y="163.2" width="6.6" height="15.4" fill="#89ffa8" fill-opacity="0.18" stroke="#89ffa8" stroke-width="0.8"/><rect x="265.2" y="143.4" width="6.6" height="15.4" fill="#89ffa8" fill-opacity="0.18" stroke="#89ffa8" stroke-width="0.8"/><rect x="265.2" y="123.7" width="6.6" height="15.4" fill="#89ffa8" fill-opacity="0.18" stroke="#89ffa8" stroke-width="0.8"/><rect x="265.2" y="103.8" width="6.6" height="15.4" fill="#89ffa8" fill-opacity="0.18" stroke="#89ffa8" stroke-width="0.8"/><rect x="265.2" y="84.0" width="6.6" height="15.4" fill="#89ffa8" fill-opacity="0.18" stroke="#89ffa8" stroke-width="0.8"/><rect x="273.4" y="183.1" width="6.6" height="15.4" fill="#89ffa8" fill-opacity="0.18" stroke="#89ffa8" stroke-width="0.8"/><rect x="273.4" y="163.2" width="6.6" height="15.4" fill="#89ffa8" fill-opacity="0.18" stroke="#89ffa8" stroke-width="0.8"/><rect x="273.4" y="143.4" width="6.6" height="15.4" fill="#89ffa8" fill-opacity="0.18" stroke="#89ffa8" stroke-width="0.8"/><rect x="273.4" y="123.7" width="6.6" height="15.4" fill="#89ffa8" fill-opacity="0.18" stroke="#89ffa8" stroke-width="0.8"/><rect x="273.4" y="103.8" width="6.6" height="15.4" fill="#89ffa8" fill-opacity="0.18" stroke="#89ffa8" stroke-width="0.8"/><rect x="273.4" y="84.0" width="6.6" height="15.4" fill="#89ffa8" fill-opacity="0.18" stroke="#89ffa8" stroke-width="0.8"/><rect x="281.7" y="183.1" width="6.6" height="15.4" fill="#89ffa8" fill-opacity="0.18" stroke="#89ffa8" stroke-width="0.8"/><rect x="281.7" y="163.2" width="6.6" height="15.4" fill="#89ffa8" fill-opacity="0.18" stroke="#89ffa8" stroke-width="0.8"/><rect x="281.7" y="143.4" width="6.6" height="15.4" fill="#89ffa8" fill-opacity="0.18" stroke="#89ffa8" stroke-width="0.8"/><rect x="281.7" y="123.7" width="6.6" height="15.4" fill="#89ffa8" fill-opacity="0.18" stroke="#89ffa8" stroke-width="0.8"/><rect x="281.7" y="103.8" width="6.6" height="15.4" fill="#89ffa8" fill-opacity="0.18" stroke="#89ffa8" stroke-width="0.8"/><rect x="281.7" y="84.0" width="6.6" height="15.4" fill="#89ffa8" fill-opacity="0.18" stroke="#89ffa8" stroke-width="0.8"/><rect x="289.4" y="100.0" width="1.7" height="82.5" fill="#89ffa8" fill-opacity="0.18" stroke="#89ffa8" stroke-width="0.8"/><rect x="237.7" y="100.0" width="1.7" height="82.5" fill="#89ffa8" fill-opacity="0.18" stroke="#89ffa8" stroke-width="0.8"/><rect x="246.2" y="181.4" width="36.3" height="35.2" fill="#9fd3ff" fill-opacity="0.18" stroke="#9fd3ff" stroke-width="0.8"/><rect x="253.4" y="219.4" width="22.0" height="14.3" fill="#9fd3ff" fill-opacity="0.18" stroke="#9fd3ff" stroke-width="0.8"/><rect x="259.4" y="233.7" width="9.9" height="6.6" fill="#ffd39f" fill-opacity="0.18" stroke="#ffd39f" stroke-width="0.8"/><rect x="252.3" y="239.2" width="24.2" height="24.2" fill="#89ffa8" fill-opacity="0.18" stroke="#89ffa8" stroke-width="0.8"/><rect x="251.7" y="237.5" width="25.3" height="7.7" fill="#ffd39f" fill-opacity="0.18" stroke="#ffd39f" stroke-width="0.8"/><rect x="240.7" y="170.1" width="47.3" height="2.8" fill="#9fd3ff" fill-opacity="0.18" stroke="#9fd3ff" stroke-width="0.8"/><rect x="269.9" y="168.5" width="8.8" height="1.7" fill="#9fd3ff" fill-opacity="0.18" stroke="#9fd3ff" stroke-width="0.8"/><rect x="250.1" y="168.5" width="8.8" height="1.7" fill="#9fd3ff" fill-opacity="0.18" stroke="#9fd3ff" stroke-width="0.8"/><rect x="283.6" y="166.3" width="3.3" height="3.9" fill="#9fd3ff" fill-opacity="0.18" stroke="#9fd3ff" stroke-width="0.8"/><rect x="240.7" y="157.5" width="47.3" height="2.8" fill="#9fd3ff" fill-opacity="0.18" stroke="#9fd3ff" stroke-width="0.8"/><rect x="269.9" y="155.8" width="8.8" height="1.7" fill="#9fd3ff" fill-opacity="0.18" stroke="#9fd3ff" stroke-width="0.8"/><rect x="250.1" y="155.8" width="8.8" height="1.7" fill="#9fd3ff" fill-opacity="0.18" stroke="#9fd3ff" stroke-width="0.8"/><rect x="283.6" y="153.6" width="3.3" height="3.9" fill="#9fd3ff" fill-opacity="0.18" stroke="#9fd3ff" stroke-width="0.8"/><rect x="240.7" y="145.4" width="47.3" height="2.8" fill="#9fd3ff" fill-opacity="0.18" stroke="#9fd3ff" stroke-width="0.8"/><rect x="269.9" y="143.7" width="8.8" height="1.7" fill="#9fd3ff" fill-opacity="0.18" stroke="#9fd3ff" stroke-width="0.8"/><rect x="250.1" y="143.7" width="8.8" height="1.7" fill="#9fd3ff" fill-opacity="0.18" stroke="#9fd3ff" stroke-width="0.8"/><rect x="283.6" y="141.5" width="3.3" height="3.9" fill="#9fd3ff" fill-opacity="0.18" stroke="#9fd3ff" stroke-width="0.8"/><rect x="236.9" y="119.2" width="24.2" height="22.0" fill="#9fd3ff" fill-opacity="0.18" stroke="#9fd3ff" stroke-width="0.8"/><rect x="244.0" y="120.4" width="9.9" height="19.8" fill="#9fd3ff" fill-opacity="0.18" stroke="#9fd3ff" stroke-width="0.8"/><rect x="244.0" y="120.4" width="9.9" height="19.8" fill="#9fd3ff" fill-opacity="0.18" stroke="#9fd3ff" stroke-width="0.8"/><rect x="244.0" y="120.4" width="9.9" height="19.8" fill="#9fd3ff" fill-opacity="0.18" stroke="#9fd3ff" stroke-width="0.8"/><rect x="242.4" y="78.5" width="44.0" height="28.6" fill="#9fd3ff" fill-opacity="0.18" stroke="#9fd3ff" stroke-width="0.8"/><rect x="253.4" y="78.0" width="22.0" height="16.5" fill="#9fd3ff" fill-opacity="0.18" stroke="#9fd3ff" stroke-width="0.8"/><rect x="254.5" y="66.5" width="19.8" height="19.8" fill="#9fd3ff" fill-opacity="0.18" stroke="#9fd3ff" stroke-width="0.8"/><rect x="268.8" y="85.7" width="17.6" height="17.6" fill="#9fd3ff" fill-opacity="0.18" stroke="#9fd3ff" stroke-width="0.8"/><rect x="274.3" y="83.0" width="6.6" height="4.4" fill="#9fd3ff" fill-opacity="0.18" stroke="#9fd3ff" stroke-width="0.8"/><rect x="262.2" y="111.6" width="4.4" height="4.4" fill="#89ffa8" fill-opacity="0.18" stroke="#89ffa8" stroke-width="0.8"/><rect x="262.2" y="111.6" width="4.4" height="4.4" fill="#89ffa8" fill-opacity="0.18" stroke="#89ffa8" stroke-width="0.8"/><rect x="289.4" y="111.6" width="3.9" height="4.4" fill="#89ffa8" fill-opacity="0.18" stroke="#89ffa8" stroke-width="0.8"/><rect x="235.5" y="111.6" width="3.9" height="4.4" fill="#89ffa8" fill-opacity="0.18" stroke="#89ffa8" stroke-width="0.8"/><rect x="262.2" y="161.1" width="4.4" height="4.4" fill="#89ffa8" fill-opacity="0.18" stroke="#89ffa8" stroke-width="0.8"/><rect x="262.2" y="161.1" width="4.4" height="4.4" fill="#89ffa8" fill-opacity="0.18" stroke="#89ffa8" stroke-width="0.8"/><rect x="289.4" y="161.1" width="3.9" height="4.4" fill="#89ffa8" fill-opacity="0.18" stroke="#89ffa8" stroke-width="0.8"/><rect x="235.5" y="161.1" width="3.9" height="4.4" fill="#89ffa8" fill-opacity="0.18" stroke="#89ffa8" stroke-width="0.8"/><rect x="242.9" y="65.6" width="42.9" height="2.8" fill="#9fd3ff" fill-opacity="0.18" stroke="#9fd3ff" stroke-width="0.8"/><rect x="252.8" y="62.0" width="23.1" height="2.2" fill="#89ffa8" fill-opacity="0.18" stroke="#89ffa8" stroke-width="0.8"/><rect x="283.9" y="57.9" width="3.9" height="7.2" fill="#ffd39f" fill-opacity="0.18" stroke="#ffd39f" stroke-width="0.8"/><rect x="241.0" y="57.9" width="3.9" height="7.2" fill="#ffd39f" fill-opacity="0.18" stroke="#ffd39f" stroke-width="0.8"/><rect x="283.9" y="57.9" width="3.9" height="7.2" fill="#ffd39f" fill-opacity="0.18" stroke="#ffd39f" stroke-width="0.8"/><rect x="241.0" y="57.9" width="3.9" height="7.2" fill="#ffd39f" fill-opacity="0.18" stroke="#ffd39f" stroke-width="0.8"/><text x="40" y="289" font-size="10" fill="#8ba3c7"><tspan fill="#9fd3ff">■</tspan>internal <tspan fill="#89ffa8">■</tspan>external <tspan fill="#ffd39f">■</tspan>structure · 치수선 없는 배치 투영</text></svg>