<svg xmlns="http://www.w3.org/2000/svg" viewBox="0 0 420 300"><rect width="420" height="300" fill="#050d18"/><defs><pattern id="g" width="20" height="20" patternUnits="userSpaceOnUse"><path d="M20 0L0 0 0 20" fill="none" stroke="rgba(39,74,121,.13)" stroke-width=".4"/></pattern><style>.sk{fill:#081c30;stroke:rgba(100,160,240,.78);stroke-width:1.3;vector-effect:non-scaling-stroke}.pa{fill:rgba(100,160,240,.04);stroke:rgba(100,160,240,.38);stroke-width:.85;stroke-dasharray:5 4;vector-effect:non-scaling-stroke}.ma{fill:none;stroke:rgba(100,160,240,.5);stroke-width:1.1;vector-effect:non-scaling-stroke}.mi{fill:none;stroke:rgba(100,160,240,.22);stroke-width:.7;vector-effect:non-scaling-stroke}.nz{fill:#050d18;stroke:rgba(137,255,168,.45);stroke-width:1;vector-effect:non-scaling-stroke}.cl{fill:none;stroke:rgba(159,211,255,.3);stroke-width:.6;stroke-dasharray:4 3;vector-effect:non-scaling-stroke}.ct{font-family:ui-monospace,monospace;font-size:7px;fill:rgba(230,236,245,.6)}.ti{font-family:ui-monospace,monospace;font-size:7.5px;letter-spacing:.22em;fill:rgba(159,211,255,.52)}.mc{font-family:ui-monospace,monospace;font-size:5.5px;fill:rgba(100,160,240,.32)}.rv{fill:rgba(100,160,240,.25);stroke:none}</style></defs><rect width="420" height="300" fill="url(#g)"/><text x="12" y="16" class="ti">BATTERY PACK (LiFePO4)</text>
<text x="12" y="26" class="mc">24V 400Ah · BMS · IP68 · 10kWh · &gt;30 DAY HOTEL LOAD ENDURANCE</text>
<!-- battery pack enclosure (float-housed) -->
<rect x="60" y="80" width="300" height="160" rx="10" class="sk"/>
<!-- IP68 sealed inner lining -->
<rect x="72" y="92" width="276" height="136" rx="7" class="ma"/>
<!-- LiFePO4 cells in 8S50P configuration -->
<rect x="84" y="104" width="38" height="112" rx="4" class="pa"/>
<rect x="128" y="104" width="38" height="112" rx="4" class="pa"/>
<rect x="172" y="104" width="38" height="112" rx="4" class="pa"/>
<rect x="216" y="104" width="38" height="112" rx="4" class="pa"/>
<rect x="260" y="104" width="38" height="112" rx="4" class="pa"/>
<rect x="304" y="104" width="38" height="112" rx="4" class="pa"/>
<!-- BMS board at top -->
<rect x="84" y="90" width="258" height="16" rx="3" class="pa"/>
<text x="213" y="101" text-anchor="middle" class="mc">BMS 24V BALANCED</text>
<!-- cell terminal tops -->
<circle cx="103" cy="108" r="5" class="nz"/>
<circle cx="147" cy="108" r="5" class="nz"/>
<circle cx="191" cy="108" r="5" class="nz"/>
<circle cx="235" cy="108" r="5" class="nz"/>
<circle cx="279" cy="108" r="5" class="nz"/>
<circle cx="323" cy="108" r="5" class="nz"/>
<!-- output connector (side) -->
<rect x="344" y="148" width="18" height="28" rx="3" class="nz"/>
<!-- breather valve (IP68) -->
<circle cx="210" cy="80" r="7" class="nz"/>
<!-- capacity label -->
<text x="210" y="170" text-anchor="middle" class="mc">10kWh TOTAL</text>
<text x="210" y="182" text-anchor="middle" class="mc">400Ah @ 24V</text>
<text x="210" y="194" text-anchor="middle" class="mc">&gt;30 DAY ENDURANCE</text>
<!-- callouts -->
<line x1="210" y1="80" x2="310" y2="55" class="cl"/><text x="312" y="53" class="ct">IP68 Breather</text>
<line x1="213" y1="88" x2="310" y2="72" class="cl"/><text x="312" y="70" class="ct">BMS Module</text>
<line x1="103" y1="108" x2="38" y2="82" class="cl"/><text x="10" y="80" class="ct">LiFePO4 Cell Bank</text>
<line x1="352" y1="162" x2="390" y2="148" class="cl"/><text x="392" y="146" class="ct">24V Output Conn.</text>
<line x1="72" y1="200" x2="30" y2="220" class="cl"/><text x="10" y="228" class="ct">IP68 Sealed Housing</text>
<text x="210" y="292" text-anchor="middle" class="mc">WAVE GLIDER ASV · P8 LiFePO4 24V 400Ah · BMS · IP68 · 10kWh</text>
</svg>