<svg xmlns="http://www.w3.org/2000/svg" viewBox="0 0 420 300">
  <rect width="420" height="300" fill="#050d18"/>
  <defs><pattern id="g" width="20" height="20" patternUnits="userSpaceOnUse"><path d="M20 0 L0 0 0 20" fill="none" stroke="rgba(72,118,174,.14)" stroke-width=".45"/></pattern><style>.skin{fill:rgba(8,28,48,.72);stroke:rgba(133,190,255,.86);stroke-width:1.2}.detail{fill:none;stroke:rgba(133,190,255,.36);stroke-width:.7}.hot{fill:none;stroke:rgba(137,255,168,.55);stroke-width:.85}.txt{font-family:ui-monospace,Menlo,Consolas,monospace;font-size:8px;letter-spacing:.12em;fill:rgba(230,236,245,.68)}.micro{font-family:ui-monospace,Menlo,Consolas,monospace;font-size:6px;letter-spacing:.12em;fill:rgba(118,169,232,.5)}</style></defs>
  <rect width="420" height="300" fill="url(#g)"/>
  <text x="16" y="22" class="txt">P10 AVIONICS BAY</text><text x="16" y="36" class="micro">FLIGHT COMPUTER · IMU · TELEMETRY · HARNESS TRAY · EMI SHIELD</text>
  <rect x="94" y="74" width="232" height="150" rx="8" class="skin"/>
  <rect x="116" y="98" width="72" height="42" rx="4" class="skin"/>
  <rect x="204" y="98" width="42" height="42" rx="4" class="skin"/>
  <rect x="262" y="98" width="42" height="42" rx="4" class="skin"/>
  <rect x="116" y="158" width="188" height="38" rx="4" class="skin"/>
  <g class="detail">
    <path d="M94 84 L326 84 M94 214 L326 214 M104 74 L104 224 M316 74 L316 224"/>
    <path d="M152 140 L152 158 M225 140 L225 158 M282 140 L282 158"/>
    <path d="M126 176 C166 160 218 194 294 176"/>
    <circle cx="110" cy="90" r="3"/><circle cx="310" cy="90" r="3"/><circle cx="110" cy="208" r="3"/><circle cx="310" cy="208" r="3"/>
  </g>
  <path class="hot" d="M326 122 L360 92 M326 176 L360 206"/>
  <text x="152" y="122" class="micro" text-anchor="middle">FC</text><text x="225" y="122" class="micro" text-anchor="middle">IMU</text><text x="282" y="122" class="micro" text-anchor="middle">TM</text>
  <text x="360" y="90" class="micro" text-anchor="end">ANTENNA FEED</text>
  <text x="360" y="208" class="micro" text-anchor="end">ORDNANCE I/F</text>
  <text x="210" y="246" class="micro" text-anchor="middle">SHIELDED EQUIPMENT RING / HARNESS BACKPLANE</text>
</svg>
