<svg xmlns="http://www.w3.org/2000/svg" viewBox="0 0 420 300">
  <rect width="420" height="300" fill="#050d18"/>
  <defs><pattern id="g" width="20" height="20" patternUnits="userSpaceOnUse"><path d="M20 0 L0 0 0 20" fill="none" stroke="rgba(72,118,174,.14)" stroke-width=".45"/></pattern><style>.skin{fill:rgba(8,28,48,.72);stroke:rgba(133,190,255,.86);stroke-width:1.2}.detail{fill:none;stroke:rgba(133,190,255,.36);stroke-width:.7}.hot{fill:none;stroke:rgba(137,255,168,.55);stroke-width:.85}.txt{font-family:ui-monospace,Menlo,Consolas,monospace;font-size:8px;letter-spacing:.12em;fill:rgba(230,236,245,.68)}.micro{font-family:ui-monospace,Menlo,Consolas,monospace;font-size:6px;letter-spacing:.12em;fill:rgba(118,169,232,.5)}</style></defs>
  <rect width="420" height="300" fill="url(#g)"/>
  <text x="16" y="22" class="txt">P4 LOX TANK</text><text x="16" y="36" class="micro">ELLIPSOID DOMES · SLOSH BAFFLES · VENT / RELIEF PORT</text>
  <path class="skin" d="M134 78 C156 52 264 52 286 78 L286 222 C264 248 156 248 134 222 Z"/>
  <ellipse cx="210" cy="78" rx="76" ry="20" class="skin"/><ellipse cx="210" cy="222" rx="76" ry="20" class="skin"/>
  <g class="detail">
    <path d="M144 106 L276 106 M144 132 L276 132 M144 158 L276 158 M144 184 L276 184"/>
    <path d="M166 88 C174 128 174 178 166 218 M254 88 C246 128 246 178 254 218"/>
    <path d="M156 120 C184 136 236 136 264 120 M156 174 C184 158 236 158 264 174"/>
  </g>
  <rect x="276" y="96" width="34" height="18" rx="3" class="skin"/><path class="hot" d="M310 105 L346 82"/>
  <circle cx="210" cy="222" r="8" class="hot"/>
  <text x="350" y="80" class="micro" text-anchor="end">VENT / RELIEF</text>
  <text x="350" y="160" class="micro" text-anchor="end">ANTI-SLOSH BAFFLES</text><path d="M264 158 L340 158" class="detail"/>
</svg>
