<svg xmlns="http://www.w3.org/2000/svg" viewBox="0 0 420 300">
  <rect width="420" height="300" fill="#050d18"/>
  <defs><pattern id="g" width="20" height="20" patternUnits="userSpaceOnUse"><path d="M20 0 L0 0 0 20" fill="none" stroke="rgba(72,118,174,.14)" stroke-width=".45"/></pattern><style>.skin{fill:rgba(8,28,48,.72);stroke:rgba(133,190,255,.86);stroke-width:1.2}.detail{fill:none;stroke:rgba(133,190,255,.36);stroke-width:.7}.hot{fill:none;stroke:rgba(137,255,168,.55);stroke-width:.85}.txt{font-family:ui-monospace,Menlo,Consolas,monospace;font-size:8px;letter-spacing:.12em;fill:rgba(230,236,245,.68)}.micro{font-family:ui-monospace,Menlo,Consolas,monospace;font-size:6px;letter-spacing:.12em;fill:rgba(118,169,232,.5)}</style></defs>
  <rect width="420" height="300" fill="url(#g)"/>
  <text x="16" y="22" class="txt">P6 INTERSTAGE ADAPTER</text><text x="16" y="36" class="micro">RING FRAMES · DIAGONAL TRUSS · SEPARATION BOLTS · VENTS</text>
  <rect x="104" y="78" width="212" height="144" rx="4" class="skin"/>
  <ellipse cx="210" cy="78" rx="106" ry="18" class="skin"/><ellipse cx="210" cy="222" rx="106" ry="18" class="skin"/>
  <g class="detail">
    <path d="M112 88 L308 212 M308 88 L112 212 M154 78 L154 222 M210 78 L210 222 M266 78 L266 222"/>
    <path d="M104 114 L316 114 M104 150 L316 150 M104 186 L316 186"/>
    <rect x="126" y="132" width="28" height="20" rx="2"/><rect x="266" y="132" width="28" height="20" rx="2"/>
  </g>
  <g class="hot">
    <circle cx="130" cy="78" r="3"/><circle cx="170" cy="78" r="3"/><circle cx="210" cy="78" r="3"/><circle cx="250" cy="78" r="3"/><circle cx="290" cy="78" r="3"/>
    <circle cx="130" cy="222" r="3"/><circle cx="170" cy="222" r="3"/><circle cx="210" cy="222" r="3"/><circle cx="250" cy="222" r="3"/><circle cx="290" cy="222" r="3"/>
  </g>
  <text x="352" y="86" class="micro" text-anchor="end">SEP BOLT RING</text><path d="M290 78 L342 82" class="detail"/>
  <text x="352" y="146" class="micro" text-anchor="end">VENT CUTOUTS</text><path d="M294 142 L342 144" class="detail"/>
</svg>
