<svg xmlns="http://www.w3.org/2000/svg" viewBox="0 0 420 300"><rect width="420" height="300" fill="#050d18"/><defs><pattern id="g" width="20" height="20" patternUnits="userSpaceOnUse"><path d="M20 0 L0 0 0 20" fill="none" stroke="rgba(72,118,174,.14)" stroke-width=".45"/></pattern><style>.skin{fill:rgba(8,28,48,.72);stroke:rgba(133,190,255,.86);stroke-width:1.2}.detail{fill:none;stroke:rgba(133,190,255,.36);stroke-width:.7}.hot{fill:none;stroke:rgba(137,255,168,.55);stroke-width:.85}.txt{font-family:ui-monospace,Consolas,monospace;font-size:8px;letter-spacing:.12em;fill:rgba(230,236,245,.68)}.micro{font-family:ui-monospace,Consolas,monospace;font-size:6px;letter-spacing:.12em;fill:rgba(118,169,232,.5)}</style></defs><rect width="420" height="300" fill="url(#g)"/><text x="16" y="22" class="txt">P4 BLADE CARRIER + OD RING</text><text x="16" y="36" class="micro">CARBURIZED STEEL - BLADE BOLT PATTERN - ANTI-FRETTING COATING</text><circle cx="210" cy="162" r="108" class="skin"/><circle cx="210" cy="162" r="88" fill="#050d18" stroke="rgba(133,190,255,.6)" stroke-width=".8"/><circle cx="210" cy="162" r="96" class="detail"/><circle cx="210" cy="162" r="44" class="skin"/><circle cx="210" cy="162" r="36" fill="#050d18" stroke="rgba(133,190,255,.6)" stroke-width=".8"/><circle cx="210" cy="66" r="12" class="detail"/><circle cx="296" cy="210" r="12" class="detail"/><circle cx="124" cy="210" r="12" class="detail"/><circle cx="296" cy="114" r="8" class="detail"/><circle cx="124" cy="114" r="8" class="detail"/><circle cx="210" cy="258" r="8" class="detail"/><rect x="198" y="88" width="24" height="22" rx="4" class="skin"/><rect x="270" y="196" width="24" height="22" rx="4" class="skin"/><rect x="126" y="196" width="24" height="22" rx="4" class="skin"/><path d="M 318 90 L 380 60 L 404 60" class="detail"/><text x="404" y="57" class="micro" text-anchor="end">BLADE BOLT CIRCLE (4x)</text><path d="M 252 162 L 380 140 L 404 140" class="hot"/><text x="404" y="137" class="micro" text-anchor="end">ANTI-FRETTING COLLAR</text><path d="M 210 270 L 130 284 L 18 284" class="detail"/><text x="18" y="281" class="micro">CASE-HARDENED 17CrNiMo6 - OD RING PRECISION FIT</text></svg>
