<svg xmlns="http://www.w3.org/2000/svg" width="864" height="265" viewBox="0 0 864 265"><rect width="100%" height="100%" fill="#f7f9fb"/><rect width="100%" height="100%" fill="#0a1626"/><text x="40" y="24" font-size="13" fill="#9fd3ff" font-weight="bold">tiltrotor_serviceability_redesign_v1 rev 1.0 · PETG + TPU pads · 29 parts · 배치 투영도</text><rect x="40" y="56" width="248" height="169" fill="#0c1e35" stroke="#274a79"/><text x="40" y="50" font-size="12" fill="#9fd3ff" font-weight="bold">TOP (X-Y)</text><rect x="148.4" y="82.4" width="30.8" height="115.5" fill="#ffd39f" fill-opacity="0.18" stroke="#ffd39f" stroke-width="0.8"/><rect x="148.9" y="56.0" width="29.7" height="25.3" fill="#89ffa8" fill-opacity="0.18" stroke="#89ffa8" stroke-width="0.8"/><rect x="152.8" y="90.7" width="22.0" height="22.0" fill="#89ffa8" fill-opacity="0.18" stroke="#89ffa8" stroke-width="0.8"/><rect x="157.7" y="186.9" width="12.1" height="38.5" fill="#ffd39f" fill-opacity="0.18" stroke="#ffd39f" stroke-width="0.8"/><rect x="73.0" y="122.0" width="181.5" height="27.5" fill="#89ffa8" fill-opacity="0.18" stroke="#89ffa8" stroke-width="0.8"/><rect x="73.0" y="133.0" width="181.5" height="5.5" fill="#ffd39f" fill-opacity="0.18" stroke="#ffd39f" stroke-width="0.8"/><rect x="173.7" y="188.0" width="4.4" height="25.3" fill="#89ffa8" fill-opacity="0.18" stroke="#89ffa8" stroke-width="0.8"/><rect x="149.4" y="188.0" width="4.4" height="25.3" fill="#89ffa8" fill-opacity="0.18" stroke="#89ffa8" stroke-width="0.8"/><rect x="235.3" y="110.5" width="22.0" height="35.2" fill="#ffd39f" fill-opacity="0.18" stroke="#ffd39f" stroke-width="0.8"/><rect x="235.3" y="103.8" width="22.0" height="11.0" fill="#89ffa8" fill-opacity="0.18" stroke="#89ffa8" stroke-width="0.8"/><rect x="238.0" y="130.8" width="16.5" height="9.9" fill="#9fd3ff" fill-opacity="0.18" stroke="#9fd3ff" stroke-width="0.8"/><rect x="239.7" y="111.6" width="13.2" height="13.2" fill="#9fd3ff" fill-opacity="0.18" stroke="#9fd3ff" stroke-width="0.8"/><rect x="240.2" y="112.1" width="12.1" height="12.1" fill="#9fd3ff" fill-opacity="0.18" stroke="#9fd3ff" stroke-width="0.8"/><rect x="205.0" y="115.1" width="82.5" height="6.1" fill="#89ffa8" fill-opacity="0.18" stroke="#89ffa8" stroke-width="0.8"/><rect x="205.0" y="115.1" width="82.5" height="6.1" fill="#89ffa8" fill-opacity="0.18" stroke="#89ffa8" stroke-width="0.8"/><rect x="205.0" y="115.1" width="82.5" height="6.1" fill="#89ffa8" fill-opacity="0.18" stroke="#89ffa8" stroke-width="0.8"/><rect x="70.2" y="110.5" width="22.0" height="35.2" fill="#ffd39f" fill-opacity="0.18" stroke="#ffd39f" stroke-width="0.8"/><rect x="70.2" y="103.8" width="22.0" height="11.0" fill="#89ffa8" fill-opacity="0.18" stroke="#89ffa8" stroke-width="0.8"/><rect x="73.0" y="130.8" width="16.5" height="9.9" fill="#9fd3ff" fill-opacity="0.18" stroke="#9fd3ff" stroke-width="0.8"/><rect x="74.7" y="111.6" width="13.2" height="13.2" fill="#9fd3ff" fill-opacity="0.18" stroke="#9fd3ff" stroke-width="0.8"/><rect x="75.2" y="112.1" width="12.1" height="12.1" fill="#9fd3ff" fill-opacity="0.18" stroke="#9fd3ff" stroke-width="0.8"/><rect x="40.0" y="115.1" width="82.5" height="6.1" fill="#89ffa8" fill-opacity="0.18" stroke="#89ffa8" stroke-width="0.8"/><rect x="40.0" y="115.1" width="82.5" height="6.1" fill="#89ffa8" fill-opacity="0.18" stroke="#89ffa8" stroke-width="0.8"/><rect x="40.0" y="115.1" width="82.5" height="6.1" fill="#89ffa8" fill-opacity="0.18" stroke="#89ffa8" stroke-width="0.8"/><rect x="152.8" y="107.2" width="22.0" height="33.0" fill="#9fd3ff" fill-opacity="0.18" stroke="#9fd3ff" stroke-width="0.8"/><rect x="151.7" y="142.9" width="24.2" height="27.5" fill="#9fd3ff" fill-opacity="0.18" stroke="#9fd3ff" stroke-width="0.8"/><rect x="154.9" y="136.9" width="17.6" height="17.6" fill="#9fd3ff" fill-opacity="0.18" stroke="#9fd3ff" stroke-width="0.8"/><rect x="183.6" y="107.2" width="4.4" height="66.0" fill="#ffd39f" fill-opacity="0.18" stroke="#ffd39f" stroke-width="0.8"/><rect x="139.6" y="107.2" width="4.4" height="66.0" fill="#ffd39f" fill-opacity="0.18" stroke="#ffd39f" stroke-width="0.8"/><rect x="327.5" y="56" width="248" height="53" fill="#0c1e35" stroke="#274a79"/><text x="327.5" y="50" font-size="12" fill="#9fd3ff" font-weight="bold">FRONT (X-Z)</text><rect x="435.9" y="67.5" width="30.8" height="30.8" fill="#ffd39f" fill-opacity="0.18" stroke="#ffd39f" stroke-width="0.8"/><rect x="436.4" y="68.1" width="29.7" height="29.7" fill="#89ffa8" fill-opacity="0.18" stroke="#89ffa8" stroke-width="0.8"/><rect x="440.2" y="65.3" width="22.0" height="22.0" fill="#89ffa8" fill-opacity="0.18" stroke="#89ffa8" stroke-width="0.8"/><rect x="445.2" y="74.7" width="12.1" height="12.1" fill="#ffd39f" fill-opacity="0.18" stroke="#ffd39f" stroke-width="0.8"/><rect x="360.5" y="79.7" width="181.5" height="6.6" fill="#89ffa8" fill-opacity="0.18" stroke="#89ffa8" stroke-width="0.8"/><rect x="360.5" y="80.2" width="181.5" height="5.5" fill="#ffd39f" fill-opacity="0.18" stroke="#ffd39f" stroke-width="0.8"/><rect x="461.1" y="57.6" width="4.4" height="30.8" fill="#89ffa8" fill-opacity="0.18" stroke="#89ffa8" stroke-width="0.8"/><rect x="436.9" y="57.6" width="4.4" height="30.8" fill="#89ffa8" fill-opacity="0.18" stroke="#89ffa8" stroke-width="0.8"/><rect x="522.8" y="72.0" width="22.0" height="22.0" fill="#ffd39f" fill-opacity="0.18" stroke="#ffd39f" stroke-width="0.8"/><rect x="522.8" y="72.0" width="22.0" height="22.0" fill="#89ffa8" fill-opacity="0.18" stroke="#89ffa8" stroke-width="0.8"/><rect x="525.5" y="78.0" width="16.5" height="9.9" fill="#9fd3ff" fill-opacity="0.18" stroke="#9fd3ff" stroke-width="0.8"/><rect x="527.1" y="63.7" width="13.2" height="14.3" fill="#9fd3ff" fill-opacity="0.18" stroke="#9fd3ff" stroke-width="0.8"/><rect x="527.7" y="56.0" width="12.1" height="12.1" fill="#9fd3ff" fill-opacity="0.18" stroke="#9fd3ff" stroke-width="0.8"/><rect x="492.5" y="60.1" width="82.5" height="1.7" fill="#89ffa8" fill-opacity="0.18" stroke="#89ffa8" stroke-width="0.8"/><rect x="492.5" y="60.1" width="82.5" height="1.7" fill="#89ffa8" fill-opacity="0.18" stroke="#89ffa8" stroke-width="0.8"/><rect x="492.5" y="60.1" width="82.5" height="1.7" fill="#89ffa8" fill-opacity="0.18" stroke="#89ffa8" stroke-width="0.8"/><rect x="357.8" y="72.0" width="22.0" height="22.0" fill="#ffd39f" fill-opacity="0.18" stroke="#ffd39f" stroke-width="0.8"/><rect x="357.8" y="72.0" width="22.0" height="22.0" fill="#89ffa8" fill-opacity="0.18" stroke="#89ffa8" stroke-width="0.8"/><rect x="360.5" y="78.0" width="16.5" height="9.9" fill="#9fd3ff" fill-opacity="0.18" stroke="#9fd3ff" stroke-width="0.8"/><rect x="362.1" y="63.7" width="13.2" height="14.3" fill="#9fd3ff" fill-opacity="0.18" stroke="#9fd3ff" stroke-width="0.8"/><rect x="362.7" y="56.0" width="12.1" height="12.1" fill="#9fd3ff" fill-opacity="0.18" stroke="#9fd3ff" stroke-width="0.8"/><rect x="327.5" y="60.1" width="82.5" height="1.7" fill="#89ffa8" fill-opacity="0.18" stroke="#89ffa8" stroke-width="0.8"/><rect x="327.5" y="60.1" width="82.5" height="1.7" fill="#89ffa8" fill-opacity="0.18" stroke="#89ffa8" stroke-width="0.8"/><rect x="327.5" y="60.1" width="82.5" height="1.7" fill="#89ffa8" fill-opacity="0.18" stroke="#89ffa8" stroke-width="0.8"/><rect x="440.2" y="79.1" width="22.0" height="14.3" fill="#9fd3ff" fill-opacity="0.18" stroke="#9fd3ff" stroke-width="0.8"/><rect x="439.1" y="75.8" width="24.2" height="7.7" fill="#9fd3ff" fill-opacity="0.18" stroke="#9fd3ff" stroke-width="0.8"/><rect x="442.4" y="65.3" width="17.6" height="44.0" fill="#9fd3ff" fill-opacity="0.18" stroke="#9fd3ff" stroke-width="0.8"/><rect x="471.1" y="99.5" width="4.4" height="4.4" fill="#ffd39f" fill-opacity="0.18" stroke="#ffd39f" stroke-width="0.8"/><rect x="427.1" y="99.5" width="4.4" height="4.4" fill="#ffd39f" fill-opacity="0.18" stroke="#ffd39f" stroke-width="0.8"/><rect x="615.0" y="56" width="169" height="53" fill="#0c1e35" stroke="#274a79"/><text x="615.0" y="50" font-size="12" fill="#9fd3ff" font-weight="bold">SIDE (Y-Z)</text><rect x="642.5" y="67.5" width="115.5" height="30.8" fill="#ffd39f" fill-opacity="0.18" stroke="#ffd39f" stroke-width="0.8"/><rect x="759.1" y="68.1" width="25.3" height="29.7" fill="#89ffa8" fill-opacity="0.18" stroke="#89ffa8" stroke-width="0.8"/><rect x="727.8" y="65.3" width="22.0" height="22.0" fill="#89ffa8" fill-opacity="0.18" stroke="#89ffa8" stroke-width="0.8"/><rect x="615.0" y="74.7" width="38.5" height="12.1" fill="#ffd39f" fill-opacity="0.18" stroke="#ffd39f" stroke-width="0.8"/><rect x="690.9" y="79.7" width="27.5" height="6.6" fill="#89ffa8" fill-opacity="0.18" stroke="#89ffa8" stroke-width="0.8"/><rect x="701.9" y="80.2" width="5.5" height="5.5" fill="#ffd39f" fill-opacity="0.18" stroke="#ffd39f" stroke-width="0.8"/><rect x="627.1" y="57.6" width="25.3" height="30.8" fill="#89ffa8" fill-opacity="0.18" stroke="#89ffa8" stroke-width="0.8"/><rect x="627.1" y="57.6" width="25.3" height="30.8" fill="#89ffa8" fill-opacity="0.18" stroke="#89ffa8" stroke-width="0.8"/><rect x="694.8" y="72.0" width="35.2" height="22.0" fill="#ffd39f" fill-opacity="0.18" stroke="#ffd39f" stroke-width="0.8"/><rect x="725.5" y="72.0" width="11.0" height="22.0" fill="#89ffa8" fill-opacity="0.18" stroke="#89ffa8" stroke-width="0.8"/><rect x="699.7" y="78.0" width="9.9" height="9.9" fill="#9fd3ff" fill-opacity="0.18" stroke="#9fd3ff" stroke-width="0.8"/><rect x="715.6" y="63.7" width="13.2" height="14.3" fill="#9fd3ff" fill-opacity="0.18" stroke="#9fd3ff" stroke-width="0.8"/><rect x="716.2" y="56.0" width="12.1" height="12.1" fill="#9fd3ff" fill-opacity="0.18" stroke="#9fd3ff" stroke-width="0.8"/><rect x="719.2" y="60.1" width="6.1" height="1.7" fill="#89ffa8" fill-opacity="0.18" stroke="#89ffa8" stroke-width="0.8"/><rect x="719.2" y="60.1" width="6.1" height="1.7" fill="#89ffa8" fill-opacity="0.18" stroke="#89ffa8" stroke-width="0.8"/><rect x="719.2" y="60.1" width="6.1" height="1.7" fill="#89ffa8" fill-opacity="0.18" stroke="#89ffa8" stroke-width="0.8"/><rect x="694.8" y="72.0" width="35.2" height="22.0" fill="#ffd39f" fill-opacity="0.18" stroke="#ffd39f" stroke-width="0.8"/><rect x="725.5" y="72.0" width="11.0" height="22.0" fill="#89ffa8" fill-opacity="0.18" stroke="#89ffa8" stroke-width="0.8"/><rect x="699.7" y="78.0" width="9.9" height="9.9" fill="#9fd3ff" fill-opacity="0.18" stroke="#9fd3ff" stroke-width="0.8"/><rect x="715.6" y="63.7" width="13.2" height="14.3" fill="#9fd3ff" fill-opacity="0.18" stroke="#9fd3ff" stroke-width="0.8"/><rect x="716.2" y="56.0" width="12.1" height="12.1" fill="#9fd3ff" fill-opacity="0.18" stroke="#9fd3ff" stroke-width="0.8"/><rect x="719.2" y="60.1" width="6.1" height="1.7" fill="#89ffa8" fill-opacity="0.18" stroke="#89ffa8" stroke-width="0.8"/><rect x="719.2" y="60.1" width="6.1" height="1.7" fill="#89ffa8" fill-opacity="0.18" stroke="#89ffa8" stroke-width="0.8"/><rect x="719.2" y="60.1" width="6.1" height="1.7" fill="#89ffa8" fill-opacity="0.18" stroke="#89ffa8" stroke-width="0.8"/><rect x="700.2" y="79.1" width="33.0" height="14.3" fill="#9fd3ff" fill-opacity="0.18" stroke="#9fd3ff" stroke-width="0.8"/><rect x="670.0" y="75.8" width="27.5" height="7.7" fill="#9fd3ff" fill-opacity="0.18" stroke="#9fd3ff" stroke-width="0.8"/><rect x="686.0" y="65.3" width="17.6" height="44.0" fill="#9fd3ff" fill-opacity="0.18" stroke="#9fd3ff" stroke-width="0.8"/><rect x="667.2" y="99.5" width="66.0" height="4.4" fill="#ffd39f" fill-opacity="0.18" stroke="#ffd39f" stroke-width="0.8"/><rect x="667.2" y="99.5" width="66.0" height="4.4" fill="#ffd39f" fill-opacity="0.18" stroke="#ffd39f" stroke-width="0.8"/><text x="40" y="251" font-size="10" fill="#8ba3c7"><tspan fill="#9fd3ff">■</tspan>internal <tspan fill="#89ffa8">■</tspan>external <tspan fill="#ffd39f">■</tspan>structure · 치수선 없는 배치 투영</text></svg>