<svg xmlns="http://www.w3.org/2000/svg" viewBox="0 0 420 300"><rect width="420" height="300" fill="#050d18"/><defs><pattern id="g" width="20" height="20" patternUnits="userSpaceOnUse"><path d="M20 0 L0 0 0 20" fill="none" stroke="rgba(72,118,174,.14)" stroke-width=".45"/></pattern><style>.skin{fill:rgba(8,28,48,.72);stroke:rgba(133,190,255,.86);stroke-width:1.2}.detail{fill:none;stroke:rgba(133,190,255,.36);stroke-width:.7}.hot{fill:none;stroke:rgba(137,255,168,.55);stroke-width:.85}.txt{font-family:ui-monospace,Consolas,monospace;font-size:8px;letter-spacing:.12em;fill:rgba(230,236,245,.68)}.micro{font-family:ui-monospace,Consolas,monospace;font-size:6px;letter-spacing:.12em;fill:rgba(118,169,232,.5)}</style></defs><rect width="420" height="300" fill="url(#g)"/><text x="16" y="22" class="txt">P1 X-FRAME TOP PLATE (CFRP)</text><text x="16" y="36" class="micro">5" WB 220 mm - 2 mm CFRP - FC STACK 30.5x30.5 - MOTOR M3 16x16</text><rect x="80" y="60" width="260" height="180" rx="6" class="skin"/><path d="M 80 60 L 142 122 M 340 60 L 278 122 M 80 240 L 142 178 M 340 240 L 278 178" class="detail"/><rect x="142" y="122" width="136" height="56" rx="4" fill="#050d18" stroke="rgba(133,190,255,.6)" stroke-width=".8"/><rect x="164" y="136" width="92" height="28" rx="2" class="detail"/><circle cx="178" cy="150" r="4" class="hot"/><circle cx="242" cy="150" r="4" class="hot"/><circle cx="178" cy="160" r="4" class="hot"/><circle cx="242" cy="160" r="4" class="hot"/><circle cx="100" cy="80" r="6" class="detail"/><circle cx="320" cy="80" r="6" class="detail"/><circle cx="100" cy="220" r="6" class="detail"/><circle cx="320" cy="220" r="6" class="detail"/><line x1="80" y1="150" x2="340" y2="150" class="detail" stroke-dasharray="4 3"/><line x1="210" y1="60" x2="210" y2="240" class="detail" stroke-dasharray="4 3"/><path d="M 242 136 L 310 90 L 404 90" class="hot"/><text x="404" y="87" class="micro" text-anchor="end">FC STACK HOLES 30.5x30.5</text><path d="M 100 74 L 60 44 L 18 44" class="detail"/><text x="18" y="41" class="micro">MOTOR MOUNT 16x16 mm</text><text x="16" y="278" class="micro">2 mm CFRP T700 - CNC ROUTED - WB 220 mm - MASS ~12 g</text></svg>
