<svg xmlns="http://www.w3.org/2000/svg" viewBox="0 0 420 300">
  <rect width="420" height="300" fill="#050d18"/>
  <defs><pattern id="g" width="20" height="20" patternUnits="userSpaceOnUse"><path d="M20 0 L0 0 0 20" fill="none" stroke="rgba(72,118,174,.14)" stroke-width=".45"/></pattern><style>.skin{fill:rgba(8,28,48,.72);stroke:rgba(133,190,255,.86);stroke-width:1.2}.detail{fill:none;stroke:rgba(133,190,255,.36);stroke-width:.7}.hot{fill:none;stroke:rgba(137,255,168,.55);stroke-width:.85}.txt{font-family:ui-monospace,Menlo,Consolas,monospace;font-size:8px;letter-spacing:.12em;fill:rgba(230,236,245,.68)}.micro{font-family:ui-monospace,Menlo,Consolas,monospace;font-size:6px;letter-spacing:.12em;fill:rgba(118,169,232,.5)}</style></defs>
  <rect width="420" height="300" fill="url(#g)"/>
  <text x="16" y="22" class="txt">P3 ANTENNA DEPLOYER</text><text x="16" y="36" class="micro">TAPE SPRING · STOWAGE SLOT · RELEASE PIN · LATCH TAB</text>
  <rect x="156" y="92" width="108" height="130" rx="6" class="skin"/>
  <rect x="174" y="114" width="72" height="18" rx="2" class="detail"/>
  <rect x="174" y="146" width="72" height="18" rx="2" class="detail"/>
  <rect x="174" y="178" width="72" height="18" rx="2" class="detail"/>
  <path class="hot" d="M174 114 C116 84 98 62 84 42 M246 146 C306 118 328 82 344 50 M174 178 C116 206 98 238 84 262"/>
  <circle cx="210" cy="206" r="7" class="detail"/><path class="detail" d="M190 206 L230 206 M210 92 L210 222"/>
  <text x="340" y="56" class="micro" text-anchor="end">DEPLOYED TAPE</text>
  <text x="340" y="208" class="micro" text-anchor="end">RELEASE PIN</text><path d="M230 206 L330 206" class="detail"/>
</svg>
