<svg xmlns="http://www.w3.org/2000/svg" viewBox="0 0 420 300">
  <rect width="420" height="300" fill="#050d18"/>
  <defs><pattern id="g" width="20" height="20" patternUnits="userSpaceOnUse"><path d="M20 0 L0 0 0 20" fill="none" stroke="rgba(72,118,174,.14)" stroke-width=".45"/></pattern><style>.skin{fill:rgba(8,28,48,.72);stroke:rgba(133,190,255,.86);stroke-width:1.2}.detail{fill:none;stroke:rgba(133,190,255,.36);stroke-width:.7}.hot{fill:none;stroke:rgba(137,255,168,.55);stroke-width:.85}.txt{font-family:ui-monospace,Menlo,Consolas,monospace;font-size:8px;letter-spacing:.12em;fill:rgba(230,236,245,.68)}.micro{font-family:ui-monospace,Menlo,Consolas,monospace;font-size:6px;letter-spacing:.12em;fill:rgba(118,169,232,.5)}</style></defs>
  <rect width="420" height="300" fill="url(#g)"/>
  <text x="16" y="22" class="txt">P4 REACTION WHEEL</text><text x="16" y="36" class="micro">ROTOR · STATOR · ISOLATION MOUNT · MOMENTUM AXIS</text>
  <circle cx="210" cy="150" r="84" class="skin"/>
  <circle cx="210" cy="150" r="56" class="detail"/>
  <circle cx="210" cy="150" r="24" class="hot"/>
  <g class="detail">
    <path d="M210 66 L210 234 M126 150 L294 150 M150 90 L270 210 M270 90 L150 210"/>
    <circle cx="154" cy="94" r="5"/><circle cx="266" cy="94" r="5"/><circle cx="154" cy="206" r="5"/><circle cx="266" cy="206" r="5"/>
  </g>
  <text x="350" y="150" class="micro" text-anchor="end">SPIN AXIS</text><path d="M294 150 L340 150" class="detail"/>
  <text x="210" y="258" class="micro" text-anchor="middle">ELASTOMER ISOLATION POINTS</text>
</svg>
