<svg xmlns="http://www.w3.org/2000/svg" width="1560" height="1530" viewBox="0 0 1560 1530">


<defs>
 <pattern id="h1" width="8" height="8" patternUnits="userSpaceOnUse" patternTransform="rotate(60)">
   <line x1="0" y1="0" x2="0" y2="8" stroke="#9fd3ff" stroke-width="1"></line>
 </pattern>
 <pattern id="h2" width="8" height="8" patternUnits="userSpaceOnUse" patternTransform="rotate(120)">
   <line x1="0" y1="0" x2="0" y2="8" stroke="#9fd3ff" stroke-width="1"></line>
 </pattern>
 <marker id="arrow" viewBox="0 0 10 10" refX="10" refY="5" markerUnits="strokeWidth" markerWidth="8" markerHeight="6" orient="auto">
   <path d="M 0 0 L 10 5 L 0 10 z" fill="#e6f0ff"></path>
 </marker>
</defs>

<rect class="bg" width="100%" height="100%"></rect>
<rect class="frame" x="12" y="12" width="1536" height="1506"></rect>
<line x1="120" y1="765" x2="900" y2="765" class="s dash"></line>
<path d="M 120 738 L 126 739 L 133 740 L 140 742 L 146 743 L 153 744 L 160 745 L 166 747 L 173 748 L 180 749 L 186 750 L 193 751 L 200 753 L 206 754 L 213 755 L 213 688 L 432 688 L 432 690 L 588 690 L 588 688 L 775 688 L 775 737 L 784 734 L 793 730 L 801 727 L 810 723 L 819 720 L 828 717 L 837 713 L 846 710 L 855 706 L 864 703 L 873 700 L 882 696 L 891 693 L 900 689 L 900 840 L 891 836 L 882 833 L 873 829 L 864 826 L 855 823 L 846 819 L 837 816 L 828 812 L 819 809 L 810 806 L 801 802 L 793 799 L 784 795 L 775 792 L 775 841 L 588 841 L 588 839 L 432 839 L 432 841 L 213 841 L 213 774 L 206 775 L 200 776 L 193 778 L 186 779 L 180 780 L 173 781 L 166 782 L 160 784 L 153 785 L 146 786 L 140 787 L 133 789 L 126 790 Z" class="s"></path>
<text x="126" y="678" class="t" text-anchor="start">INLET / SPIKE</text>
<line x1="124" y1="747" x2="146" y2="731" class="dim"></line>
<text x="152" y="729" class="t" text-anchor="start">SHOCK TRAP BLEED →</text>
<rect x="185" y="718" width="24" height="22" class="dim"></rect>
<text x="213" y="732" class="t" text-anchor="start">FWD BYPASS DOOR</text>
<text x="219" y="678" class="t" text-anchor="start">FAN</text>
<line x1="213" y1="694" x2="213" y2="835" class="s"></line>
<line x1="216" y1="700" x2="216" y2="829" class="s"></line>
<line x1="219" y1="694" x2="219" y2="835" class="s"></line>
<line x1="222" y1="700" x2="222" y2="829" class="s"></line>
<line x1="225" y1="694" x2="225" y2="835" class="s"></line>
<line x1="228" y1="700" x2="228" y2="829" class="s"></line>
<line x1="231" y1="694" x2="231" y2="835" class="s"></line>
<line x1="235" y1="700" x2="235" y2="829" class="s"></line>
<line x1="238" y1="694" x2="238" y2="835" class="s"></line>
<line x1="241" y1="700" x2="241" y2="829" class="s"></line>
<line x1="244" y1="694" x2="244" y2="835" class="s"></line>
<line x1="247" y1="700" x2="247" y2="829" class="s"></line>
<line x1="250" y1="694" x2="250" y2="835" class="s"></line>
<line x1="253" y1="700" x2="253" y2="829" class="s"></line>
<line x1="256" y1="694" x2="256" y2="835" class="s"></line>
<line x1="259" y1="688" x2="259" y2="841" class="s"></line>
<line x1="261" y1="694" x2="261" y2="835" class="s"></line>
<line x1="264" y1="688" x2="264" y2="841" class="s"></line>
<line x1="266" y1="694" x2="266" y2="835" class="s"></line>
<line x1="269" y1="688" x2="269" y2="841" class="s"></line>
<line x1="271" y1="694" x2="271" y2="835" class="s"></line>
<line x1="274" y1="688" x2="274" y2="841" class="s"></line>
<line x1="276" y1="694" x2="276" y2="835" class="s"></line>
<line x1="279" y1="688" x2="279" y2="841" class="s"></line>
<line x1="281" y1="694" x2="281" y2="835" class="s"></line>
<line x1="284" y1="688" x2="284" y2="841" class="s"></line>
<line x1="286" y1="694" x2="286" y2="835" class="s"></line>
<line x1="289" y1="688" x2="289" y2="841" class="s"></line>
<text x="297" y="678" class="t" text-anchor="start">COMP-1</text>
<line x1="291" y1="694" x2="291" y2="835" class="s"></line>
<line x1="296" y1="700" x2="296" y2="829" class="s"></line>
<line x1="301" y1="694" x2="301" y2="835" class="s"></line>
<line x1="306" y1="700" x2="306" y2="829" class="s"></line>
<line x1="311" y1="694" x2="311" y2="835" class="s"></line>
<line x1="315" y1="700" x2="315" y2="829" class="s"></line>
<line x1="320" y1="694" x2="320" y2="835" class="s"></line>
<line x1="325" y1="700" x2="325" y2="829" class="s"></line>
<line x1="330" y1="694" x2="330" y2="835" class="s"></line>
<line x1="335" y1="700" x2="335" y2="829" class="s"></line>
<line x1="340" y1="694" x2="340" y2="835" class="s"></line>
<line x1="345" y1="700" x2="345" y2="829" class="s"></line>
<line x1="350" y1="694" x2="350" y2="835" class="s"></line>
<line x1="354" y1="700" x2="354" y2="829" class="s"></line>
<line x1="359" y1="694" x2="359" y2="835" class="s"></line>
<line x1="364" y1="700" x2="364" y2="829" class="s"></line>
<text x="375" y="678" class="t" text-anchor="start">COMP-2</text>
<line x1="369" y1="694" x2="369" y2="835" class="s"></line>
<line x1="373" y1="688" x2="373" y2="841" class="s"></line>
<line x1="377" y1="694" x2="377" y2="835" class="s"></line>
<line x1="381" y1="688" x2="381" y2="841" class="s"></line>
<line x1="385" y1="694" x2="385" y2="835" class="s"></line>
<line x1="389" y1="688" x2="389" y2="841" class="s"></line>
<line x1="393" y1="694" x2="393" y2="835" class="s"></line>
<line x1="396" y1="688" x2="396" y2="841" class="s"></line>
<line x1="400" y1="694" x2="400" y2="835" class="s"></line>
<line x1="404" y1="688" x2="404" y2="841" class="s"></line>
<line x1="408" y1="694" x2="408" y2="835" class="s"></line>
<line x1="412" y1="688" x2="412" y2="841" class="s"></line>
<line x1="416" y1="694" x2="416" y2="835" class="s"></line>
<line x1="420" y1="688" x2="420" y2="841" class="s"></line>
<line x1="424" y1="694" x2="424" y2="835" class="s"></line>
<line x1="428" y1="688" x2="428" y2="841" class="s"></line>
<text x="438" y="678" class="t" text-anchor="start">COMBUSTOR / LINER</text>
<rect x="432" y="710" width="156" height="109" class="s"></rect>
<rect x="442" y="724" width="136" height="81" class="s"></rect>
<rect x="450" y="724" width="44" height="81" class="hatch2"></rect>
<line x1="502" y1="751" x2="516" y2="765" class="dim"></line>
<line x1="504" y1="779" x2="518" y2="765" class="dim"></line>
<line x1="518" y1="751" x2="532" y2="765" class="dim"></line>
<line x1="520" y1="779" x2="534" y2="765" class="dim"></line>
<line x1="534" y1="751" x2="548" y2="765" class="dim"></line>
<line x1="536" y1="779" x2="550" y2="765" class="dim"></line>
<line x1="550" y1="751" x2="564" y2="765" class="dim"></line>
<line x1="552" y1="779" x2="566" y2="765" class="dim"></line>
<line x1="566" y1="751" x2="580" y2="765" class="dim"></line>
<line x1="568" y1="779" x2="582" y2="765" class="dim"></line>
<line x1="582" y1="751" x2="596" y2="765" class="dim"></line>
<line x1="584" y1="779" x2="598" y2="765" class="dim"></line>
<text x="504" y="747" class="t" text-anchor="start">FLAME HOLDER</text>
<circle cx="562" cy="765" r="10" class="dim"></circle>
<text x="562" y="749" class="t" text-anchor="middle">AB SPRAY RING</text>
<text x="594" y="678" class="t" text-anchor="start">TURB-1</text>
<line x1="588" y1="694" x2="588" y2="835" class="s"></line>
<line x1="590" y1="700" x2="590" y2="829" class="s"></line>
<line x1="593" y1="694" x2="593" y2="835" class="s"></line>
<line x1="595" y1="700" x2="595" y2="829" class="s"></line>
<line x1="598" y1="694" x2="598" y2="835" class="s"></line>
<line x1="601" y1="700" x2="601" y2="829" class="s"></line>
<line x1="603" y1="694" x2="603" y2="835" class="s"></line>
<line x1="606" y1="700" x2="606" y2="829" class="s"></line>
<line x1="608" y1="694" x2="608" y2="835" class="s"></line>
<line x1="611" y1="700" x2="611" y2="829" class="s"></line>
<line x1="614" y1="694" x2="614" y2="835" class="s"></line>
<line x1="616" y1="700" x2="616" y2="829" class="s"></line>
<line x1="619" y1="694" x2="619" y2="835" class="s"></line>
<line x1="621" y1="700" x2="621" y2="829" class="s"></line>
<line x1="624" y1="694" x2="624" y2="835" class="s"></line>
<line x1="627" y1="700" x2="627" y2="829" class="s"></line>
<line x1="629" y1="694" x2="629" y2="835" class="s"></line>
<line x1="632" y1="700" x2="632" y2="829" class="s"></line>
<text x="640" y="678" class="t" text-anchor="start">TURB-2</text>
<line x1="634" y1="694" x2="634" y2="835" class="s"></line>
<line x1="637" y1="688" x2="637" y2="841" class="s"></line>
<line x1="640" y1="694" x2="640" y2="835" class="s"></line>
<line x1="642" y1="688" x2="642" y2="841" class="s"></line>
<line x1="645" y1="694" x2="645" y2="835" class="s"></line>
<line x1="647" y1="688" x2="647" y2="841" class="s"></line>
<line x1="650" y1="694" x2="650" y2="835" class="s"></line>
<line x1="653" y1="688" x2="653" y2="841" class="s"></line>
<line x1="655" y1="694" x2="655" y2="835" class="s"></line>
<line x1="658" y1="688" x2="658" y2="841" class="s"></line>
<line x1="660" y1="694" x2="660" y2="835" class="s"></line>
<line x1="663" y1="688" x2="663" y2="841" class="s"></line>
<line x1="666" y1="694" x2="666" y2="835" class="s"></line>
<line x1="668" y1="688" x2="668" y2="841" class="s"></line>
<line x1="671" y1="694" x2="671" y2="835" class="s"></line>
<line x1="673" y1="688" x2="673" y2="841" class="s"></line>
<line x1="676" y1="694" x2="676" y2="835" class="s"></line>
<line x1="679" y1="688" x2="679" y2="841" class="s"></line>
<rect x="681" y="702" width="93" height="124" class="hatch"></rect>
<text x="687" y="692" class="t" text-anchor="start">A/B CASE</text>
<line x1="825" y1="739" x2="825" y2="791" class="s"></line>
<text x="831" y="735" class="t" text-anchor="start">THROAT</text>
<line x1="775" y1="705" x2="900" y2="705" class="dim"></line>
<line x1="775" y1="699" x2="775" y2="711" class="dim"></line>
<line x1="900" y1="699" x2="900" y2="711" class="dim"></line>
<text x="837" y="695" class="t" text-anchor="middle">Nozzle L 48.0 mm</text>
<text x="956" y="757" class="t" text-anchor="start">EXHAUST</text>
<line x1="890" y1="765" x2="950" y2="765" class="s"></line>
<text x="120" y="675" class="t" text-anchor="start">EPS 12.00</text>
<line x1="76" y1="765" x2="132" y2="765" class="s"></line>
<text x="70" y="757" class="t" text-anchor="end">INLET</text>
<line x1="208" y1="765" x2="850" y2="765" class="s"></line>
<circle cx="174" cy="765" r="10" class="s"></circle>
<text x="186" y="759" class="t" text-anchor="start">BEARING POCKET L</text>
<circle cx="845" cy="765" r="10" class="s"></circle>
<text x="857" y="759" class="t" text-anchor="start">BEARING POCKET R</text>
<rect x="260" y="805" width="32" height="20" class="s"></rect>
<text x="276" y="801" class="t" text-anchor="middle">71 STARTER (130)</text>
<line x1="276" y1="805" x2="276" y2="765" class="dim"></line>
<g><rect x="1080.0" y="120" width="320" height="240" class="s"></rect>
<text x="1092.0" y="144" class="tb">SECTION A–A (FAN)</text>
<circle cx="1240" cy="240" r="84" class="s"></circle>
<circle cx="1240" cy="240" r="22" class="s"></circle>
<line x1="1262" y1="240" x2="1314" y2="240" class="s"></line>
<line x1="1259" y1="249" x2="1306" y2="272" class="s"></line>
<line x1="1253" y1="257" x2="1286" y2="297" class="s"></line>
<line x1="1244" y1="261" x2="1256" y2="312" class="s"></line>
<line x1="1235" y1="261" x2="1223" y2="312" class="s"></line>
<line x1="1226" y1="257" x2="1193" y2="297" class="s"></line>
<line x1="1220" y1="249" x2="1173" y2="272" class="s"></line>
<line x1="1218" y1="240" x2="1166" y2="240" class="s"></line>
<line x1="1220" y1="230" x2="1173" y2="207" class="s"></line>
<line x1="1226" y1="222" x2="1193" y2="182" class="s"></line>
<line x1="1235" y1="218" x2="1223" y2="167" class="s"></line>
<line x1="1244" y1="218" x2="1256" y2="167" class="s"></line>
<line x1="1253" y1="222" x2="1286" y2="182" class="s"></line>
<line x1="1259" y1="230" x2="1306" y2="207" class="s"></line>
<line x1="1275" y1="248" x2="1294" y2="252" class="dim"></line>
<line x1="1268" y1="262" x2="1283" y2="274" class="dim"></line>
<line x1="1255" y1="272" x2="1264" y2="290" class="dim"></line>
<line x1="1240" y1="276" x2="1240" y2="296" class="dim"></line>
<line x1="1224" y1="272" x2="1215" y2="290" class="dim"></line>
<line x1="1211" y1="262" x2="1196" y2="274" class="dim"></line>
<line x1="1204" y1="248" x2="1185" y2="252" class="dim"></line>
<line x1="1204" y1="231" x2="1185" y2="227" class="dim"></line>
<line x1="1211" y1="217" x2="1196" y2="205" class="dim"></line>
<line x1="1224" y1="207" x2="1215" y2="189" class="dim"></line>
<line x1="1240" y1="204" x2="1240" y2="184" class="dim"></line>
<line x1="1255" y1="207" x2="1264" y2="189" class="dim"></line>
<line x1="1268" y1="217" x2="1283" y2="205" class="dim"></line>
<line x1="1275" y1="231" x2="1294" y2="227" class="dim"></line>
</g>
<g><rect x="1080.0" y="470" width="320" height="240" class="s"></rect>
<text x="1092.0" y="494" class="tb">SECTION B–B (COMP)</text>
<circle cx="1240" cy="590" r="84" class="s"></circle>
<circle cx="1240" cy="590" r="22" class="s"></circle>
<line x1="1262" y1="590" x2="1314" y2="590" class="s"></line>
<line x1="1260" y1="598" x2="1308" y2="618" class="s"></line>
<line x1="1255" y1="605" x2="1292" y2="642" class="s"></line>
<line x1="1248" y1="610" x2="1268" y2="658" class="s"></line>
<line x1="1240" y1="612" x2="1240" y2="664" class="s"></line>
<line x1="1231" y1="610" x2="1211" y2="658" class="s"></line>
<line x1="1224" y1="605" x2="1187" y2="642" class="s"></line>
<line x1="1219" y1="598" x2="1171" y2="618" class="s"></line>
<line x1="1218" y1="590" x2="1166" y2="590" class="s"></line>
<line x1="1219" y1="581" x2="1171" y2="561" class="s"></line>
<line x1="1224" y1="574" x2="1187" y2="537" class="s"></line>
<line x1="1231" y1="569" x2="1211" y2="521" class="s"></line>
<line x1="1240" y1="568" x2="1240" y2="516" class="s"></line>
<line x1="1248" y1="569" x2="1268" y2="521" class="s"></line>
<line x1="1255" y1="574" x2="1292" y2="537" class="s"></line>
<line x1="1260" y1="581" x2="1308" y2="561" class="s"></line>
<line x1="1275" y1="597" x2="1294" y2="600" class="dim"></line>
<line x1="1269" y1="610" x2="1286" y2="621" class="dim"></line>
<line x1="1260" y1="619" x2="1271" y2="636" class="dim"></line>
<line x1="1247" y1="625" x2="1250" y2="644" class="dim"></line>
<line x1="1232" y1="625" x2="1229" y2="644" class="dim"></line>
<line x1="1219" y1="619" x2="1208" y2="636" class="dim"></line>
<line x1="1210" y1="610" x2="1193" y2="621" class="dim"></line>
<line x1="1204" y1="597" x2="1185" y2="600" class="dim"></line>
<line x1="1204" y1="582" x2="1185" y2="579" class="dim"></line>
<line x1="1210" y1="569" x2="1193" y2="558" class="dim"></line>
<line x1="1219" y1="560" x2="1208" y2="543" class="dim"></line>
<line x1="1232" y1="554" x2="1229" y2="535" class="dim"></line>
<line x1="1247" y1="554" x2="1250" y2="535" class="dim"></line>
<line x1="1260" y1="560" x2="1271" y2="543" class="dim"></line>
<line x1="1269" y1="569" x2="1286" y2="558" class="dim"></line>
<line x1="1275" y1="582" x2="1294" y2="579" class="dim"></line>
</g>
<g><rect x="1080.0" y="820" width="320" height="240" class="s"></rect>
<text x="1092.0" y="844" class="tb">SECTION C–C (TURBINE)</text>
<circle cx="1240" cy="940" r="84" class="s"></circle>
<circle cx="1240" cy="940" r="22" class="s"></circle>
<line x1="1262" y1="940" x2="1314" y2="940" class="s"></line>
<line x1="1260" y1="947" x2="1309" y2="965" class="s"></line>
<line x1="1256" y1="954" x2="1296" y2="987" class="s"></line>
<line x1="1251" y1="959" x2="1277" y2="1004" class="s"></line>
<line x1="1243" y1="961" x2="1252" y2="1012" class="s"></line>
<line x1="1236" y1="961" x2="1227" y2="1012" class="s"></line>
<line x1="1229" y1="959" x2="1203" y2="1004" class="s"></line>
<line x1="1223" y1="954" x2="1183" y2="987" class="s"></line>
<line x1="1219" y1="947" x2="1170" y2="965" class="s"></line>
<line x1="1218" y1="940" x2="1166" y2="940" class="s"></line>
<line x1="1219" y1="932" x2="1170" y2="914" class="s"></line>
<line x1="1223" y1="925" x2="1183" y2="892" class="s"></line>
<line x1="1229" y1="920" x2="1203" y2="875" class="s"></line>
<line x1="1236" y1="918" x2="1227" y2="867" class="s"></line>
<line x1="1243" y1="918" x2="1252" y2="867" class="s"></line>
<line x1="1251" y1="920" x2="1277" y2="875" class="s"></line>
<line x1="1256" y1="925" x2="1296" y2="892" class="s"></line>
<line x1="1260" y1="932" x2="1309" y2="914" class="s"></line>
<line x1="1275" y1="946" x2="1295" y2="949" class="dim"></line>
<line x1="1271" y1="958" x2="1288" y2="968" class="dim"></line>
<line x1="1263" y1="967" x2="1275" y2="982" class="dim"></line>
<line x1="1252" y1="973" x2="1259" y2="992" class="dim"></line>
<line x1="1240" y1="976" x2="1240" y2="996" class="dim"></line>
<line x1="1227" y1="973" x2="1220" y2="992" class="dim"></line>
<line x1="1216" y1="967" x2="1204" y2="982" class="dim"></line>
<line x1="1208" y1="958" x2="1191" y2="968" class="dim"></line>
<line x1="1204" y1="946" x2="1184" y2="949" class="dim"></line>
<line x1="1204" y1="933" x2="1184" y2="930" class="dim"></line>
<line x1="1208" y1="922" x2="1191" y2="912" class="dim"></line>
<line x1="1216" y1="912" x2="1204" y2="897" class="dim"></line>
<line x1="1227" y1="906" x2="1220" y2="887" class="dim"></line>
<line x1="1240" y1="904" x2="1240" y2="884" class="dim"></line>
<line x1="1252" y1="906" x2="1259" y2="887" class="dim"></line>
<line x1="1263" y1="912" x2="1275" y2="897" class="dim"></line>
<line x1="1271" y1="922" x2="1288" y2="912" class="dim"></line>
<line x1="1275" y1="933" x2="1295" y2="930" class="dim"></line>
</g>
<g><rect x="1080.0" y="1170" width="320" height="240" class="s"></rect>
<text x="1092" y="1194" class="tb" text-anchor="start">SECTION D–D (COMBUSTOR ANNULUS)</text>
<circle cx="1240" cy="1290" r="88" class="s"></circle>
<circle cx="1240" cy="1290" r="64" class="s"></circle>
<circle cx="1240" cy="1290" r="40" class="s"></circle>
<text x="1240" y="1386" class="t" text-anchor="middle">outer | liner | core</text>
</g>
<g><rect x="1080.0" y="1520" width="320" height="240" class="s"></rect>
<text x="1092" y="1544" class="tb" text-anchor="start">SECTION E–E (NOZZLE)</text>
<circle cx="1240" cy="1640" r="45" class="s"></circle>
<circle cx="1240" cy="1640" r="16" class="dim"></circle>
<text x="1240" y="1736" class="t" text-anchor="middle">exit (outer)  /  throat (dim)</text>
</g>
<g><rect x="1080.0" y="1870" width="320" height="240" class="s"></rect>
<text x="1092" y="1894" class="tb" text-anchor="start">SECTION F–F (BEARING POCKET)</text>
<circle cx="1240" cy="1990" r="60" class="s"></circle>
<circle cx="1240" cy="1990" r="36" class="s"></circle>
<circle cx="1240" cy="1990" r="12" class="s"></circle>
<text x="1240" y="2086" class="t" text-anchor="middle">seat | race | shaft</text>
</g>
<rect x="120" y="1270" width="280" height="110" class="s"></rect>
<text x="128" y="1290" class="tb" text-anchor="start">TWIN STARTER SCHEMATIC</text>
<circle cx="190" cy="1338" r="28" class="s"></circle>
<circle cx="330" cy="1338" r="28" class="s"></circle>
<rect x="256" y="1328" width="32" height="20" class="s"></rect>
<line x1="256" y1="1338" x2="218" y2="1338" class="s"></line>
<line x1="288" y1="1338" x2="302" y2="1338" class="s"></line>
<text x="272" y="1362" class="t" text-anchor="middle">MOTOR 130</text>
<text x="190" y="1370" class="t" text-anchor="middle">LEFT SHAFT</text>
<text x="330" y="1370" class="t" text-anchor="middle">RIGHT SHAFT</text>
<rect x="120" y="1150" width="640" height="110" class="s"></rect>
<text x="132" y="1174" class="tb" text-anchor="start">J58 TWIN — INTERNAL MASTER BLUEPRINT</text>
<text x="132" y="1194" class="t" text-anchor="start">REV: H5  DATE: 2025-09-25</text>
<text x="132" y="1214" class="t" text-anchor="start">EPS 12.00 | engine_cc 120.0 | drive_z 60.0 mm</text>
<text x="132" y="1234" class="t" text-anchor="start">Stages: inlet, fan (rotor/stator), compressor(2), combustor liner + flameholder + AB ring, turbine(2), AB case, nozzle.</text>
<rect x="778" y="1150" width="260" height="110" class="s"></rect>
<text x="788" y="1174" class="tb" text-anchor="start">LEGEND</text>
<rect x="790" y="1186" width="18" height="10" class="hatch"></rect>
<text x="816" y="1194" class="t" text-anchor="start">Afterburner case / hatch</text>
<rect x="790" y="1206" width="18" height="10" class="hatch2"></rect>
<text x="816" y="1214" class="t" text-anchor="start">Service hatch (combustor)</text>
<line x1="790" y1="1226" x2="808" y2="1226" class="s"></line>
<text x="816" y="1230" class="t" text-anchor="start">Rotor/Stator tick bands</text>
<circle cx="799" cy="1248" r="5" class="s"></circle>
<text x="816" y="1252" class="t" text-anchor="start">Bearing pocket / rings</text>
</svg>