<svg xmlns="http://www.w3.org/2000/svg" viewBox="0 0 360 220">
  <rect width="360" height="220" fill="#050d18"/>
  <defs><pattern id="g" width="18" height="18" patternUnits="userSpaceOnUse"><path d="M18 0H0V18" fill="none" stroke="rgba(72,118,174,.14)" stroke-width=".45"/></pattern><style>.skin{fill:rgba(8,28,48,.70);stroke:rgba(133,190,255,.88);stroke-width:1.05}.sys{fill:rgba(8,28,48,.55);stroke:rgba(137,255,168,.50);stroke-width:.78}.sub{fill:none;stroke:rgba(133,190,255,.42);stroke-width:.65}.txt{font-family:ui-monospace,Consolas,monospace;font-size:8px;letter-spacing:.12em;fill:rgba(230,236,245,.72)}.micro{font-family:ui-monospace,Consolas,monospace;font-size:5.5px;letter-spacing:.1em;fill:rgba(118,169,232,.58)}</style></defs>
  <rect width="360" height="220" fill="url(#g)"/>
  <text x="14" y="20" class="txt">P10 DROOP NOSE MECHANISM</text>
  <path class="skin" d="M28 124 C58 96 106 84 162 86 L320 96 C334 100 342 108 342 116 C342 124 334 132 320 136 L162 146 C106 148 58 144 28 124 Z"/>
  <path class="sys" d="M42 120 C72 108 112 106 146 108 L136 128 C96 130 64 128 42 120 Z"/>
  <path class="sub" d="M146 108 L172 92M146 128 L174 144M166 92 L166 144M196 98 L196 138"/>
  <path class="sys" d="M198 112 H282 L266 126 H198 Z"/>
  <text x="56" y="190" class="micro">12.5 DEG JACK LINKAGE - VISOR LOCK - TITANIUM HINGE</text>
</svg>
