<svg xmlns="http://www.w3.org/2000/svg" viewBox="0 0 420 300"><rect width="420" height="300" fill="#050d18"/><defs><pattern id="g" width="20" height="20" patternUnits="userSpaceOnUse"><path d="M20 0L0 0 0 20" fill="none" stroke="rgba(39,74,121,.13)" stroke-width=".4"/></pattern><style>.sk{fill:#081c30;stroke:rgba(100,160,240,.78);stroke-width:1.3;vector-effect:non-scaling-stroke}.pa{fill:rgba(100,160,240,.04);stroke:rgba(100,160,240,.38);stroke-width:.85;stroke-dasharray:5 4;vector-effect:non-scaling-stroke}.ma{fill:none;stroke:rgba(100,160,240,.5);stroke-width:1.1;vector-effect:non-scaling-stroke}.mi{fill:none;stroke:rgba(100,160,240,.22);stroke-width:.7;vector-effect:non-scaling-stroke}.nz{fill:#050d18;stroke:rgba(137,255,168,.45);stroke-width:1;vector-effect:non-scaling-stroke}.cl{fill:none;stroke:rgba(159,211,255,.3);stroke-width:.6;stroke-dasharray:4 3;vector-effect:non-scaling-stroke}.ct{font-family:ui-monospace,monospace;font-size:7px;fill:rgba(230,236,245,.6)}.ti{font-family:ui-monospace,monospace;font-size:7.5px;letter-spacing:.22em;fill:rgba(159,211,255,.52)}.mc{font-family:ui-monospace,monospace;font-size:5.5px;fill:rgba(100,160,240,.32)}.rv{fill:rgba(100,160,240,.25);stroke:none}</style></defs><rect width="420" height="300" fill="url(#g)"/><text x="12" y="16" class="ti">MAGAZINE RING (24-POCKET)</text>
<text x="12" y="26" class="mc">CAST IRON FC250 · Ø800mm · PRECISION ±0.01° POCKET SPACING · BALANCED</text>
<!-- outer ring -->
<circle cx="210" cy="155" r="120" class="sk"/>
<!-- inner ring bore -->
<circle cx="210" cy="155" r="95" class="pa"/>
<circle cx="210" cy="155" r="70" class="nz"/>
<!-- 24 pockets around ring, shown at 15° intervals -->
<circle cx="210" cy="35" r="8" class="pa"/>
<circle cx="241" cy="38" r="8" class="pa"/>
<circle cx="270" cy="48" r="8" class="pa"/>
<circle cx="294" cy="65" r="8" class="pa"/>
<circle cx="312" cy="87" r="8" class="pa"/>
<circle cx="323" cy="113" r="8" class="pa"/>
<circle cx="325" cy="140" r="8" class="pa"/>
<circle cx="320" cy="167" r="8" class="pa"/>
<circle cx="308" cy="192" r="8" class="pa"/>
<circle cx="290" cy="213" r="8" class="pa"/>
<circle cx="267" cy="228" r="8" class="pa"/>
<circle cx="241" cy="237" r="8" class="pa"/>
<circle cx="210" cy="240" r="8" class="pa"/>
<circle cx="179" cy="237" r="8" class="pa"/>
<circle cx="153" cy="228" r="8" class="pa"/>
<circle cx="130" cy="213" r="8" class="pa"/>
<circle cx="112" cy="192" r="8" class="pa"/>
<circle cx="100" cy="167" r="8" class="pa"/>
<circle cx="95" cy="140" r="8" class="pa"/>
<circle cx="97" cy="113" r="8" class="pa"/>
<circle cx="108" cy="87" r="8" class="pa"/>
<circle cx="126" cy="65" r="8" class="pa"/>
<circle cx="150" cy="48" r="8" class="pa"/>
<circle cx="179" cy="38" r="8" class="pa"/>
<!-- drive ring gear (outer OD) -->
<circle cx="210" cy="155" r="117" class="mi"/>
<!-- center hub bore -->
<circle cx="210" cy="155" r="40" class="pa"/>
<!-- callouts -->
<line x1="210" y1="35" x2="330" y2="20" class="cl"/><text x="332" y="18" class="ct">BT40 Pocket x24</text>
<line x1="330" y1="125" x2="390" y2="105" class="cl"/><text x="392" y="103" class="ct">±0.01° Spacing</text>
<line x1="330" y1="175" x2="390" y2="185" class="cl"/><text x="392" y="183" class="ct">Ø800mm OD Ring</text>
<line x1="170" y1="155" x2="60" y2="140" class="cl"/><text x="10" y="138" class="ct">FC250 Cast Iron</text>
<line x1="210" y1="195" x2="60" y2="210" class="cl"/><text x="10" y="208" class="ct">Center Drive Bore</text>
<text x="210" y="292" text-anchor="middle" class="mc">CNC TOOL CHANGER · P1 MAGAZINE RING · 24-POCKET · Ø800mm</text>
</svg>