<svg xmlns="http://www.w3.org/2000/svg" viewBox="0 0 420 300"><rect width="420" height="300" fill="#050d18"/><defs><pattern id="g" width="20" height="20" patternUnits="userSpaceOnUse"><path d="M20 0L0 0 0 20" fill="none" stroke="rgba(39,74,121,.13)" stroke-width=".4"/></pattern><style>.sk{fill:#081c30;stroke:rgba(100,160,240,.78);stroke-width:1.3;vector-effect:non-scaling-stroke}.pa{fill:rgba(100,160,240,.04);stroke:rgba(100,160,240,.38);stroke-width:.85;stroke-dasharray:5 4;vector-effect:non-scaling-stroke}.ma{fill:none;stroke:rgba(100,160,240,.5);stroke-width:1.1;vector-effect:non-scaling-stroke}.mi{fill:none;stroke:rgba(100,160,240,.22);stroke-width:.7;vector-effect:non-scaling-stroke}.nz{fill:#050d18;stroke:rgba(137,255,168,.45);stroke-width:1;vector-effect:non-scaling-stroke}.cl{fill:none;stroke:rgba(159,211,255,.3);stroke-width:.6;stroke-dasharray:4 3;vector-effect:non-scaling-stroke}.ct{font-family:ui-monospace,monospace;font-size:7px;fill:rgba(230,236,245,.6)}.ti{font-family:ui-monospace,monospace;font-size:7.5px;letter-spacing:.22em;fill:rgba(159,211,255,.52)}.mc{font-family:ui-monospace,monospace;font-size:5.5px;fill:rgba(100,160,240,.32)}.rv{fill:rgba(100,160,240,.25);stroke:none}</style></defs><rect width="420" height="300" fill="url(#g)"/><text x="12" y="16" class="ti">TOOL POSITION SENSOR ARRAY</text>
<text x="12" y="26" class="mc">BCD + PROXIMITY SENSOR PER POCKET · TOOL-PRESENCE DETECTION · SPINDLE SYNC</text>
<!-- sensor mounting ring -->
<circle cx="210" cy="150" r="105" class="sk"/>
<circle cx="210" cy="150" r="88" class="pa"/>
<circle cx="210" cy="150" r="65" class="nz"/>
<!-- proximity sensors around ring, 8 shown -->
<rect x="202" y="42" width="16" height="12" rx="2" class="pa"/>
<rect x="270" y="68" width="12" height="16" rx="2" class="pa"/>
<rect x="306" y="142" width="12" height="16" rx="2" class="pa"/>
<rect x="270" y="218" width="12" height="16" rx="2" class="pa"/>
<rect x="202" y="244" width="16" height="12" rx="2" class="pa"/>
<rect x="136" y="218" width="12" height="16" rx="2" class="pa"/>
<rect x="102" y="142" width="12" height="16" rx="2" class="pa"/>
<rect x="136" y="68" width="12" height="16" rx="2" class="pa"/>
<!-- BCD encoder disk section -->
<circle cx="210" cy="150" r="78" class="mi"/>
<!-- signal wiring harness indication -->
<path d="M210 85 Q240 100 250 150" class="mi"/>
<path d="M210 85 Q240 110 270 135" class="mi"/>
<!-- central signal hub -->
<circle cx="210" cy="150" r="22" class="pa"/>
<circle cx="210" cy="150" r="12" class="nz"/>
<!-- callouts -->
<line x1="210" y1="42" x2="330" y2="28" class="cl"/><text x="332" y="26" class="ct">Proximity Sensor x24</text>
<line x1="318" y1="150" x2="390" y2="135" class="cl"/><text x="392" y="133" class="ct">BCD Encoder Ring</text>
<line x1="270" y1="218" x2="360" y2="230" class="cl"/><text x="362" y="228" class="ct">Tool Present Signal</text>
<line x1="188" y1="150" x2="60" y2="135" class="cl"/><text x="10" y="133" class="ct">Signal Hub Board</text>
<line x1="150" y1="190" x2="50" y2="210" class="cl"/><text x="10" y="208" class="ct">Spindle Orient Sync</text>
<text x="210" y="292" text-anchor="middle" class="mc">CNC TOOL CHANGER · P6 SENSOR ARRAY · BCD + PROX · PRESENCE DETECT</text>
</svg>