<svg xmlns="http://www.w3.org/2000/svg" viewBox="0 0 420 300"><rect width="420" height="300" fill="#050d18"/><defs><pattern id="g" width="20" height="20" patternUnits="userSpaceOnUse"><path d="M20 0L0 0 0 20" fill="none" stroke="rgba(39,74,121,.13)" stroke-width=".4"/></pattern><style>.sk{fill:#081c30;stroke:rgba(100,160,240,.78);stroke-width:1.3;vector-effect:non-scaling-stroke}.pa{fill:rgba(100,160,240,.04);stroke:rgba(100,160,240,.38);stroke-width:.85;stroke-dasharray:5 4;vector-effect:non-scaling-stroke}.ma{fill:none;stroke:rgba(100,160,240,.5);stroke-width:1.1;vector-effect:non-scaling-stroke}.mi{fill:none;stroke:rgba(100,160,240,.22);stroke-width:.7;vector-effect:non-scaling-stroke}.nz{fill:#050d18;stroke:rgba(137,255,168,.45);stroke-width:1;vector-effect:non-scaling-stroke}.cl{fill:none;stroke:rgba(159,211,255,.3);stroke-width:.6;stroke-dasharray:4 3;vector-effect:non-scaling-stroke}.ct{font-family:ui-monospace,monospace;font-size:7px;fill:rgba(230,236,245,.6)}.ti{font-family:ui-monospace,monospace;font-size:7.5px;letter-spacing:.22em;fill:rgba(159,211,255,.52)}.mc{font-family:ui-monospace,monospace;font-size:5.5px;fill:rgba(100,160,240,.32)}.rv{fill:rgba(100,160,240,.25);stroke:none}</style></defs><rect width="420" height="300" fill="url(#g)"/><text x="12" y="16" class="ti">PUSH-ROD</text>
<text x="12" y="26" class="mc">TITANIUM TUBE · M12 ROSE JOINTS · ADJUSTABLE ±15mm · BUCKLING LOAD 8kN</text>
<!-- push-rod tube body -->
<rect x="60" y="140" width="300" height="20" rx="4" class="sk"/>
<!-- tube inner wall -->
<rect x="68" y="144" width="284" height="12" rx="2" class="mi"/>
<!-- left rose joint -->
<circle cx="60" cy="150" r="18" class="pa"/>
<circle cx="60" cy="150" r="10" class="nz"/>
<!-- right rose joint -->
<circle cx="360" cy="150" r="18" class="pa"/>
<circle cx="360" cy="150" r="10" class="nz"/>
<!-- left jam nut -->
<rect x="72" y="138" width="20" height="24" rx="2" class="sk"/>
<!-- right jam nut -->
<rect x="328" y="138" width="20" height="24" rx="2" class="sk"/>
<!-- thread indication -->
<line x1="72" y1="145" x2="92" y2="145" class="mi"/>
<line x1="72" y1="150" x2="92" y2="150" class="mi"/>
<line x1="72" y1="155" x2="92" y2="155" class="mi"/>
<line x1="328" y1="145" x2="348" y2="145" class="mi"/>
<line x1="328" y1="150" x2="348" y2="150" class="mi"/>
<line x1="328" y1="155" x2="348" y2="155" class="mi"/>
<!-- adjustment range arrows -->
<line x1="200" y1="125" x2="215" y2="125" class="ma"/>
<line x1="220" y1="125" x2="235" y2="125" class="ma"/>
<text x="218" y="122" text-anchor="middle" class="mc">±15mm</text>
<!-- length dimension -->
<line x1="60" y1="185" x2="360" y2="185" class="ma"/>
<line x1="60" y1="180" x2="60" y2="190" class="mi"/>
<line x1="360" y1="180" x2="360" y2="190" class="mi"/>
<text x="210" y="198" text-anchor="middle" class="mc">~350mm NOMINAL</text>
<!-- callouts -->
<line x1="60" y1="132" x2="38" y2="90" class="cl"/><text x="10" y="88" class="ct">Rose Joint M12 RH</text>
<line x1="80" y1="138" x2="80" y2="60" class="cl"/><text x="50" y="56" class="ct">Jam Nut Lock</text>
<line x1="210" y1="140" x2="210" y2="60" class="cl"/><text x="170" y="56" class="ct">Ti Tube Ø18×1.5t</text>
<line x1="360" y1="132" x2="382" y2="90" class="cl"/><text x="382" y="88" class="ct">Rose Joint M12 LH</text>
<line x1="210" y1="160" x2="380" y2="210" class="cl"/><text x="382" y="208" class="ct">8kN Buckling Rated</text>
<text x="210" y="292" text-anchor="middle" class="mc">SUSPENSION ASSY · P4 PUSH-ROD · Ti TUBE · M12 ROSE · ±15mm ADJ</text>
</svg>