<svg xmlns="http://www.w3.org/2000/svg" width="398" height="331" viewBox="0 0 398 331"><rect width="100%" height="100%" fill="#f7f9fb"/><rect width="100%" height="100%" fill="#0a1626"/><text x="40" y="24" font-size="13" fill="#9fd3ff" font-weight="bold">robot_arm_serviceability_redesign_v1 rev 1.0 · PETG + TPU pads · 17 parts · 배치 투영도</text><rect x="40" y="56" width="66" height="66" fill="#0c1e35" stroke="#274a79"/><text x="40" y="50" font-size="12" fill="#9fd3ff" font-weight="bold">TOP (X-Y)</text><rect x="40.0" y="56.0" width="66.0" height="66.0" fill="#ffd39f" fill-opacity="0.18" stroke="#ffd39f" stroke-width="0.8"/><rect x="49.9" y="65.9" width="46.2" height="46.2" fill="#ffd39f" fill-opacity="0.18" stroke="#ffd39f" stroke-width="0.8"/><rect x="48.8" y="64.8" width="48.4" height="48.4" fill="#9fd3ff" fill-opacity="0.18" stroke="#9fd3ff" stroke-width="0.8"/><rect x="53.8" y="70.3" width="38.5" height="37.4" fill="#9fd3ff" fill-opacity="0.18" stroke="#9fd3ff" stroke-width="0.8"/><rect x="59.8" y="78.0" width="26.4" height="22.0" fill="#ffd39f" fill-opacity="0.18" stroke="#ffd39f" stroke-width="0.8"/><rect x="57.6" y="74.2" width="30.8" height="29.7" fill="#9fd3ff" fill-opacity="0.18" stroke="#9fd3ff" stroke-width="0.8"/><rect x="62.5" y="79.7" width="20.9" height="18.7" fill="#ffd39f" fill-opacity="0.18" stroke="#ffd39f" stroke-width="0.8"/><rect x="61.5" y="78.0" width="23.1" height="22.0" fill="#9fd3ff" fill-opacity="0.18" stroke="#9fd3ff" stroke-width="0.8"/><rect x="64.2" y="80.2" width="17.6" height="17.6" fill="#9fd3ff" fill-opacity="0.18" stroke="#9fd3ff" stroke-width="0.8"/><rect x="60.9" y="76.9" width="24.2" height="24.2" fill="#ffd39f" fill-opacity="0.18" stroke="#ffd39f" stroke-width="0.8"/><rect x="62.0" y="80.8" width="22.0" height="16.5" fill="#ffd39f" fill-opacity="0.18" stroke="#ffd39f" stroke-width="0.8"/><rect x="78.0" y="81.3" width="5.5" height="15.4" fill="#89ffa8" fill-opacity="0.18" stroke="#89ffa8" stroke-width="0.8"/><rect x="62.5" y="81.3" width="5.5" height="15.4" fill="#89ffa8" fill-opacity="0.18" stroke="#89ffa8" stroke-width="0.8"/><rect x="48.2" y="85.2" width="7.7" height="7.7" fill="#89ffa8" fill-opacity="0.18" stroke="#89ffa8" stroke-width="0.8"/><rect x="51.0" y="79.1" width="11.0" height="19.8" fill="#9fd3ff" fill-opacity="0.18" stroke="#9fd3ff" stroke-width="0.8"/><rect x="51.0" y="80.8" width="11.0" height="16.5" fill="#9fd3ff" fill-opacity="0.18" stroke="#9fd3ff" stroke-width="0.8"/><rect x="51.0" y="83.0" width="11.0" height="12.1" fill="#9fd3ff" fill-opacity="0.18" stroke="#9fd3ff" stroke-width="0.8"/><rect x="146.0" y="56" width="66" height="235" fill="#0c1e35" stroke="#274a79"/><text x="146.0" y="50" font-size="12" fill="#9fd3ff" font-weight="bold">FRONT (X-Z)</text><rect x="146.0" y="281.0" width="66.0" height="9.9" fill="#ffd39f" fill-opacity="0.18" stroke="#ffd39f" stroke-width="0.8"/><rect x="155.9" y="262.2" width="46.2" height="19.8" fill="#ffd39f" fill-opacity="0.18" stroke="#ffd39f" stroke-width="0.8"/><rect x="154.8" y="250.2" width="48.4" height="16.5" fill="#9fd3ff" fill-opacity="0.18" stroke="#9fd3ff" stroke-width="0.8"/><rect x="159.8" y="223.2" width="38.5" height="37.4" fill="#9fd3ff" fill-opacity="0.18" stroke="#9fd3ff" stroke-width="0.8"/><rect x="165.8" y="175.9" width="26.4" height="60.5" fill="#ffd39f" fill-opacity="0.18" stroke="#ffd39f" stroke-width="0.8"/><rect x="163.6" y="158.3" width="30.8" height="29.7" fill="#9fd3ff" fill-opacity="0.18" stroke="#9fd3ff" stroke-width="0.8"/><rect x="168.6" y="115.4" width="20.9" height="55.0" fill="#ffd39f" fill-opacity="0.18" stroke="#ffd39f" stroke-width="0.8"/><rect x="167.4" y="101.7" width="23.1" height="22.0" fill="#9fd3ff" fill-opacity="0.18" stroke="#9fd3ff" stroke-width="0.8"/><rect x="170.2" y="91.8" width="17.6" height="14.3" fill="#9fd3ff" fill-opacity="0.18" stroke="#9fd3ff" stroke-width="0.8"/><rect x="166.9" y="86.8" width="24.2" height="4.4" fill="#ffd39f" fill-opacity="0.18" stroke="#ffd39f" stroke-width="0.8"/><rect x="168.0" y="76.3" width="22.0" height="9.9" fill="#ffd39f" fill-opacity="0.18" stroke="#ffd39f" stroke-width="0.8"/><rect x="183.9" y="56.0" width="5.5" height="22.0" fill="#89ffa8" fill-opacity="0.18" stroke="#89ffa8" stroke-width="0.8"/><rect x="168.6" y="56.0" width="5.5" height="22.0" fill="#89ffa8" fill-opacity="0.18" stroke="#89ffa8" stroke-width="0.8"/><rect x="154.2" y="104.4" width="7.7" height="165.0" fill="#89ffa8" fill-opacity="0.18" stroke="#89ffa8" stroke-width="0.8"/><rect x="157.0" y="232.0" width="11.0" height="19.8" fill="#9fd3ff" fill-opacity="0.18" stroke="#9fd3ff" stroke-width="0.8"/><rect x="157.0" y="164.9" width="11.0" height="16.5" fill="#9fd3ff" fill-opacity="0.18" stroke="#9fd3ff" stroke-width="0.8"/><rect x="157.0" y="106.6" width="11.0" height="12.1" fill="#9fd3ff" fill-opacity="0.18" stroke="#9fd3ff" stroke-width="0.8"/><rect x="252.0" y="56" width="66" height="235" fill="#0c1e35" stroke="#274a79"/><text x="252.0" y="50" font-size="12" fill="#9fd3ff" font-weight="bold">SIDE (Y-Z)</text><rect x="252.0" y="281.0" width="66.0" height="9.9" fill="#ffd39f" fill-opacity="0.18" stroke="#ffd39f" stroke-width="0.8"/><rect x="261.9" y="262.2" width="46.2" height="19.8" fill="#ffd39f" fill-opacity="0.18" stroke="#ffd39f" stroke-width="0.8"/><rect x="260.8" y="250.2" width="48.4" height="16.5" fill="#9fd3ff" fill-opacity="0.18" stroke="#9fd3ff" stroke-width="0.8"/><rect x="266.3" y="223.2" width="37.4" height="37.4" fill="#9fd3ff" fill-opacity="0.18" stroke="#9fd3ff" stroke-width="0.8"/><rect x="274.0" y="175.9" width="22.0" height="60.5" fill="#ffd39f" fill-opacity="0.18" stroke="#ffd39f" stroke-width="0.8"/><rect x="270.1" y="158.3" width="29.7" height="29.7" fill="#9fd3ff" fill-opacity="0.18" stroke="#9fd3ff" stroke-width="0.8"/><rect x="275.6" y="115.4" width="18.7" height="55.0" fill="#ffd39f" fill-opacity="0.18" stroke="#ffd39f" stroke-width="0.8"/><rect x="274.0" y="101.7" width="22.0" height="22.0" fill="#9fd3ff" fill-opacity="0.18" stroke="#9fd3ff" stroke-width="0.8"/><rect x="276.2" y="91.8" width="17.6" height="14.3" fill="#9fd3ff" fill-opacity="0.18" stroke="#9fd3ff" stroke-width="0.8"/><rect x="272.9" y="86.8" width="24.2" height="4.4" fill="#ffd39f" fill-opacity="0.18" stroke="#ffd39f" stroke-width="0.8"/><rect x="276.8" y="76.3" width="16.5" height="9.9" fill="#ffd39f" fill-opacity="0.18" stroke="#ffd39f" stroke-width="0.8"/><rect x="277.3" y="56.0" width="15.4" height="22.0" fill="#89ffa8" fill-opacity="0.18" stroke="#89ffa8" stroke-width="0.8"/><rect x="277.3" y="56.0" width="15.4" height="22.0" fill="#89ffa8" fill-opacity="0.18" stroke="#89ffa8" stroke-width="0.8"/><rect x="281.1" y="104.4" width="7.7" height="165.0" fill="#89ffa8" fill-opacity="0.18" stroke="#89ffa8" stroke-width="0.8"/><rect x="275.1" y="232.0" width="19.8" height="19.8" fill="#9fd3ff" fill-opacity="0.18" stroke="#9fd3ff" stroke-width="0.8"/><rect x="276.8" y="164.9" width="16.5" height="16.5" fill="#9fd3ff" fill-opacity="0.18" stroke="#9fd3ff" stroke-width="0.8"/><rect x="278.9" y="106.6" width="12.1" height="12.1" fill="#9fd3ff" fill-opacity="0.18" stroke="#9fd3ff" stroke-width="0.8"/><text x="40" y="317" font-size="10" fill="#8ba3c7"><tspan fill="#9fd3ff">■</tspan>internal <tspan fill="#89ffa8">■</tspan>external <tspan fill="#ffd39f">■</tspan>structure · 치수선 없는 배치 투영</text></svg>