<svg xmlns="http://www.w3.org/2000/svg" viewBox="0 0 420 300">
  <rect width="420" height="300" fill="#050d18"/>
  <defs><pattern id="g" width="20" height="20" patternUnits="userSpaceOnUse"><path d="M20 0 L0 0 0 20" fill="none" stroke="rgba(72,118,174,.14)" stroke-width=".45"/></pattern><style>.skin{fill:rgba(8,28,48,.72);stroke:rgba(133,190,255,.86);stroke-width:1.2}.detail{fill:none;stroke:rgba(133,190,255,.36);stroke-width:.7}.hot{fill:none;stroke:rgba(137,255,168,.55);stroke-width:.85}.txt{font-family:ui-monospace,Menlo,Consolas,monospace;font-size:8px;letter-spacing:.12em;fill:rgba(230,236,245,.68)}.micro{font-family:ui-monospace,Menlo,Consolas,monospace;font-size:6px;letter-spacing:.12em;fill:rgba(118,169,232,.5)}</style></defs>
  <rect width="420" height="300" fill="url(#g)"/>
  <text x="16" y="22" class="txt">P5 TWIN VERTICAL STABILIZERS</text><text x="16" y="36" class="micro">RUDDER HINGE · RWR TIP FAIRING · FORMATION LIGHT STRIPS</text>
  <polygon points="120,238 152,82 216,238" class="skin"/>
  <polygon points="204,238 268,82 300,238" class="skin"/>
  <path class="detail" d="M150 104 L204 238 M270 104 L216 238 M168 142 L190 142 M252 142 L230 142"/>
  <path class="hot" d="M184 110 L204 220 M236 110 L216 220"/>
  <circle cx="152" cy="82" r="6" class="detail"/><circle cx="268" cy="82" r="6" class="detail"/>
  <text x="340" y="86" class="micro" text-anchor="end">RWR TIP</text><path d="M268 82 L330 84" class="detail"/>
  <text x="340" y="152" class="micro" text-anchor="end">RUDDER HINGE</text><path d="M236 150 L330 150" class="detail"/>
</svg>
