<svg xmlns="http://www.w3.org/2000/svg" viewBox="0 0 360 220"><rect width="360" height="220" fill="#050d18"/><defs><pattern id="g" width="18" height="18" patternUnits="userSpaceOnUse"><path d="M18 0H0V18" fill="none" stroke="rgba(72,118,174,.14)" stroke-width=".45"/></pattern><style>.skin{fill:rgba(8,28,48,.68);stroke:rgba(133,190,255,.86);stroke-width:1.05}.sub{fill:none;stroke:rgba(137,255,168,.45);stroke-width:.75}.txt{font-family:ui-monospace,Consolas,monospace;font-size:8px;letter-spacing:.12em;fill:rgba(230,236,245,.72)}.micro{font-family:ui-monospace,Consolas,monospace;font-size:5.5px;letter-spacing:.1em;fill:rgba(118,169,232,.58)}</style></defs><rect width="360" height="220" fill="url(#g)"/><text x="14" y="20" class="txt">P9 NACELLE + INLET COWL</text><path class="skin" d="M36 60 H292 C326 70 342 92 342 112 C342 132 326 154 292 164 H36 C60 138 60 86 36 60 Z"/><path class="sub" d="M58 72H286M58 152H286M70 112H326M88 72C116 96 116 128 88 152M276 72C304 92 304 132 276 152"/><text x="56" y="198" class="micro">BELLMOUTH INLET - ANTI-ICE LIP - FAN COWL DOORS</text></svg>
