<svg xmlns="http://www.w3.org/2000/svg" viewBox="0 0 420 300"><rect width="420" height="300" fill="#050d18"/><defs><pattern id="g" width="20" height="20" patternUnits="userSpaceOnUse"><path d="M20 0L0 0 0 20" fill="none" stroke="rgba(39,74,121,.13)" stroke-width=".4"/></pattern><style>.sk{fill:#081c30;stroke:rgba(100,160,240,.78);stroke-width:1.3;vector-effect:non-scaling-stroke}.pa{fill:rgba(100,160,240,.04);stroke:rgba(100,160,240,.38);stroke-width:.85;stroke-dasharray:5 4;vector-effect:non-scaling-stroke}.ma{fill:none;stroke:rgba(100,160,240,.5);stroke-width:1.1;vector-effect:non-scaling-stroke}.mi{fill:none;stroke:rgba(100,160,240,.22);stroke-width:.7;vector-effect:non-scaling-stroke}.nz{fill:#050d18;stroke:rgba(137,255,168,.45);stroke-width:1;vector-effect:non-scaling-stroke}.cl{fill:none;stroke:rgba(159,211,255,.3);stroke-width:.6;stroke-dasharray:4 3;vector-effect:non-scaling-stroke}.ct{font-family:ui-monospace,monospace;font-size:7px;fill:rgba(230,236,245,.6)}.ti{font-family:ui-monospace,monospace;font-size:7.5px;letter-spacing:.22em;fill:rgba(159,211,255,.52)}.mc{font-family:ui-monospace,monospace;font-size:5.5px;fill:rgba(100,160,240,.32)}.rv{fill:rgba(100,160,240,.25);stroke:none}</style></defs><rect width="420" height="300" fill="url(#g)"/><text x="14" y="18" class="ti">SHOULDER JOINT J2 · HARMONIC ±120°</text>
<rect x="100" y="60" width="220" height="180" rx="8" class="sk"/>
<rect x="112" y="72" width="196" height="156" rx="5" class="pa"/>
<circle cx="210" cy="150" r="56" class="ma"/>
<circle cx="210" cy="150" r="40" class="pa"/>
<circle cx="210" cy="150" r="22" class="nz"/>
<circle cx="210" cy="150" r="8" class="sk"/>
<line x1="154" y1="150" x2="100" y2="150" class="mi"/>
<line x1="266" y1="150" x2="320" y2="150" class="mi"/>
<path d="M154 150 A56 56 0 0 1 210 94" class="mi" stroke-dasharray="4 3"/>
<path d="M154 150 A56 56 0 0 0 210 206" class="mi" stroke-dasharray="4 3"/>
<text x="130" y="108" class="mc">±120°</text>
<rect x="112" y="72" width="40" height="20" rx="1" class="pa"/>
<text x="132" y="86" text-anchor="middle" class="mc">ENCODER</text>
<rect x="252" y="228" width="60" height="12" rx="1" class="ma"/>
<text x="282" y="238" text-anchor="middle" class="mc">CABLE BORE</text>
<path d="M210 94 L240 44 L380 44" class="cl"/><text x="382" y="41" text-anchor="start" class="ct">Harmonic Drive 80Nm</text>
<path d="M266 150 L320 100 L406 100" class="cl"/><text x="406" y="97" text-anchor="end" class="ct">Pitch Axis (±120°)</text>
<path d="M132 72 L100 36 L14 36" class="cl"/><text x="12" y="33" text-anchor="end" class="ct">Dual-Stack Encoder</text>
<path d="M282 228 L282 270 L140 270" class="cl"/><text x="138" y="267" text-anchor="end" class="ct">Center Bore Cable Route</text>
<text x="210" y="290" text-anchor="middle" class="mc">FRONT VIEW · J2 SHOULDER · 80Nm · CABLE BORE</text>
</svg>