<svg xmlns="http://www.w3.org/2000/svg" viewBox="0 0 420 300"><rect width="420" height="300" fill="#050d18"/><defs><pattern id="g" width="20" height="20" patternUnits="userSpaceOnUse"><path d="M20 0L0 0 0 20" fill="none" stroke="rgba(39,74,121,.13)" stroke-width=".4"/></pattern><style>.sk{fill:#081c30;stroke:rgba(100,160,240,.78);stroke-width:1.3;vector-effect:non-scaling-stroke}.pa{fill:rgba(100,160,240,.04);stroke:rgba(100,160,240,.38);stroke-width:.85;stroke-dasharray:5 4;vector-effect:non-scaling-stroke}.ma{fill:none;stroke:rgba(100,160,240,.5);stroke-width:1.1;vector-effect:non-scaling-stroke}.mi{fill:none;stroke:rgba(100,160,240,.22);stroke-width:.7;vector-effect:non-scaling-stroke}.nz{fill:#050d18;stroke:rgba(137,255,168,.45);stroke-width:1;vector-effect:non-scaling-stroke}.cl{fill:none;stroke:rgba(159,211,255,.3);stroke-width:.6;stroke-dasharray:4 3;vector-effect:non-scaling-stroke}.ct{font-family:ui-monospace,monospace;font-size:7px;fill:rgba(230,236,245,.6)}.ti{font-family:ui-monospace,monospace;font-size:7.5px;letter-spacing:.22em;fill:rgba(159,211,255,.52)}.mc{font-family:ui-monospace,monospace;font-size:5.5px;fill:rgba(100,160,240,.32)}.rv{fill:rgba(100,160,240,.25);stroke:none}</style></defs><rect width="420" height="300" fill="url(#g)"/><text x="14" y="18" class="ti">UPPER ARM LINK · 300mm · Al 7075</text>
<rect x="28" y="132" width="364" height="36" rx="5" class="sk"/>
<rect x="36" y="138" width="348" height="24" rx="3" class="pa"/>
<line x1="60" y1="132" x2="80" y2="168" class="mi"/>
<line x1="110" y1="132" x2="130" y2="168" class="mi"/>
<line x1="160" y1="132" x2="180" y2="168" class="mi"/>
<line x1="210" y1="132" x2="230" y2="168" class="mi"/>
<line x1="260" y1="132" x2="280" y2="168" class="mi"/>
<line x1="310" y1="132" x2="330" y2="168" class="mi"/>
<rect x="48" y="138" width="36" height="24" rx="2" class="nz"/>
<text x="66" y="154" text-anchor="middle" class="mc">J2 BORE</text>
<rect x="336" y="138" width="36" height="24" rx="2" class="nz"/>
<text x="354" y="154" text-anchor="middle" class="mc">J3 BORE</text>
<line x1="36" y1="182" x2="384" y2="182" class="mi"/>
<line x1="36" y1="178" x2="36" y2="186" class="mi"/><line x1="384" y1="178" x2="384" y2="186" class="mi"/>
<text x="210" y="198" text-anchor="middle" class="mc">300mm LINK LENGTH</text>
<circle cx="210" cy="150" r="0"/>
<line x1="210" y1="120" x2="210" y2="104" class="mi"/>
<rect x="180" y="100" width="60" height="18" rx="2" class="pa"/>
<text x="210" y="113" text-anchor="middle" class="mc">CABLE CONDUIT Ø12mm</text>
<path d="M66 132 L46 70 L14 70" class="cl"/><text x="12" y="67" text-anchor="end" class="ct">J2 Interface Bore</text>
<path d="M354 132 L374 70 L406 70" class="cl"/><text x="406" y="67" text-anchor="end" class="ct">J3 Interface Bore</text>
<path d="M210 100 L210 54 L310 54" class="cl"/><text x="312" y="51" text-anchor="start" class="ct">Hollow Cable Conduit</text>
<path d="M210 150 L180 230 L14 230" class="cl"/><text x="12" y="227" text-anchor="end" class="ct">Al 7075 Tube Wall t=3mm</text>
<text x="210" y="290" text-anchor="middle" class="mc">SIDE VIEW · UPPER ARM 300mm · HOLLOW TUBE</text>
</svg>